<svg xmlns="http://www.w3.org/2000/svg" viewBox="0 0 403.46 466.26"><defs><style>.cls-1{fill:#2e588e;}.cls-1,.cls-2{fill-rule:evenodd;}.cls-2{fill:#c2d5ed;}.cls-3{fill:#fff;}</style></defs><g id="Layer_2" data-name="Layer 2"><g id="Layer_1-2" data-name="Layer 1"><path class="cls-1" d="M20.86,96.08l129.7-81.33A10.14,10.14,0,0,1,163.65,17a7.88,7.88,0,0,1-2.09,11.78L25.67,114a95.85,95.85,0,0,0,8.14,17.28l150-94.05a10.15,10.15,0,0,1,13.1,2.25,7.87,7.87,0,0,1-2.1,11.78L44.44,145.54a94.29,94.29,0,0,0,13.62,12.19l1.22.89L205.65,66.83a10.14,10.14,0,0,1,13.09,2.25,7.88,7.88,0,0,1-2.09,11.78L76.52,168.73a166.72,166.72,0,0,0,22,8.63l114.46-71.78A10.13,10.13,0,0,1,226,107.84a7.88,7.88,0,0,1-2.09,11.78L122,183.54l1.69.37c8.59,1.81,17.29,3.32,26,4.64l60.47-37.92a10.14,10.14,0,0,1,13.09,2.25,7.88,7.88,0,0,1-2.09,11.78l-43.9,27.53c9.28,1.09,18.54,2.11,27.75,3.17,27.28,3.16,55,6.6,81.73,13.14,24.59,6,49,15,69,29.86,34,25.36,46,61.32,47.62,99.42l.09,2.08c-7.53,3.18-16.36-2.26-19.07-12.25-6.74-24.83-14.88-48.55-38.18-65.58-18.91-13.82-42.82-21.22-66-26-27-5.6-54.88-8.24-82.23-11.39-27-3.11-54.48-6.6-80.87-13.17-24.45-6.09-48.69-15.09-68.54-30C13.31,155,1.89,117.35,1.22,77.94L0,28.13c10.39,33.15,12.5,42.55,20.86,68"/><path class="cls-2" d="M281.57,429.77l110-106.51a10.14,10.14,0,0,0,.94-13.25,7.88,7.88,0,0,0-11.93-.78L265.32,420.82a96.8,96.8,0,0,1-14.84-12L377.66,285.62a10.16,10.16,0,0,0,.94-13.25,7.87,7.87,0,0,0-11.94-.78L239.18,395.06a93.22,93.22,0,0,1-8.59-16.14l-.57-1.4,124.1-120.2a10.13,10.13,0,0,0,.94-13.25,7.87,7.87,0,0,0-11.94-.78L224.32,358.36A166.64,166.64,0,0,1,221.18,335l97.05-94a10.13,10.13,0,0,0,.94-13.25,7.88,7.88,0,0,0-11.94-.78L220.8,310.67c0-.57,0-1.15,0-1.73.29-8.78.9-17.58,1.71-26.38l51.28-49.66a10.16,10.16,0,0,0,.94-13.25,7.89,7.89,0,0,0-11.94-.79l-37.22,36c1.15-9.26,2.38-18.5,3.55-27.7,3.45-27.24,6.74-55,6.77-82.5,0-25.32-2.82-51.16-12.51-74.13-16.5-39.1-48.56-59.32-85.16-70l-2-.59c-4.88,6.56-1.7,16.43,7.35,21.45,22.49,12.47,43.58,26.05,54.55,52.74,8.9,21.66,10.38,46.65,9.51,70.34-1,27.52-5.11,55.25-8.58,82.56-3.43,27-6.61,54.48-6.54,81.68.07,25.19,3,50.89,12.73,73.71,17.23,40.53,51.09,60.63,89.21,70.7l48.07,13.08c-29.71-18-38.33-22.31-61-36.49"/><path d="M150.84,187.6a1.68,1.68,0,0,1-.86-1.49,5.56,5.56,0,0,1,.72-3,9.71,9.71,0,0,1,3-3.4,11.25,11.25,0,0,1,11.13-1,9.66,9.66,0,0,1,3.61,2.79,5.5,5.5,0,0,1,1.26,2.81,1.69,1.69,0,0,1-.57,1.63c-.88.59-2.25.15-3.86-.2a14.5,14.5,0,0,0-10.71,1C153.08,187.34,151.81,188,150.84,187.6Z"/><path d="M265.3,196.24c-.94.48-2.17,0-3.53-.34a21.06,21.06,0,0,0-4.4-.89,20.1,20.1,0,0,0-4.48.33c-1.4.19-2.68.47-3.55-.12a1.69,1.69,0,0,1-.65-1.53,4.75,4.75,0,0,1,1-2.57,8.44,8.44,0,0,1,3.13-2.59,10,10,0,0,1,9.91.64,8.5,8.5,0,0,1,2.77,3,4.82,4.82,0,0,1,.66,2.68A1.69,1.69,0,0,1,265.3,196.24Z"/><path d="M220,232.6c.59.84.33,2.21-.8,3.76a10.17,10.17,0,0,1-2.46,2.36,11.71,11.71,0,0,1-4.16,1.8,9.16,9.16,0,0,1-8.51-2.35,4.37,4.37,0,0,1-1.25-2.6,1.63,1.63,0,0,1,.68-1.53,3.17,3.17,0,0,1,1.55-.36l1.78,0a26.8,26.8,0,0,0,4.2-.46c1.68-.35,3.58-1,5.28-1.27S219.37,231.74,220,232.6Z"/><circle cx="169.41" cy="209.45" r="12.01"/><circle class="cls-3" cx="164.02" cy="205.82" r="2.58"/><circle class="cls-3" cx="164.89" cy="213.99" r="1.64"/><circle cx="250.04" cy="216.18" r="12.01"/><circle class="cls-3" cx="257.41" cy="213.38" r="2.58"/><circle class="cls-3" cx="256.2" cy="221.15" r="1.64"/></g></g></svg>