<svg xmlns="http://www.w3.org/2000/svg" viewBox="0 0 224.27 155.29"><defs><style>.cls-1{isolation:isolate;}.cls-2{fill:#6d0013;}.cls-3{fill:#ae4540;}.cls-4{opacity:0.15;mix-blend-mode:overlay;}.cls-5{fill:#fff;}</style></defs><g class="cls-1"><g id="Layer_2" data-name="Layer 2"><g id="Layer_1-2" data-name="Layer 1"><path class="cls-2" d="M132.89,6.6s-33.82-4-46.47,7.87c-12.5,11.69-.7,88.77-.7,88.77s29.61,9.86,54.11-16.46C164.91,59.84,141.58,6.1,132.89,6.6Z"/><path class="cls-3" d="M110.83,86.57c-.67,2.93-1.2,6.12.06,8.76,2.18,4.57,8.35,5,13.35,4.18,22.56-3.6,78.23-46.87,86.78-53.57,3.87-3,7.84-6.18,10.51-10.34s3.78-9.65,1.53-13.74c-2.11-3.82-6.51-5.59-10.65-7A274.36,274.36,0,0,0,136.35.17c-8.46-.41-17.22-.35-25.11,3.24a9,9,0,0,0-3.55,2.49c-1.75,2.25-1.47,5.52-.23,7.92s3.25,4.22,5,6.29c7,8.57,8.3,21.11,6.68,32.65S113.38,75.3,110.83,86.57Z"/><path class="cls-3" d="M3.12,57.48c-6.29,15.68-1.9,41,2.87,56.89,1.56,5.21,3.84,10.15,5.41,15.38A59.91,59.91,0,0,1,13.93,147a12.22,12.22,0,0,0,.59,4.87,6.32,6.32,0,0,0,6.38,3.43c2.53-.21,4.86-1.55,7-3,11.32-7.77,19.79-19.72,31.16-27.92,14.3-10.31,32-13.94,49.28-18.38,1.62-.42,3.57-1.18,3.84-2.89.23-1.46-.93-2.65-1.77-3.81-3-4.2-2.37-10.16-1.24-15.41,2-9.22,5-18.29,6.46-27.65s1.23-19.38-3-27.51C110.17,24,102.15,8.12,96.79,7.05c-14.46-2.91-45.57,6.24-52.27,9C31.53,21.31,11.9,35.58,3.12,57.48Z"/><path class="cls-4" d="M144.74,71.8a229.43,229.43,0,0,0,50.75-26.26c6.33-4.33,13.3-10.81,12-18.13C206.27,21,199.34,18,193.2,16.18a226.64,226.64,0,0,0-66.85-9.29c-2.26,0-10.38-.1-10.3,3.62,0,1.26,1.46,2.44,2.13,3.3a36.41,36.41,0,0,1,3.15,4.92,38.07,38.07,0,0,1,3.86,11.19c1.13,6.39.66,13-.42,19.5-1,6.28-3.49,12.67-2.93,19a7.74,7.74,0,0,0,1.23,4,7.06,7.06,0,0,0,4.77,2.39C133.45,75.61,139.24,73.81,144.74,71.8Z"/><path class="cls-4" d="M79,13.6l-.55.09a139.58,139.58,0,0,0-25.22,6.7C41.53,24.48,29.56,29.66,20.75,39,11.28,49.06,8.45,63,7.57,76.48c-.8,12.39,6.35,40.91,15.65,43.44,7.2,2,14.79-2.81,21.31-7S57,103.5,63.36,98.77C72.39,92.05,82.26,86.44,91,79s16.66-17.27,19.11-28.85c2.76-13-2.25-27.09-12.27-34.52C92.74,11.85,85,12.7,79,13.6Z"/><circle cx="91.29" cy="55.71" r="7.1"/><circle class="cls-5" cx="87.96" cy="52.88" r="1.52"/><circle class="cls-5" cx="86.76" cy="57.7" r="0.82"/><circle cx="134.4" cy="55.71" r="7.1"/><circle class="cls-5" cx="139.14" cy="56.6" r="0.82"/><circle class="cls-5" cx="136.89" cy="51.98" r="1.52"/><path d="M135.36,42.26c0-.25.56-.52,1.52-.61a6.12,6.12,0,0,1,3.8.85,6,6,0,0,1,2.4,3.07c.31.9.33,1.51.1,1.62s-.7-.27-1.28-.93a10.5,10.5,0,0,0-2.25-2.13A10.72,10.72,0,0,0,136.76,43C135.92,42.75,135.36,42.54,135.36,42.26Z"/><path d="M88.69,44.73c0,.27-.64.4-1.5.52a4.88,4.88,0,0,0-2.66,1,11.74,11.74,0,0,0-1.84,2.51c-.47.75-.83,1.24-1.1,1.16s-.34-.69-.17-1.64a6.44,6.44,0,0,1,.51-1.64,5.29,5.29,0,0,1,1.34-1.85,4.18,4.18,0,0,1,2.18-1,5,5,0,0,1,1.81.09C88.22,44.12,88.73,44.48,88.69,44.73Z"/><path d="M104.72,75c0,.28-.34.59-1,.68a3.77,3.77,0,0,1-2.45-.62,3.66,3.66,0,0,1-1.62-2c-.19-.68,0-1.12.25-1.21s.61.15,1,.42.86.6,1.48,1,1.13.67,1.57.93S104.71,74.68,104.72,75Z"/></g></g></g></svg>