<svg xmlns="http://www.w3.org/2000/svg" xmlns:xlink="http://www.w3.org/1999/xlink" viewBox="0 0 907.95 2404.28"><defs><style>.cls-1{fill:#fff;}.cls-2,.cls-3{fill:#f1d2be;}.cls-15,.cls-2,.cls-4{stroke:#000;stroke-miterlimit:10;stroke-width:0.25px;}.cls-4{fill:none;}.cls-5{fill:#dead8e;}.cls-6{fill:#04162e;}.cls-7{clip-path:url(#clip-path);}.cls-8{fill:#f4f4f4;}.cls-9{fill:#dbd6d1;}.cls-10{fill:#4a2e38;}.cls-11{fill:#cfa184;}.cls-12{fill:#d7bea6;}.cls-13{fill:#465958;}.cls-14,.cls-15{fill:#dedcdd;}.cls-16{fill:#f9f3f7;}.cls-17{opacity:0.38;}.cls-18{fill:#e38dac;opacity:0.35;}.cls-19{fill-rule:evenodd;}</style><clipPath id="clip-path" transform="translate(-7820.29 3515.9)"><path class="cls-1" d="M7886.3-3065.35,7841.69-2972a8,8,0,0,0,4,10.76l47.63,21.35a8,8,0,0,0,10.49-3.86l44.73-93.78a8,8,0,0,0-4-10.78l-47.74-20.92A8,8,0,0,0,7886.3-3065.35Z"/></clipPath></defs><g id="Layer_2" data-name="Layer 2"><g id="creation_people_character" data-name="creation people character"><path class="cls-2" d="M8655.83-2972s40.71-64.46,52.76-80.61.57-28.4-10.44-13.64-41,60.94-49.48,65.46-1.86-56.55-1.52-76.82-16.27-23.51-19.37-6.61-6.36,81.76-5.42,88.2S8655.83-2972,8655.83-2972Z" transform="translate(-7820.29 3515.9)"/><path class="cls-3" d="M8599-2982.91c-1.62,5.9-1.15,53.7,17.85,65.46s53-13.55,64.8-32.56-11.68-36.57-30.68-48.33S8604.93-3004.46,8599-2982.91Z" transform="translate(-7820.29 3515.9)"/><path class="cls-4" d="M8622.22-3003.61c-10.81,2.18-20,9.16-23.21,20.7-1.62,5.9-1.15,53.7,17.85,65.46s53-13.55,64.8-32.56a22,22,0,0,0,1.55-3,11.06,11.06,0,0,0,.65-2" transform="translate(-7820.29 3515.9)"/><path class="cls-2" d="M8673.72-3000.57c-13.35,15.82-36.75,39.39-27.65,48.41,9.51,9.43,28.17-16.52,41.53-32.34s11-21.53,6.83-25S8687.08-3016.4,8673.72-3000.57Z" transform="translate(-7820.29 3515.9)"/><path class="cls-2" d="M8683.71-2983.28c-10.82,12.84-28.61,32.81-22.16,39.35,6.74,6.85,23.52-13,34.34-25.88s7.85-18.17,4.84-20.63S8694.53-2996.12,8683.71-2983.28Z" transform="translate(-7820.29 3515.9)"/><path class="cls-5" d="M8650.9-2970.08a9.54,9.54,0,0,0,2.86,12.66c4.71,3.08,9.89,1.1,13.59-2.5,4.81-4.69,9.08-10.1,13.36-15.28s8.65-10.76,12.78-16.3c.82-1.11-1-2.18-1.84-1.09q-9.94,13.35-21,25.84c-3,3.4-6.69,8.84-11.76,8.75a7.33,7.33,0,0,1-6.19-11c.67-1.21-1.17-2.3-1.84-1.09Z" transform="translate(-7820.29 3515.9)"/><path class="cls-5" d="M8662.57-2956.77a6.51,6.51,0,0,0,1.91,9.75c4.32,2.52,9.4.48,13-2.29,9.23-7.09,16.44-16.87,23.46-26,.84-1.1-1-2.17-1.84-1.09-5.59,7.3-11.27,14.58-17.9,21-3,2.86-6.33,6.37-10.52,7.25-2.19.46-4.86.11-6.38-1.69a4.2,4.2,0,0,1-.24-5.35c.89-1-.61-2.57-1.51-1.52Z" transform="translate(-7820.29 3515.9)"/><path class="cls-5" d="M8603.13-2955.22q14-10.41,28-20.94c2.69-2,5.38-4.09,8-6.17s5.63-4.28,6.76-7.65a6,6,0,0,0-2.58-7.18c-3.47-2.17-8.2-1.64-12-.65-9.36,2.48-18.58,5.71-27.84,8.57a1,1,0,0,0,.53,1.82l20.72-6.39c4.72-1.46,9.89-3.7,14.93-2.7,3,.6,5.5,2.78,4.34,6.06s-4.25,5.23-6.81,7.21-5,3.88-7.57,5.8q-8.61,6.53-17.27,13-5.11,3.83-10.25,7.62c-1,.72,0,2.36,1,1.64Z" transform="translate(-7820.29 3515.9)"/><path class="cls-3" d="M7831.88-2959.16l64.05-55.14,18.8,38.89s12.26-14.05,23.48-20.37a5.94,5.94,0,0,1,8.08,2.82l1,2a10.13,10.13,0,0,1,.53,7.49c-4,12.21-7.94,24.31-12.47,42.69a34.69,34.69,0,0,1-18.55,22.91l-21.36,10.33a34.73,34.73,0,0,1-46.38-16.14Z" transform="translate(-7820.29 3515.9)"/><path class="cls-3" d="M7907.65-2893.26l8.22-4.15a22.66,22.66,0,0,0,10.58-29.3l-.28-.63s-.06-.38-.14-.94l-49.35,23.87A22.67,22.67,0,0,0,7907.65-2893.26Z" transform="translate(-7820.29 3515.9)"/><path class="cls-6" d="M7884.06-3081,7828-2963.64a10.07,10.07,0,0,0,5,13.53l59.86,26.83a10.06,10.06,0,0,0,13.2-4.85L7962.22-3046a10,10,0,0,0-5-13.54l-60-26.3A10.05,10.05,0,0,0,7884.06-3081Z" transform="translate(-7820.29 3515.9)"/><path class="cls-1" d="M7886.3-3065.35,7841.69-2972a8,8,0,0,0,4,10.76l47.63,21.35a8,8,0,0,0,10.49-3.86l44.73-93.78a8,8,0,0,0-4-10.78l-47.74-20.92A8,8,0,0,0,7886.3-3065.35Z" transform="translate(-7820.29 3515.9)"/><g class="cls-7"><path class="cls-8" d="M7966.39-3043.64c-1.44,1.21-143.12,73.6-143.12,73.6L7884.06-3081Z" transform="translate(-7820.29 3515.9)"/></g><path class="cls-3" d="M7886.21-2983.1h0a9.12,9.12,0,0,0-.69-12.49l-30.7-30a10.77,10.77,0,0,0-15.67.86h0a10.77,10.77,0,0,0,1.24,15.12l32.9,27.54A9.13,9.13,0,0,0,7886.21-2983.1Z" transform="translate(-7820.29 3515.9)"/><path class="cls-3" d="M7872.9-2972.86h0a8.84,8.84,0,0,0-.82-12.08l-26.19-24.55a10.43,10.43,0,0,0-15.17,1h0a10.43,10.43,0,0,0,1.38,14.62l28.3,22.17A8.84,8.84,0,0,0,7872.9-2972.86Z" transform="translate(-7820.29 3515.9)"/><path class="cls-3" d="M7862.48-2961.14h0a8.48,8.48,0,0,0-1-11.57l-20.93-18.86a10,10,0,0,0-14.58.7h0a10,10,0,0,0,1.6,14l22.9,16.62A8.49,8.49,0,0,0,7862.48-2961.14Z" transform="translate(-7820.29 3515.9)"/><path class="cls-3" d="M7855.79-2951h0a8.31,8.31,0,0,0-.77-11.36l-18.25-13.77a9.81,9.81,0,0,0-14.26,1h0a9.83,9.83,0,0,0,1.3,13.76L7844-2949.9A8.32,8.32,0,0,0,7855.79-2951Z" transform="translate(-7820.29 3515.9)"/><path class="cls-3" d="M8185.06-1266.5c4.66,23.54,9.06,49.2-1.94,70.53-7.08,13.74-19.91,23.88-33.95,30.35-18.08,8.34-41.5,10.33-56.25-3-12.35-11.19-14.86-29.34-16.61-45.91-3.47-32.94-6.94-66.26-2.41-99.07.77-5.59,2.1-11.71,6.64-15.07,3.43-2.53,7.94-2.91,12.19-3.15q20.07-1.17,40.17-1.24c13.32,0,37.51.47,43.62,15.2C8182.29-1304,8182-1281.7,8185.06-1266.5Z" transform="translate(-7820.29 3515.9)"/><path class="cls-9" d="M7928.11-1200c-13.19,4.35-26.61,8.52-38.44,15.8s-22.11,18.17-25.48,31.64,1.66,29.49,13.84,36.17c9.59,5.25,284,5.44,312.34,2.62,6.59-.65,13.38-1.72,18.92-5.33,13.18-8.59,14.2-27.25,12.95-42.93q-1.62-20.32-5.14-40.44c-.9-5.12-2-10.42-5.1-14.56-3.45-4.56-8.9-7.1-14.26-9.09a129.54,129.54,0,0,0-66.68-6.26c-11,1.89-22,5.23-33.16,4.4-14.76-1.11-22.15-9.2-32.61-18-7.71-6.49-5.17-6.94-16.14-1.93-7.9,3.61-15.79,7.23-23.75,10.71Q7977.67-1216.31,7928.11-1200Z" transform="translate(-7820.29 3515.9)"/><path class="cls-10" d="M8002.5-1167.73c-1.06.4-3.08-2.48-6.09-7-.75-1.12-1.55-2.36-2.46-3.65s-1.87-2.67-2.87-4.12c-2.07-2.85-4.4-5.92-7-9s-5.21-5.94-7.63-8.49c-1.25-1.25-2.39-2.48-3.53-3.57s-2.18-2.14-3.15-3.08c-3.87-3.77-6.33-6.28-5.75-7.25s4.07-.06,9.09,2.78a42.79,42.79,0,0,1,4,2.52c1.42.94,2.82,2.07,4.31,3.27a72.57,72.57,0,0,1,8.75,8.78,72.66,72.66,0,0,1,7.05,10.2c.91,1.67,1.77,3.26,2.44,4.82s1.28,3,1.76,4.36C8003.29-1171.72,8003.48-1168.08,8002.5-1167.73Z" transform="translate(-7820.29 3515.9)"/><path class="cls-10" d="M8043.81-1174.92c-1,.53-3.64-2.34-7.27-7.28s-8.25-11.88-13.83-18.94a113.57,113.57,0,0,0-15.85-16.45c-4.49-3.8-7.63-6-7.19-7s4.46-.56,10.25,2.38,12.93,8.55,19,16.21a95.3,95.3,0,0,1,12.5,21.07C8043.81-1179.25,8044.75-1175.45,8043.81-1174.92Z" transform="translate(-7820.29 3515.9)"/><path class="cls-1" d="M7878.56-1127.67c9.58,5.26,284,5.44,312.34,2.63,6.58-.66,13.37-1.73,18.92-5.34,9.14-6,11.51-18.66,12.25-29.95.23,18.37,0,33.57-12.25,41.57-5.55,3.61-12.34,4.68-18.92,5.34-28.33,2.81-302.76,2.62-312.34-2.63-11.41-6.25-16.55-20.69-14.39-33.57C7865.64-1140.51,7870.54-1132.06,7878.56-1127.67Z" transform="translate(-7820.29 3515.9)"/><path class="cls-3" d="M8406.34-1270.51c-4.66,23.54-9.06,49.2,1.93,70.53,7.08,13.74,19.91,23.88,34,30.35,18.07,8.34,41.49,10.34,56.25-3,12.35-11.19,14.86-29.34,16.61-45.91,3.47-32.94,6.93-66.26,2.41-99.07-.78-5.59-2.11-11.71-6.65-15.07-3.42-2.53-7.93-2.91-12.18-3.15q-20.07-1.17-40.18-1.23c-13.32-.05-37.5.47-43.61,15.19C8409.11-1308,8409.35-1285.71,8406.34-1270.51Z" transform="translate(-7820.29 3515.9)"/><path class="cls-9" d="M8663.28-1204c13.19,4.35,26.62,8.52,38.45,15.8s22.1,18.17,25.48,31.65-1.67,29.48-13.85,36.16c-9.58,5.25-284,5.44-312.34,2.63-6.58-.66-13.37-1.73-18.92-5.34-13.17-8.59-14.2-27.25-13-42.93q1.62-20.33,5.14-40.44c.9-5.12,2-10.42,5.11-14.56,3.44-4.56,8.9-7.09,14.25-9.09a129.54,129.54,0,0,1,66.68-6.25c11,1.88,22,5.22,33.16,4.39,14.76-1.11,22.16-9.2,32.62-18,7.7-6.48,5.17-6.94,16.14-1.93,7.9,3.61,15.78,7.23,23.74,10.71Q8613.74-1220.32,8663.28-1204Z" transform="translate(-7820.29 3515.9)"/><path class="cls-10" d="M8588.89-1171.74c-1-.35-.79-4,1.1-9.44a43.7,43.7,0,0,1,1.75-4.37c.68-1.56,1.53-3.15,2.44-4.82a74.39,74.39,0,0,1,7-10.2,73.35,73.35,0,0,1,8.76-8.78c1.48-1.2,2.89-2.33,4.3-3.27a44.16,44.16,0,0,1,4-2.52c5-2.84,8.57-3.68,9.1-2.78s-1.88,3.48-5.76,7.25c-1,.94-2,2-3.14,3.08s-2.29,2.32-3.53,3.57c-2.43,2.55-5,5.4-7.64,8.5s-4.9,6.19-7,9c-1,1.45-2,2.8-2.87,4.12s-1.71,2.53-2.47,3.65C8592-1174.21,8590-1171.34,8588.89-1171.74Z" transform="translate(-7820.29 3515.9)"/><path class="cls-10" d="M8547.59-1178.93c-.94-.53,0-4.32,2.43-10a95.2,95.2,0,0,1,12.49-21.07c6-7.66,13.17-13.33,19-16.21s9.89-3.33,10.26-2.38-2.71,3.24-7.19,7a113.19,113.19,0,0,0-15.86,16.46c-5.58,7.05-10.17,14-13.82,18.93S8548.55-1178.4,8547.59-1178.93Z" transform="translate(-7820.29 3515.9)"/><path d="M8353.46-3479.32c-14.2-3.66-29.19-3.43-43.11,1.9,20.13-14.85,48.15-18.25,71.25-8.66-41.51-28-101.07-25.57-140.22,5.61-29.73,23.68-56.6,56.14-36.88,92.89a135.54,135.54,0,0,1,14.27,44.78c2.45,16.8,9.82,31.41,25.63,38.22,39.8,17.17,107.69,33.06,124.71-6.8,22.28-52.18,57.35-71.26,44.31-112.6C8404.86-3451.11,8380.58-3472.32,8353.46-3479.32Z" transform="translate(-7820.29 3515.9)"/><path d="M8304.42-3512.78a3.84,3.84,0,0,1,0,.76,3.32,3.32,0,0,1-3.58,3.05,91.29,91.29,0,0,0-60.27,17,91.2,91.2,0,0,0-34.54,52.23c-2.72,11.68-2.64,22.23.23,31.35a3.34,3.34,0,0,1-2.18,4.18,3.33,3.33,0,0,1-4.17-2.18c-3.24-10.28-3.36-22-.36-34.86a97.89,97.89,0,0,1,37.1-56.09,97.87,97.87,0,0,1,64.72-18.27A3.34,3.34,0,0,1,8304.42-3512.78Z" transform="translate(-7820.29 3515.9)"/><path d="M8420.55-3425.87a99.5,99.5,0,0,1-10.46,61.19c-17.26,32.48-52.91,57.35-95.36,66.54a3.33,3.33,0,0,1-4-2.55,3.33,3.33,0,0,1,2.55-4c40.56-8.78,74.54-32.39,90.9-63.15a93.66,93.66,0,0,0,9.94-55c-2.43-19.55-11-36.77-24.29-48.45a3.34,3.34,0,0,1-.29-4.7,3.33,3.33,0,0,1,4.7-.29C8408.66-3463.6,8417.6-3445.5,8420.55-3425.87Z" transform="translate(-7820.29 3515.9)"/><rect class="cls-3" x="412.17" y="531.16" width="138.9" height="208.88"/><path class="cls-11" d="M8232.45-2984.74v102.1c18.24,10,39.85,13,60.43,9.85,29.42-3.84,56.47-17.84,78.47-37.88v-74.07Z" transform="translate(-7820.29 3515.9)"/><path class="cls-3" d="M8450.59-2822.41c0,35.49-90.36,199.43-148.69,199.43s-148.7-163.94-148.7-199.43,90.36-36.93,148.7-36.93S8450.59-2857.9,8450.59-2822.41Z" transform="translate(-7820.29 3515.9)"/><polygon class="cls-3" points="599.48 1062.74 637.11 1222.04 332.92 1222.04 367.74 1062.74 599.48 1062.74"/><path class="cls-12" d="M8498.93-2821.33c-8.82-15-127-43.54-127-43.54s-6.9,179.11-69.75,216.25c-62.84-37.14-69.74-216.25-69.74-216.25s-118.17,28.5-127,43.54c-31.8,54.21,43.73,148.31,47.74,202.83s-.29,324.64-.29,324.64h298s-3.72-270.13.29-324.64S8530.73-2767.12,8498.93-2821.33Z" transform="translate(-7820.29 3515.9)"/><path class="cls-13" d="M8153.2-2342.32s-38.54,128.34-36.75,242.72S8027-1286.73,8027-1286.73l229.53,7.68,31.78-560.88s15-173.45,26.66-188.69,49.2-11.62,49.2-11.62l3.56-302.08Z" transform="translate(-7820.29 3515.9)"/><path class="cls-13" d="M8497.88-2342.32s29.74,124.46,28,238.85,41.28,818.65,41.28,818.65l-206.82,6.92-14.5-594.52s1.92-141-9.71-156.2-49.2-11.62-49.2-11.62l-3.57-302.08Z" transform="translate(-7820.29 3515.9)"/><path class="cls-14" d="M8077-2432.59a56,56,0,0,1-6.46-.37,56,56,0,0,1-49.1-62c.77-29.64,4.72-133.55,23.14-225.65,8.2-41,18.06-73.15,29.32-95.69,13.07-26.17,28.12-39.43,44.73-39.43.35,0,.7,0,1.05,0a55.52,55.52,0,0,1,37.36,20.88,55.54,55.54,0,0,1,11.76,41.14c-.75,87.08-12.6,189-36.23,311.66a55.94,55.94,0,0,1-55.56,49.47Z" transform="translate(-7820.29 3515.9)"/><path d="M8118.62-2855.64l1.05,0h0a56,56,0,0,1,49,61.89c-.81,94.41-14.68,199.8-36.24,311.65a56,56,0,0,1-55.44,49.37,56,56,0,0,1-6.44-.38h0a56,56,0,0,1-49-61.88c3.15-120.84,26.22-360.67,97.07-360.67m0-.25c-16.66,0-31.74,13.29-44.84,39.5-11.26,22.56-21.13,54.76-29.33,95.72-18.43,92.11-22.38,196-23.15,225.69a56.12,56.12,0,0,0,49.22,62.14,56,56,0,0,0,6.47.38,56,56,0,0,0,37.11-14.13,55.86,55.86,0,0,0,18.58-35.46c23.64-122.62,35.49-224.58,36.24-311.68a56.13,56.13,0,0,0-49.22-62.14l-1.08,0Z" transform="translate(-7820.29 3515.9)"/><path class="cls-15" d="M7878.69-2901.24l49-16.41,197.89,400.37c14.92,30.2.83,66.66-30.23,78.23h0c-29.38,11-62-4.93-72.25-35.12Z" transform="translate(-7820.29 3515.9)"/><path class="cls-14" d="M8529.41-2426.15a56.26,56.26,0,0,1-55.74-51.32c-19.58-123.33-28.06-225.61-25.94-312.69a56,56,0,0,1,51.12-60.36h0c9.2,0,17.85,4,25.74,12,49.4,49.74,61.31,244.57,60.56,351.85a56,56,0,0,1-51.12,60.36C8532.5-2426.22,8530.94-2426.15,8529.41-2426.15Z" transform="translate(-7820.29 3515.9)"/><path d="M8498.86-2850.39c71.71,0,87,242.21,86.18,363.68a56,56,0,0,1-51,60.24h0c-1.55.13-3.09.19-4.62.19a56,56,0,0,1-55.62-51.2c-17.86-112.5-28.24-218.28-25.93-312.68a56,56,0,0,1,51-60.23h0m0-.25v0a56.12,56.12,0,0,0-51.26,60.5c-2.13,87.06,6.36,189.35,25.94,312.7a56.37,56.37,0,0,0,55.86,51.41c1.54,0,3.1-.06,4.64-.19a56.14,56.14,0,0,0,51.24-60.51c.46-65.7-3.77-139.19-11.3-196.58-4.88-37.11-11.15-68.71-18.65-93.91-8.63-29-18.94-49.62-30.65-61.42-7.91-8-16.6-12-25.82-12Z" transform="translate(-7820.29 3515.9)"/><path class="cls-14" d="M8372.6-2890l-38.87,318.35a1863.79,1863.79,0,0,0-2.3,431.74l16.8,151c12.15,109.19,100.64,191.54,205.82,191.54H8570c38.11-355.44-49.17-518.63-94.4-604.17-35.38-66.89-29.16-121.07-16.3-178.72l50.29-258.15Z" transform="translate(-7820.29 3515.9)"/><path class="cls-16" d="M8372.6-2890l43.51,25.26c19.3,11.21,23.2,31.8,8.81,46.55l-62.81,64.35,29.18,27.63c9.44,8.94,12.21,20.82,7.37,31.61l-65.82,146.74S8336.82-2829.74,8372.6-2890Z" transform="translate(-7820.29 3515.9)"/><path d="M8184-3421.73c.3.1-.17,2.31-1.18,6.23-.49,2-1.12,4.34-1.72,7.12a72.08,72.08,0,0,0-1.52,9.44,42,42,0,0,0,.42,11.32,29,29,0,0,0,4.69,11.69,27.84,27.84,0,0,0,10.72,8.62c4.45,2.15,9.55,3.6,14.85,5.15a91,91,0,0,1,15.54,5.6,35.49,35.49,0,0,1,12.27,10,47.68,47.68,0,0,1,6.77,12.41,90.42,90.42,0,0,1,3.46,11.54c1.68,7.11,2.72,12.85,3.55,16.8.19,1,.37,1.86.52,2.64s.29,1.41.37,1.94c.18,1,.2,1.64,0,1.69s-.47-.44-.93-1.42c-.23-.49-.49-1.1-.8-1.83s-.58-1.6-.93-2.54c-1.37-3.84-2.9-9.55-5-16.43a101.65,101.65,0,0,0-3.85-11,45.52,45.52,0,0,0-6.55-11.18,32,32,0,0,0-11-8.62,94.32,94.32,0,0,0-14.82-5.21,94.8,94.8,0,0,1-15.55-5.52,31.61,31.61,0,0,1-12.22-10.26,32,32,0,0,1-5-13.48,42.64,42.64,0,0,1,.11-12.3,64.26,64.26,0,0,1,2.26-9.72c.86-2.79,1.75-5.12,2.51-7C8182.63-3419.83,8183.66-3421.83,8184-3421.73Z" transform="translate(-7820.29 3515.9)"/><path d="M8414.77-3360.2c.26-.06,1,1.23.76,3.79a15.25,15.25,0,0,1-5,9.26,27.91,27.91,0,0,1-6,4.11c-2.26,1.2-4.73,2.24-7.19,3.37a55,55,0,0,0-14.42,9.33,54.51,54.51,0,0,0-6.12,6.47c-1.79,2.23-3.4,4.65-5.18,6.89a29.37,29.37,0,0,1-5.91,5.88,26.38,26.38,0,0,1-6.43,3.43,23.56,23.56,0,0,1-10.24,1.42c-2.42-.25-3.67-.8-3.63-1.09s1.36-.39,3.6-.69a29.49,29.49,0,0,0,9-2.63,26.1,26.1,0,0,0,5.34-3.43,28.64,28.64,0,0,0,4.89-5.43c1.56-2.15,3.09-4.62,5-7.12a52.82,52.82,0,0,1,6.59-7.11,52.87,52.87,0,0,1,15.81-9.8c2.61-1.06,5-1.94,7.19-2.9a27.64,27.64,0,0,0,5.54-3.16,15.72,15.72,0,0,0,5.4-7.16C8414.48-3358.83,8414.42-3360.15,8414.77-3360.2Z" transform="translate(-7820.29 3515.9)"/><path class="cls-14" d="M8232.29-2892l38.86,318.35a1863.79,1863.79,0,0,1,2.3,431.74l-16.8,151c-12.15,109.19-100.64,191.54-205.81,191.54h-15.91c-38.12-355.44,49.16-518.63,94.4-604.17,35.37-66.89,29.16-121.07,16.3-178.72l-50.3-258.15Z" transform="translate(-7820.29 3515.9)"/><path class="cls-16" d="M8232.29-2892l-43.51,25.26c-19.31,11.21-23.21,31.8-8.81,46.55l62.81,64.35-29.18,27.63c-9.45,8.94-12.22,20.82-7.38,31.61L8272-2549.86S8268.07-2831.74,8232.29-2892Z" transform="translate(-7820.29 3515.9)"/><path class="cls-10" d="M8378.94-3325.9c-92.51-23.92-162.82,22.15-161.21-1.77.38-5.7-3.71-13-1.59-14.93,66.73,18.9,144.78-39,168.37,7.82C8386.84-3332.17,8376.82-3329.67,8378.94-3325.9Z" transform="translate(-7820.29 3515.9)"/><g class="cls-17"><path d="M8312.36-3338.9l.18,0,.55-.1,2.09-.38c1.83-.31,4.47-.73,7.75-1.15a210.67,210.67,0,0,1,25.79-1.67,89.42,89.42,0,0,1,14.21.73,23.53,23.53,0,0,1,6,1.81,22.18,22.18,0,0,1,4.55,2.95c1.29,1,2.44,2,3.52,2.72a12.69,12.69,0,0,0,3,1.55,8.48,8.48,0,0,0,2.8.45s-.06,0-.19,0l-.55,0a7.62,7.62,0,0,1-2.11-.37,11.94,11.94,0,0,1-3-1.51c-1.11-.72-2.28-1.67-3.57-2.68a21.78,21.78,0,0,0-4.52-2.89,23.28,23.28,0,0,0-5.89-1.74,91.15,91.15,0,0,0-14.16-.7,228.91,228.91,0,0,0-25.76,1.55c-3.28.39-5.93.77-7.75,1l-2.11.31-.55.07C8312.43-3338.89,8312.36-3338.89,8312.36-3338.9Z" transform="translate(-7820.29 3515.9)"/></g><g class="cls-17"><path d="M8265.37-3330.65a3.93,3.93,0,0,1-.55.14l-1.58.33-5.82,1.16-8.64,1.67-5.11,1a36.46,36.46,0,0,1-5.56.66,17.81,17.81,0,0,1-10.27-3,35.52,35.52,0,0,1-6.66-5.77c-1.7-1.85-3-3.45-3.82-4.55-.43-.56-.75-1-1-1.29a3.06,3.06,0,0,1-.32-.47,3.4,3.4,0,0,1,.38.42l1,1.25c.89,1.08,2.18,2.64,3.9,4.46A36.91,36.91,0,0,0,8228-3329a17.58,17.58,0,0,0,10.08,2.94,37.58,37.58,0,0,0,5.51-.64l5.11-.95,8.65-1.59,5.84-1.05,1.6-.26A3.17,3.17,0,0,1,8265.37-3330.65Z" transform="translate(-7820.29 3515.9)"/></g><circle class="cls-3" cx="312.48" cy="435.86" r="43.14"/><path class="cls-5" d="M8120.77-3101.36a19.27,19.27,0,0,0-15,15.51c-1.19,7.68,3.08,15.55,9.79,19.23,3,1.64.32,6.22-2.68,4.58a24.51,24.51,0,0,1-12.33-24.51,24.41,24.41,0,0,1,18.84-19.92c3.33-.7,4.76,4.41,1.41,5.11Z" transform="translate(-7820.29 3515.9)"/><circle class="cls-3" cx="631.94" cy="435.86" r="43.14"/><path class="cls-5" d="M8464.22-3101.36a19.26,19.26,0,0,1,15,15.51c1.19,7.68-3.08,15.55-9.79,19.23-3,1.64-.32,6.22,2.68,4.58a24.49,24.49,0,0,0,12.33-24.51,24.4,24.4,0,0,0-18.84-19.92c-3.33-.7-4.75,4.41-1.41,5.11Z" transform="translate(-7820.29 3515.9)"/><path class="cls-3" d="M8457.21-3098.28c0,114-73.3,191.31-163.72,191.31s-163.72-77.36-163.72-191.31,17.26-206.3,163.72-206.3S8457.21-3212.22,8457.21-3098.28Z" transform="translate(-7820.29 3515.9)"/><path d="M8409.29-3206.83a348.38,348.38,0,0,1,3.67,84.72,908.17,908.17,0,0,0-222.85-3.87,587.25,587.25,0,0,1,9.27-93c-17.65,32.81-41.44,112.47-76.7,139-14.85-1.3-22.16-6.5-15.85-37.57,2.68-41,11.51-81.69,30.61-117.88,23.88-45.24,65.34-82.82,115.49-93.55,63.59-21.42,138,.68,181.25,51.2,36.89,43.08,61.2,137.69,45.07,192C8476.58-3085.77,8444-3072.81,8409.29-3206.83Z" transform="translate(-7820.29 3515.9)"/><path d="M8140.19-2950.65c-.62-.1-1.1-1.16-1.44-3-.18-.93-.29-2.05-.51-3.37s-.28-2.82-.56-4.5-.45-3.53-.81-5.54-.76-4.19-1.18-6.51c-1-4.64-2.32-9.87-4.1-15.61s-4-12-6.5-18.75-5.38-14-8.23-21.85a241.31,241.31,0,0,1-8-25.49,113.71,113.71,0,0,1-3.51-29.78c0-1.31.13-2.64.21-4s.18-2.62.38-3.93.33-2.6.54-3.89.51-2.57.77-3.85a70.8,70.8,0,0,1,2-7.45c.77-2.41,1.63-4.74,2.56-7,3.69-9,8.15-16.77,12.18-23.92,8.13-14.35,15.68-27.15,22.25-37.78,13.14-21.26,22.38-33.81,24.62-32.63s-3,15.89-13.18,38.7c-5.1,11.4-11.46,24.83-18.77,39.61-3.66,7.42-7.5,14.89-10.4,22.59-.73,1.92-1.39,3.86-2,5.8a58.25,58.25,0,0,0-1.47,5.89q-.29,1.49-.57,3c-.15,1-.25,2-.39,3.06s-.21,2.06-.28,3.11-.18,2.08-.16,3.15a108.09,108.09,0,0,0,2.68,25.26c1.8,8.29,4.13,16.36,6.49,24.16s4.7,15.31,6.68,22.51a206.88,206.88,0,0,1,4.66,20.47,115.39,115.39,0,0,1,1.67,17.52c0,2.61-.05,5-.28,7.26-.11,1.12-.17,2.18-.33,3.19s-.32,2-.47,2.87a39.33,39.33,0,0,1-1.13,4.75,19.89,19.89,0,0,1-1.26,3.38C8141.56-2951.39,8140.81-2950.54,8140.19-2950.65Z" transform="translate(-7820.29 3515.9)"/><path d="M8435.18-2973.36c-.39-.5-.2-1.46.51-2.8a46.37,46.37,0,0,1,3.55-5.25c3.22-4.29,8.07-10.17,13.23-17.73s10.51-16.91,13.73-27.77a64.05,64.05,0,0,0,2.68-17.16,73.08,73.08,0,0,0-.53-9.23c-.42-3.17-.94-6.4-1.72-9.72-3-13.27-8-26.4-11.1-39.39a160.34,160.34,0,0,1-4.49-34.81,106.41,106.41,0,0,1,1.93-23.46c1.21-5.47,2.64-8.37,3.88-8.3,2.65.16,3.65,12.11,7.08,30.48a266.4,266.4,0,0,0,7.87,31.59c1.83,5.79,4.06,11.91,6.36,18.51a201,201,0,0,1,6.35,21.37,104.39,104.39,0,0,1,2,11.71,82.56,82.56,0,0,1,.35,11.86,72.85,72.85,0,0,1-4.63,21.95,85.73,85.73,0,0,1-9.11,17.54,96.53,96.53,0,0,1-10.59,13,88.54,88.54,0,0,1-18.55,14.88,27.85,27.85,0,0,1-5.92,2.75C8436.53-2972.85,8435.57-2972.87,8435.18-2973.36Z" transform="translate(-7820.29 3515.9)"/><path d="M8497.54-3052.28c-.71.05-1.31-6.49-4-16.57a116.28,116.28,0,0,0-6.12-17.17c-1.4-3.13-3-6.31-4.87-9.59s-3.88-6.71-5.66-10.5a65,65,0,0,1-4-11.48c-1-3.78-1.66-7.42-2.29-10.87-1.26-6.91-2.19-13.17-2.85-18.43-1.3-10.55-1.52-17.12-.91-17.2s2,6.33,4.11,16.67c1.06,5.17,2.31,11.32,3.79,18.13s3,14.24,6.33,21.24c1.66,3.52,3.61,6.9,5.44,10.28a100.07,100.07,0,0,1,4.82,10.09,93.55,93.55,0,0,1,5.39,18.11,73.55,73.55,0,0,1,1.37,12.62C8498.09-3053.95,8497.83-3052.3,8497.54-3052.28Z" transform="translate(-7820.29 3515.9)"/><path d="M8157-3040.89c-.76-.14.75-6.48-1.3-16.41a98.22,98.22,0,0,0-5.32-17c-2.49-6.27-5.72-13.1-8.44-20.67s-4.53-15.28-4.47-22.47a63,63,0,0,1,3.23-18.38c1.56-5,3-8.91,4-11.64s1.6-4.22,1.92-4.15.27,1.71-.2,4.6-1.42,7-2.55,12-2.35,11-2.14,17.5,1.91,13.68,4.56,21,5.72,14.18,8.07,20.73a81.07,81.07,0,0,1,4.58,18,39.8,39.8,0,0,1-.3,12.57q-.24,1.09-.45,1.92c-.17.55-.34,1-.48,1.37C8157.36-3041.21,8157.13-3040.85,8157-3040.89Z" transform="translate(-7820.29 3515.9)"/><circle class="cls-18" cx="577.59" cy="483.98" r="27"/><circle class="cls-18" cx="374.83" cy="483.98" r="27"/><path d="M8321.47-2982a2.3,2.3,0,0,1,1.14,1.59,5.21,5.21,0,0,1-.37,3c-.91,2.33-3.17,4.77-6.19,6.72a35.24,35.24,0,0,1-11,4.55,52.12,52.12,0,0,1-13.9,1.34,50.61,50.61,0,0,1-13.86-2.39,34.33,34.33,0,0,1-10.72-5.61,16,16,0,0,1-5.34-7.05,5.44,5.44,0,0,1-.25-2.78,2.62,2.62,0,0,1,1-1.67,4,4,0,0,1,1.85-.68,13.18,13.18,0,0,1,2.3-.05c1.68.08,3.64.31,6.08.56s5.33.53,8.64.78,7,.44,11,.58c7.85.27,15,.26,19.9.24,2.46,0,4.34,0,5.83.15.71.05,1.48.13,2.1.21A5.4,5.4,0,0,1,8321.47-2982Z" transform="translate(-7820.29 3515.9)"/><path class="cls-19" d="M8250.08-3144.88s-23.93,2.8-44.88,16.85c-17.68,11.85-25.33,31.47-25.33,31.47s-7.87-21.65,17.86-41C8229.56-3161.46,8254.82-3141.58,8250.08-3144.88Z" transform="translate(-7820.29 3515.9)"/><path class="cls-19" d="M8341.24-3141.8s24.07,1.21,45.91,13.83c18.43,10.66,27.36,29.72,27.36,29.72s6.41-22.12-20.54-39.7C8360.62-3159.71,8336.73-3138.2,8341.24-3141.8Z" transform="translate(-7820.29 3515.9)"/><path d="M8279.08-3035a2.35,2.35,0,0,1-.77-.13,2.47,2.47,0,0,1-1.57-3.12c.72-2.18,7.37-21.34,19.42-21.4h0c12.09,0,19.76,17.5,20.08,18.25a2.47,2.47,0,0,1-1.29,3.24,2.48,2.48,0,0,1-3.25-1.29c-1.83-4.25-8.2-15.26-15.54-15.26h0c-7.23,0-13.1,13-14.75,18A2.47,2.47,0,0,1,8279.08-3035Z" transform="translate(-7820.29 3515.9)"/><path class="cls-19" d="M8385.38-3087.19c-1.44-10.66-8.45-27.49-23.83-27.15-16.22.36-18.82,17.13-19.16,30.84-.37,14.46,4,31.86,21.14,31.15C8382.14-3053.12,8387.25-3073.25,8385.38-3087.19Z" transform="translate(-7820.29 3515.9)"/><circle class="cls-1" cx="544.83" cy="420.19" r="6.36"/><circle class="cls-1" cx="555.25" cy="430.6" r="2.4"/><path class="cls-19" d="M8197.87-3086.15c.57-10.71,6.22-27.84,21.6-28.24,16.21-.42,20.15,16.19,21.6,29.86,1.53,14.42-1.43,32-18.59,32.11C8203.84-3052.3,8197.12-3072.14,8197.87-3086.15Z" transform="translate(-7820.29 3515.9)"/><circle class="cls-1" cx="398.59" cy="416.97" r="6.36"/><circle class="cls-1" cx="388.16" cy="427.38" r="2.4"/><path class="cls-15" d="M8655.5-2920.08l-51.09-8-128.35,427.76c-9.68,32.26,10.3,65.86,42.85,72.09h0c30.79,5.89,60.34-15.21,65.38-46.68Z" transform="translate(-7820.29 3515.9)"/></g></g></svg>