<svg xmlns="http://www.w3.org/2000/svg" viewBox="0 0 169.82 187.74"><defs><style>.cls-1{fill:#bb5872;}.cls-2{fill:#f6c6c4;}.cls-3{fill:#fff;}</style></defs><g id="Layer_2" data-name="Layer 2"><g id="Layer_1-2" data-name="Layer 1"><path class="cls-1" d="M160.66,43.63c-8.43-9.3-23.25-12.07-34.47-6.44-4.65,2.32-8.59,5.86-13.09,8.46s-10,4.24-14.9,2.34c-3.72-1.45-19.72-17.07-24.71-28.2-2.1-4.7-4-11.38-5.68-19.79A37,37,0,0,1,55.14,2.45c1,4.75,2,9.2,3.11,13,4.11,13.81,9.93,20.56,17.19,28.64,2.68,3.3,5.24,6.7,7.62,10.21,6.79,10,12.45,22.79,7.57,33.85C87.87,94.45,82.09,99,75.84,101.74s-13.05,4-19.73,5.51c-14.68,3.24-29.61,7.83-41,17.64s-18.4,26-13.57,40.25c3.82,11.26,14.29,19.15,25.76,22.6a58.43,58.43,0,0,1,9-16.49C28.85,169.9,21.61,164.5,20.67,157a9.11,9.11,0,0,1,2.15-7.59A11.4,11.4,0,0,1,29,146.68a30.44,30.44,0,0,1,12.53.55c21.29,5.26,43.74,11.1,65.4,6.64,17.2-3.54,32.83-13.62,43.8-27.33s17.36-30.88,18.83-48.38C170.57,66,168.89,52.68,160.66,43.63Z"/><path class="cls-2" d="M141.67,60.59c-5.41-8-12.81-7.68-20.49-7.26-2.37.13-15.78,3.82-19.57,2.29C93,52.11,87.5,44,81.19,37.57c-6.56-6.65-12.1-14.15-14.83-23.32a129.28,129.28,0,0,1-3-12.83,38.25,38.25,0,0,1-5.3.73c.83,4.33,1.74,8.43,2.84,12.1C64.14,25,70.55,34,78.1,42c3.22,3.44,6.88,6.7,9.76,10.44a111.09,111.09,0,0,1,12.19,20.05c7,14.72.91,29.05-12.77,37.14C71.22,119.1,52,116.26,34.89,122.46a64.51,64.51,0,0,0-6,2.47c-10.22,4.85-20.17,14.12-21.49,25.36a30.09,30.09,0,0,0-.19,4.24A21.45,21.45,0,0,1,16.37,156c-.63-7.2,2-14.44,7.41-16.33,7.33-2.57,22.12-1.74,28.06-1.08,10.72,1.17,21.14,3.15,32,2.86,20.33-.55,37.74-4.74,48.64-23.56C141.17,102.81,152.73,76.89,141.67,60.59Z"/><circle cx="104.38" cy="98.71" r="6.76"/><circle class="cls-3" cx="101.21" cy="96.01" r="1.45"/><circle class="cls-3" cx="100.06" cy="100.61" r="0.78"/><circle cx="145.46" cy="98.71" r="6.76"/><circle class="cls-3" cx="149.97" cy="99.56" r="0.78"/><circle class="cls-3" cx="147.83" cy="95.15" r="1.45"/><path d="M144.88,84.13c.15-.43.91-.62,2-.42a9.54,9.54,0,0,1,6.53,5.37c.41,1.06.37,1.84,0,2.07-.82.45-2.57-1.2-4.74-2.94S144.59,85,144.88,84.13Z"/><path d="M105.67,88.41c.1.93-2.18,1.91-4.63,3.38s-4.45,2.92-5.22,2.37c-.36-.27-.3-1.08.29-2.11a8.93,8.93,0,0,1,3.25-3.14,9,9,0,0,1,4.33-1.29C104.88,87.62,105.61,88,105.67,88.41Z"/><path d="M127.67,111.12a1.38,1.38,0,0,1-1.12,1.38,2.58,2.58,0,0,1-2.09-.31,2.37,2.37,0,0,1-1.11-1.64,2.28,2.28,0,0,1,0-1,1.58,1.58,0,0,1,.2-.44.85.85,0,0,1,.38-.24c.14-.06.29-.1.42-.17s.22-.18.36-.24a2.06,2.06,0,0,1,.7-.3,1.85,1.85,0,0,1,1.4.22,1.51,1.51,0,0,1,.69,1.09C127.59,109.94,127.63,110.5,127.67,111.12Z"/></g></g></svg>