<svg xmlns="http://www.w3.org/2000/svg" viewBox="0 0 1497 45.47"><defs><style>.cls-1{fill:#74a679;}</style></defs><g id="Layer_2" data-name="Layer 2"><g id="Layer_1-2" data-name="Layer 1"><path class="cls-1" d="M236.43,29.53c.65.06.82.17.87.3l1.6-.13Z" transform="translate(-0.11)"/><path class="cls-1" d="M86.54,41.84h-.26c.28.11.64.23.71.37C87.26,42,87.26,42,86.54,41.84Z" transform="translate(-0.11)"/><path class="cls-1" d="M124.29,38.8c.66.1,1.31.23,1.9.37C126.16,39,125.36,38.9,124.29,38.8Z" transform="translate(-0.11)"/><path class="cls-1" d="M215.8,28.91c1.68.16,3.38.37,5.13.56A11.12,11.12,0,0,0,215.8,28.91Z" transform="translate(-0.11)"/><path class="cls-1" d="M119.2,38.31c1.34.17,3.49.32,5.09.49A42.49,42.49,0,0,0,119.2,38.31Z" transform="translate(-0.11)"/><path class="cls-1" d="M15.37,42.42c1,.13,2.15.26,3.37.35.08-.09.28-.15.25-.26Z" transform="translate(-0.11)"/><path class="cls-1" d="M1485.69,4.54c-3.36.19-3.92.49-3.43.85A15.61,15.61,0,0,1,1485.69,4.54Z" transform="translate(-0.11)"/><path class="cls-1" d="M1403.29,5c.62-.08,1.22-.18,1.76-.28C1403.79,4.79,1402.93,4.92,1403.29,5Z" transform="translate(-0.11)"/><path class="cls-1" d="M1450.69,10.64a1.19,1.19,0,0,0,.62.43C1451.61,10.94,1451.48,10.8,1450.69,10.64Z" transform="translate(-0.11)"/><path class="cls-1" d="M873.82,32.67l2,.37A6,6,0,0,0,873.82,32.67Z" transform="translate(-0.11)"/><path class="cls-1" d="M765.28,35.13h0Z" transform="translate(-0.11)"/><path class="cls-1" d="M762.06,35.14h2.26C763.34,35.12,762.48,35.09,762.06,35.14Z" transform="translate(-0.11)"/><path class="cls-1" d="M11.88,40.26c-2.63.7-9.17,1-9.31,1.83l12.8.33C10.82,41.81,8.49,40.87,11.88,40.26Z" transform="translate(-0.11)"/><path class="cls-1" d="M1114.53,1.34a58.13,58.13,0,0,0-7.27.43c2.5-.13,5.07-.24,7.48-.39Z" transform="translate(-0.11)"/><path class="cls-1" d="M1019.48,9.67l.37-.08-.59,0Z" transform="translate(-0.11)"/><path class="cls-1" d="M1122,.45a5.88,5.88,0,0,0,1.3-.45C1121.67,0,1121.59.22,1122,.45Z" transform="translate(-0.11)"/><path class="cls-1" d="M257.7,26c.59-.06,1.07-.13,1.83-.19A16.77,16.77,0,0,0,257.7,26Z" transform="translate(-0.11)"/><path class="cls-1" d="M1025.8,10.87l-6.32-1.2c-.85.21-1.71.42-2.84.67C1015.48,11.32,1022.75,11.19,1025.8,10.87Z" transform="translate(-0.11)"/><path class="cls-1" d="M1122,.45a39.87,39.87,0,0,1-7.21.93l3.44.65C1126.58,1.91,1122.8,1,1122,.45Z" transform="translate(-0.11)"/><path class="cls-1" d="M1492.91,8.13c-3.91-.67,9.69-1.87,1.55-2.12l-8,1.61c1.34-.74-3.24-1.58-4.16-2.23-3.22,1.46,10.34,2.34.87,4.38-2.2.9-9.4.76-13,.57,8.12.24-.2,1.36-3.46,1.91-5-.58-13-.25-15.32-1.18-.76.35-4.63.55-7.29.41l-.26-.48c-6,.46,2,.46.51,1-4.32.19-11.09-.82-18.14-.71a174.51,174.51,0,0,0,17.94-1.39c-12.85-.79,2.25-2.5,5.12-3.78-10.33.65-14.27,1.58-22.7,2.45-10.26-1,.78-3.59,3.37-3.76-9.37.77-19.19,2.4-24.21,3,7-2,5.76-2.56,12-4.14-7.53-1.07-9,.3-12.64,1.06,2.1-.19,5.34-.34,6.1,0-8.94-.11-7.4,2.83-12,4.14-6.61-.76-19.21-1.06-18.37-2.8l.09,1.85c-7.73.49-4-.93-5.23-1.53-2.88,1.28.74,3.08-12.31,3.65,2-3-11.64-.19-11.29-2.91-6.1.22-8.86,1.74-15.21,1.47-7-1.5,9.59-3.73,13.37-3.3,8.81-.13-1.15,1.26,2.38,1.2l8.42-.87c-4.7-.54-13.91-1.14-12.79-2.39-8.57.63,6.9,1.25-2.49,2L1340,4.58c-9.38.76,2,2.07-10.25,2.5,8.17-1.36-13.28.09-12.55-1.9-.48,2.48-21.93.47-24.46,2.48l6.49.52-1.45-1.09c7-.11,12.9-.82,20.19-.44-5.72.95,2,2.06-4.68,2.91-12.5,1.56-3.35-1.3-5.11-1.28l-10,1.39,6.76,1c-7.74.49-18.32.65-29,.57-15.82-1.36,1.93-1.39-9.4-2.69-5.06.57-3.83,1.17-11,1,3.88.69,6.91-.35,9.61-.27,3.48,1.55-12.88.82-12.13,2.29-3-.57-2.4-1.2-.08-1.86-12.09.69-23.73.5-28.28-1.41l-5.21,1.94c-20.71-.55,14.15-1.83-3.28-2.92-7.18-.13-14.25,0-17.39.77l6.23,0c-4.76,1.07-4.39,1.8-12,2.53-5.41-.16-2.52-1.44-9-.35-16.5-1-5.08-2.88-2.45-4.65-12-.93,6.07-3.66-2.06-2.81l2.19.41-12.46,2.59c11.72,2,4.62-2,9.27.11l7,.12c-2.19,1.08-18.31.42-19.77,1.65-.14-.63,1.59-2.1,8.85-2.22l-4.36-2.32c-4.2-.2-7,1.37-9.28.33-6.27-1.48,9.13-2.46-6.24-3-16.45-.42-15.43,2.47-26.6,2.15,1.15.52,3.93.44,7.41.5-3.63.81,2.77,1.43-3.34,2.06-3.49-1.55-15.26-1.39-24.26-1.3,2.35-.87-3.43-1.69-.61-2.2-4.56.24-8.77.52-10.71,1.25,18.31,1.07-17.72,1.43-3.49,2.93-14.26,0-17-1.42-25.87-2.2.59-.49,16.42-1.08,3.77-1.69-14.53,1.74,2.61,2.3-8.68,4.35l9.14.53c1.16,2-15.83.59-18.18,1-5.64-.48,7.86-.61,2.34-1.95-8.42-.4-12.65.9-18,.17,5.23-1.4,1.9-.84,7.85-2.1-19.76.14,1-1.61-14.09-2.38-4.79.29-1.74,1.47-9.46,1.21,4.52,1.45,3.95,1.94,16.43,1.91-4.35,2.17-16.43-.41-25.14.93,7,.12,2.19.42,9.75,0,1,1.78,3.84,2-3,3.76,8.1-.53,11.61-2.48,23.23-2,3.21,1.81-14.24,1.49-14.36,3.86-5.78,1.23-19.85.32-26.26-.52-11.27,1.53-25.1,1.65-33.72,3.83-8.16-.65-28.49,1.49-43.87,1-2.36-1-18.89-.58-9.45-1.79-1.33.35-14.1.62-10.76,1.56,1.32-.35,2.76-.08,5.52-.15l-2.45,1.32c-7.42-.5-15.71,1.22-22.83.47-2.33-1,13.36-.76,8.57-2-6.83,2-34.71,3-43.58,2.22-6-.23-6.67-1.86-9.16-2l-10,.2c-1.18-.53-1.33-1.15-3.2-1.81a56.6,56.6,0,0,0-11.34.55c-13.07-1-6.1-2.36.59-3.49l7.38.51c5.38-.78,13.09-.52,8.56-2-3.74.18-3.61.8-4.93,1.16l-4.34-.83c-4.36.68-16.42,1.09-15.12,2.23-8.85-.78-19,.29-26.86-.6,5.39.71-1.45,1.22.15,2.12l9.44.29c-7.55.37-18.45,1.3-25.57.55.87-.73,1.15-1-2.46-1.67,5.08,1-13.21,1.39-2.18,2.59a100.5,100.5,0,0,1,13.09-.52c3.46,1.56-4.82,1.78-9.45,2.7-5.81.4-17.15,1-25,1.55-4.94-.33-6.4-2.11-14.83-1,10.75,1.44-10.15,2.57-12.92,4.14-8.15-.64-13.21,1.39-19.74.15,3.32-.57,15.83-.59,19-1.79.45-1.11-2.77-2.92,9.58-3.57-14.85-.48-8.72,1-15.55,1.49l5.08-.18c-2.31.46,2.06,1.28-2.45,1.33-17.42-.31-20.49-1.49-32.27-2.82,2.63.79-2.74,1.58-5.51,1.65-11.33-.95.13-2.37-6.82-4-3.94,1.05-11.65.79-9,1.59-4.49,0-2.16-.42-5.37-.72-2.89.94-6.25,1.51-12.47,1.52.56-.49,1.43-1.22,7.39-1-6.69-.37-9.15-2-6.25-3l10.88.57c4.95-1.16-10.15-.43-9.74-1.54,4.8-.29,8.43.4,11.48.08-3.06-1.18-12.48,0-18,.18-8.72-.16-5.53-1.35-5.67-2-14.82,2,17.14,2.05,3.35,3.93-5.23,1.41-18.44,1.3-27.74,1.63,8,1.52-.88,2.23-10.46,2.81,12.5,0,3.21,1.8,17.88.69l.29,1.26c-6.25,0-13.65-.49-19.9-.49,1.3-.34-.15-.62,1.89-.84L573,19.66l1.89-.84c-11.47-.07-25.57-.95-32.4-.45,5.52-.15,10.31,1.06,4.52,1.46a90.78,90.78,0,0,1-14.67,1.11c-2.77-1.42-22.53-1.28-10-2.8-16.12.83-10.16,1.07-25.57,2l10.32-.44c1.31,1.14-7.26,3.12,2.63,3.79-11.61.79-4.19,2.8-19.75,3.14-6.32-.66,1.87-2.34,10.61-2.68-4.4-.07-8.41-.68-13,.15-3.33-.93,8.28-1.73,7.84-2.11-8,0,.15.62-7.39,1-13.22,1.39-8.44-1.9-21.08-1,2.76-.07,7.69.26,4.37.83-17,.07-9.45,1.2-21.79,1.86-7-1.63-3.94-3.45-15.1-3.77h6.22a72.83,72.83,0,0,0-13.8-1.12c-23.23,1.58-42.4,4.24-66.36,5.68l8.57-.47c2.91.55-7.14.75-7,1.38l-5.36-.72c-1.46,1.22,12,1.09,8.86,2.28a15.93,15.93,0,0,0-3.49-.06l5,.33c-11.2-.32-20.05,1.89-28.48,0,21.8-.36,3.32-3.56,24.67-4.3-11.31.55-2-1.28-3.18-1.8-6-.24-2.92.94-9.61.58.15-.88,14.53-1.75,8.14-2.36-.73,1.36-6.68,1.13-9.57,2.08-4.94-.34.12-.87-2.05-1.29-2.75.08-4.36.68-6.83.51l1.87-.85c-13.79-1.12-4.19,1.3-19.87,1-.44,1.11,4.36.82,10.89.56,3.33,2.43-20.18,2.77-18.87,5.41-14.82.49,3.92-1.05-8.72-1.66-7-1.62,9.29-1.83,12.49-3l-13.1-1c4.36-2.17,12.5-1.52,14.81-3.48-9.73,0-8.57.47-18.45,1.3,16,1.53-6.95,1.37,2.2,3.4-7.4-.5-5.08-1-15.83-.9,6.82-.51.26-1.75,9.29-1.83-14.52.24-10.6.68-25.11.92-4.52,1.54,14.68,1.88-2.78,3.07-3.77,0-3-.54-.82-.55-12.48-.52,2.57,1.87-5.26,2.69-5.45.22-7.42-.37-5.17-.74-8.17.89-3.64,1.87-9.07,2.24l2.47.17c-2.32.45,4.07,2.56-7.69,2.73-8.59.05-5.9-.82-6.11-1.32a80.31,80.31,0,0,1-16.37-.36c.46.29-.05.6-2.07.62-11.33.55-6.53-1.24-10.75-1.44-16.15-.66,2,2.78-16,3l20.92.37c-.87.73-1.32,1.85,3.19,1.81.42-1.12,7.84-2.11,14.83-2,2,1.28-18.75,1.53-7,2.86-4.21-.19-10,.2-15.25.11,5.22-1.41-16.71-.17-7.7-1.76-22.82.47-26.16-.47-47.07.66,1.88-.84,15.23-3.1,26.13-2.53l.9.76c13.63-1-10.64-.81-8.17-2.14C156.11,32,135.62,29,115,29.86c3.63.69-.45,1.12-1.32,1.85,8.28-.23,6.83-.5,12.92.36-1.15,1-6.09.64-8.7,1.34-2.17,1.08,6.24,0,9.17.54a60.46,60.46,0,0,0-11.79,1.66c-4.35-.83-3.76-1.32-7.12-2.25-19.46-.1-17.27,1.81-33,1.53,8.71.16-4.08-1.07,5.38-.77L75.33,34c13.51-1.63,36.75-1.71,34.42-4.25-11,.3-19,1.78-32.53,1.91l.57-.48c-9.75-.05.15.62-2.16,1.08-10.9.93-14.11-2.37-21.64-.51l11.16.33c-8.41,1.09,2.48.17.46,1.88-15,1.35-40.83.64-62,2,6.1.86,7.83.89,15.83.91-3.6,2.31-6.82,2-2.9,3.94l9.74,0L26.41,43a73,73,0,0,1-7.67-.24c-1.33,1.34-14.77-.32-15.42,1l8.28-.23c4.07,1.07-5.68,1-11.49,1.42,5.53,1.34,18-.18,29.78-.34-.85-.77,10.88-2.43-.58-2.51.13-.87,7-1.38,11.48-1.42-2.34.46,8.86,2.28-1.74,3,10.16-1.07,4.5,0,15.83-.6-1.59.6,19.77-.14,18.46,1.7,3.6-.8-.2-2.71,12.94-2.87-3.2-1.26-17.85-1.36-8-2.78L71.87,40c-9.15-.53,2.49-1.33-9.46-1.79,3.51.07,10.62-.68,12.21.22C71.54,35.7,92.34,37,92.9,35c2.64.8,6.12.86,12.68.6-.89.74,2.74,1.42-2.34,2-4.22-.2-7.26.12-11.92-.47,2.6,2.67,17,.75,27.88,1.26-1.53-.21-2-.46,1-.87,6.66.37,21.34.76,17.14,2.06L170.94,39c.16.63-4.79.29-6.83.51l18.73,0c4.38.83-6.37.89-8.25,1.73L188.1,41l-1.89.84c3.33-.56,18.89-.91,22.66.41,14.81-.49,14.52-3.24,34.57-2.13-.73,1.36-11.33.54-16,1.46,3.91.45,15.83-.59,17.86.69,14.38-.86,12.78-3.26,19.75-4.64,11.76-.17,1.3,1.15,1.77,1.53,3.47.06,9.13-2.46,12.32-.65,5.66-1,8.86-2.22.43-2.62,6.25,0,15.11-.73,16.69-1.33-5.05,2,7.14.76,7.85,2.39,9.47.3,30.39.67,39.23-1.54l-2.61,2.19,11.05-.3c8.26,1.27-9.73,1.45-15.25,1.6,15,.15,25-.05,38.5-.19-3.94-.44-1.6-.9-3.49-1.55,4.64-.92,11-.31,15.84-.6,1.17.52.58,1-3.19,1.19l9.28-.33c-.73,1.36,3.79,1.32-5.38,2.28l8.58-.47c9.46.29-.42,1.11-2.75,1.57l15,.14c5.36-.78-3.05-1.18,7.26-1.62,13.8,1.12,31.39.56,47.08.84L452.2,39c9.45.3,7.54-1.86,10.45-2.8,8.72.15,20.48,0,27.88.49-8.41,1.1-4.93,2.66,2.92,3.55,17.72.07,13.36-2.26,23.24-3.08-7.68,2.73,12.36.84,10.63,2.31,22.51-.23,45.16-1.32,68.42-1.4-.46-.39-7.13-.76-3-1.18,8.55-.48,12.62.6,13.8,1.12,11-.31,17.4-1.19,21-2-4.8.29-5.24-.09-4.35-.83,11-.3,8,1.52,18.45.21,2.76,1.42-11.64.79-10.61,2.18a183.81,183.81,0,0,0,23-1.34c1.62.9-6.53.26-1.15,1,15.09-.73,33.26-1.78,44.59-2.33L700.47,36a109.51,109.51,0,0,0,15.39-1c3.93.45.87.77-2.9.95,9.73.05,21.65-1,27.17-1.13-.87.73-5.52.14-7.13.74,12.2.22,27.59-2.26,35.6-.74a18.15,18.15,0,0,1-3.32.25c18.07,0,33.81-1,53.45-1.23,18,1.32,5.78-1.89,23.5-1.83.14,3.23,24.11,0,31.59.6l-2.38-.45c8.72-1.35,20.78-.26,26.89.6,13.2.11,33,0,46.18-1.42l-2.62.7c10.9-.93,17.72.07,28.64-.87-.3.25-4.38.67-.15.88,52.59.68,106.2-1.73,158.63-1.67,100.39.16,225.4,0,324.19-3.17C1453.2,27.27,1500,13.56,1492.91,8.13Z" transform="translate(-0.11)"/><path class="cls-1" d="M268.13,24.06l1.42.06C269,24.08,268.56,24.06,268.13,24.06Z" transform="translate(-0.11)"/><path class="cls-1" d="M503.87,23.93c-1.11,0-2.22,0-3.33.06C501.63,24,502.73,24,503.87,23.93Z" transform="translate(-0.11)"/><path class="cls-1" d="M705.05,18.29l-4.21.15C702.66,18.43,704,18.37,705.05,18.29Z" transform="translate(-0.11)"/><path class="cls-1" d="M1010.4,10.35c-1.6-.9,6.69-2.63-.44-3.38-25,.06-10.6,3.68-36.31,3.6l13.06,1c-.7-1.64,8.44-2.6,18.45-2.79l3.07,1.18c-1.71.36-3.54.65-5.45.92C1006.56,11,1005.84,10,1010.4,10.35Z" transform="translate(-0.11)"/><path class="cls-1" d="M1001.84,10.82l.62.08.32,0Z" transform="translate(-0.11)"/></g></g></svg>