<svg xmlns="http://www.w3.org/2000/svg" viewBox="0 0 865.07 2415.84"><defs><style>.cls-1{fill:#f1d2be;}.cls-2{fill:#dbd6d1;}.cls-3{fill:#4a2e38;}.cls-4{fill:#fff;}.cls-5{fill:#cfa184;}.cls-6{fill:#d7bea6;}.cls-7{fill:#465958;}.cls-13,.cls-8{fill:#dedcdd;}.cls-14,.cls-8,.cls-9{stroke:#000;stroke-miterlimit:10;stroke-width:0.25px;}.cls-9{fill:#f9f3f7;}.cls-10{fill:#dead8e;}.cls-11{fill:#e38dac;opacity:0.35;}.cls-12{opacity:0.38;}.cls-14{fill:none;}.cls-15{fill:#c9cbcd;}.cls-16{fill:#c49a6c;}.cls-17{fill:#603913;}.cls-18{fill-rule:evenodd;}.cls-19{opacity:0.1;}</style></defs><g id="Layer_2" data-name="Layer 2"><g id="creation_people_character" data-name="creation people character"><path class="cls-1" d="M321.89,2261c4.67,23.54,9.06,49.2-1.93,70.53-7.08,13.75-19.91,23.88-33.95,30.35-18.08,8.34-41.5,10.34-56.25-3-12.36-11.19-14.87-29.34-16.61-45.91-3.47-32.94-6.94-66.26-2.41-99.07.77-5.59,2.1-11.71,6.64-15.07,3.42-2.53,7.93-2.91,12.19-3.15q20.06-1.17,40.17-1.23c13.32-.05,37.5.47,43.61,15.19C319.12,2223.48,318.88,2245.76,321.89,2261Z"/><path class="cls-2" d="M65,2327.49c-13.19,4.35-26.62,8.52-38.45,15.8S4.4,2361.46,1,2374.94s1.66,29.49,13.84,36.16c9.59,5.26,284,5.44,312.34,2.63,6.59-.66,13.38-1.73,18.92-5.34,13.17-8.59,14.2-27.25,12.95-42.92q-1.62-20.34-5.14-40.45c-.9-5.11-2-10.42-5.1-14.56-3.45-4.56-8.91-7.09-14.26-9.09a129.53,129.53,0,0,0-66.68-6.25c-11,1.88-22,5.22-33.16,4.39-14.76-1.1-22.16-9.2-32.62-18-7.7-6.49-5.17-6.95-16.14-1.94-7.9,3.61-15.78,7.24-23.74,10.71Q114.51,2311.15,65,2327.49Z"/><path class="cls-3" d="M139.34,2359.73c-1.06.4-3.08-2.47-6.09-7-.76-1.12-1.56-2.36-2.47-3.65s-1.86-2.67-2.86-4.11c-2.08-2.86-4.4-5.93-7-9.05s-5.21-5.95-7.64-8.5c-1.24-1.25-2.39-2.48-3.53-3.57s-2.17-2.14-3.14-3.08c-3.88-3.77-6.34-6.28-5.76-7.25s4.08-.06,9.1,2.78a42.79,42.79,0,0,1,4,2.52c1.41.94,2.82,2.07,4.3,3.27a71.91,71.91,0,0,1,8.76,8.78,72.66,72.66,0,0,1,7.05,10.2c.91,1.67,1.77,3.26,2.44,4.82a46.45,46.45,0,0,1,1.76,4.37C140.13,2355.74,140.32,2359.38,139.34,2359.73Z"/><path class="cls-3" d="M180.64,2352.54c-.95.54-3.63-2.34-7.27-7.28s-8.24-11.88-13.82-18.93a113.72,113.72,0,0,0-15.85-16.46c-4.49-3.8-7.63-6-7.2-7s4.47-.56,10.26,2.38,12.92,8.55,19,16.2a95.2,95.2,0,0,1,12.49,21.07C180.65,2348.22,181.59,2352,180.64,2352.54Z"/><path class="cls-4" d="M15.39,2399.79c9.59,5.26,284,5.44,312.34,2.63,6.59-.65,13.38-1.72,18.92-5.34,9.14-6,11.51-18.66,12.26-29.95.23,18.37,0,33.57-12.26,41.57-5.54,3.61-12.33,4.68-18.92,5.34-28.32,2.81-302.75,2.63-312.34-2.63C4,2405.16-1.15,2390.72,1,2377.85,2.47,2387,7.37,2395.4,15.39,2399.79Z"/><path class="cls-1" d="M543.18,2257c-4.67,23.53-9.06,49.19,1.93,70.52,7.08,13.75,19.91,23.88,33.95,30.36,18.08,8.33,41.5,10.33,56.25-3,12.35-11.19,14.87-29.33,16.61-45.91,3.47-32.93,6.94-66.26,2.41-99.07-.77-5.59-2.1-11.71-6.64-15.07-3.43-2.53-7.94-2.9-12.19-3.15q-20.06-1.17-40.17-1.23c-13.32,0-37.51.47-43.61,15.2C546,2219.47,546.19,2241.75,543.18,2257Z"/><path class="cls-2" d="M800.12,2323.48c13.19,4.35,26.61,8.52,38.44,15.8s22.11,18.17,25.48,31.65-1.66,29.49-13.84,36.16c-9.59,5.26-284,5.44-312.34,2.63-6.59-.66-13.38-1.73-18.92-5.34-13.17-8.59-14.2-27.25-13-42.92,1.08-13.55,2.79-27.06,5.14-40.45.9-5.11,2-10.41,5.1-14.56,3.45-4.56,8.9-7.09,14.26-9.09a129.53,129.53,0,0,1,66.68-6.25c11,1.88,22,5.22,33.16,4.39,14.76-1.1,22.16-9.2,32.62-18,7.7-6.49,5.17-6.95,16.13-1.94,7.9,3.61,15.79,7.24,23.75,10.72Q750.56,2307.13,800.12,2323.48Z"/><path class="cls-4" d="M849.29,2397.12c-9.58,5.26-284,5.44-312.34,2.63-6.58-.65-13.37-1.73-18.92-5.34-9.13-6-11.5-18.66-12.25-29.95-.23,18.37,0,33.57,12.25,41.57,5.55,3.61,12.34,4.68,18.92,5.34,28.33,2.81,302.76,2.63,312.34-2.63,11.41-6.25,16.55-20.69,14.39-33.56C862.21,2384.28,857.31,2392.73,849.29,2397.12Z"/><path class="cls-3" d="M725.73,2355.73c-1-.36-.79-4,1.09-9.45a46.45,46.45,0,0,1,1.76-4.37c.67-1.55,1.53-3.14,2.44-4.82a69.15,69.15,0,0,1,15.8-19c1.49-1.2,2.9-2.34,4.31-3.28s2.72-1.8,4-2.52c5-2.83,8.57-3.68,9.1-2.78s-1.88,3.48-5.76,7.25c-1,.95-2,2-3.14,3.09s-2.29,2.31-3.53,3.56c-2.43,2.55-5,5.4-7.64,8.5s-4.9,6.2-7,9c-1,1.44-2,2.8-2.86,4.11s-1.71,2.53-2.47,3.65C728.81,2353.25,726.79,2356.12,725.73,2355.73Z"/><path class="cls-3" d="M684.43,2348.53c-.95-.53,0-4.32,2.43-10.05a95.43,95.43,0,0,1,12.49-21.07c6-7.65,13.17-13.33,19-16.2s9.88-3.34,10.25-2.38-2.7,3.23-7.19,7a113.71,113.71,0,0,0-15.85,16.46c-5.58,7-10.17,14-13.82,18.93S685.38,2349.07,684.43,2348.53Z"/><path d="M475.31,36.58c-14.21-3.66-29.2-3.43-43.11,1.9,20.13-14.85,48.15-18.25,71.25-8.66C461.93,1.87,402.38,4.25,363.23,35.43c-29.74,23.68-56.61,56.15-36.88,92.89a135.77,135.77,0,0,1,14.27,44.78c2.44,16.8,9.82,31.41,25.62,38.22,39.8,17.17,107.7,33.06,124.72-6.8,22.28-52.18,57.34-71.26,44.31-112.6C526.71,64.79,502.43,43.58,475.31,36.58Z"/><path d="M426.26,3.12a3.21,3.21,0,0,1,0,.76,3.34,3.34,0,0,1-3.59,3.06,89.9,89.9,0,0,0-94.81,69.23c-2.71,11.68-2.64,22.23.23,31.35a3.33,3.33,0,1,1-6.35,2c-3.23-10.27-3.35-22-.36-34.86A96.57,96.57,0,0,1,423.24.3,3.32,3.32,0,0,1,426.26,3.12Z"/><path d="M542.4,90a99.61,99.61,0,0,1-10.46,61.2c-17.27,32.47-52.92,57.34-95.37,66.53a3.33,3.33,0,0,1-1.41-6.51c40.56-8.78,74.54-32.38,90.9-63.15a93.66,93.66,0,0,0,10-55C533.58,73.5,525,56.28,511.72,44.6a3.33,3.33,0,1,1,4.41-5C530.5,52.3,539.44,70.4,542.4,90Z"/><rect class="cls-1" x="354.3" y="531.16" width="138.9" height="208.88"/><path class="cls-5" d="M354.3,531.16v102.1c18.23,10,39.84,13,60.42,9.85,29.43-3.84,56.48-17.84,78.47-37.88V531.16Z"/><path class="cls-1" d="M572.44,693.49c0,35.49-90.36,199.43-148.7,199.43S275.05,729,275.05,693.49s90.36-36.93,148.69-36.93S572.44,658,572.44,693.49Z"/><polygon class="cls-1" points="541.61 1062.74 579.24 1222.04 275.05 1222.04 309.87 1062.74 541.61 1062.74"/><path class="cls-6" d="M620.78,694.57c-8.82-15-127-43.54-127-43.54S486.88,830.14,424,867.28C361.2,830.14,354.3,651,354.3,651s-118.18,28.5-127,43.54C195.51,748.78,271,842.88,275.05,897.4s-.3,324.64-.3,324.64h298S569,951.92,573,897.4,652.57,748.78,620.78,694.57Z"/><path class="cls-7" d="M275.05,1173.58s-38.54,128.34-36.76,242.72-89.41,812.87-89.41,812.87l229.53,7.69L410.19,1676s15-173.45,26.66-188.69,49.2-11.62,49.2-11.62l3.57-302.08Z"/><path class="cls-7" d="M619.73,1173.58s29.74,124.46,27.95,238.85S689,2231.08,689,2231.08L482.13,2238l-14.5-594.52s1.92-141-9.71-156.2-49.2-11.62-49.2-11.62l-3.56-302.08Z"/><path class="cls-8" d="M494.44,625.9,455.58,944.25a1863.79,1863.79,0,0,0-2.3,431.74l16.8,151c12.15,109.19,100.64,191.54,205.81,191.54H691.8c38.12-355.44-49.16-518.63-94.4-604.17-35.37-66.89-29.16-121.07-16.3-178.72l50.3-258.15Z"/><path class="cls-9" d="M494.44,625.9,538,651.16c19.31,11.21,23.21,31.8,8.81,46.55L484,762.06l29.18,27.63c9.45,8.94,12.22,20.82,7.38,31.62L454.69,968S458.66,686.16,494.44,625.9Z"/><path class="cls-8" d="M655.88,1089.43h0a56,56,0,0,1-60.23-51c-17.86-112.5-28.24-218.28-25.94-312.68a56,56,0,0,1,51-60.23h0c71.71,0,87,242.22,86.17,363.68A56,56,0,0,1,655.88,1089.43Z"/><path d="M305.8,94.17c.31.1-.16,2.32-1.17,6.23-.5,2-1.12,4.35-1.73,7.12a73.8,73.8,0,0,0-1.52,9.44,42.05,42.05,0,0,0,.43,11.32A29,29,0,0,0,306.5,140a28,28,0,0,0,10.71,8.63,99.11,99.11,0,0,0,14.86,5.14,91.79,91.79,0,0,1,15.53,5.6,35.39,35.39,0,0,1,12.27,10,47.43,47.43,0,0,1,6.78,12.41,92.07,92.07,0,0,1,3.46,11.54c1.68,7.11,2.71,12.85,3.55,16.8.19,1,.36,1.86.52,2.64s.28,1.41.37,1.94c.17,1.06.19,1.64,0,1.69s-.46-.44-.92-1.42c-.23-.49-.5-1.1-.8-1.83s-.59-1.6-.93-2.54c-1.38-3.84-2.91-9.55-5-16.43a101.81,101.81,0,0,0-3.86-11A46,46,0,0,0,356.58,172a32,32,0,0,0-11-8.62,94.2,94.2,0,0,0-14.81-5.21,95,95,0,0,1-15.55-5.51A31.58,31.58,0,0,1,303,142.36a32,32,0,0,1-5-13.48,42.64,42.64,0,0,1,.11-12.3,63.07,63.07,0,0,1,2.26-9.72c.86-2.78,1.74-5.12,2.5-7C304.47,96.07,305.51,94.07,305.8,94.17Z"/><path d="M536.62,155.7c.25-.06,1,1.23.76,3.79a15.25,15.25,0,0,1-5,9.26,27.88,27.88,0,0,1-6,4.11c-2.26,1.2-4.72,2.24-7.19,3.37a55,55,0,0,0-14.42,9.33,53.61,53.61,0,0,0-6.11,6.47c-1.8,2.23-3.4,4.65-5.18,6.9a30.21,30.21,0,0,1-5.92,5.88,26.31,26.31,0,0,1-6.43,3.42,23.5,23.5,0,0,1-10.23,1.42c-2.43-.25-3.68-.8-3.64-1.09s1.36-.39,3.61-.69a29.44,29.44,0,0,0,9-2.63,26.16,26.16,0,0,0,5.35-3.43,28.27,28.27,0,0,0,4.88-5.43c1.57-2.15,3.09-4.62,5-7.12a52.75,52.75,0,0,1,22.39-16.91c2.61-1.06,5-1.93,7.19-2.9a27.36,27.36,0,0,0,5.54-3.16,15.65,15.65,0,0,0,5.4-7.16C536.33,157.07,536.26,155.75,536.62,155.7Z"/><path class="cls-8" d="M354.13,623.9,393,942.25A1863.79,1863.79,0,0,1,395.3,1374l-16.8,151c-12.15,109.19-100.64,191.54-205.82,191.54H156.77c-38.11-355.44,49.17-518.63,94.4-604.17,35.38-66.89,29.16-121.07,16.3-178.72L217.18,675.49Z"/><path class="cls-9" d="M354.13,623.9l-43.51,25.26c-19.3,11.21-23.2,31.8-8.81,46.55l62.81,64.35-29.18,27.63c-9.44,8.94-12.21,20.82-7.37,31.62L393.89,966S389.91,684.16,354.13,623.9Z"/><path class="cls-8" d="M109.67,1067.32h0a56,56,0,0,0,70.72-35C224.74,927.34,260.21,827.15,280.64,735a56,56,0,0,0-35.06-70.72h0C176,647,103,878.48,74.62,996.6A56,56,0,0,0,109.67,1067.32Z"/><path class="cls-3" d="M503.71,188.64c-92.5-23.92-162.81,22.16-161.21-1.76.39-5.7-3.71-13-1.59-14.94,66.73,18.9,144.79-39,168.37,7.83C511.61,182.38,501.59,184.87,503.71,188.64Z"/><circle class="cls-1" cx="254.61" cy="435.86" r="43.14"/><path class="cls-10" d="M242.61,414.54a19.25,19.25,0,0,0-15,15.51c-1.19,7.68,3.08,15.55,9.79,19.23,3,1.64.32,6.22-2.68,4.58a23.88,23.88,0,0,1,6.5-44.43c3.34-.7,4.76,4.41,1.41,5.11Z"/><circle class="cls-1" cx="574.07" cy="435.86" r="43.14"/><path class="cls-10" d="M586.07,414.54a19.27,19.27,0,0,1,15,15.51c1.19,7.68-3.08,15.55-9.79,19.23-3,1.64-.32,6.22,2.67,4.58a23.87,23.87,0,0,0-6.5-44.43c-3.33-.7-4.76,4.41-1.41,5.11Z"/><path class="cls-1" d="M579.05,417.62c0,114-73.3,191.31-163.72,191.31S251.61,531.57,251.61,417.62s17.26-206.3,163.72-206.3S579.05,303.68,579.05,417.62Z"/><circle class="cls-11" cx="520.19" cy="483.51" r="27"/><circle class="cls-11" cx="317.43" cy="483.51" r="27"/><g class="cls-12"><path d="M437.13,175.65a.91.91,0,0,1,.19-.05l.54-.11,2.1-.38c1.82-.3,4.46-.73,7.74-1.15a211.07,211.07,0,0,1,25.79-1.66,89.55,89.55,0,0,1,14.22.73,23.44,23.44,0,0,1,6,1.8,21.93,21.93,0,0,1,4.55,3c1.29,1,2.44,2,3.53,2.72a12.56,12.56,0,0,0,2.95,1.54,8.77,8.77,0,0,0,2.8.46s-.06,0-.18,0l-.56,0a7.08,7.08,0,0,1-2.1-.36,12.33,12.33,0,0,1-3-1.51c-1.1-.73-2.27-1.67-3.57-2.69a22.18,22.18,0,0,0-4.52-2.88,23.28,23.28,0,0,0-5.89-1.75,92.33,92.33,0,0,0-14.16-.7,231,231,0,0,0-25.75,1.56c-3.29.39-5.93.77-7.76,1l-2.11.31-.55.08A.69.69,0,0,1,437.13,175.65Z"/></g><g class="cls-12"><path d="M390.14,183.9a3.93,3.93,0,0,1-.55.14l-1.58.33-5.81,1.16-8.64,1.67-5.11,1a35.52,35.52,0,0,1-5.57.65,17.75,17.75,0,0,1-10.27-3A35.54,35.54,0,0,1,346,180c-1.7-1.85-3-3.44-3.82-4.55-.43-.55-.75-1-1-1.29a2.78,2.78,0,0,1-.32-.46,2.62,2.62,0,0,1,.38.42l1,1.24c.9,1.08,2.18,2.65,3.9,4.47a36.5,36.5,0,0,0,6.65,5.66,17.67,17.67,0,0,0,10.09,3,37.44,37.44,0,0,0,5.5-.64l5.11-.95,8.66-1.6,5.84-1,1.59-.27A2.59,2.59,0,0,1,390.14,183.9Z"/></g><path d="M531.14,309.07a347.87,347.87,0,0,1,3.66,84.72A908.16,908.16,0,0,0,312,389.92a587.38,587.38,0,0,1,9.28-93c-17.66,32.81-41.45,112.47-76.71,139-14.85-1.3-22.15-6.51-15.85-37.58,2.68-41,11.52-81.69,30.62-117.88,23.88-45.24,65.34-82.82,115.48-93.55,63.59-21.41,138,.68,181.25,51.2,36.9,43.08,61.2,137.69,45.08,192C598.42,430.13,565.86,443.09,531.14,309.07Z"/><path d="M262,565.26c-.63-.11-1.1-1.17-1.45-3-.17-.93-.29-2-.5-3.37s-.29-2.82-.57-4.5-.44-3.53-.81-5.54-.75-4.19-1.17-6.51c-1-4.64-2.32-9.86-4.1-15.61s-4-12-6.51-18.75-5.37-14-8.23-21.85a243.66,243.66,0,0,1-8-25.49,113.71,113.71,0,0,1-3.5-29.78c0-1.31.13-2.63.21-3.95s.17-2.62.37-3.93.34-2.6.54-3.89.52-2.57.77-3.85a68.47,68.47,0,0,1,2-7.45c.77-2.41,1.63-4.74,2.55-7,3.7-9,8.16-16.77,12.19-23.92,8.13-14.35,15.67-27.15,22.24-37.78,13.14-21.26,22.39-33.81,24.62-32.62s-3,15.88-13.17,38.69c-5.11,11.4-11.47,24.83-18.78,39.62-3.66,7.41-7.49,14.89-10.4,22.58-.73,1.92-1.38,3.86-2,5.8A55.7,55.7,0,0,0,247,419c-.19,1-.38,2-.57,3s-.26,2-.39,3.06-.22,2.06-.28,3.11-.19,2.08-.17,3.15a107.56,107.56,0,0,0,2.69,25.26c1.79,8.29,4.13,16.36,6.49,24.16s4.7,15.31,6.67,22.51a206.88,206.88,0,0,1,4.66,20.47,115.49,115.49,0,0,1,1.68,17.52c0,2.61-.05,5-.29,7.26-.11,1.12-.16,2.18-.33,3.19s-.31,2-.46,2.87a40.82,40.82,0,0,1-1.13,4.75,19.84,19.84,0,0,1-1.27,3.38C263.4,564.51,262.66,565.36,262,565.26Z"/><path d="M557,542.54c-.4-.5-.2-1.45.51-2.8a46.94,46.94,0,0,1,3.54-5.25c3.23-4.29,8.07-10.17,13.24-17.73S584.83,499.86,588,489a63.66,63.66,0,0,0,2.68-17.16,75,75,0,0,0-.52-9.23c-.42-3.17-.94-6.4-1.72-9.72-3-13.27-8.06-26.4-11.11-39.39a161,161,0,0,1-4.49-34.81,107.66,107.66,0,0,1,1.93-23.46c1.21-5.47,2.64-8.37,3.88-8.3,2.66.16,3.65,12.11,7.08,30.48A268.36,268.36,0,0,0,593.64,409c1.83,5.79,4.07,11.91,6.36,18.51a197.07,197.07,0,0,1,6.35,21.37,100,100,0,0,1,2,11.71,82.56,82.56,0,0,1,.35,11.86A72.54,72.54,0,0,1,604,494.39a86.23,86.23,0,0,1-9.11,17.54,95.91,95.91,0,0,1-10.59,13,88.54,88.54,0,0,1-18.55,14.88,28.11,28.11,0,0,1-5.93,2.75C558.38,543.05,557.42,543,557,542.54Z"/><path d="M619.39,463.62c-.72.05-1.32-6.49-4-16.57a117.3,117.3,0,0,0-6.11-17.17c-1.41-3.13-3-6.31-4.87-9.59s-3.88-6.71-5.66-10.5a65,65,0,0,1-4-11.48c-1-3.77-1.66-7.42-2.29-10.87-1.26-6.91-2.2-13.17-2.85-18.43-1.3-10.54-1.52-17.12-.91-17.2s2,6.33,4.1,16.67c1.06,5.17,2.32,11.32,3.8,18.13s3,14.24,6.33,21.24c1.65,3.52,3.61,6.9,5.44,10.28a102.28,102.28,0,0,1,4.82,10.09,94.26,94.26,0,0,1,5.39,18.11A73.35,73.35,0,0,1,619.89,459C619.93,462,619.68,463.6,619.39,463.62Z"/><path d="M278.82,475c-.76-.14.76-6.48-1.3-16.41a96.17,96.17,0,0,0-5.32-17c-2.49-6.28-5.72-13.11-8.44-20.68s-4.53-15.28-4.47-22.46a63,63,0,0,1,3.24-18.39c1.55-5,3-8.91,4-11.64s1.6-4.22,1.92-4.15.27,1.71-.19,4.6-1.42,7-2.55,12-2.36,11-2.15,17.5,1.91,13.68,4.57,21,5.72,14.18,8.07,20.73a81.56,81.56,0,0,1,4.57,18,40.16,40.16,0,0,1-.29,12.57q-.24,1.09-.45,1.92c-.17.55-.34,1-.49,1.37C279.2,474.69,279,475.05,278.82,475Z"/><path class="cls-1" d="M592.74,1432.45s7.39,55.41,5.53,63.17-21.1,62.45-17,71.76,16.94,2.06,22.28-14,17.89-56,17.33-62.94,3.93-33.42,3.16-41S604.79,1407,592.74,1432.45Z"/><path class="cls-1" d="M621,1446.36c-6.32,10.66,3.84,44.49,2.48,47.61s-16.49,42.55-20.16,56.33,9.66,13.14,18.74-2.21S642,1504,643.16,1498.62s9.21-48.1,9.26-59S630.11,1431,621,1446.36Z"/><path class="cls-1" d="M635.79,1422.15c-4,11.73,10.27,44.82,9.58,48.15s-16.41,39.17-17.13,53.41,12.16,10.84,17.87-6,22.31-46.26,22.33-51.72-7.09-43.48-9.31-54.18S641.49,1405.25,635.79,1422.15Z"/><path class="cls-1" d="M586.75,1433.6c-.36,5.16,3.86,16.08,9.64,27,3.87-.71,7.75-1.3,11.62-1.83,14.34-1.94,28.66-3,43-5.18,3.19-.5,6.4-1.07,9.59-1.72,4.72-27.88-1.65-92.59-40.26-78.24C620.35,1373.67,587.59,1421.91,586.75,1433.6Z"/><path class="cls-1" d="M621.21,1373.37s-26.76,20.54-35.77,28.78c-6.46,5.9-23.3,27.19-25.56,29s5.61,39.8,8,44.84,11.36,3.62,18-8.8.9-31.32.9-31.32,34.51-17.65,42.75-31.68S621.21,1373.37,621.21,1373.37Z"/><path class="cls-13" d="M661.26,1392.13l-49.45-9.9-13.45-328.38c-1-24.76,25.86-41.54,57.66-36h0c30.06,5.24,52.3,28.41,49.2,51.25Z"/><polyline class="cls-14" points="705.22 1069.1 661.26 1392.13 611.81 1382.23 598.36 1053.85"/><polygon class="cls-15" points="572.75 1089.62 495.44 1089.62 476.78 933.64 590.08 933.64 572.75 1089.62"/><polygon class="cls-16" points="489.84 1063.12 577.23 1063.12 587.36 978.06 479.71 978.06 489.84 1063.12"/><polygon class="cls-17" points="579.94 925.39 489.71 925.39 476.34 933.54 478.17 951.89 588.93 951.89 590.73 933.54 579.94 925.39"/><path class="cls-1" d="M483.44,1026.53s51.52,21.67,59.5,21.91,65.8-4,73.71,2.41-2.45,16.88-19.37,17.82-58.74,2.56-65.28.2-33.29-5-40.4-7.72S455.67,1031.47,483.44,1026.53Z"/><path class="cls-1" d="M489.43,1057.46c11.94-3.29,41.92,15.39,45.29,14.89s45.39-4.74,59.65-4.66,10.14,12.76-7,17.51-47.82,7.63-53.26,7.35-48.84-3.74-59.39-6.56S472.24,1062.21,489.43,1057.46Z"/><path class="cls-1" d="M462.19,1065.36c12.37-.74,40.56,21.68,44,21.89s42.09-5.55,56-2.52,7.27,14.59-10.53,15.66-50.5,9.39-55.77,8-40.1-18.25-49.83-23.2S444.39,1066.44,462.19,1065.36Z"/><path class="cls-1" d="M486.12,1021.05c5.07,1,14.5,7.94,23.56,16.4-1.7,3.55-3.29,7.13-4.82,10.73-5.63,13.33-10.37,26.88-16.29,40.14-1.32,3-2.7,5.9-4.17,8.81-28.14-2.76-88.92-25.9-64.93-59.39C419.47,1037.74,474.61,1018.79,486.12,1021.05Z"/><path class="cls-1" d="M419,1038.5s26.84-20.44,37.16-27c7.39-4.68,32.35-15.34,34.72-17S527.76,1010.34,532,1014s.5,11.91-13.21,15-30.46-7.36-30.46-7.36-26.09,28.67-41.79,32.94S419,1038.5,419,1038.5Z"/><path class="cls-8" d="M437.16,1081.51,436,1031.09,115,960.64c-24.2-5.32-45.41,18.22-45.49,50.5h0c-.07,30.51,18.86,56.45,41.89,57.37Z"/><path class="cls-18" d="M324.13,430.75c.56-13.6,6.1-35.36,21.18-35.86,15.91-.54,19.78,20.56,21.2,37.91,1.49,18.31-1.41,40.63-18.24,40.77C330,473.73,323.4,448.53,324.13,430.75Z"/><path class="cls-18" d="M506.09,429.43c-1.41-13.54-8.29-34.91-23.37-34.47-15.91.45-18.46,21.75-18.8,39.15-.36,18.37,3.92,40.46,20.74,39.56C502.91,472.69,507.92,447.13,506.09,429.43Z"/><path d="M301.63,436.65a2.42,2.42,0,0,1-.89-4.68c.47-.21,8.4-4.1,32.87-35.21,10.14-12.9,24.29-20.49,36.07-19.35,6.36.62,11.32,3.82,14,9a2.42,2.42,0,0,1-4.31,2.21c-2.41-4.71-6.85-6.09-10.14-6.41-8.33-.81-21.39,4.3-31.79,17.52-25.83,32.85-34.13,36.46-35,36.76A2.29,2.29,0,0,1,301.63,436.65Z"/><path d="M542.62,440.8c-1.62-.35-10.76-3.94-30.83-40-6.72-12.09-15.45-19-24.58-19.42a17.59,17.59,0,0,0-15.46,7.56,2.43,2.43,0,0,1-4-2.75,22.43,22.43,0,0,1,19.69-9.65c6.29.3,18.38,3.55,28.59,21.91,19.1,34.35,27.68,37.65,27.77,37.68l-.15,0Z"/><path class="cls-18" d="M299.08,370.56s23.64-.1,45.6-11.49c18.53-9.61,28.15-27.9,28.15-27.9s5.28,22-21.92,38C317.27,389,294.82,366.82,299.08,370.56Z"/><path class="cls-18" d="M548.37,374.93s-23.52-2.45-44.24-16c-17.5-11.39-25.25-30.54-25.25-30.54s-7.44,21.34,18,40C528.45,391.45,553,371.63,548.37,374.93Z"/><path d="M411.64,467.85a2.51,2.51,0,0,1-.76-.12,2.42,2.42,0,0,1-1.54-3.06c.7-2.14,7.23-20.94,19-21h.06c11.85,0,19.38,17.16,19.69,17.89a2.42,2.42,0,1,1-4.45,1.92c-1.8-4.17-8.05-15-15.24-15h0c-7.1,0-12.85,12.76-14.47,17.67A2.43,2.43,0,0,1,411.64,467.85Z"/><circle class="cls-4" cx="499.07" cy="447.08" r="4.55"/><circle class="cls-4" cx="487.47" cy="461.32" r="2.3"/><circle class="cls-4" cx="336.89" cy="449.77" r="4.55"/><circle class="cls-4" cx="348.49" cy="464" r="2.3"/><path d="M402.56,539.37c-.5-.28.58-3.5,3.66-8l1.24-1.74c.44-.6,1-1.18,1.46-1.8,1-1.26,2.2-2.47,3.46-3.77A57.6,57.6,0,0,1,432,511.4c1.7-.61,3.31-1.2,4.87-1.59.78-.2,1.51-.43,2.24-.58l2.1-.41c5.37-.94,8.75-.6,8.81,0s-3.12,1.48-8,3.15l-1.91.67c-.66.23-1.33.53-2,.79-1.42.52-2.88,1.21-4.43,1.88a87.5,87.5,0,0,0-9.63,5.28,86.5,86.5,0,0,0-8.78,6.58c-1.26,1.14-2.49,2.18-3.55,3.26-.53.53-1.08,1-1.56,1.52l-1.4,1.47C405.2,537.15,403.15,539.72,402.56,539.37Z"/><path class="cls-19" d="M484.73,470.11c-9.63,0-17.73-8.08-20.11-19.06a31.19,31.19,0,0,0-.72,6.7c0,14.23,9.33,25.76,20.83,25.76s20.83-11.53,20.83-25.76a31.84,31.84,0,0,0-.71-6.7C502.46,462,494.36,470.11,484.73,470.11Z"/><path class="cls-19" d="M346.49,470.68c-9.63,0-17.73-8.08-20.12-19.06a31.84,31.84,0,0,0-.72,6.7c0,14.23,9.33,25.76,20.84,25.76s20.83-11.53,20.83-25.76a31.84,31.84,0,0,0-.72-6.7C364.21,462.6,356.12,470.68,346.49,470.68Z"/></g></g></svg>