<svg xmlns="http://www.w3.org/2000/svg" viewBox="0 0 107.74 108.05"><defs><style>.cls-1{fill:#7da1c9;}.cls-2{opacity:0.14;}.cls-3{opacity:0.06;}.cls-4{fill:#f8d6e1;}.cls-5{fill:none;stroke:#7da1c9;stroke-miterlimit:10;stroke-width:2px;}.cls-6{fill:#fff;}</style></defs><g id="Layer_2" data-name="Layer 2"><g id="Layer_3" data-name="Layer 3"><circle class="cls-1" cx="53.87" cy="54.03" r="53.87"/><path class="cls-2" d="M96.3,20.43A53.87,53.87,0,0,1,102,44.62,54.64,54.64,0,0,1,47.17,99.06c-17.7,0-31.95-9.31-42-22.24,9,17.93,26.1,31.23,47.63,31.23a54.64,54.64,0,0,0,54.84-54.44A54,54,0,0,0,96.3,20.43Z"/><path class="cls-3" d="M2.87,71c0-31,24.22-69.69,56-69.69A59.05,59.05,0,0,1,71.53,2.68,58.66,58.66,0,0,0,53.94,0C22.13,0,.07,22.86.07,53.87"/><circle class="cls-4" cx="60.03" cy="41.56" r="35.01"/><path class="cls-5" d="M58.53,12.51S40,9.73,38.15,30,62.8,6.16,76.55,14.49s1.8,22.68-19.25,29.19S40,28.61,30.56,39.59s35.09,33.19,44.1,16.14S50.47,48.2,40,64.45c0,0,44.05,22.46,46.86-17s-43.49-8.83-41.33,0"/><circle cx="33.26" cy="64.02" r="5.09"/><circle cx="67.54" cy="63.62" r="5.09"/><circle class="cls-6" cx="34.85" cy="62.82" r="1.26"/><circle class="cls-6" cx="36.48" cy="65.2" r="0.63"/><circle class="cls-6" cx="69.44" cy="61.95" r="1.26"/><circle class="cls-6" cx="71.07" cy="64.32" r="0.63"/><path d="M57.8,74.74c.1.71-1.23,1.47-2.77,2.28s-2.94,1.41-3.47.91c-.24-.25-.18-.77.21-1.39a5.81,5.81,0,0,1,4.78-2.45C57.28,74.13,57.75,74.39,57.8,74.74Z"/><path d="M34.15,54c.23.06.37.62,0,1.39a4.33,4.33,0,0,1-2.42,1.93,4.85,4.85,0,0,1-3,.14,1.86,1.86,0,0,1-.89-.55c-.17-.24-.16-.42-.07-.5a3.21,3.21,0,0,1,1.1-.31,14.79,14.79,0,0,0,2.25-.6,9.69,9.69,0,0,0,2-1C33.55,54.25,33.88,53.94,34.15,54Z"/><path d="M73.37,60.53c-.55,0-1-2.21-2.72-3.79A6.61,6.61,0,0,0,68,55.35c-.77-.21-1.35-.24-1.43-.51s.42-.71,1.5-.85A5.09,5.09,0,0,1,72,55.31a5.7,5.7,0,0,1,1.82,3.57C73.87,59.9,73.62,60.51,73.37,60.53Z"/></g></g></svg>