<svg xmlns="http://www.w3.org/2000/svg" viewBox="0 0 408.08 284.85"><defs><style>.cls-1{isolation:isolate;}.cls-2,.cls-7{fill:#40513b;}.cls-11,.cls-12,.cls-2,.cls-3,.cls-4,.cls-5,.cls-6{fill-rule:evenodd;}.cls-4,.cls-5,.cls-8{fill:#9dc08b;}.cls-4{stroke:#40513b;stroke-miterlimit:10;stroke-width:0.23px;}.cls-10,.cls-13,.cls-6{fill:#fff;}.cls-6{opacity:0.26;}.cls-11,.cls-9{fill:#e6d5aa;}.cls-10{opacity:0.15;mix-blend-mode:lighten;}.cls-12{fill:#ba9a74;}</style></defs><g class="cls-1"><g id="Layer_2" data-name="Layer 2"><g id="Layer_1-2" data-name="Layer 1"><path class="cls-2" d="M13.09,98.06c-.63-2.77-9.16-13.32-10.93-12.57s-.55,1.5.37,2.4,1.81,2.76,2.53,3.57a13,13,0,0,0-2.32-2c-1.11-.45-.35,1.15-.2,1.79s2.83,2.62,2.83,2.62c2.07,1.94,4.26,9.47,5.23,9C12.2,102,14.29,99.13,13.09,98.06Z"/><polygon class="cls-3" points="67.26 138.21 18.95 105.25 15.68 108.72 32.41 134.34 60.83 160.26 67.26 138.21"/><path class="cls-4" d="M47.8,120.27c-6.92-1.13-14.94,3.35-16.9,6.51A12.36,12.36,0,0,0,29,133.05S13,108.25,9.19,103.48c-.42-.53-1.4-.51-1.48-.54-.78-.32,3.07-5.78-.17-11.17s-8-7-6.38-8c2.87-1.64,6.75,2,8.51,4.11,2,2.38,1.86,3.75,2.73,6,1.29,3.37,1.15,4.68,2.58,5.44C17.68,100.81,49.81,118.94,47.8,120.27Z"/><path class="cls-2" d="M32,125.49a7.74,7.74,0,0,0-1.06,1.29A12.36,12.36,0,0,0,29,133.05S13,108.25,9.19,103.48c-.42-.53-1.4-.51-1.48-.54-.28-.12,0-.88.4-2.07q.48.33.84.54c2.31,1.27,2.47-.65,2.81-.51s-.36,1.44-.12,2.39C11.81,104,24.41,117.44,32,125.49Z"/><path class="cls-5" d="M9.85,99.68C9.25,99.43.74,92,.06,93.76s5.05,6.19,6.32,7.63,2.27,1.92,2.6,1.9S14.49,99.74,9.85,99.68Z"/><path class="cls-6" d="M42.45,117.81s-26.38-17.72-27-17,21.14,16.54,22.32,17.34S42.45,117.81,42.45,117.81Z"/><path class="cls-7" d="M106.9,1.49c102.35-9.78,99,107.81,92.41,140.33-10.35,51.26-29.61,89.27-61,115.33-17.6,14.6-38.12,26.13-59.71,27.56s-44.19-8.88-54.15-29.46"/><path class="cls-8" d="M168.21,151C182.5,87.66,162,44,149.65,27c-13-17.8-34.78-27.65-56.13-25.33-37.33,4.05-64.76,42-57.18,81.28,1.45,7.54,4.11,15.45,8.3,21.69,5,7.38,10.6,13.32,13.77,22,5.47,15.05,2.18,28.7-8.65,40.29-6.17,6.61-13.44,12.51-18.47,20.22a95.68,95.68,0,0,0-14.18,36.35c-1.24,7.41-1.57,15.15.63,22.17,2.62,8.38,8.65,15.06,15.58,19.78,10.91,7.43,23.32,13.73,36.8,11.66,9.44-1.45,18.36-5.93,26.54-11.37C115.35,253.35,151.18,226.37,168.21,151Z"/><path class="cls-7" d="M169.56,151.33c5.91-26.74,6.88-54.61.41-81.35-3.95-16.35-10.52-33.22-21.2-46.42C133.09,4.18,106.55-4.65,82.53,2.42,60.9,8.8,44,26.65,37.11,47.92a71.51,71.51,0,0,0-2.25,34.67,64.76,64.76,0,0,0,6.48,19.24c3.47,6.41,8.55,11.78,12.26,18,8.58,14.46,7.66,31.26-3.16,44.2-4.75,5.68-10.57,10.39-15.44,16a77.13,77.13,0,0,0-11.51,18.32c-5.82,12.51-10.19,27.6-8.4,41.51,1.64,12.71,9.85,21.91,20.28,28.63C46.66,275.77,59.42,280.87,73,278c10.74-2.25,20.28-8,29.14-14.3,31-21.85,50.44-54.78,61.6-90.55,2.25-7.2,4.15-14.49,5.84-21.84.4-1.75-2.3-2.5-2.7-.74-9,39.07-25.68,77.77-57.16,103.86-14.29,11.85-32.95,24.94-52.32,20.88-12.68-2.66-27.25-11.14-34.49-22.12-8.34-12.63-5.56-29.05-1.2-42.62a93.88,93.88,0,0,1,9-19.84c4.13-6.87,9.6-12.35,15.26-17.95,8.25-8.14,15.28-17.12,16.32-29.09,1.08-12.5-4.51-23.38-11.68-33.17C42.28,99.17,37.2,87.19,36.55,72.92c-1.06-23.11,10-46.22,29.16-59.37a60,60,0,0,1,68.08-.08c16.67,11.42,26,31.21,31.55,50,8.38,28.34,7.86,58.4,1.52,87.08C166.47,152.34,169.17,153.09,169.56,151.33Z"/><path class="cls-9" d="M150.9,72.79C145.74,51.57,135,32,115.23,25.72c-17-5.35-38.83-3.81-50.42,13.13C53.34,55.63,53.83,79,59.68,97.4,65,114.19,74.59,131,72.11,149.66c-3,22.22-25,30.9-30.79,51.53a44.74,44.74,0,0,0,8.33,39.33c5.2,6.39,12.41,11.26,20.4,11.88,7.07.54,14.19-2.24,20.26-6.4,42.33-29,64.82-87.73,64.6-139A150.73,150.73,0,0,0,150.9,72.79Z"/><path class="cls-8" d="M118.14,175.63c-2.36-1.54-5.68-1.93-6.9-4.58-1.08-2.35.23-5.37,2.22-7s4.49-2.3,6.87-3.13c8-2.76,15.79-8.65,17.93-17.28s-4.45-19.12-12.63-17.44c-3.14.65-5.87,2.84-9,3.68s-7.2-.52-7.44-3.9c-.33-4.68,5.85-5.94,10.16-7,9.58-2.42,16.47-14,14.37-24.14-3.63-2.94-8.74.71-12.28,4s-9.23,6.32-12.23,2.66A7.31,7.31,0,0,1,108,96.08c.88-8,8.45-12.84,14.76-17.29s12.87-12,10.35-19.42C131,53.14,123.07,51.24,117.3,54s-9.66,8.76-12.57,14.79l-.46,2.47c.44-5.26.87-10.67-.46-15.71S99,45.86,94.19,44.9c-5.2-1-10.57,2.53-13.64,7.28s-4.32,10.51-5.5,16.1c-.5,2.35-1,4.81-.41,7.09,2.09,8.08,13.67,6.15,19.94,11.07-2.5,7.14-13.53,4.23-18.45,9.8-3.53,4-2,11,2.07,14.07s9.64,3,14.57,1.59c1.26-.36,2.66-.78,3.8-.15,2.85,1.56.21,6.53-2.92,7.53s-7,.8-9,3.6c-2.22,3.11-.22,7.73,2.79,9.74s6.74,2.44,10,3.92,6.38,4.82,5.68,8.63c-5.32-.39-12.08.11-14.19,5.44-2,5.13,2,10.24,4.7,14.84s2.75,12.84-2.35,13.69c-4.17.7-7.79-4.85-11.78-3.3s-3.21,8.08-.89,11.87,5.36,8.47,3.1,12.45c-2.7,4.77-9.56,2.6-13.41-.91s-8.24-8.17-13.19-6.53c-5.6,1.85-6.51,10.08-5.11,16.07,1.05,4.54,2.91,9.06,6.36,11.86s8.8,3.33,12.18.21c-2,5.61,1.45,12.55,6.88,13.66s11.39-3.92,11.71-9.87c.15-2.77-.66-5.86.9-8.13,2.77-4,8.35-.63,12.87,0s9.2-2.18,12.24-6,4.79-8.63,6.49-13.3C122.36,189.78,124.32,179.67,118.14,175.63Z"/><ellipse class="cls-9" cx="106.63" cy="197.78" rx="3.27" ry="3.03" transform="translate(-109.28 259.97) rotate(-77.74)"/><ellipse class="cls-9" cx="99.76" cy="158.06" rx="4.67" ry="4.33" transform="translate(-75.89 221.97) rotate(-77.74)"/><ellipse class="cls-9" cx="112.93" cy="111.71" rx="1.4" ry="1.3" transform="translate(-20.22 198.34) rotate(-77.74)"/><ellipse class="cls-9" cx="83.94" cy="98.35" rx="1.87" ry="1.73" transform="translate(-30 159.48) rotate(-77.74)"/><ellipse class="cls-9" cx="55.85" cy="201.07" rx="1.4" ry="1.3" transform="translate(-152.5 212.94) rotate(-77.74)"/><ellipse class="cls-9" cx="76.65" cy="222.54" rx="4.42" ry="4.1" transform="translate(-157.1 250.17) rotate(-77.74)"/><ellipse class="cls-9" cx="86.66" cy="186.14" rx="2.21" ry="2.05" transform="translate(-113.64 231.29) rotate(-77.74)"/><ellipse class="cls-9" cx="126.54" cy="144.72" rx="2.29" ry="2.12" transform="translate(-41.76 237.63) rotate(-77.74)"/><path class="cls-10" d="M168.25,168.29c.14-3.34,20.42-6.62,5.28,30.9-12.81,31.74-36.8,46.11-30.2,29.76C148.39,216.41,166.69,205.33,168.25,168.29Z"/><path class="cls-11" d="M140.08,50.28C131.52,64.52,110.82,66.55,101.87,70c-6.15,2.38-7.49,13.11-.41,15.37,6.31,2,42.75-.48,43.31-1.7C149.55,73.16,145.58,41.11,140.08,50.28Z"/><path class="cls-11" d="M45,47.24C53.66,63,76,66.06,85.54,70.18c6.57,2.84,7.58,14.52-.17,16.67-6.93,1.93-40.45-1.32-41.44-2.39C32.64,72.12,39.39,37.08,45,47.24Z"/><path class="cls-11" d="M202.08,101.66c17.69,35.93,45.8,45.82,71.11,61.15,64.67,39.18,136.39,50.26,134.87,53.64a88.73,88.73,0,0,1-25.63,9.11c-5.15.94-15.66-3-19.09-1.77-8.31,3-4.36,13.91-6.36,13.49-6.94-1.42-13.94-10.61-18.71-8.21-5.63,2.84-11.13,18.87-13.44,19.31-5.32,1-15.84-13.54-19.5-10.51C238.47,293.19,189,183.53,158.68,125,155.76,119.41,178.78,97.53,202.08,101.66Z"/><path class="cls-12" d="M407.17,215.54c.69.35,1,.65.89.91A84.79,84.79,0,0,1,393,222.87c-6.95,2.25-12.16,3.32-19.36,2-4.2-.79-8.37-1.74-10.3-1-5.19,1.88-1.74,4.65-1.8,8-.25,13.59-19.29-4.72-23.27-2.72-5.63,2.84,6.59,14-11.88,19.62-9.2,2.82-21.65-11.88-25.32-8.86C248,283.49,196.16,184.24,159.67,127c.77.14,1.22.24,1.22.24s47.9,54,102.85,72.14C301.59,211.85,365.85,225,407.17,215.54Z"/><path class="cls-12" d="M52.46,164.92c0-.61,1.95-.85,4.09-3a22.35,22.35,0,0,0,3.34-4.73c.58-1,1.17-2.16,1.82-3.4a41.83,41.83,0,0,1,2.27-4c.45-.7.9-1.43,1.4-2.16l1.66-2.1a22.75,22.75,0,0,1,1.87-2.09,26.52,26.52,0,0,1,2.07-2,48.7,48.7,0,0,1,10.23-7.1c7.72-4.15,16.91-6.73,26.49-8.35,4.8-.82,9.52-1.34,14-1.8s8.7-.89,12.72-1.4a121.31,121.31,0,0,0,20.82-4.12,70.89,70.89,0,0,0,13.12-5.44c1.54-.76,2.66-1.46,3.52-1.85s1.4-.5,1.57-.31,0,.7-.57,1.49a17.35,17.35,0,0,1-2.79,3.09,45.22,45.22,0,0,1-13,8.11,95.29,95.29,0,0,1-21.65,6c-4.13.72-8.46,1.31-12.91,1.87s-9,1.11-13.54,1.9c-9.12,1.54-17.61,3.75-24.59,7.09a48.17,48.17,0,0,0-9.3,5.64c-.71.48-1.27,1.09-1.91,1.61a17.11,17.11,0,0,0-1.75,1.64l-1.61,1.66-1.39,1.72c-.94,1.09-1.74,2.31-2.56,3.46s-1.62,2.26-2.44,3.27a19.23,19.23,0,0,1-5.09,4.69A8.05,8.05,0,0,1,54,165.5C53,165.43,52.46,165.17,52.46,164.92Z"/><path class="cls-12" d="M89.75,168.39c-1-.55.15-3.92-1.35-8.83a36.2,36.2,0,0,0-3.84-8.4c-.92-1.53-2-3.12-3.12-4.74l-1.83-2.5-1-1.41c-.24-.29-.48-.58-.7-.89-2.14-2.31-5.87-4-9.35-5.82a31.38,31.38,0,0,1-9.11-6.49c-.54-.66-1-1.3-1.47-1.9s-.74-1.29-1.05-1.87a9.07,9.07,0,0,1-.68-1.71c-.16-.54-.31-1-.4-1.47-.21-1.84,0-2.84.46-3s1.31.54,2.25,1.76a27.08,27.08,0,0,0,4.54,4.17,42.44,42.44,0,0,0,8.42,4.09c1.77.73,3.68,1.45,5.77,2.52a22.08,22.08,0,0,1,6.29,4.56c.47.57.92,1.15,1.36,1.73l.88,1.26c.63.9,1.27,1.83,1.87,2.76a51.25,51.25,0,0,1,3.14,5.65,29,29,0,0,1,3,10.91,17,17,0,0,1-.39,4.49,11.46,11.46,0,0,1-1.25,3.19C91.15,168.07,90.19,168.62,89.75,168.39Z"/><path class="cls-3" d="M63.53,74.57c.14-2.73,1.58-7.11,5.51-7.22,4.14-.1,5.14,4.14,5.51,7.64.39,3.68-.36,8.17-4.74,8.2C65.05,83.22,63.34,78.15,63.53,74.57Z"/><path class="cls-3" d="M113.13,74.57c-.15-2.74-1.59-7.12-5.52-7.22-4.13-.11-5.14,4.14-5.51,7.64-.39,3.68.37,8.17,4.75,8.2C111.6,83.22,113.32,78.15,113.13,74.57Z"/><path class="cls-3" d="M55.09,61.05s4.67-3.43,6.8-1.75A92.16,92.16,0,0,0,69.39,65a12.34,12.34,0,0,0,7.18,2.21,34.16,34.16,0,0,1-5.81-4.1c-3.38-2.86-4.51-5.62-8.23-7.4S55,61.2,55.09,61.05Z"/><path class="cls-3" d="M115.75,58.87s-4.67-3.43-6.8-1.75a90.51,90.51,0,0,1-7.51,5.72,12.21,12.21,0,0,1-7.17,2.21,33.44,33.44,0,0,0,5.81-4.1c3.38-2.86,4.51-5.62,8.22-7.4S115.85,59,115.75,58.87Z"/><path d="M92.11,86.34a.63.63,0,0,1-.6-.44c-.42-1.28-1.89-4.59-3.73-4.59h0c-1.84,0-3.34,3.32-3.76,4.59a.63.63,0,0,1-.8.4.62.62,0,0,1-.4-.79c.18-.56,1.88-5.45,5-5.46h0c3.07,0,4.75,4.9,4.93,5.46a.64.64,0,0,1-.41.8A.63.63,0,0,1,92.11,86.34Z"/><path d="M86.16,100.56a.63.63,0,0,1-.26-1.2c.21-.1,5.25-2.4,8-1a.63.63,0,0,1-.55,1.13c-1.85-.9-5.63.46-6.93,1.06A.66.66,0,0,1,86.16,100.56Z"/><circle class="cls-13" cx="109.45" cy="72.24" r="1.4"/><circle class="cls-13" cx="111.26" cy="77.94" r="0.59"/><circle class="cls-13" cx="67.04" cy="71.64" r="1.4"/><circle class="cls-13" cx="65.23" cy="77.35" r="0.59"/><path class="cls-3" d="M136.21,135.27s-6.81,15.34-5.28,25.87-.9,6.94,3.11,6.36c2.25-.33,2.29,8.62,5,9.38,4.86,1.35,12.31-4.51,15.38-7.41,8.17-7.68,6.78-21.85,4.36-30.62L146,133.43Z"/><path class="cls-4" d="M140.19,158.63c-13.92-.49-19-2.88-34.15-12.17-3.18-2,.61-20.37-6.52-11.26-2,2.55-4.52,3-5.77,5.69s1.09,7,1.09,7l29.86,28.32c1.42,1.34,10.68,9.08,15.45,6.24.88-.52-3.06-10.64-2.17-11.22C144.86,166.78,141.81,158.69,140.19,158.63Z"/><path class="cls-2" d="M93.4,143.38a13.17,13.17,0,0,0,1.44,4.55l29.86,28.32c1.19,1.13,11.58,8.32,15.45,6.24-17.94-11.13-41.83-34.76-42.48-35.2S95.39,145.06,93.4,143.38Z"/><path class="cls-4" d="M103.38,147.23l1.81-2s2.3.4,2.45,0,2.64-3.35,2.15-6.95-.15-4.68-2.66-5.79-5.12-3.83-5.91-3.55-9.58,4-9.58,4l1.93,11.58Z"/><path class="cls-6" d="M138.57,162.43c-.84,1.51-4.68,1.22-9.95-.51s-17.17-10-17.17-10,20.45,9.31,24,8.35S139,160.92,138.57,162.43Z"/></g></g></g></svg>