<svg xmlns="http://www.w3.org/2000/svg" viewBox="0 0 114.26 188.56"><defs><style>.cls-1{fill:#bb5872;}.cls-1,.cls-2,.cls-4{fill-rule:evenodd;}.cls-2{fill:#ffd0d0;}.cls-3,.cls-5{fill:#7da1c9;}.cls-4{fill:#c2d5ed;}.cls-5{font-size:13.2px;font-family:HighTowerText-Reg, High Tower Text;}.cls-6{opacity:0.15;}.cls-7{fill:#fff;}</style></defs><g id="Layer_2" data-name="Layer 2"><g id="Layer_1-2" data-name="Layer 1"><path class="cls-1" d="M17.43,31.32c0,5.53,3.09,30.39,1.7,55.16C16.47,133.78-2.79,187.92.34,187.28c9.28-1.9,22.42-5.74,27.26-2.87s17.1,7.06,22.91,1.18,10.82-7.56,20.26-4c5.84,2.22,15.53-16.12,21-17.91,6.24-2,8.57,13,15.34,14.26,2.31.45,5.2-11.22,5.63-14.1,7.46-49.74-15.34-122.21-23.65-151.09C89.13,12.77,48.5-1.43,17.43,31.32Z"/><path class="cls-2" d="M28,42.84c-.69,8-3.28,57.9-7.59,92.61-2.62,21.07-8.2,34.69-7.68,35.18,2,1.94,20-5.8,28.33-8.36,4.42-1.36,4.25,8.95,8.18,10.29,4.39,1.48,10.66-4.16,13.8-4.13,7.88.08,10.61,5.09,15,2.29,5.59-3.59,9.45-15.46,20.21-14.9,14.15.73,8.25-6.32,13.4-17.77S92.46,42.27,88.22,34.64,49.67,12.23,28,42.84Z"/><path class="cls-1" d="M49.33,74.81s-2.52,36.82-8,65c-2.57,13.28-7.87,22.52-10,29-2.87,8.6,5.85,9.5,7.69,9.37,1.65-.12,12.16,1.48,10.23-5.62C43,149.51,51.42,71.29,49.33,74.81Z"/><path class="cls-1" d="M87.22,111.8S80,159.54,78,170.72c-.53,2.91,10.84-7.15,11.61-7.24C93.72,163,88.75,109,87.22,111.8Z"/><ellipse class="cls-3" cx="59.9" cy="52.55" rx="52.65" ry="52.54"/><path class="cls-4" d="M12.77,54.05a22.85,22.85,0,0,0,10,19.9A22.94,22.94,0,0,0,45,75.44c3.37-1.63,6.45-4.33,7.43-7.93.51-1.86.42-3.86,1-5.69,1.17-3.52,4.67-5.74,8.14-7.08S68.85,52.65,72,50.66c1.23-.78,2.45-1.93,2.46-3.39,0-2.62-3.77-4.31-3.26-6.88a3.83,3.83,0,0,1,1.33-2c5.79-5.09,16.36-3,20.62-9.4,2.38-3.59,1.53-8.6-1-12.11S85.93,11,82.05,9.07C55.16-4,38.82,6.79,32.76,11.63,14.25,26.44,11.85,48,12.92,58.4"/><path class="cls-1" d="M46,15.69s2.69,4,13.32,4.12,16.64-3.11,17.59-3.74,4.64.89,4.64.89C77.84,19,70.3,23.63,60.7,23.63a64.27,64.27,0,0,1-16.42-2.51c-4-1.13-6.44-2.29-5.67-2.68Z"/><path class="cls-1" d="M62.59,18.69c4.2-.25,5.53,1.88,5.2,3.54a4,4,0,0,1-4,3.22C55.91,25.53,58.46,18.94,62.59,18.69Z"/><path class="cls-1" d="M73.38,15.34c.41-.43,17.57-2.91,23.63-.69s5.72,4.63,5.72,4.63c-8.08-5.68-14.34-3.68-23-1C75.87,19.45,73.21,15.53,73.38,15.34Z"/><path class="cls-1" d="M46.55,16.22c-.38-.45-17.41-3.69-23.56-1.74s-5.93,4.37-5.93,4.37c8.33-5.32,14.49-3,23.05,0C43.89,20.21,46.72,16.41,46.55,16.22Z"/><text class="cls-5" transform="translate(60.59 24.69)">s</text><path class="cls-6" d="M12.7,58A52.6,52.6,0,0,1,65.35,5.47C77,5.47,88.3,8.92,97,15.28A52.51,52.51,0,0,0,59,0C30.76.56,7.24,23.53,7.24,52.55c0,17.43,7.4,32.17,23.52,43.77C21.34,86.83,12.7,72.43,12.7,58Z"/><path class="cls-6" d="M101.35,20.73c4.84,8,6,15.22,6,25.2A52.59,52.59,0,0,1,54.67,98.47,30.84,30.84,0,0,0,41.5,101.8a53.22,53.22,0,0,0,17.94,3.27c29.07.72,53.11-23.5,53.11-52.52C112.55,39.65,109.08,29.88,101.35,20.73Z"/><ellipse cx="45.01" cy="48.67" rx="5.05" ry="5.04"/><circle class="cls-7" cx="42.45" cy="47.57" r="1.1"/><circle class="cls-7" cx="42.45" cy="50.28" r="0.51"/><path d="M44.79,37.5c-.13.27-.54.36-1,.55a7,7,0,0,0-1.58.88c-.58.44-1.14,1-1.63,1.37s-.93.57-1.18.41-.29-.63-.08-1.28a4.57,4.57,0,0,1,1.59-2.22,3.51,3.51,0,0,1,2.91-.69C44.64,36.75,44.92,37.25,44.79,37.5Z"/><ellipse cx="78.51" cy="48.67" rx="5.05" ry="5.04"/><circle class="cls-7" cx="81.06" cy="47.57" r="1.1"/><circle class="cls-7" cx="81.06" cy="50.28" r="0.51"/><path d="M76.89,36.55c-.13-.25.16-.75,1-1a3.48,3.48,0,0,1,2.92.68,4.7,4.7,0,0,1,1.59,2.23c.2.65.17,1.11-.08,1.27s-.69,0-1.18-.41-1-.92-1.64-1.36a6.59,6.59,0,0,0-1.58-.88C77.43,36.91,77,36.83,76.89,36.55Z"/><path d="M65.79,61.47c.09.28-.2.67-.81,1a5.42,5.42,0,0,1-2.59.55A6.3,6.3,0,0,1,61,62.8a3.68,3.68,0,0,1-1.21-.55,1.34,1.34,0,0,1-.6-.94.43.43,0,0,1,.27-.47,1.18,1.18,0,0,1,.45,0,2.28,2.28,0,0,0,.51,0c.21,0,.49,0,.88,0l1.2,0C64.12,60.91,65.58,60.9,65.79,61.47Z"/></g></g></svg>