<svg xmlns="http://www.w3.org/2000/svg" viewBox="0 0 661.87 2461.91"><defs><style>.cls-1{fill:#534741;}.cls-19,.cls-2{fill:#fff;}.cls-2{opacity:0.15;}.cls-3{fill:#f1d2be;}.cls-4{fill:#cfa184;}.cls-5{fill:#d7bea6;}.cls-6{fill:#465958;}.cls-13,.cls-7{fill:#dedcdd;}.cls-14,.cls-7,.cls-8{stroke:#000;stroke-miterlimit:10;stroke-width:0.25px;}.cls-8{fill:#f9f3f7;}.cls-9{fill:#4a2e38;}.cls-10{fill:#dead8e;}.cls-11{fill:#e38dac;opacity:0.35;}.cls-12{opacity:0.38;}.cls-14{fill:none;}.cls-15{fill:#c9cbcd;}.cls-16{fill:#c49a6c;}.cls-17{fill:#603913;}.cls-18{fill-rule:evenodd;}.cls-20{opacity:0.1;}</style></defs><g id="Layer_2" data-name="Layer 2"><g id="creation_people_character" data-name="creation people character"><path d="M405.91,36.58c-14.21-3.66-29.19-3.43-43.11,1.9,20.13-14.85,48.15-18.25,71.25-8.66C392.54,1.87,333,4.25,293.83,35.43,264.1,59.11,237.23,91.58,257,128.32a135.54,135.54,0,0,1,14.27,44.78c2.45,16.8,9.82,31.41,25.62,38.22,39.81,17.17,107.7,33.06,124.72-6.8,22.28-52.18,57.35-71.26,44.31-112.6C457.31,64.79,433,43.58,405.91,36.58Z"/><path d="M356.86,3.12a3.21,3.21,0,0,1,0,.76,3.33,3.33,0,0,1-3.58,3.06A89.88,89.88,0,0,0,258.5,76.17c-2.72,11.68-2.64,22.23.23,31.35a3.33,3.33,0,1,1-6.35,2c-3.24-10.27-3.36-22-.36-34.86A96.57,96.57,0,0,1,353.84.3,3.32,3.32,0,0,1,356.86,3.12Z"/><path d="M473,90a99.54,99.54,0,0,1-10.46,61.2c-17.26,32.47-52.91,57.34-95.36,66.53a3.33,3.33,0,0,1-1.41-6.51c40.56-8.78,74.54-32.38,90.89-63.15a93.58,93.58,0,0,0,9.95-55c-2.43-19.55-11.05-36.77-24.29-48.45a3.33,3.33,0,1,1,4.41-5C461.11,52.3,470.05,70.4,473,90Z"/><path class="cls-1" d="M215.94,2268.94s-51.69,9.52-59.43,24.61-43.75,80-59,107S73,2433.88,86.68,2449.85c13.25,15.42,74.52,22.44,124.65-19.18,16.07-13.34,39.91-55.75,52.47-81C270.1,2337,276.94,2262.76,215.94,2268.94Z"/><path d="M215.94,2268.94s-51.69,9.52-59.43,24.61-43.75,80-59,107S73,2433.88,86.68,2449.85c13.25,15.42,74.52,22.44,124.65-19.18,16.07-13.34,39.91-55.75,52.47-81C270.1,2337,276.94,2262.76,215.94,2268.94Z"/><path class="cls-2" d="M245,2273.94c21.4,19.65,16.52,61.66,11.92,70.89-12.56,25.27-36.4,67.68-52.47,81-43.94,36.48-96.45,35.59-117.66,24.42,14,15.13,74.59,21.65,124.27-19.59,16.06-13.34,39.91-55.75,52.47-81C268.54,2339.57,273.9,2290.38,245,2273.94Z"/><path class="cls-3" d="M161.7,2301.78s-42.19,76.39-46.35,96,65.61,16.07,84.06-4.64c25.32-28.41,34.27-60.72,42.05-75.53s.86-34.63-3.22-51.66-67-14.16-68.78,3.23C167.39,2289.59,161.7,2301.78,161.7,2301.78Z"/><path class="cls-3" d="M156,2174.8c5.68,72.94,10.45,134,11.43,145.92,2.26,27.36,67.61-19.28,67.61-19.28s9.95-60.56,20.5-142.11Z"/><path class="cls-1" d="M520.31,2270.52s52,7.76,60.23,22.57S627,2371.55,643.16,2398s25.67,32.5,12.5,48.92c-12.72,15.87-73.71,25-125.24-14.92-16.5-12.78-41.78-54.36-55.2-79.18C468.5,2340.38,459.13,2266.42,520.31,2270.52Z"/><path d="M520.31,2270.52s52,7.76,60.23,22.57S627,2371.55,643.16,2398s25.67,32.5,12.5,48.92c-12.72,15.87-73.71,25-125.24-14.92-16.5-12.78-41.78-54.36-55.2-79.18C468.5,2340.38,459.13,2266.42,520.31,2270.52Z"/><path class="cls-2" d="M491.44,2276.51c-20.71,20.36-14.4,62.18-9.49,71.26,13.41,24.82,38.69,66.4,55.2,79.18,45.16,35,97.6,32.28,118.43,20.4-13.48,15.6-73.82,24.17-124.87-15.35-16.51-12.78-41.79-54.36-55.2-79.18C470.15,2342.9,463.11,2293.92,491.44,2276.51Z"/><path class="cls-3" d="M575.64,2301.49s44.77,74.91,49.59,94.33-65,18.29-84.17-1.78c-26.27-27.53-36.32-59.51-44.6-74.05s-2-34.58,1.46-51.74,66.49-16.43,68.85.88C569.53,2289.5,575.64,2301.49,575.64,2301.49Z"/><path class="cls-3" d="M577,2174.39c-3.2,73.09-5.88,134.28-6.46,146.22-1.32,27.43-68.22-17-68.22-17s-12-60.19-25.33-141.32Z"/><rect class="cls-3" x="284.9" y="531.16" width="138.9" height="208.88"/><path class="cls-4" d="M284.9,531.16v102.1c18.24,10,39.85,13,60.43,9.85,29.42-3.84,56.47-17.84,78.47-37.88V531.16Z"/><path class="cls-3" d="M503,693.49c0,35.49-90.36,199.43-148.69,199.43S205.65,729,205.65,693.49s90.36-36.93,148.7-36.93S503,658,503,693.49Z"/><polygon class="cls-3" points="472.21 1062.74 509.84 1222.04 205.65 1222.04 240.48 1062.74 472.21 1062.74"/><path class="cls-5" d="M551.38,694.57c-8.82-15-127-43.54-127-43.54s-6.9,179.11-69.75,216.25C291.8,830.14,284.9,651,284.9,651s-118.17,28.5-127,43.54c-31.8,54.21,43.73,148.31,47.74,202.83s-.29,324.64-.29,324.64h298s-3.72-270.12.29-324.64S583.18,748.78,551.38,694.57Z"/><path class="cls-6" d="M205.65,1173.58s-38.54,128.34-36.75,242.72-89.42,812.87-89.42,812.87L309,2236.86,340.8,1676s15-173.45,26.66-188.69,49.2-11.62,49.2-11.62l3.56-302.08Z"/><path class="cls-6" d="M550.33,1173.58s29.74,124.46,27.95,238.85,41.28,818.65,41.28,818.65L412.74,2238l-14.5-594.52s1.92-141-9.71-156.2-49.2-11.62-49.2-11.62l-3.57-302.08Z"/><path class="cls-7" d="M425.05,625.9,386.18,944.25a1863.79,1863.79,0,0,0-2.3,431.74l16.8,151c12.15,109.19,100.64,191.54,205.82,191.54h15.91c38.11-355.44-49.17-518.63-94.4-604.17-35.38-66.89-29.16-121.07-16.3-178.72L562,677.49Z"/><path class="cls-8" d="M425.05,625.9l43.51,25.26c19.3,11.21,23.2,31.8,8.81,46.55l-62.81,64.35,29.18,27.63c9.44,8.94,12.21,20.82,7.37,31.62L385.29,968S389.27,686.16,425.05,625.9Z"/><path class="cls-7" d="M586.48,1089.43h0a56,56,0,0,1-60.24-51C508.38,925.92,498,820.14,500.31,725.74a56,56,0,0,1,51-60.23h0c71.71,0,87,242.22,86.18,363.68A56,56,0,0,1,586.48,1089.43Z"/><path d="M236.41,94.17c.3.1-.17,2.32-1.18,6.23-.49,2-1.12,4.35-1.73,7.12A73.9,73.9,0,0,0,232,117a42,42,0,0,0,.42,11.32A29,29,0,0,0,237.1,140a28,28,0,0,0,10.72,8.63c4.45,2.14,9.55,3.59,14.85,5.14a91.9,91.9,0,0,1,15.54,5.6,35.49,35.49,0,0,1,12.27,10,47.68,47.68,0,0,1,6.77,12.41,90.42,90.42,0,0,1,3.46,11.54c1.68,7.11,2.71,12.85,3.55,16.8.19,1,.37,1.86.52,2.64s.29,1.41.37,1.94c.18,1.06.2,1.64.05,1.69s-.47-.44-.93-1.42c-.23-.49-.49-1.1-.8-1.83s-.58-1.6-.93-2.54c-1.37-3.84-2.9-9.55-5-16.43a101.65,101.65,0,0,0-3.85-11A46,46,0,0,0,287.18,172a32,32,0,0,0-11-8.62,94.68,94.68,0,0,0-14.82-5.21,95.7,95.7,0,0,1-15.55-5.51,31.65,31.65,0,0,1-12.22-10.27,32,32,0,0,1-5-13.48,42.64,42.64,0,0,1,.11-12.3,64.26,64.26,0,0,1,2.26-9.72c.86-2.78,1.75-5.12,2.51-7C235.08,96.07,236.11,94.07,236.41,94.17Z"/><path d="M467.22,155.7c.26-.06,1,1.23.76,3.79a15.25,15.25,0,0,1-5,9.26,27.56,27.56,0,0,1-6,4.11c-2.26,1.2-4.73,2.24-7.19,3.37A54.75,54.75,0,0,0,429.24,192c-1.79,2.23-3.4,4.65-5.18,6.9a29.9,29.9,0,0,1-5.91,5.88,26.68,26.68,0,0,1-6.43,3.42,23.56,23.56,0,0,1-10.24,1.42c-2.42-.25-3.67-.8-3.63-1.09s1.36-.39,3.6-.69a29.49,29.49,0,0,0,9-2.63,26.1,26.1,0,0,0,5.34-3.43,28.64,28.64,0,0,0,4.89-5.43c1.56-2.15,3.09-4.62,5-7.12a53.42,53.42,0,0,1,6.59-7.11,52.87,52.87,0,0,1,15.81-9.8c2.61-1.06,5-1.93,7.19-2.9a27.64,27.64,0,0,0,5.54-3.16,15.61,15.61,0,0,0,5.39-7.16C466.93,157.07,466.87,155.75,467.22,155.7Z"/><path class="cls-7" d="M284.74,623.9,323.6,942.25A1863.79,1863.79,0,0,1,325.9,1374l-16.8,151C297,1634.18,208.46,1716.53,103.29,1716.53H87.38c-38.12-355.44,49.16-518.63,94.4-604.17,35.37-66.89,29.15-121.07,16.29-178.72L147.78,675.49Z"/><path class="cls-8" d="M284.74,623.9l-43.51,25.26c-19.31,11.21-23.21,31.8-8.81,46.55l62.81,64.35-29.18,27.63c-9.45,8.94-12.22,20.82-7.38,31.62L324.49,966S320.52,684.16,284.74,623.9Z"/><path class="cls-7" d="M40.28,1067.32h0a56,56,0,0,0,70.72-35C155.34,927.34,190.82,827.15,211.24,735a56,56,0,0,0-35.05-70.72h0C106.58,647,33.56,878.48,5.22,996.6A56,56,0,0,0,40.28,1067.32Z"/><path class="cls-9" d="M434.32,188.64c-92.51-23.92-162.82,22.16-161.21-1.76.38-5.7-3.71-13-1.59-14.94,66.73,18.9,144.78-39,168.37,7.83C442.21,182.38,432.2,184.87,434.32,188.64Z"/><circle class="cls-3" cx="185.22" cy="435.86" r="43.14"/><path class="cls-10" d="M173.22,414.54a19.27,19.27,0,0,0-15,15.51c-1.19,7.68,3.08,15.55,9.79,19.23,3,1.64.32,6.22-2.68,4.58a23.88,23.88,0,0,1,6.51-44.43c3.33-.7,4.75,4.41,1.41,5.11Z"/><circle class="cls-3" cx="504.68" cy="435.86" r="43.14"/><path class="cls-10" d="M516.67,414.54a19.26,19.26,0,0,1,15,15.51c1.19,7.68-3.08,15.55-9.79,19.23-3,1.64-.32,6.22,2.68,4.58a23.88,23.88,0,0,0-6.51-44.43c-3.33-.7-4.75,4.41-1.41,5.11Z"/><path class="cls-3" d="M509.66,417.62c0,114-73.3,191.31-163.72,191.31S182.22,531.57,182.22,417.62s17.26-206.3,163.72-206.3S509.66,303.68,509.66,417.62Z"/><circle class="cls-11" cx="450.8" cy="483.51" r="27"/><circle class="cls-11" cx="248.04" cy="483.51" r="27"/><g class="cls-12"><path d="M367.74,175.65s.06,0,.18-.05l.54-.11,2.1-.38c1.82-.3,4.47-.73,7.75-1.15a210.75,210.75,0,0,1,25.78-1.66,89.49,89.49,0,0,1,14.22.73,23.52,23.52,0,0,1,6,1.8,21.85,21.85,0,0,1,4.54,3c1.3,1,2.45,2,3.53,2.72a12.61,12.61,0,0,0,3,1.54,8.71,8.71,0,0,0,2.8.46s-.06,0-.19,0l-.55,0a7.18,7.18,0,0,1-2.11-.36,12.28,12.28,0,0,1-3-1.51C431.13,180,430,179,428.66,178a21.82,21.82,0,0,0-4.51-2.88,23.24,23.24,0,0,0-5.9-1.75,92.2,92.2,0,0,0-14.15-.7,231,231,0,0,0-25.76,1.56c-3.28.39-5.93.77-7.76,1l-2.1.31-.55.08Z"/></g><g class="cls-12"><path d="M320.74,183.9a3.09,3.09,0,0,1-.54.14l-1.58.33-5.82,1.16-8.64,1.67-5.11,1a35.25,35.25,0,0,1-5.56.65,17.71,17.71,0,0,1-10.27-3,35.54,35.54,0,0,1-6.66-5.78c-1.71-1.85-3-3.44-3.82-4.55-.44-.55-.76-1-1-1.29a2.78,2.78,0,0,1-.32-.46,2.38,2.38,0,0,1,.37.42l1,1.24c.89,1.08,2.18,2.65,3.89,4.47a36.59,36.59,0,0,0,6.66,5.66,17.64,17.64,0,0,0,10.08,3,37.58,37.58,0,0,0,5.51-.64l5.11-.95,8.65-1.6,5.84-1,1.59-.27A2.64,2.64,0,0,1,320.74,183.9Z"/></g><path d="M461.74,309.07a348.38,348.38,0,0,1,3.67,84.72,908.17,908.17,0,0,0-222.85-3.87,587.37,587.37,0,0,1,9.27-93c-17.65,32.81-41.44,112.47-76.7,139-14.85-1.3-22.16-6.51-15.85-37.58,2.68-41,11.51-81.69,30.61-117.88,23.88-45.24,65.34-82.82,115.49-93.55,63.59-21.41,138,.68,181.25,51.2,36.89,43.08,61.2,137.69,45.07,192C529,430.13,496.46,443.09,461.74,309.07Z"/><path d="M192.64,565.26c-.62-.11-1.1-1.17-1.44-3-.18-.93-.29-2-.51-3.37s-.28-2.82-.56-4.5-.45-3.53-.81-5.54-.76-4.19-1.18-6.51c-1-4.64-2.32-9.86-4.1-15.61s-4-12-6.5-18.75-5.38-14-8.24-21.85a243.71,243.71,0,0,1-8-25.49,113.71,113.71,0,0,1-3.51-29.78c0-1.31.13-2.63.21-3.95s.18-2.62.38-3.93.33-2.6.54-3.89.51-2.57.77-3.85a70.8,70.8,0,0,1,2-7.45c.77-2.41,1.63-4.74,2.55-7,3.7-9,8.16-16.77,12.19-23.92,8.13-14.35,15.68-27.15,22.25-37.78,13.14-21.26,22.38-33.81,24.62-32.62s-3,15.88-13.18,38.69c-5.1,11.4-11.46,24.83-18.77,39.62-3.67,7.41-7.5,14.89-10.4,22.58-.73,1.92-1.39,3.86-2,5.8a58.25,58.25,0,0,0-1.47,5.89l-.57,3c-.15,1-.25,2-.39,3.06s-.21,2.06-.28,3.11-.18,2.08-.16,3.15a108.09,108.09,0,0,0,2.68,25.26c1.8,8.29,4.13,16.36,6.49,24.16s4.7,15.31,6.68,22.51a206.88,206.88,0,0,1,4.66,20.47,115.39,115.39,0,0,1,1.67,17.52c0,2.61-.05,5-.28,7.26-.11,1.12-.17,2.18-.33,3.19s-.32,2-.47,2.87a38.87,38.87,0,0,1-1.13,4.75,20.78,20.78,0,0,1-1.26,3.38C194,564.51,193.26,565.36,192.64,565.26Z"/><path d="M487.63,542.54c-.39-.5-.2-1.45.51-2.8a47.29,47.29,0,0,1,3.55-5.25c3.22-4.29,8.07-10.17,13.23-17.73s10.51-16.9,13.73-27.77a64.05,64.05,0,0,0,2.68-17.16,75,75,0,0,0-.53-9.23c-.42-3.17-.94-6.4-1.72-9.72-3-13.27-8.05-26.4-11.1-39.39a160.34,160.34,0,0,1-4.49-34.81,106.41,106.41,0,0,1,1.93-23.46c1.21-5.47,2.64-8.37,3.88-8.3,2.65.16,3.64,12.11,7.08,30.48A266.4,266.4,0,0,0,524.25,409c1.83,5.79,4.06,11.91,6.35,18.51A199.3,199.3,0,0,1,537,448.87a104.39,104.39,0,0,1,2,11.71,82.56,82.56,0,0,1,.35,11.86,72.85,72.85,0,0,1-4.63,21.95,85.73,85.73,0,0,1-9.11,17.54,95.91,95.91,0,0,1-10.59,13,88.54,88.54,0,0,1-18.55,14.88,27.85,27.85,0,0,1-5.92,2.75C489,543.05,488,543,487.63,542.54Z"/><path d="M550,463.62c-.71.05-1.31-6.49-4-16.57a116.28,116.28,0,0,0-6.12-17.17c-1.4-3.13-3-6.31-4.87-9.59s-3.88-6.71-5.66-10.5a65,65,0,0,1-4-11.48c-1-3.77-1.66-7.42-2.29-10.87-1.26-6.91-2.19-13.17-2.85-18.43-1.3-10.54-1.52-17.12-.91-17.2s2,6.33,4.11,16.67c1.06,5.17,2.31,11.32,3.79,18.13s3,14.24,6.33,21.24c1.66,3.52,3.61,6.9,5.44,10.28a100.07,100.07,0,0,1,4.82,10.09,93.55,93.55,0,0,1,5.39,18.11A74.58,74.58,0,0,1,550.5,459C550.54,462,550.28,463.6,550,463.62Z"/><path d="M209.43,475c-.76-.14.75-6.48-1.3-16.41a97.87,97.87,0,0,0-5.32-17c-2.49-6.28-5.72-13.11-8.44-20.68s-4.53-15.28-4.47-22.46a63,63,0,0,1,3.23-18.39c1.56-5,3-8.91,4-11.64s1.6-4.22,1.91-4.15.28,1.71-.19,4.6-1.42,7-2.55,12-2.35,11-2.15,17.5,1.92,13.68,4.57,21,5.72,14.18,8.07,20.73a80.45,80.45,0,0,1,4.57,18,39.85,39.85,0,0,1-.29,12.57q-.24,1.09-.45,1.92c-.17.55-.34,1-.48,1.37C209.81,474.69,209.58,475.05,209.43,475Z"/><path class="cls-3" d="M523.35,1432.45s7.39,55.41,5.52,63.17-21.1,62.45-17,71.76,16.94,2.06,22.28-14,17.88-56,17.32-62.94,3.94-33.42,3.16-41S535.4,1407,523.35,1432.45Z"/><path class="cls-3" d="M551.62,1446.36c-6.31,10.66,3.85,44.49,2.48,47.61s-16.49,42.55-20.15,56.33,9.65,13.14,18.74-2.21,19.92-44.13,21.07-49.47,9.22-48.1,9.26-59S560.71,1431,551.62,1446.36Z"/><path class="cls-3" d="M566.39,1422.15c-4,11.73,10.27,44.82,9.58,48.15s-16.4,39.17-17.13,53.41,12.17,10.84,17.88-6S599,1471.4,599,1465.94s-7.08-43.48-9.31-54.18S572.1,1405.25,566.39,1422.15Z"/><path class="cls-3" d="M517.36,1433.6c-.37,5.16,3.85,16.08,9.64,27,3.86-.71,7.74-1.3,11.61-1.83,14.35-1.94,28.66-3,43-5.18q4.79-.75,9.59-1.72c4.72-27.88-1.66-92.59-40.27-78.24C551,1373.67,518.2,1421.91,517.36,1433.6Z"/><path class="cls-3" d="M551.82,1373.37s-26.77,20.54-35.78,28.78c-6.46,5.9-23.29,27.19-25.56,29s5.61,39.8,8.06,44.84,11.36,3.62,18-8.8.9-31.32.9-31.32,34.5-17.65,42.74-31.68S551.82,1373.37,551.82,1373.37Z"/><path class="cls-13" d="M591.86,1392.13l-49.45-9.9L529,1053.85c-1-24.76,25.86-41.54,57.65-36h0c30.07,5.24,52.31,28.41,49.2,51.25Z"/><polyline class="cls-14" points="635.82 1069.1 591.86 1392.13 542.41 1382.23 528.97 1053.85"/><polygon class="cls-15" points="503.36 1089.62 426.05 1089.62 407.38 933.64 520.68 933.64 503.36 1089.62"/><polygon class="cls-16" points="420.44 1063.12 507.83 1063.12 517.96 978.06 410.32 978.06 420.44 1063.12"/><polygon class="cls-17" points="510.54 925.39 420.32 925.39 406.94 933.54 408.78 951.89 519.54 951.89 521.34 933.54 510.54 925.39"/><path class="cls-3" d="M414,1026.53s51.53,21.67,59.51,21.91,65.79-4,73.7,2.41-2.45,16.88-19.37,17.82-58.73,2.56-65.28.2-33.29-5-40.39-7.72S386.27,1031.47,414,1026.53Z"/><path class="cls-3" d="M420,1057.46c11.94-3.29,41.92,15.39,45.29,14.89s45.39-4.74,59.65-4.66,10.14,12.76-7.05,17.51-47.82,7.63-53.27,7.35-48.84-3.74-59.39-6.56S402.85,1062.21,420,1057.46Z"/><path class="cls-3" d="M392.8,1065.36c12.36-.74,40.55,21.68,43.95,21.89s42.1-5.55,56-2.52,7.27,14.59-10.53,15.66-50.5,9.39-55.76,8-40.1-18.25-49.84-23.2S375,1066.44,392.8,1065.36Z"/><path class="cls-3" d="M416.72,1021.05c5.07,1,14.5,7.94,23.56,16.4-1.7,3.55-3.29,7.13-4.81,10.73-5.64,13.33-10.37,26.88-16.29,40.14-1.32,3-2.71,5.9-4.18,8.81-28.14-2.76-88.91-25.9-64.93-59.39C350.07,1037.74,405.22,1018.79,416.72,1021.05Z"/><path class="cls-3" d="M349.56,1038.5s26.84-20.44,37.15-27c7.4-4.68,32.35-15.34,34.73-17s36.93,15.85,41.16,19.54.5,11.91-13.22,15-30.46-7.36-30.46-7.36-26.08,28.67-41.79,32.94S349.56,1038.5,349.56,1038.5Z"/><path class="cls-7" d="M367.77,1081.51l-1.14-50.42-321-70.45C21.41,955.32.2,978.86.13,1011.14h0C.05,1041.65,19,1067.59,42,1068.51Z"/><path class="cls-18" d="M254.74,430.75c.56-13.6,6.1-35.36,21.18-35.86,15.9-.54,19.77,20.56,21.19,37.91,1.5,18.31-1.4,40.63-18.24,40.77C260.59,473.73,254,448.53,254.74,430.75Z"/><path class="cls-18" d="M436.69,429.43c-1.41-13.54-8.29-34.91-23.37-34.47-15.91.45-18.46,21.75-18.79,39.15-.36,18.37,3.92,40.46,20.73,39.56C433.52,472.69,438.53,447.13,436.69,429.43Z"/><path d="M232.23,436.65a2.42,2.42,0,0,1-.88-4.68c.47-.21,8.4-4.1,32.86-35.21,10.14-12.9,24.3-20.49,36.07-19.35,6.36.62,11.33,3.82,14,9a2.42,2.42,0,0,1-4.31,2.21c-2.41-4.71-6.84-6.09-10.14-6.41-8.33-.81-21.39,4.3-31.79,17.52-25.83,32.85-34.13,36.46-35,36.76A2.21,2.21,0,0,1,232.23,436.65Z"/><path d="M473.23,440.8c-1.63-.35-10.76-3.94-30.83-40-6.72-12.09-15.46-19-24.59-19.42a17.6,17.6,0,0,0-15.46,7.56,2.42,2.42,0,0,1-4-2.75A22.4,22.4,0,0,1,418,376.51c6.3.3,18.38,3.55,28.59,21.91,19.1,34.35,27.69,37.65,27.77,37.68l-.15,0Z"/><path class="cls-18" d="M229.68,370.56s23.64-.1,45.6-11.49c18.54-9.61,28.15-27.9,28.15-27.9s5.29,22-21.91,38C247.87,389,225.43,366.82,229.68,370.56Z"/><path class="cls-18" d="M479,374.93s-23.51-2.45-44.24-16c-17.49-11.39-25.25-30.54-25.25-30.54s-7.43,21.34,18,40C459.05,391.45,483.57,371.63,479,374.93Z"/><path d="M342.24,467.85a2.51,2.51,0,0,1-.76-.12,2.42,2.42,0,0,1-1.54-3.06c.71-2.14,7.23-20.94,19.05-21H359c11.86,0,19.38,17.16,19.7,17.89a2.42,2.42,0,1,1-4.45,1.92c-1.81-4.17-8.05-15-15.25-15h0c-7.09,0-12.85,12.76-14.47,17.67A2.41,2.41,0,0,1,342.24,467.85Z"/><circle class="cls-19" cx="429.67" cy="447.08" r="4.55"/><circle class="cls-19" cx="418.08" cy="461.32" r="2.3"/><circle class="cls-19" cx="267.49" cy="449.77" r="4.55"/><circle class="cls-19" cx="279.09" cy="464" r="2.3"/><path d="M333.16,539.37c-.5-.28.59-3.5,3.66-8l1.25-1.74c.44-.6.95-1.18,1.45-1.8,1-1.26,2.21-2.47,3.47-3.77a57.6,57.6,0,0,1,19.64-12.65c1.7-.61,3.31-1.2,4.86-1.59.78-.2,1.52-.43,2.25-.58l2.09-.41c5.38-.94,8.76-.6,8.81,0s-3.11,1.48-8,3.15l-1.91.67c-.66.23-1.33.53-2,.79-1.42.52-2.88,1.21-4.43,1.88a86.6,86.6,0,0,0-9.63,5.28,85.57,85.57,0,0,0-8.79,6.58c-1.25,1.14-2.49,2.18-3.54,3.26-.54.53-1.09,1-1.57,1.52l-1.4,1.47C335.8,537.15,333.75,539.72,333.16,539.37Z"/><path class="cls-20" d="M415.34,470.11c-9.63,0-17.73-8.08-20.12-19.06a31.84,31.84,0,0,0-.72,6.7c0,14.23,9.33,25.76,20.84,25.76s20.83-11.53,20.83-25.76a31.84,31.84,0,0,0-.72-6.7C433.06,462,425,470.11,415.34,470.11Z"/><path class="cls-20" d="M277.09,470.68c-9.63,0-17.73-8.08-20.11-19.06a31.19,31.19,0,0,0-.72,6.7c0,14.23,9.33,25.76,20.83,25.76s20.83-11.53,20.83-25.76a31.19,31.19,0,0,0-.72-6.7C294.82,462.6,286.72,470.68,277.09,470.68Z"/></g></g></svg>