<svg xmlns="http://www.w3.org/2000/svg" viewBox="0 0 534.38 525.1"><defs><style>.cls-1{fill:#c2d5ed;}.cls-2{fill:#2e588e;}.cls-3{opacity:0.14;}.cls-4{fill:#fff;}.cls-5{opacity:0.06;}.cls-6{fill:#bb5872;}.cls-7,.cls-8{fill:#fefefc;}.cls-8{stroke:#000;stroke-miterlimit:10;stroke-width:1.35px;}.cls-9{opacity:0.19;}</style></defs><g id="Layer_2" data-name="Layer 2"><g id="Layer_3" data-name="Layer 3"><path d="M1.75,339c-.31-.17-.38-.72-.18-1.67a12.24,12.24,0,0,1,1.6-3.78,21.31,21.31,0,0,1,1.73-2.42l1.1-1.3,1.3-1.3a44.66,44.66,0,0,1,6.7-5.14c2.6-1.65,5.53-3.22,8.6-4.81s6.3-3.16,9.35-5.05A67.13,67.13,0,0,0,49.39,298.3a74.17,74.17,0,0,0,11.79-20.14q.91-2.57,1.77-5,.7-2.48,1.37-4.82c.34-1.58.66-3.12,1-4.59a21.7,21.7,0,0,0,.36-2.19c.1-.71.2-1.42.3-2.1s.22-1.37.29-2,.09-1.31.14-1.93c.08-1.25.23-2.45.29-3.56,0-2.23.16-4.19.18-5.8,0-3.2.27-5.13,1-5.31s1.71,1.44,3,4.65a55,55,0,0,1,1.6,6c.23,1.2.35,2.49.52,3.87.07.7.15,1.41.23,2.14s0,1.48.06,2.26,0,1.56,0,2.37a20.64,20.64,0,0,1-.06,2.48c-.14,1.69-.28,3.45-.48,5.26s-.66,3.66-1,5.58-1,3.82-1.57,5.81a70.55,70.55,0,0,1-12.76,23.5,65.6,65.6,0,0,1-20.85,17,102.21,102.21,0,0,1-10.41,4.52c-3.21,1.24-6.12,2.34-8.68,3.45a62.79,62.79,0,0,0-6.62,3.29l-1.35.79-1.19.81c-.81.48-1.42,1-2.07,1.48L3.32,338.4C2.6,338.92,2.06,339.13,1.75,339Z" transform="translate(-1.46)"/><path d="M21.57,325.25a2.66,2.66,0,0,1,2-.71,4.55,4.55,0,0,1,2.61,1.2A9.36,9.36,0,0,1,29,333.21a9.53,9.53,0,0,1-3.18,6.86c-1.63,1.3-3.31,1.41-4.47.63a6.05,6.05,0,0,1-2.17-3.61,14.49,14.49,0,0,1-.45-4.4,13.72,13.72,0,0,1,.27-2.06,14.1,14.1,0,0,1,.59-1.84c.23-.6.5-1.22.8-1.83A5.72,5.72,0,0,1,21.57,325.25Z" transform="translate(-1.46)"/><circle class="cls-1" cx="266.7" cy="223.15" r="222.69"/><path class="cls-2" d="M121.39,114.91c61-79.65,190.1-90,268-30.11a168.77,168.77,0,0,1,16,14C442.23,135,462,187.86,458,239.34c-2.49,32.18-15.61,65.15-52.56,66.42-17,.58-34.24-5.55-48.32-14.8C338,278.42,324.85,260.39,308.4,245c-7-6.5-15-12.54-24.37-14.15-33.23-5.69-52.41,34.27-72.84,52.93-12.87,11.76-28.93,21.29-46,25.09C115.37,320,89.26,278.17,87.76,234,86.39,193.39,96.37,147.57,121.39,114.91Z" transform="translate(-1.46)"/><path class="cls-3" d="M444.27,89.8a217.89,217.89,0,0,1,23.09,97.84c0,121.64-99.31,220.24-221.81,220.24a222,222,0,0,1-175.83-86c36.3,72.53,106.49,124,193.59,124,122.51,0,221.78-85,227-221.84C492.17,173.51,473.09,127,444.27,89.8Z" transform="translate(-1.46)"/><circle cx="212.31" cy="202.41" r="20.51"/><circle class="cls-4" cx="202.21" cy="196.02" r="4.4"/><circle class="cls-4" cx="204.41" cy="207.42" r="2.21"/><circle cx="330.45" cy="202.41" r="20.51"/><circle class="cls-4" cx="337.62" cy="191.62" r="4.4"/><circle class="cls-4" cx="344.3" cy="201.51" r="2.21"/><path d="M210,159.83c-.12.73-1.62,1-3.65,1.76a17.1,17.1,0,0,0-11.15,10.52c-.83,2-1.24,3.47-2,3.55s-1.62-1.43-1.61-4.19A14,14,0,0,1,205.86,158C208.62,158.13,210.08,159.17,210,159.83Z" transform="translate(-1.46)"/><path d="M335.93,160.29c-.16-.65,1.25-1.76,4-2.06A14,14,0,0,1,354.88,171c.14,2.76-.73,4.32-1.4,4.27s-1.22-1.51-2.15-3.45a17.07,17.07,0,0,0-11.66-9.94C337.61,161.26,336.09,161,335.93,160.29Z" transform="translate(-1.46)"/><path d="M290.28,254c-.11,1.39-6,2.13-13.08.8a28.16,28.16,0,0,1-8.86-3,8.37,8.37,0,0,1-2.37-1.92c-.47-.64-.57-1.13-.35-1.41s.7-.36,1.33-.34a23.64,23.64,0,0,1,2.63.26c2.17.3,5.2.76,8.57,1.4C284.88,251,290.4,252.57,290.28,254Z" transform="translate(-1.46)"/><path class="cls-5" d="M333.92,10.19C321.75,7.81,294.67,0,270.81,0,147.1,0,44.89,99.16,44.89,219.76,44.89,323.9,41.51,7,333.92,10.19Z" transform="translate(-1.46)"/><ellipse class="cls-6" cx="384.92" cy="378.81" rx="149.47" ry="146.29"/><circle class="cls-7" cx="384.92" cy="381.41" r="126.38"/><circle class="cls-6" cx="384.92" cy="380.54" r="110.8"/><circle class="cls-2" cx="383.04" cy="381.55" r="94.78"/><polygon class="cls-8" points="382.97 294.85 362.19 351.98 301.6 355.44 346.61 391.8 334.49 445.46 386.43 409.11 431.44 443.73 415.86 393.53 460.87 360.63 403.74 353.71 382.97 294.85"/><path class="cls-9" d="M391.57,525.1c-89.38,0-153.43-65.06-153.43-145.85s95.55-51.92,157.54,2.59C517.73,489.18,474.12,525.1,391.57,525.1Z" transform="translate(-1.46)"/></g></g></svg>