<svg xmlns="http://www.w3.org/2000/svg" viewBox="0 0 318.58 904.04"><defs><style>.cls-1,.cls-16{fill:#f1d2be;}.cls-2{fill:#dbd6d1;}.cls-3{fill:#4a2e38;}.cls-4{fill:#fff;}.cls-5{fill:#cfa184;}.cls-6{fill:#d7bea6;}.cls-7{fill:#465958;}.cls-13,.cls-8{fill:#dedcdd;}.cls-14,.cls-16,.cls-8,.cls-9{stroke:#000;stroke-miterlimit:10;stroke-width:0.09px;}.cls-9{fill:#f9f3f7;}.cls-10{fill:#dead8e;}.cls-11{fill:#e38dac;opacity:0.35;}.cls-12{opacity:0.38;}.cls-14{fill:none;}.cls-15{fill-rule:evenodd;}</style></defs><g id="Layer_2" data-name="Layer 2"><g id="Layer_8" data-name="Layer 8"><g id="Layer_6" data-name="Layer 6"><path class="cls-1" d="M118.54,847c1.72,8.67,3.34,18.12-.71,26-2.61,5.06-7.33,8.79-12.5,11.17C98.67,887.22,90.05,888,84.61,883c-4.55-4.12-5.47-10.81-6.11-16.91-1.28-12.13-2.56-24.4-.89-36.48.28-2.06.77-4.32,2.45-5.55a8.12,8.12,0,0,1,4.48-1.17q7.39-.42,14.8-.45c4.9,0,13.81.17,16.06,5.6C117.52,833.2,117.44,841.41,118.54,847Z"/><path class="cls-2" d="M23.92,871.5c-4.86,1.6-9.8,3.14-14.16,5.82S1.62,884,.38,889s.61,10.86,5.1,13.31c3.53,1.94,104.59,2,115,1a15.35,15.35,0,0,0,7-2c4.85-3.17,5.23-10,4.77-15.81q-.6-7.49-1.89-14.9a12.26,12.26,0,0,0-1.88-5.36,11.28,11.28,0,0,0-5.25-3.35,47.78,47.78,0,0,0-24.56-2.3c-4.06.7-8.1,1.92-12.21,1.62-5.44-.41-8.16-3.39-12-6.64-2.84-2.39-1.91-2.55-6-.71-2.91,1.33-5.81,2.67-8.74,3.95Q42.17,865.48,23.92,871.5Z"/><path class="cls-3" d="M51.31,883.38c-.79.28-2.92-4.2-6.77-8.76s-7.81-7.52-7.39-8.25c.19-.33,1.5,0,3.35,1a23.77,23.77,0,0,1,6.27,5.37,23.58,23.58,0,0,1,4.14,7.14C51.61,881.91,51.68,883.25,51.31,883.38Z"/><path class="cls-3" d="M66.53,880.73c-.36.2-1.34-.86-2.68-2.68s-3-4.38-5.09-7A43,43,0,0,0,52.92,865c-1.65-1.4-2.81-2.2-2.65-2.59s1.65-.2,3.78.88a22,22,0,0,1,7,6,34.82,34.82,0,0,1,4.6,7.76C66.53,879.14,66.87,880.53,66.53,880.73Z"/><path class="cls-4" d="M5.67,898.13c3.53,1.94,104.6,2,115,1a15.35,15.35,0,0,0,7-2c3.37-2.19,4.24-6.87,4.52-11,.08,6.77,0,12.36-4.52,15.31a15.35,15.35,0,0,1-7,2c-10.43,1-111.5,1-115-1-4.2-2.3-6.09-7.62-5.3-12.36A11.06,11.06,0,0,0,5.67,898.13Z"/><path class="cls-1" d="M200,845.53c-1.72,8.66-3.34,18.11.71,26,2.61,5.06,7.33,8.79,12.5,11.18,6.66,3.07,15.29,3.8,20.72-1.12,4.55-4.12,5.47-10.8,6.12-16.91,1.27-12.13,2.55-24.4.88-36.48-.28-2.06-.77-4.31-2.44-5.55a8.23,8.23,0,0,0-4.49-1.16q-7.39-.44-14.8-.46c-4.9,0-13.81.18-16.06,5.6C201.06,831.72,201.15,839.93,200,845.53Z"/><path class="cls-2" d="M294.66,870c4.86,1.6,9.8,3.13,14.16,5.82s8.14,6.69,9.38,11.65-.61,10.86-5.09,13.32c-3.53,1.93-104.6,2-115,1a15.48,15.48,0,0,1-7-2c-4.85-3.16-5.23-10-4.77-15.81q.6-7.49,1.9-14.89a12.13,12.13,0,0,1,1.88-5.37,11.16,11.16,0,0,1,5.25-3.34,47.63,47.63,0,0,1,24.55-2.31c4.06.7,8.11,1.93,12.21,1.62,5.44-.4,8.16-3.39,12-6.63,2.83-2.39,1.9-2.56,5.94-.71,2.91,1.32,5.81,2.66,8.74,3.94Q276.41,864,294.66,870Z"/><path class="cls-4" d="M312.77,897.15c-3.53,1.93-104.59,2-115,1a15.35,15.35,0,0,1-7-2c-3.37-2.2-4.24-6.87-4.51-11-.09,6.76,0,12.36,4.51,15.31a15.35,15.35,0,0,0,7,2c10.43,1,111.49,1,115-1,4.2-2.31,6.1-7.62,5.3-12.37A11,11,0,0,1,312.77,897.15Z"/><path class="cls-3" d="M267.27,881.9c-.36-.13-.29-1.47.4-3.48a24.53,24.53,0,0,1,10.41-12.5c1.85-1,3.16-1.36,3.35-1,.42.73-3.6,3.64-7.39,8.25S268.06,882.18,267.27,881.9Z"/><path class="cls-3" d="M252.06,879.25c-.35-.19,0-1.59.89-3.7a35.44,35.44,0,0,1,4.6-7.76,22,22,0,0,1,7-6c2.14-1.08,3.64-1.23,3.78-.87s-1,1.19-2.65,2.59a42.46,42.46,0,0,0-5.84,6.06c-2.05,2.6-3.74,5.16-5.09,7S252.41,879.45,252.06,879.25Z"/><path d="M177.43,13.78a26.61,26.61,0,0,0-16.24.71A28,28,0,0,1,188,11.23C172.39.7,150,1.6,135.22,13.34c-11.19,8.92-21.31,21.14-13.88,35a51.24,51.24,0,0,1,5.37,16.86c.92,6.33,3.7,11.83,9.65,14.4,15,6.46,40.55,12.44,47-2.57,8.39-19.64,21.59-26.83,16.68-42.4C196.78,24.4,187.64,16.41,177.43,13.78Z"/><path d="M159,1.17a1.41,1.41,0,0,1,0,.29,1.25,1.25,0,0,1-1.35,1.15,33.87,33.87,0,0,0-35.7,26.07A22.29,22.29,0,0,0,122,40.49a1.25,1.25,0,0,1-2.39.75,24.73,24.73,0,0,1-.13-13.13,36.36,36.36,0,0,1,38.34-28A1.27,1.27,0,0,1,159,1.17Z"/><path d="M202.69,33.9a37.42,37.42,0,0,1-3.94,23c-6.5,12.23-19.92,21.6-35.91,25.06a1.25,1.25,0,1,1-.53-2.45c15.27-3.31,28.07-12.2,34.23-23.78A35.29,35.29,0,0,0,200.28,35a28.88,28.88,0,0,0-9.14-18.25,1.25,1.25,0,1,1,1.66-1.88A31.38,31.38,0,0,1,202.69,33.9Z"/><rect class="cls-1" x="131.86" y="200.01" width="52.3" height="78.65"/><path class="cls-5" d="M131.86,200v38.45a36.24,36.24,0,0,0,22.75,3.71c11.08-1.45,21.27-6.72,29.55-14.27V200Z"/><path class="cls-1" d="M214,261.14c0,13.36-34,75.1-56,75.1s-56-61.74-56-75.1,34-13.91,56-13.91S214,247.78,214,261.14Z"/><polygon class="cls-1" points="202.39 400.18 216.56 460.17 102.02 460.17 115.13 400.18 202.39 400.18"/><path class="cls-6" d="M232.2,261.54c-3.32-5.66-47.82-16.39-47.82-16.39s-2.59,67.44-26.26,81.43c-23.66-14-26.26-81.43-26.26-81.43S87.36,255.88,84,261.54c-12,20.42,16.47,55.85,18,76.38s-.11,122.25-.11,122.25h112.2s-1.4-101.72.11-122.25S244.18,282,232.2,261.54Z"/><path class="cls-7" d="M102,441.92s-14.52,48.33-13.84,91.4S54.51,839.41,54.51,839.41l86.43,2.89,12-211.2s5.66-65.32,10-71.05,18.52-4.38,18.52-4.38l1.35-113.75Z"/><path class="cls-7" d="M231.81,441.92s11.2,46.87,10.52,89.94,15.55,308.27,15.55,308.27L180,842.73l-5.46-223.87s.72-53.08-3.66-58.81-18.53-4.38-18.53-4.38L151,441.92Z"/><path class="cls-8" d="M184.63,235.69,170,355.56a701.64,701.64,0,0,0-.87,162.58L175.46,575c4.57,41.11,37.89,72.12,77.5,72.12h6c14.35-133.84-18.51-195.29-35.55-227.5-13.32-25.19-11-45.59-6.13-67.3l18.93-97.21Z"/><path class="cls-9" d="M184.63,235.69,201,245.2c7.27,4.22,8.73,12,3.31,17.53L180.68,287l11,10.4c3.56,3.37,4.6,7.84,2.78,11.91l-24.79,55.25S171.16,258.38,184.63,235.69Z"/><path class="cls-8" d="M245.42,410.23h0A21.07,21.07,0,0,1,222.74,391C216,348.66,212.1,308.83,213,273.28a21.08,21.08,0,0,1,19.21-22.68h0c27,0,32.77,91.21,32.45,137A21.08,21.08,0,0,1,245.42,410.23Z"/><path d="M113.6,35.46a6.9,6.9,0,0,1-.44,2.35A38.58,38.58,0,0,0,111.94,44a15.85,15.85,0,0,0,.15,4.26,11.08,11.08,0,0,0,1.77,4.41,10.45,10.45,0,0,0,4,3.24,36.38,36.38,0,0,0,5.6,1.94A34.84,34.84,0,0,1,129.34,60,13.4,13.4,0,0,1,134,63.76a18,18,0,0,1,2.55,4.67,34.57,34.57,0,0,1,1.3,4.35c.64,2.68,1,4.84,1.34,6.33s.48,2.32.35,2.36a6,6,0,0,1-1-2.18c-.51-1.45-1.09-3.6-1.86-6.19a24.16,24.16,0,0,0-3.92-8.34,12.07,12.07,0,0,0-4.13-3.25,35.46,35.46,0,0,0-5.58-2,36.09,36.09,0,0,1-5.86-2.08,11.82,11.82,0,0,1-4.6-3.86,12.09,12.09,0,0,1-1.87-5.08,16.57,16.57,0,0,1,0-4.63,28.19,28.19,0,0,1,1.8-6.3C113.1,36.18,113.49,35.42,113.6,35.46Z"/><path d="M200.51,58.63c.1,0,.37.46.29,1.43a5.7,5.7,0,0,1-1.9,3.48,17.49,17.49,0,0,1-5,2.82,20.7,20.7,0,0,0-5.42,3.51,20.29,20.29,0,0,0-2.31,2.44c-.67.84-1.28,1.75-2,2.6A11.37,11.37,0,0,1,182,77.12a10,10,0,0,1-2.42,1.29,8.89,8.89,0,0,1-3.85.54c-.91-.1-1.39-.31-1.37-.41,0-.29,2,0,4.75-1.26A9.65,9.65,0,0,0,183,74c.59-.81,1.17-1.74,1.89-2.68a19.84,19.84,0,0,1,8.44-6.37,20.25,20.25,0,0,0,4.79-2.28,5.89,5.89,0,0,0,2-2.7C200.4,59.15,200.38,58.65,200.51,58.63Z"/><path class="cls-8" d="M131.8,234.93l14.63,119.88a701.64,701.64,0,0,1,.87,162.58L141,574.24c-4.57,41.12-37.89,72.13-77.5,72.13h-6C43.13,512.53,76,451.08,93,418.87c13.32-25.19,11-45.59,6.13-67.3L80.23,254.36Z"/><path class="cls-9" d="M131.8,234.93l-16.39,9.51c-7.27,4.23-8.73,12-3.31,17.53l23.65,24.23-11,10.41c-3.56,3.37-4.6,7.84-2.78,11.9l24.79,55.26S145.27,257.62,131.8,234.93Z"/><path class="cls-8" d="M70.89,407.74h0A21.08,21.08,0,0,0,94.2,389.29c8.11-42.12,13.34-81.8,13.64-117.35a21.08,21.08,0,0,0-18.45-23.31h0c-27-.89-35.76,90.08-36.95,135.81A21.08,21.08,0,0,0,70.89,407.74Z"/><path class="cls-3" d="M188.12,71c-34.83-9-61.31,8.34-60.7-.67.14-2.15-1.4-4.91-.6-5.62,25.13,7.11,54.52-14.68,63.4,2.94C191.1,68.68,187.32,69.62,188.12,71Z"/><circle class="cls-1" cx="94.32" cy="164.12" r="16.25"/><path class="cls-10" d="M89.8,156.1a7,7,0,0,0-2,13.08c1.13.62.12,2.34-1,1.72a9,9,0,0,1,2.45-16.73c1.26-.26,1.79,1.66.53,1.93Z"/><circle class="cls-1" cx="214.62" cy="164.12" r="16.25"/><path class="cls-10" d="M219.13,156.1a7,7,0,0,1,2,13.08c-1.13.62-.12,2.34,1,1.72a9,9,0,0,0-2.45-16.73c-1.26-.26-1.8,1.66-.54,1.93Z"/><path class="cls-1" d="M216.49,157.26c0,42.9-27.6,72-61.65,72s-61.65-29.14-61.65-72,6.5-77.69,61.65-77.69S216.49,114.35,216.49,157.26Z"/><circle class="cls-11" cx="194.33" cy="182.07" r="10.17"/><circle class="cls-11" cx="117.98" cy="182.07" r="10.17"/><g class="cls-12"><path d="M163.05,66.14l1.07-.2c.68-.12,1.68-.27,2.91-.43a79.07,79.07,0,0,1,9.71-.63,33.92,33.92,0,0,1,5.36.28,9,9,0,0,1,2.24.67A8.16,8.16,0,0,1,186.05,67a8.4,8.4,0,0,0,2.45,1.6,3.42,3.42,0,0,0,1.05.18h-.28a2.56,2.56,0,0,1-.79-.14A8.23,8.23,0,0,1,186,67a8,8,0,0,0-1.7-1.08,8.72,8.72,0,0,0-2.22-.66,34.66,34.66,0,0,0-5.33-.26,87.19,87.19,0,0,0-9.7.58c-1.23.15-2.23.29-2.92.39S163.05,66.14,163.05,66.14Z"/></g><g class="cls-12"><path d="M145.36,69.25l-.8.18-2.2.43-3.25.63a28.37,28.37,0,0,1-4,.61A6.66,6.66,0,0,1,131.23,70a13,13,0,0,1-2.51-2.17,23.56,23.56,0,0,1-1.93-2.38s.2.22.53.63.82,1,1.47,1.68a13.81,13.81,0,0,0,2.5,2.14,6.64,6.64,0,0,0,3.8,1.1,29.07,29.07,0,0,0,4-.59l3.26-.6,2.2-.4C145.07,69.28,145.36,69.25,145.36,69.25Z"/></g><path d="M198.45,116.38a131.1,131.1,0,0,1,1.38,31.9,342,342,0,0,0-83.91-1.45,220.13,220.13,0,0,1,3.49-35c-6.65,12.35-15.61,42.35-28.89,52.32-5.59-.49-8.34-2.45-6-14.15,1-15.43,4.34-30.76,11.53-44.38,9-17,24.61-31.19,43.49-35.23,24-8.06,52,.25,68.25,19.28,13.89,16.22,23.05,51.85,17,72.3C223.79,162,211.52,166.85,198.45,116.38Z"/><path d="M167.06,200.88c.41.2.65.84.29,1.73a5.9,5.9,0,0,1-2.33,2.53,16.61,16.61,0,0,1-9.39,2.22,16,16,0,0,1-9.26-3,6,6,0,0,1-2-2.65c-.26-.82-.09-1.41.28-1.68a2.43,2.43,0,0,1,1.57-.27c.63,0,1.37.12,2.28.21,1.82.19,4.42.41,7.38.51s5.66.1,7.5.09c.92,0,1.63,0,2.19.06A4.36,4.36,0,0,1,167.06,200.88Z"/><path d="M97.12,212.85c-.49-.08-.71-1.59-1-4.1a63.91,63.91,0,0,0-2.29-10.41c-1.31-4.34-3.37-9.4-5.54-15.3a87.84,87.84,0,0,1-3-9.6c-.19-.88-.44-1.73-.58-2.65s-.3-1.83-.44-2.75-.16-1.91-.25-2.87L84,163.72l.06-1.49a31.18,31.18,0,0,1,2.39-11.32,78.37,78.37,0,0,1,4.59-9c3.06-5.41,5.9-10.23,8.38-14.23,4.94-8,8.43-12.73,9.27-12.28s-1.12,6-5,14.57c-1.93,4.29-4.32,9.35-7.07,14.91-1.38,2.8-2.83,5.61-3.92,8.51a25.89,25.89,0,0,0-1.78,9l-.06,1.19.08,1.21c.06.8,0,1.58.17,2.38s.23,1.59.34,2.38.32,1.57.46,2.35c.64,3.12,1.55,6.17,2.43,9.1a134.37,134.37,0,0,1,4.25,16.19,34.7,34.7,0,0,1,.22,11.61,14,14,0,0,1-.92,3C97.62,212.57,97.35,212.89,97.12,212.85Z"/><path d="M208.2,204.3c-.31-.39.31-1.41,1.53-3s3-3.83,5-6.68a38.24,38.24,0,0,0,5.17-10.46,24.44,24.44,0,0,0,1-6.46,30.9,30.9,0,0,0-.85-7.13c-1.13-5-3-9.95-4.18-14.84a59.92,59.92,0,0,1-1.69-13.11c-.09-7.53,1.29-12,2.19-12s1.37,4.56,2.66,11.47a100.92,100.92,0,0,0,3,11.9c1.34,4.36,3.45,9.22,4.78,15a33.12,33.12,0,0,1,.87,8.87,27.51,27.51,0,0,1-1.74,8.27,33.93,33.93,0,0,1-7.42,11.51,33.51,33.51,0,0,1-7,5.61C209.67,204.34,208.48,204.66,208.2,204.3Z"/><path d="M231.68,174.58c-.27,0-.49-2.45-1.51-6.24a44.59,44.59,0,0,0-2.3-6.47c-.53-1.17-1.14-2.37-1.84-3.61s-1.46-2.53-2.13-3.95a33.85,33.85,0,0,1-2.38-8.42c-.47-2.6-.83-4.95-1.07-6.94-.49-4-.57-6.45-.34-6.47s.75,2.38,1.54,6.27c.43,2,.91,4.32,1.43,6.83a37,37,0,0,0,2.38,8c.63,1.33,1.36,2.6,2,3.87a37.37,37.37,0,0,1,1.82,3.8,35.77,35.77,0,0,1,2,6.82C232.1,172.06,231.89,174.58,231.68,174.58Z"/><path d="M103.44,178.87c-.29-.05.28-2.44-.49-6.18a36.93,36.93,0,0,0-2-6.4c-.94-2.36-2.16-4.93-3.18-7.78a24.87,24.87,0,0,1-1.69-8.46,23.86,23.86,0,0,1,1.22-6.92c.59-1.88,1.12-3.36,1.49-4.39s.6-1.59.72-1.56.11.64-.07,1.73-.53,2.64-1,4.53a26.87,26.87,0,0,0-.81,6.59,25.83,25.83,0,0,0,1.72,7.9c1,2.75,2.16,5.33,3,7.8a30.17,30.17,0,0,1,1.72,6.77,14.7,14.7,0,0,1-.11,4.73C103.83,178.33,103.53,178.89,103.44,178.87Z"/><path class="cls-1" d="M221.65,539.4s2.78,20.86,2.08,23.79-7.95,23.51-6.41,27,6.38.77,8.39-5.28,6.73-21.09,6.52-23.7,1.48-12.59,1.19-15.44S226.19,529.8,221.65,539.4Z"/><path class="cls-1" d="M232.3,544.64c-2.38,4,1.44,16.75.93,17.92s-6.21,16-7.59,21.22,3.63,4.94,7.06-.84a104.27,104.27,0,0,0,7.93-18.62c.43-2,3.47-18.12,3.49-22.23S235.72,538.86,232.3,544.64Z"/><path class="cls-1" d="M237.86,535.52c-1.5,4.42,3.86,16.88,3.6,18.13s-6.17,14.75-6.45,20.11,4.59,4.09,6.73-2.28,8.4-17.42,8.41-19.47-2.67-16.37-3.5-20.4S240,529.16,237.86,535.52Z"/><path class="cls-1" d="M219.39,539.83c-.14,1.94,1.45,6.06,3.63,10.18,1.46-.26,2.92-.49,4.38-.68,5.4-.73,10.79-1.12,16.19-2,1.21-.18,2.41-.4,3.61-.64,1.78-10.5-.62-34.87-15.16-29.47C232,517.26,219.71,535.43,219.39,539.83Z"/><path class="cls-1" d="M232.37,517.15S222.29,524.88,218.9,528c-2.43,2.22-8.77,10.24-9.63,10.93s2.11,15,3,16.89,4.28,1.36,6.78-3.32.34-11.79.34-11.79,13-6.65,16.09-11.93S232.37,517.15,232.37,517.15Z"/><path class="cls-13" d="M247.45,524.22l-18.62-3.73-5.07-123.66c-.38-9.32,9.74-15.64,21.71-13.55h0c11.33,2,19.7,10.7,18.53,19.29Z"/><polyline class="cls-14" points="264 402.57 247.45 524.22 228.83 520.49 223.76 396.83"/><path class="cls-15" d="M138.68,139.53a43,43,0,0,0-16.9,6.35,28.27,28.27,0,0,0-9.54,11.85s-3-8.15,6.72-15.43C131,133.29,140.46,140.78,138.68,139.53Z"/><path class="cls-15" d="M173,140.69a43.13,43.13,0,0,1,17.29,5.21,28.26,28.26,0,0,1,10.3,11.19s2.42-8.33-7.73-15C180.3,134,171.31,142.05,173,140.69Z"/><path d="M149.6,180.91a.94.94,0,0,1-.89-1.22c.27-.82,2.78-8,7.32-8.06h0c4.55,0,7.44,6.59,7.56,6.87a.93.93,0,0,1-1.71.73c-.69-1.59-3.09-5.74-5.85-5.74h0c-2.72,0-4.93,4.9-5.55,6.78A.93.93,0,0,1,149.6,180.91Z"/></g></g><g id="Layer_5" data-name="Layer 5"><path class="cls-15" d="M190.45,161.15c-.54-4-3.18-10.35-9-10.22-6.1.13-7.08,6.45-7.21,11.61-.14,5.45,1.51,12,8,11.73C189.23,174,191.15,166.4,190.45,161.15Z"/><circle class="cls-4" cx="182.82" cy="157.94" r="2.4"/><circle class="cls-4" cx="186.74" cy="161.86" r="0.9"/></g><g id="Layer_2-2" data-name="Layer 2"><path class="cls-15" d="M119.84,161.54c.22-4,2.34-10.48,8.13-10.63,6.11-.16,7.59,6.1,8.14,11.24.57,5.43-.54,12-7,12.09C122.09,174.29,119.56,166.82,119.84,161.54Z"/><circle class="cls-4" cx="127.75" cy="156.73" r="2.4"/><circle class="cls-4" cx="123.82" cy="160.65" r="0.9"/></g><g id="Layer_10" data-name="Layer 10"><g id="Layer_12" data-name="Layer 12"><path class="cls-16" d="M124.2,257.52s11.29-26.4,14.8-33.12-1.48-10.59-4.7-4.45-11.59,25.11-14.48,27.3-4.07-20.92-5.16-28.48-7.45-7.76-7.59-1.29,2.52,30.77,3.25,33.11S124.2,257.52,124.2,257.52Z"/><path class="cls-1" d="M102.42,256.85c-.25,2.29,2.79,20,10.55,23.27s18.91-8.21,22.15-16-6.53-12.9-14.3-16.13S103.34,248.49,102.42,256.85Z"/><path class="cls-14" d="M109.82,247.77a10.92,10.92,0,0,0-7.4,9.08c-.25,2.29,2.79,20,10.55,23.27s18.91-8.21,22.15-16a8,8,0,0,0,.4-1.2,5,5,0,0,0,.12-.79"/><path class="cls-16" d="M129.14,245.82c-4,6.68-11.3,16.84-7.38,19.65,4.1,2.94,9.49-7.83,13.51-14.51s2.81-8.66,1-9.69S133.16,239.14,129.14,245.82Z"/><path class="cls-16" d="M133.89,251.65c-3.25,5.42-8.68,13.91-5.89,16s8-6.26,11.23-11.68,1.83-7.22.56-8S137.15,246.23,133.89,251.65Z"/><path class="cls-10" d="M122.48,258.52a3.59,3.59,0,0,0,1.82,4.53c1.94.87,3.75-.18,4.9-1.74a69.7,69.7,0,0,0,4.06-6.48c1.32-2.24,2.57-4.51,3.78-6.82.24-.46-.52-.75-.75-.29q-2.91,5.55-6.25,10.86c-.91,1.44-2,3.68-3.85,3.95a2.77,2.77,0,0,1-3-3.72.4.4,0,0,0-.75-.29Z"/><path class="cls-10" d="M127.62,262.77a2.45,2.45,0,0,0,1.29,3.51c1.76.68,3.52-.38,4.7-1.63,3-3.19,5.11-7.25,7.17-11.08.25-.46-.51-.75-.75-.3a69,69,0,0,1-5.4,8.87c-.93,1.24-2,2.75-3.48,3.33a2.48,2.48,0,0,1-2.47-.25,1.58,1.58,0,0,1-.41-2c.27-.44-.38-.92-.65-.48Z"/><path class="cls-10" d="M105.61,266.9q4.61-4.71,9.15-9.46c.88-.92,1.76-1.84,2.62-2.77a6.63,6.63,0,0,0,2.06-3.25,2.26,2.26,0,0,0-1.39-2.52,5.9,5.9,0,0,0-4.48.48c-3.33,1.48-6.57,3.23-9.84,4.85-.41.2-.11.85.3.64l7.33-3.61c1.66-.83,3.45-2,5.39-1.9,1.16,0,2.21.71,2,2s-1.27,2.2-2.1,3.09-1.64,1.75-2.47,2.61q-2.81,2.94-5.64,5.85l-3.36,3.45c-.32.32.14.88.46.55Z"/></g><g id="Layer_11" data-name="Layer 11"><path class="cls-8" d="M124.69,277l-18.62-3.75L53.64,385.31c-4,8.46,2.94,18.19,14.79,20.89h0c11.21,2.55,22.3-2.26,24.54-10.64Z"/></g></g></g></svg>