<svg xmlns="http://www.w3.org/2000/svg" viewBox="0 0 143.08 127.54"><defs><style>.cls-1{fill:#9bd5a9;}.cls-2{font-size:9.74px;}.cls-2,.cls-3,.cls-4,.cls-5{fill:#01260a;font-family:ShowcardGothic-Reg, Showcard Gothic;}.cls-3{font-size:6.5px;}.cls-4{font-size:9.74px;}.cls-5{font-size:6.5px;}.cls-6{fill:#bb5872;}.cls-7{opacity:0.14;}.cls-8{fill:none;stroke:#fff;stroke-miterlimit:10;stroke-width:1.81px;opacity:0.32;}.cls-9{fill:#fff;}.cls-10{opacity:0.06;}.cls-11{fill-rule:evenodd;}</style></defs><g id="Layer_2" data-name="Layer 2"><g id="Layer_3" data-name="Layer 3"><path d="M28.67,68.88a20.53,20.53,0,0,1,2.07,18.47,21.66,21.66,0,0,1-5.44,7.9c-2.16,2.14-4.42,4.41-5,7.53-.18,1,1.39,1.46,1.57.43.63-3.54,3.65-5.78,6-8.25a21,21,0,0,0,4.79-8.2,22,22,0,0,0-2.59-18.69c-.58-.87-2,0-1.4.81Z"/><circle class="cls-1" cx="18.41" cy="108.36" r="9.98"/><text class="cls-2" transform="translate(14.32 111.34) rotate(0.14)">O</text><text class="cls-3" transform="translate(21.1 113.45) rotate(0.14)">2</text><path d="M26.07,102.72a3.13,3.13,0,0,0,.24-2.45,3.49,3.49,0,0,0-1.5-1.92.81.81,0,0,0-.82,1.4l.16.11c.11.07-.12-.1,0,0l.09.07c.11.1.2.22.31.33s-.11-.15-.05-.06l.06.09a2,2,0,0,1,.12.19l.05.1s.07.15,0,0,0,.09.05.13a1.8,1.8,0,0,1,.05.19.43.43,0,0,1,0,.11c0,.17,0-.06,0-.06a2.94,2.94,0,0,1,0,.43.41.41,0,0,1,0,.11c0,.09,0-.22,0-.06s0,.14,0,.21a1.07,1.07,0,0,1-.07.19c0,.1.09-.17,0,0l-.06.13a.81.81,0,1,0,1.4.82Z"/><path d="M118.28,68A22,22,0,0,0,117,86.74a21.11,21.11,0,0,0,5.38,7.9c2.49,2.27,5.72,4.3,6.6,7.77a.81.81,0,0,0,1.57-.43c-.81-3.15-3.27-5.25-5.64-7.28a21.75,21.75,0,0,1-5.87-7.29,20.46,20.46,0,0,1,.63-18.62.82.82,0,0,0-1.41-.82Z"/><circle class="cls-1" cx="125.75" cy="108.36" r="9.98"/><text class="cls-4" transform="translate(121.03 111.53) rotate(-0.07)">O</text><text class="cls-5" transform="translate(127.82 113.61) rotate(-0.07)">2</text><path d="M124.78,100.83a4.8,4.8,0,0,1-.15-.63c0,.12,0,0,0,0a.71.71,0,0,1,0-.14c0-.11,0-.21,0-.32s0-.41,0-.62c0,.19,0,0,0,0l0-.17c0-.1,0-.19.07-.29l.09-.27s0-.08,0-.12,0,.08,0,0a3.17,3.17,0,0,1,.27-.47l.06-.1c0-.08-.1.12,0,0l.17-.19s.13-.15.19-.17-.13.1,0,0l.09-.06a.83.83,0,0,0,.29-1.11.81.81,0,0,0-1.11-.29c-1.75,1.07-2.14,3.55-1.6,5.38a.82.82,0,0,0,1,.57.83.83,0,0,0,.57-1Z"/><ellipse class="cls-6" cx="71.54" cy="49.32" rx="71.54" ry="49.32"/><path class="cls-7" d="M136.44,28.78a35.6,35.6,0,0,1,3.67,15.59c0,27.23-32,49.32-71.54,49.32-28.81,0-53.63-11.75-65-28.68,9.47,19.6,36.27,33.74,67.88,33.74C111,98.75,143,76.67,143,49.43A36.85,36.85,0,0,0,136.44,28.78Z"/><path class="cls-8" d="M35.27,48.62c2.68,8.74,46.21,30.26,72.54,0"/><circle cx="48.3" cy="74.4" r="6.9"/><circle cx="94.78" cy="73.87" r="6.9"/><circle class="cls-9" cx="97.59" cy="73.08" r="1.71"/><circle class="cls-9" cx="44.64" cy="73.08" r="1.71"/><g class="cls-10"><path d="M107.45,39.65C113.42,68.31,43,70.93,35.8,47,28.37,22.38,102,13.45,107.45,39.65Z"/></g><circle class="cls-9" cx="44.37" cy="76.99" r="0.85"/><circle class="cls-9" cx="98.79" cy="76.34" r="0.85"/><path class="cls-11" d="M102.16,64.79c-.27,0-.42-.55-.74-1.22a5.76,5.76,0,0,0-1.65-2.14,5.59,5.59,0,0,0-2.49-1c-.74-.14-1.28-.15-1.38-.4s.34-.71,1.31-.94a4.63,4.63,0,0,1,5.52,4.22C102.76,64.28,102.41,64.83,102.16,64.79Z"/><path class="cls-11" d="M46.42,63.69c-.34.42-1.93-.34-4-.29s-3.62.77-4,.36c-.15-.19.08-.71.77-1.24a5.51,5.51,0,0,1,3.18-1,5.42,5.42,0,0,1,3.19,1C46.33,63,46.58,63.5,46.42,63.69Z"/><path class="cls-11" d="M77.59,84c.19-.15.63-.09,1,.48a3.14,3.14,0,0,1,.15,2.42,5.89,5.89,0,0,1-1.84,2.82,7.52,7.52,0,0,1-3.67,1.73,8.08,8.08,0,0,1-4-.33,8.22,8.22,0,0,1-2.66-1.49c-1.3-1.11-1.7-2.14-1.38-2.53s1.32-.16,2.66.19a11.55,11.55,0,0,0,4.69.44,6.65,6.65,0,0,0,3.74-2,6.52,6.52,0,0,0,.81-1C77.3,84.49,77.38,84.18,77.59,84Z"/></g></g></svg>