<svg xmlns="http://www.w3.org/2000/svg" viewBox="0 0 89.36 89.36"><defs><style>.cls-1{fill:#bb5872;}.cls-2{opacity:0.14;}.cls-3{opacity:0.06;}.cls-4{fill:#7da1c9;}.cls-5{fill:#f8d6e1;}.cls-6{fill:#fff;}</style></defs><g id="Layer_2" data-name="Layer 2"><g id="Layer_3" data-name="Layer 3"><circle class="cls-1" cx="44.68" cy="44.68" r="44.68"/><path class="cls-2" d="M79.24,16.36a48.6,48.6,0,0,1,5.13,20.88A45.32,45.32,0,0,1,38.89,82.4C24.21,82.4,12.39,74.68,4.08,64c7.44,14.87,22.32,25.4,40.18,25.4A45.21,45.21,0,0,0,89.36,44C89.36,33.6,85.14,24,79.24,16.36Z"/><path class="cls-3" d="M45.67,0C19.29,0-8.67,23,3,60.78,2.42,28,23.11,1.83,49.49,1.83A48.91,48.91,0,0,1,60,3C55.37,1.53,50.76,0,45.67,0Z"/><path class="cls-4" d="M30.05,80.35c-.09,0,.06-.39.13-1a4.41,4.41,0,0,0-.55-2.54c-1-2-3.91-3.81-7.31-4.83a24.33,24.33,0,0,1-8.46-4.25c-1.9-1.54-2.71-2.87-2.58-2.95s1.09,1,3,2.34a29.1,29.1,0,0,0,8.32,3.82,17.43,17.43,0,0,1,4.78,2.24,8.17,8.17,0,0,1,2.9,3.29,4.38,4.38,0,0,1,.28,3C30.38,80.1,30.09,80.38,30.05,80.35Z"/><path class="cls-4" d="M41.34,70.82c-.14.11-.9-.89-2.48-2.07a7.65,7.65,0,0,0-3.08-1.42,6.19,6.19,0,0,0-2-.09,6.28,6.28,0,0,0-1,.21c-.18,0-.35.11-.51.17a4.51,4.51,0,0,0-.67.34l-1.21-.32a7.74,7.74,0,0,1-1-.31A7.66,7.66,0,0,1,25,63.94a7.74,7.74,0,0,1-.9-4.38c.22-2.52,1.08-3.88,1.18-3.82s-.41,1.49-.41,3.85a7.51,7.51,0,0,0,1,3.84,7,7,0,0,0,3.81,2.88,6.61,6.61,0,0,0,1,.29l.78.21c-.08,0,.24-.11.42-.17a4.35,4.35,0,0,1,.61-.2,6.38,6.38,0,0,1,1.22-.22,6.63,6.63,0,0,1,2.29.19,7.88,7.88,0,0,1,3.31,1.78A6.56,6.56,0,0,1,41.34,70.82Z"/><path class="cls-4" d="M15.34,40.46c0,.09-.32.23-.82.62a4.41,4.41,0,0,0-1.43,2.19c-.71,2.15,0,5.45,1.7,8.59a24.43,24.43,0,0,1,2.92,9c.24,2.44-.14,4-.29,3.91S17.37,63.28,17,61a29.18,29.18,0,0,0-3.13-8.6,17.71,17.71,0,0,1-1.76-5A8.13,8.13,0,0,1,12.37,43a4.38,4.38,0,0,1,1.91-2.28C14.92,40.41,15.33,40.41,15.34,40.46Z"/><path class="cls-4" d="M46.62,56.34c.16.08-.45,1.19-.88,3.11a7.83,7.83,0,0,0,0,3.39,6.22,6.22,0,0,0,.72,1.85,6.13,6.13,0,0,0,.62.85,4.48,4.48,0,0,0,.36.4,4.17,4.17,0,0,0,.58.47c.07.41.13.82.2,1.23a7.38,7.38,0,0,1-4.83,9c-2.4.84-4,.6-4,.49s1.52-.24,3.68-1.2a7.47,7.47,0,0,0,3.1-2.47,7,7,0,0,0,1.08-4.65,6.85,6.85,0,0,0-.13-1L47,67a3.82,3.82,0,0,1-.33-.3,6.42,6.42,0,0,1-.43-.48,6.84,6.84,0,0,1-.7-1A6.92,6.92,0,0,1,44.77,63a7.73,7.73,0,0,1,.28-3.74A6.5,6.5,0,0,1,46.62,56.34Z"/><path class="cls-4" d="M37.75,60.73c-.09,0,.06-.39.13-1a4.4,4.4,0,0,0-.56-2.55c-1-2-3.9-3.8-7.31-4.83a24.19,24.19,0,0,1-8.45-4.24c-1.91-1.54-2.71-2.87-2.58-3s1.09,1,3,2.34a29.1,29.1,0,0,0,8.32,3.82,17.14,17.14,0,0,1,4.78,2.24A8.24,8.24,0,0,1,38,56.83a4.31,4.31,0,0,1,.27,3C38.08,60.47,37.79,60.76,37.75,60.73Z"/><path class="cls-4" d="M35.61,46.5c-.13.12-.9-.88-2.48-2.06A7.65,7.65,0,0,0,30.05,43a6.19,6.19,0,0,0-2-.09,6.28,6.28,0,0,0-1,.21l-.51.17a7.06,7.06,0,0,0-.67.33l-1.21-.31a6.89,6.89,0,0,1-1-.32,7.68,7.68,0,0,1-4.3-3.38,7.83,7.83,0,0,1-.9-4.38c.22-2.53,1.08-3.88,1.18-3.82s-.4,1.49-.41,3.85a7.53,7.53,0,0,0,1,3.84A7.06,7.06,0,0,0,24,42a6.61,6.61,0,0,0,1,.29l.78.21.42-.18c.2-.07.41-.14.61-.19A5.92,5.92,0,0,1,28,41.91a6.63,6.63,0,0,1,2.29.19,7.71,7.71,0,0,1,3.31,1.78C35.14,45.3,35.69,46.45,35.61,46.5Z"/><circle class="cls-5" cx="45.36" cy="41.88" r="8.81"/><circle cx="45.36" cy="41.88" r="4.69"/><circle cx="76.93" cy="41.51" r="4.69"/><circle class="cls-6" cx="77.87" cy="40.78" r="1.36"/><circle class="cls-6" cx="47.03" cy="40.78" r="1.36"/><path d="M39.7,32.29c-.16,0-.38,0-.55-.32A1.94,1.94,0,0,1,39,30.65a3.21,3.21,0,0,1,1-1.71,3.92,3.92,0,0,1,2.18-1,5.1,5.1,0,0,1,3.61,1c.74.56,1,1.13.83,1.43s-.76.32-1.52.25a13,13,0,0,0-2.59-.1,2.93,2.93,0,0,0-1,.3,3.14,3.14,0,0,0-.75.54C40.24,31.71,40,32.18,39.7,32.29Z"/><path d="M82.32,35.63c-.33-.14-.48-.63-.85-1a3,3,0,0,0-1.69-1,13.58,13.58,0,0,0-2.59-.17c-.76,0-1.34-.08-1.49-.4s.18-.86,1-1.34a5.1,5.1,0,0,1,3.69-.59,3.83,3.83,0,0,1,2.06,1.21,3.1,3.1,0,0,1,.78,1.8,1.89,1.89,0,0,1-.31,1.29C82.7,35.62,82.48,35.69,82.32,35.63Z"/><circle class="cls-6" cx="48.39" cy="43.27" r="0.68"/><circle class="cls-6" cx="79.8" cy="43.16" r="0.56"/><path d="M71.86,52.81a1.13,1.13,0,0,1,0,1.23,3.48,3.48,0,0,1-1.66,1.57,3.08,3.08,0,0,1-2.56.11c-.65-.32-.84-.81-.68-1.12a1.9,1.9,0,0,1,.88-.69c.36-.19.77-.39,1.26-.62C70.06,52.81,71.38,52.25,71.86,52.81Z"/></g></g></svg>