<svg xmlns="http://www.w3.org/2000/svg" xmlns:xlink="http://www.w3.org/1999/xlink" viewBox="0 0 2028.89 1887.75"><defs><style>.cls-1{fill:#f4f4f2;}.cls-2{fill:#9abe88;}.cls-3{fill:#f1d2be;}.cls-4{fill:#dbd6d1;}.cls-5{fill:#4a2e38;}.cls-34,.cls-44,.cls-6,.cls-68{fill:#fff;}.cls-7{fill:#cfa184;}.cls-8{fill:#d7bea6;}.cls-9{fill:#465958;}.cls-10{fill:#dedcdd;}.cls-11{fill:#f9f3f7;}.cls-12{fill:#dead8e;}.cls-13{fill:#e38dac;opacity:0.35;}.cls-14{opacity:0.38;}.cls-15,.cls-71{fill-rule:evenodd;}.cls-16{fill:#fcfcfc;}.cls-17{fill:#e3d3a8;}.cls-18{fill:#ebefd4;}.cls-19{fill:#40513a;}.cls-20{fill:#fec55e;}.cls-21{fill:#b89874;}.cls-22{fill:#efefef;}.cls-23{fill:#001c3f;stroke-width:3.11px;}.cls-23,.cls-24,.cls-25,.cls-26,.cls-27,.cls-29,.cls-30,.cls-31,.cls-32,.cls-33,.cls-34,.cls-35,.cls-36,.cls-37,.cls-38,.cls-39,.cls-41,.cls-42,.cls-43,.cls-44,.cls-47,.cls-48,.cls-49,.cls-66{stroke:#000;}.cls-23,.cls-24,.cls-26,.cls-27,.cls-29,.cls-30,.cls-31,.cls-32,.cls-33,.cls-34,.cls-35,.cls-37,.cls-38,.cls-39,.cls-41,.cls-42,.cls-43,.cls-47,.cls-48,.cls-61,.cls-63,.cls-70{stroke-miterlimit:10;}.cls-24,.cls-26{fill:#e5ddd8;}.cls-24{stroke-width:3.71px;}.cls-25,.cls-27,.cls-32,.cls-45,.cls-46,.cls-61,.cls-63,.cls-66,.cls-69,.cls-70{fill:none;}.cls-25,.cls-36,.cls-44,.cls-45,.cls-46,.cls-49,.cls-66,.cls-69{stroke-linecap:round;stroke-linejoin:round;}.cls-25{stroke-width:1.3px;}.cls-26,.cls-27{stroke-width:3.01px;}.cls-28,.cls-36{fill:#eacab2;}.cls-29,.cls-31,.cls-33,.cls-35,.cls-42{fill:#b5896b;}.cls-29{stroke-width:3.4px;}.cls-30{fill:#bf0000;stroke-width:3.45px;}.cls-31{stroke-width:2.72px;}.cls-32{stroke-width:4.29px;}.cls-33,.cls-46{stroke-width:3.22px;}.cls-34{stroke-width:2.34px;}.cls-35,.cls-36{stroke-width:4.23px;}.cls-37,.cls-38,.cls-39{fill:#6b6968;}.cls-37{stroke-width:0.94px;}.cls-38{stroke-width:1.23px;}.cls-39{stroke-width:1.41px;}.cls-40,.cls-43{fill:#191918;}.cls-41{fill:#543422;}.cls-43{stroke-width:1.13px;}.cls-45,.cls-46,.cls-61{stroke:#fff;}.cls-45{stroke-width:3.22px;}.cls-47{fill:#00aa47;stroke-width:2.07px;}.cls-48{fill:#231309;stroke-width:2.55px;}.cls-49{fill:#d82323;stroke-width:3.83px;}.cls-50{opacity:0.31;}.cls-51{fill:#375a64;}.cls-52{fill:#f5f5f5;}.cls-53{opacity:0.3;}.cls-54{fill:#1a2e35;}.cls-55{opacity:0.4;}.cls-56{fill:#ff735d;}.cls-57{fill:#e1e1e1;}.cls-58{fill:#ececec;}.cls-59{fill:#af9875;}.cls-60,.cls-64{fill:#1a1a1a;}.cls-61{stroke-width:12.12px;}.cls-62{clip-path:url(#clip-path);}.cls-63{stroke:#739768;stroke-width:6.37px;}.cls-64{opacity:0.06;}.cls-65{opacity:0.03;}.cls-66{stroke-width:3.32px;}.cls-67{opacity:0.02;}.cls-68{opacity:0.19;}.cls-69,.cls-70{stroke:#1a1a1a;stroke-width:2.11px;}.cls-71{opacity:0.17;}</style><clipPath id="clip-path"><polygon class="cls-1" points="459.65 382.14 409.04 382.87 359.78 382.14 254.24 427.25 274.38 816.13 409.04 816.13 545.05 816.13 565.19 427.25 459.65 382.14"/></clipPath></defs><g id="Layer_2" data-name="Layer 2"><g id="creation_people_character" data-name="creation people character"><path class="cls-2" d="M758.91,217.18s300.61-118,585.72,139.28,242.28,621.31,242.28,621.31,320,66.17,371.23,409.42-52.36,459.19-52.36,459.19l-452,1.1L577,1849.63H373C81,1850.35,39.86,1590.9,9.78,1249.11-14.48,973.58-.69,663.61,133.12,459,424.67,13.32,758.91,217.18,758.91,217.18Z"/><path d="M1899.47,1841.61H160.55a9.3,9.3,0,0,0-9.46,9.14h0a9.3,9.3,0,0,0,9.46,9.14H1899.47a9.31,9.31,0,0,0,9.46-9.14h0A9.31,9.31,0,0,0,1899.47,1841.61Z"/><path class="cls-3" d="M838,1755.11c2.71,13.67,5.26,28.58-1.12,41-4.12,8-11.57,13.88-19.73,17.64-10.5,4.84-24.11,6-32.68-1.76-7.17-6.5-8.63-17-9.65-26.68-2-19.13-4-38.49-1.4-57.55.45-3.25,1.22-6.81,3.86-8.76,2-1.47,4.61-1.69,7.08-1.83q11.65-.67,23.34-.71c7.74,0,21.79.27,25.34,8.82C836.37,1733.34,836.23,1746.28,838,1755.11Z"/><path class="cls-4" d="M688.7,1793.76c-7.66,2.53-15.46,5-22.33,9.18s-12.84,10.56-14.8,18.39,1,17.13,8,21c5.57,3.05,165,3.15,181.46,1.52,3.82-.38,7.77-1,11-3.1,7.65-5,8.25-15.83,7.52-24.94q-.93-11.8-3-23.49c-.52-3-1.15-6.06-3-8.46-2-2.65-5.17-4.12-8.28-5.28a75.29,75.29,0,0,0-38.74-3.64c-6.4,1.1-12.78,3-19.26,2.55-8.58-.64-12.88-5.34-19-10.46-4.48-3.77-3-4-9.38-1.12-4.59,2.09-9.17,4.2-13.79,6.22Q717.5,1784.26,688.7,1793.76Z"/><path class="cls-5" d="M731.92,1812.49c-1.25.44-4.62-6.63-10.69-13.82s-12.31-11.86-11.66-13c.31-.52,2.37,0,5.29,1.62a32.81,32.81,0,0,1,4.81,3.36,40.41,40.41,0,0,1,9.18,11,34,34,0,0,1,2.44,5.33C732.38,1810.17,732.49,1812.29,731.92,1812.49Z"/><path class="cls-5" d="M755.92,1808.31c-.56.31-2.11-1.36-4.23-4.22s-4.78-6.91-8-11a66.31,66.31,0,0,0-9.21-9.56c-2.6-2.2-4.43-3.47-4.17-4.08s2.59-.33,6,1.38a34.77,34.77,0,0,1,11,9.41,55.53,55.53,0,0,1,7.26,12.25C755.92,1805.8,756.47,1808,755.92,1808.31Z"/><path class="cls-6" d="M659.91,1835.77c5.57,3,165,3.16,181.46,1.52,3.83-.38,7.77-1,11-3.1,5.3-3.46,6.68-10.84,7.11-17.4.14,10.67,0,19.5-7.11,24.15-3.23,2.1-7.17,2.72-11,3.1-16.45,1.64-175.89,1.53-181.46-1.52-6.62-3.64-9.61-12-8.35-19.5C652.41,1828.3,655.25,1833.21,659.91,1835.77Z"/><path class="cls-3" d="M966.54,1752.78c-2.71,13.68-5.27,28.58,1.12,41,4.12,8,11.57,13.88,19.73,17.64,10.5,4.84,24.1,6,32.68-1.76,7.17-6.5,8.63-17.05,9.65-26.67,2-19.14,4-38.5,1.4-57.56-.45-3.25-1.23-6.81-3.86-8.76-2-1.47-4.61-1.68-7.08-1.83q-11.67-.68-23.34-.71c-7.74,0-21.79.27-25.34,8.83C968.15,1731,968.29,1744,966.54,1752.78Z"/><path d="M937.59,244.36a47.82,47.82,0,0,0-29.18,1.29,50.33,50.33,0,0,1,48.22-5.86c-28.09-18.92-68.4-17.31-94.89,3.79-20.13,16-38.31,38-25,62.87a91.63,91.63,0,0,1,9.65,30.31c1.66,11.37,6.65,21.25,17.34,25.86,26.94,11.62,72.89,22.38,84.41-4.6,15.08-35.31,38.81-48.23,30-76.21C972.37,263.45,955.94,249.1,937.59,244.36Z"/><path d="M904.39,221.72a1.73,1.73,0,0,1,0,.51A2.25,2.25,0,0,1,902,224.3a60.85,60.85,0,0,0-64.17,46.86c-1.84,7.9-1.78,15,.16,21.21a2.25,2.25,0,0,1-4.3,1.36c-2.19-7-2.27-14.89-.25-23.6a65.35,65.35,0,0,1,68.92-50.32A2.24,2.24,0,0,1,904.39,221.72Z"/><path d="M983,280.53A67.32,67.32,0,0,1,975.91,322c-11.68,22-35.81,38.81-64.54,45a2.26,2.26,0,1,1-1-4.41c27.45-5.94,50.44-21.91,61.52-42.74a63.45,63.45,0,0,0,6.73-37.25c-1.65-13.23-7.48-24.88-16.44-32.79a2.25,2.25,0,1,1,3-3.38C974.94,255,981,267.25,983,280.53Z"/><path class="cls-3" d="M768.44,1691.45c3.85,49.36-.66,19.36,0,27.43,1.53,18.52,90.23,11.25,90.23,11.25s-30,6-22.87-49.15Z"/><path class="cls-3" d="M1053.39,1691.17c-2.16,49.47-12.09,21.78-12.48,29.87-.9,18.56-46.17-11.48-46.17-11.48s0,28.36-9-26.55Z"/><rect class="cls-3" x="855.69" y="579.08" width="94" height="141.36"/><path class="cls-7" d="M855.69,579.08v69.1c12.34,6.74,27,8.8,40.9,6.66,19.91-2.59,38.22-12.07,53.1-25.63V579.08Z"/><path class="cls-3" d="M1003.32,688.94c0,24-61.15,135-100.63,135S802.06,713,802.06,688.94s61.15-25,100.63-25S1003.32,664.92,1003.32,688.94Z"/><polygon class="cls-3" points="982.46 938.84 1007.92 1046.65 802.06 1046.65 825.63 938.84 982.46 938.84"/><path class="cls-8" d="M1036,689.67c-6-10.18-85.95-29.47-85.95-29.47s-4.67,121.22-47.2,146.35c-42.53-25.13-47.2-146.35-47.2-146.35s-80,19.29-86,29.47c-21.51,36.69,29.6,100.37,32.32,137.27s-.2,219.71-.2,219.71h201.66s-2.51-182.82.2-219.71S1057.55,726.36,1036,689.67Z"/><path class="cls-9" d="M802.06,1013.85s-26.09,86.86-24.88,164.27-60.51,550.13-60.51,550.13l155.34,5.2,21.51-379.6s10.17-117.38,18-127.69,33.3-7.87,33.3-7.87l2.41-204.44Z"/><path class="cls-9" d="M1035.33,1013.85s20.12,84.24,18.91,161.65,27.94,554,27.94,554l-140,4.68-9.82-402.35s1.3-95.4-6.57-105.71-33.29-7.87-33.29-7.87l-2.42-204.44Z"/><path class="cls-10" d="M746.12,952.42h0A37.88,37.88,0,0,0,788,919.27c14.59-75.7,24-147,24.52-210.92a37.87,37.87,0,0,0-33.15-41.88h0c-48.5-1.62-64.26,161.89-66.4,244.07A37.88,37.88,0,0,0,746.12,952.42Z"/><path class="cls-10" d="M1059.79,956.9h0A37.89,37.89,0,0,1,1019,922.38c-12.08-76.14-19.11-147.73-17.55-211.61A37.89,37.89,0,0,1,1036,670h0c48.53,0,58.9,163.93,58.32,246.13A37.89,37.89,0,0,1,1059.79,956.9Z"/><path class="cls-10" d="M950.54,643.2l-26.3,215.45a1261.25,1261.25,0,0,0-1.56,292.19L934.05,1253c8.22,73.89,68.11,129.63,139.29,129.63h10.77c25.79-240.55-33.28-351-63.89-408.88-23.94-45.28-19.73-81.95-11-121l34-174.71Z"/><path class="cls-11" d="M950.54,643.2,980,660.29c13.07,7.59,15.71,21.52,6,31.5l-42.51,43.55L963.19,754c6.39,6.06,8.27,14.1,5,21.4l-44.55,99.31S926.32,684,950.54,643.2Z"/><path d="M822.87,283.33c.21.07-.11,1.57-.79,4.22a71.5,71.5,0,0,0-2.2,11.21,28.6,28.6,0,0,0,.29,7.66,19.63,19.63,0,0,0,3.17,7.91,18.89,18.89,0,0,0,7.25,5.84,65.88,65.88,0,0,0,10.06,3.48,61.78,61.78,0,0,1,10.51,3.79,24,24,0,0,1,8.31,6.77,32.34,32.34,0,0,1,4.58,8.39,62.6,62.6,0,0,1,2.34,7.81c1.14,4.82,1.84,8.7,2.4,11.37s.86,4.17.64,4.24-.9-1.3-1.8-3.92-2-6.46-3.36-11.11a65.25,65.25,0,0,0-2.61-7.43,31,31,0,0,0-4.42-7.57,21.63,21.63,0,0,0-7.43-5.83,62.43,62.43,0,0,0-10-3.53,64.1,64.1,0,0,1-10.52-3.73A21.39,21.39,0,0,1,821,316a21.73,21.73,0,0,1-3.36-9.12,28.78,28.78,0,0,1,.07-8.32,51.05,51.05,0,0,1,3.23-11.33C822,284.62,822.67,283.27,822.87,283.33Z"/><path d="M979.08,325c.17,0,.66.83.51,2.57a10.31,10.31,0,0,1-3.4,6.26c-2.25,2.15-5.58,3.57-8.92,5.06a37.36,37.36,0,0,0-9.75,6.32,36,36,0,0,0-4.14,4.37c-1.22,1.51-2.31,3.15-3.51,4.67a20.36,20.36,0,0,1-4,4,18.1,18.1,0,0,1-4.35,2.32,16,16,0,0,1-6.93,1c-1.64-.17-2.49-.54-2.46-.73s.92-.27,2.44-.47a20.3,20.3,0,0,0,6.1-1.78,17.42,17.42,0,0,0,3.62-2.33,19.18,19.18,0,0,0,3.3-3.67c1.06-1.46,2.1-3.13,3.4-4.82a35.85,35.85,0,0,1,15.15-11.44c1.77-.72,3.41-1.31,4.87-2a18.3,18.3,0,0,0,3.75-2.14,10.47,10.47,0,0,0,3.65-4.84C978.88,325.91,978.84,325,979.08,325Z"/><path class="cls-10" d="M855.58,641.84l26.3,215.45a1261.34,1261.34,0,0,1,1.56,292.2l-11.37,102.19c-8.22,73.89-68.11,129.62-139.29,129.62H722c-25.79-240.55,33.28-351,63.89-408.88,23.94-45.27,19.73-81.94,11-121l-34-174.7Z"/><path class="cls-11" d="M855.58,641.84l-29.45,17.1c-13.06,7.58-15.7,21.52-6,31.5L862.68,734l-19.75,18.7c-6.39,6-8.27,14.09-5,21.4l44.54,99.3S879.8,682.62,855.58,641.84Z"/><path class="cls-5" d="M956.81,347.27c-62.6-16.19-110.19,15-109.1-1.19.26-3.86-2.51-8.83-1.08-10.11,45.16,12.79,98-26.38,114,5.3C962.16,343,955.38,344.72,956.81,347.27Z"/><circle class="cls-3" cx="788.23" cy="514.58" r="29.2"/><path class="cls-12" d="M780.11,500.16a12.56,12.56,0,0,0-3.55,23.5c2,1.11.22,4.22-1.81,3.1a16.16,16.16,0,0,1,4.4-30.07c2.26-.47,3.22,3,1,3.47Z"/><circle class="cls-3" cx="1004.43" cy="514.58" r="29.2"/><path class="cls-12" d="M1012.55,500.16a12.56,12.56,0,0,1,3.54,23.5c-2,1.11-.21,4.22,1.82,3.1a16.16,16.16,0,0,0-4.41-30.07c-2.25-.47-3.22,3-1,3.47Z"/><path class="cls-3" d="M1007.8,502.24c0,77.11-49.61,129.47-110.8,129.47S786.2,579.35,786.2,502.24,797.88,362.62,897,362.62,1007.8,425.13,1007.8,502.24Z"/><circle class="cls-13" cx="967.96" cy="546.83" r="18.27"/><circle class="cls-13" cx="830.74" cy="546.83" r="18.27"/><g class="cls-14"><path d="M911.75,338.48s.17-.05.49-.11l1.42-.25c1.24-.21,3-.5,5.25-.78a143.45,143.45,0,0,1,17.45-1.13,59.09,59.09,0,0,1,9.62.5,15.74,15.74,0,0,1,4,1.22,14.67,14.67,0,0,1,3.07,2,15.43,15.43,0,0,0,4.39,2.88,5.52,5.52,0,0,0,1.9.31l-.51,0a5.18,5.18,0,0,1-1.42-.24,15.13,15.13,0,0,1-4.46-2.84,15,15,0,0,0-3.06-2,16.45,16.45,0,0,0-4-1.18,62.09,62.09,0,0,0-9.58-.47,154.23,154.23,0,0,0-17.43,1.05c-2.22.26-4,.52-5.25.7l-1.43.21C911.93,338.47,911.75,338.48,911.75,338.48Z"/></g><g class="cls-14"><path d="M880,344.06l-.37.1-1.07.22-3.94.79-5.85,1.13a49.45,49.45,0,0,1-7.22,1.09,12,12,0,0,1-7-2,24.1,24.1,0,0,1-4.51-3.91c-1.15-1.25-2-2.33-2.58-3.08l-.66-.87a1.28,1.28,0,0,1-.21-.32l.25.29.69.84c.61.73,1.48,1.79,2.64,3a24.86,24.86,0,0,0,4.5,3.83,11.93,11.93,0,0,0,6.83,2,53,53,0,0,0,7.18-1.08l5.86-1.08,4-.7,1.08-.18Z"/></g><path d="M975.37,428.78a235.2,235.2,0,0,1,2.48,57.33A614.87,614.87,0,0,0,827,483.49a397.53,397.53,0,0,1,6.28-63c-11.95,22.21-28,76.12-51.91,94.05-10-.88-15-4.41-10.73-25.43,1.82-27.75,7.79-55.29,20.72-79.78,16.16-30.62,44.22-56.05,78.16-63.31,43-14.49,93.37.46,122.66,34.65,25,29.15,41.42,93.18,30.51,129.94C1020.91,510.7,998.87,519.48,975.37,428.78Z"/><path d="M919,580.64a1.59,1.59,0,0,1,.78,1.08,3.57,3.57,0,0,1-.26,2,10.5,10.5,0,0,1-4.19,4.54c-4.11,2.68-10.19,4.21-16.88,4a34.27,34.27,0,0,1-9.38-1.62,23.09,23.09,0,0,1-7.25-3.8,10.63,10.63,0,0,1-3.62-4.77,3.73,3.73,0,0,1-.17-1.88,1.82,1.82,0,0,1,.68-1.13,2.65,2.65,0,0,1,1.25-.46,11.09,11.09,0,0,1,1.56,0c1.13.06,2.46.22,4.11.39s3.61.35,5.85.52,4.75.3,7.41.4c5.31.18,10.17.18,13.46.16,1.67,0,2.94,0,4,.1l1.42.14A3.57,3.57,0,0,1,919,580.64Z"/><path d="M793.25,602.15c-.89-.15-1.13-2.83-1.7-7.36-.28-2.27-.72-5-1.34-8.15s-1.57-6.68-2.78-10.57c-2.36-7.79-6.06-16.88-10-27.48a161.2,161.2,0,0,1-5.39-17.25,77.06,77.06,0,0,1-2.38-20.15,57,57,0,0,1,4.37-20.35,142.38,142.38,0,0,1,8.25-16.19c5.5-9.71,10.61-18.37,15.05-25.56C806.26,434.7,812.51,426.2,814,427s-2,10.75-8.92,26.18c-3.46,7.72-7.76,16.81-12.71,26.81-2.48,5-5.07,10.08-7,15.29a48.15,48.15,0,0,0-3.28,16.24,72.88,72.88,0,0,0,1.82,17.1c1.21,5.61,2.79,11.08,4.39,16.35,3.22,10.53,6.26,20.42,7.67,29.09a77.32,77.32,0,0,1,1.13,11.86,48.87,48.87,0,0,1-.73,9,28.36,28.36,0,0,1-.76,3.21,13.09,13.09,0,0,1-.86,2.28C794.18,601.65,793.67,602.23,793.25,602.15Z"/><path d="M992.89,586.78c-.26-.34-.13-1,.35-1.9a32.75,32.75,0,0,1,2.4-3.55c2.18-2.9,5.46-6.88,9-12a68.44,68.44,0,0,0,9.29-18.8,43,43,0,0,0,1.82-11.61,55.72,55.72,0,0,0-1.52-12.83c-2-9-5.45-17.87-7.52-26.66a109.21,109.21,0,0,1-3-23.56,72.36,72.36,0,0,1,1.31-15.87c.82-3.7,1.79-5.67,2.63-5.62,1.79.11,2.46,8.2,4.79,20.63a179,179,0,0,0,5.33,21.38c1.23,3.92,2.74,8.06,4.3,12.53a135,135,0,0,1,4.3,14.46,70,70,0,0,1,1.32,7.92,55.34,55.34,0,0,1,.24,8,49.19,49.19,0,0,1-3.13,14.85,61.15,61.15,0,0,1-13.33,20.7A60.07,60.07,0,0,1,998.82,585a18.46,18.46,0,0,1-4,1.86C993.81,587.12,993.16,587.11,992.89,586.78Z"/><path d="M1035.1,533.37c-.49,0-.89-4.39-2.72-11.21a78.45,78.45,0,0,0-4.14-11.62c-1-2.12-2-4.28-3.3-6.49s-2.62-4.55-3.82-7.11c-2.44-5.19-3.42-10.48-4.28-15.13s-1.49-8.91-1.93-12.47c-.88-7.14-1-11.59-.62-11.64s1.35,4.28,2.78,11.28c.72,3.5,1.57,7.67,2.57,12.27s2.05,9.64,4.28,14.38c1.12,2.38,2.45,4.67,3.68,6.95a68.11,68.11,0,0,1,3.27,6.83,63.44,63.44,0,0,1,3.65,12.26C1035.84,528.84,1035.46,533.36,1035.1,533.37Z"/><path d="M804.61,541.08c-.51-.09.51-4.39-.88-11.11a65.47,65.47,0,0,0-3.6-11.49c-1.68-4.25-3.87-8.87-5.71-14a44.34,44.34,0,0,1-3-15.2,43,43,0,0,1,2.19-12.44c1.06-3.38,2-6,2.68-7.88s1.08-2.85,1.3-2.81.18,1.16-.13,3.12-1,4.74-1.73,8.13a48.08,48.08,0,0,0-1.45,11.85,45.77,45.77,0,0,0,3.09,14.19c1.78,4.95,3.87,9.59,5.46,14a55.52,55.52,0,0,1,3.1,12.17,27.14,27.14,0,0,1-.2,8.51c-.11.47-.21.9-.31,1.3s-.23.68-.32.93C804.87,540.86,804.72,541.11,804.61,541.08Z"/><path class="cls-3" d="M1007.59,899.37s28.11-25.32,33.16-27.25,42.93-12.11,46.57-18S1082,843.93,1071,847.1s-38.11,11.43-41.77,14.4-20.16,10.59-24.1,13.92S988.75,902.39,1007.59,899.37Z"/><path class="cls-3" d="M1004.54,878.26c8.36-.55,23.37-19.16,25.63-19.59s30.07-7.08,39.16-10.3,3.64-10.41-8.4-9.62-32.27,5.76-35.68,7.16-30.38,13.26-36.5,17.41S992.5,879.06,1004.54,878.26Z"/><path class="cls-3" d="M985.37,879.28c8.07-2.28,21.09-22.88,23.22-23.77s28.14-5.82,36.37-10.87,1.4-10.94-10.22-7.66-34.36,5.24-37.41,7.32-21.57,20.59-26.68,25.92S973.76,882.56,985.37,879.28Z"/><path class="cls-3" d="M1010.52,902.27c3-1.76,7.51-8.3,11.41-15.72-1.87-1.89-3.69-3.83-5.46-5.79-6.57-7.27-12.61-14.87-19.35-22-1.5-1.59-3-3.16-4.63-4.69-17.37,8-51.06,36.34-28.28,52.4C964.21,906.44,1003.68,906.28,1010.52,902.27Z"/><path class="cls-3" d="M963.72,906.07s21.7,7.09,29.75,9c5.76,1.35,24.09,2.6,26,3.16s20.07-18.35,22-21.65-2.33-7.72-11.8-6.67-17.83,11.48-17.83,11.48-23-12.51-34-11.74S963.72,906.07,963.72,906.07Z"/><path class="cls-10" d="M966.43,927.24l-6.3-33.54L738,881.93c-16.75-.89-28.33,17.16-24.83,38.73h0c3.3,20.38,18.8,35.62,34.28,33.71Z"/><path class="cls-3" d="M799.18,901.05s-27.53-25.94-32.54-28S724,860,720.49,854.08,726,844,737,847.37s37.84,12.29,41.43,15.34,19.93,11,23.78,14.46S818,904.5,799.18,901.05Z"/><path class="cls-3" d="M802.7,880c-8.35-.74-22.93-19.68-25.18-20.17s-29.9-7.74-38.92-11.17-3.4-10.49,8.62-9.43,32.12,6.49,35.51,8,30.07,13.94,36.09,18.23S814.72,881.09,802.7,880Z"/><path class="cls-3" d="M821.84,881.47c-8-2.46-20.57-23.35-22.68-24.29s-28-6.45-36.11-11.68-1.16-11,10.38-7.43,34.24,6,37.24,8.16,21.1,21.07,26.1,26.51S833.38,885,821.84,881.47Z"/><path class="cls-3" d="M796.18,903.89c-3-1.83-7.31-8.47-11-16,1.92-1.84,3.77-3.74,5.59-5.66,6.73-7.12,12.94-14.58,19.84-21.59q2.3-2.34,4.73-4.59c17.19,8.42,50.23,37.48,27.1,53C842.39,909.1,802.94,908.05,796.18,903.89Z"/><path class="cls-3" d="M842.89,908.74S821,915.34,813,917c-5.8,1.21-24.15,2.06-26.05,2.58s-19.66-18.8-21.47-22.14,2.51-7.67,11.94-6.41S794.94,903,794.94,903s23.33-12,34.3-11S842.89,908.74,842.89,908.74Z"/><path class="cls-10" d="M842,909.56l9.71-32.72L1073.84,888c16.76.83,26.41,20,20.72,41.07h0c-5.38,19.94-22.36,33.5-37.56,30Z"/><path class="cls-15" d="M867.94,470.38s-16.19,1.9-30.37,11.41c-12,8-17.15,21.3-17.15,21.3s-5.32-14.65,12.09-27.74C854.05,459.16,871.15,472.62,867.94,470.38Z"/><path class="cls-15" d="M929.64,472.47s16.29.81,31.06,9.36c12.48,7.21,18.52,20.11,18.52,20.11s4.34-15-13.9-26.87C942.75,460.35,926.59,474.91,929.64,472.47Z"/><path d="M887.57,544.75a1.58,1.58,0,0,1-.52-.09,1.67,1.67,0,0,1-1.07-2.11c.49-1.48,5-14.45,13.15-14.48h0c8.18,0,13.37,11.84,13.59,12.34a1.67,1.67,0,0,1-.87,2.2,1.69,1.69,0,0,1-2.2-.87c-1.24-2.88-5.55-10.33-10.52-10.33h0c-4.89,0-8.87,8.81-10,12.19A1.68,1.68,0,0,1,887.57,544.75Z"/><path class="cls-15" d="M959.5,512.81c-1-7.21-5.71-18.6-16.12-18.37-11,.24-12.73,11.59-13,20.87-.24,9.79,2.71,21.56,14.31,21.08C957.31,535.87,960.77,522.25,959.5,512.81Z"/><circle class="cls-6" cx="945.79" cy="507.05" r="4.31"/><circle class="cls-6" cx="952.85" cy="514.09" r="1.62"/><path class="cls-15" d="M832.61,513.52c.38-7.25,4.21-18.85,14.61-19.12,11-.28,13.64,11,14.62,20.21,1,9.76-1,21.65-12.58,21.73C836.65,536.43,832.1,523,832.61,513.52Z"/><circle class="cls-6" cx="846.82" cy="504.87" r="4.31"/><circle class="cls-6" cx="839.77" cy="511.91" r="1.62"/><path class="cls-4" d="M1115.81,1791.43c7.67,2.53,15.47,5,22.34,9.18S1151,1811.17,1153,1819s-1,17.13-8,21c-5.57,3-165,3.16-181.46,1.52-3.83-.38-7.77-1-11-3.1-7.66-5-8.25-15.83-7.53-24.94q.95-11.81,3-23.49c.52-3,1.15-6,3-8.46,2-2.65,5.17-4.12,8.28-5.28a75.27,75.27,0,0,1,38.74-3.64c6.4,1.1,12.78,3,19.26,2.55,8.58-.64,12.87-5.34,18.95-10.46,4.48-3.77,3-4,9.38-1.12,4.59,2.09,9.17,4.2,13.79,6.22Q1087,1781.93,1115.81,1791.43Z"/><path class="cls-6" d="M1144.38,1834.22c-5.57,3-165,3.15-181.46,1.52-3.82-.38-7.77-1-11-3.1-5.31-3.46-6.69-10.84-7.12-17.4-.13,10.67,0,19.5,7.12,24.15,3.22,2.1,7.17,2.72,11,3.1,16.46,1.63,175.89,1.53,181.46-1.52,6.63-3.64,9.61-12,8.36-19.51C1151.89,1826.75,1149,1831.66,1144.38,1834.22Z"/><path class="cls-5" d="M1072.6,1810.16c-.57-.2-.46-2.32.63-5.48a32.76,32.76,0,0,1,2.44-5.34,39.94,39.94,0,0,1,9.18-11,33.6,33.6,0,0,1,4.81-3.36c2.92-1.65,5-2.14,5.28-1.62.66,1.15-5.68,5.75-11.66,13S1073.85,1810.6,1072.6,1810.16Z"/><path class="cls-5" d="M1048.6,1806c-.55-.3,0-2.51,1.41-5.83a55.27,55.27,0,0,1,7.26-12.24,34.78,34.78,0,0,1,11-9.42c3.37-1.71,5.75-1.94,6-1.38s-1.57,1.88-4.18,4.09a66.32,66.32,0,0,0-9.21,9.56c-3.24,4.09-5.9,8.14-8,11S1049.16,1806.3,1048.6,1806Z"/><polygon class="cls-16" points="1025.97 194.25 1048.59 189.76 1054.09 166.92 1079.81 163.67 1078.16 137.52 1107.07 132.56 1108.52 108.31 1135.55 98.99 1139.11 109.22 1118.9 116.18 1117.37 141.78 1089.58 146.55 1091.25 173.13 1062.88 176.72 1057.5 199.02 1036.54 203.19 1036.08 218.58 1025.25 218.22 1025.97 194.25"/><path class="cls-17" d="M1205.79,858.08l13.48-24.67-12.68-25.09a3.86,3.86,0,0,1,4.16-5.54l27.62,5.2,20-19.82a3.86,3.86,0,0,1,6.55,2.25l3.6,27.88,25,12.84a3.86,3.86,0,0,1-.11,6.93l-25.4,12-4.49,27.75a3.86,3.86,0,0,1-6.62,2l-19.3-20.44-27.78,4.31A3.86,3.86,0,0,1,1205.79,858.08Z"/><path class="cls-18" d="M583.07,248.72l-5.56-27.55-25.86-11a3.87,3.87,0,0,1-.38-6.92l24.49-13.81,2.5-28a3.87,3.87,0,0,1,6.46-2.51l20.7,19,27.41-6.26A3.86,3.86,0,0,1,637.2,177l-11.69,25.56,14.43,24.13a3.87,3.87,0,0,1-3.76,5.82l-27.92-3.22L589.77,250.5A3.87,3.87,0,0,1,583.07,248.72Z"/><path class="cls-16" d="M772.59,178.13a28.3,28.3,0,1,1,22.33-33.22A28.3,28.3,0,0,1,772.59,178.13Z"/><path class="cls-16" d="M845.94,120.6c-7.94,2.69-16.53,4.8-24,8.56-6.45,3.23-3.07,13.51,4.11,12.07,8.8-1.76,17.46-5.66,25.93-8.61,3.42-1.19,4.48-6.06,3-9-1.8-3.6-5.56-4.18-9-3Z"/><path class="cls-16" d="M805.14,76.82c-4.33,10-10.11,19-15.53,28.35-4.23,7.35,5.4,13.49,10.73,7.22,7.67-9,13.13-20.26,17.79-31,1.48-3.41-.9-7.6-4.23-8.76-3.73-1.31-7.28.81-8.76,4.23Z"/><path class="cls-16" d="M757.07,100.73a4.87,4.87,0,0,0,6.63.42c5.32-3.87,4-11.82,3.13-17.47a61.13,61.13,0,0,0-5.49-17c-3.86-7.92-16.14-1.83-12.27,6.12C756.64,88.32,751.39,95.23,757.07,100.73Z"/><path class="cls-16" d="M703.58,116.49c13,6.68,17.85,12.86,24.3,11,3.78-1.09,5.23-4.37,3.93-8-1.55-4.27-6.5-6.08-10.1-8.3s-6.9-4.22-10.51-6.06c-3.29-1.66-7.24-1.46-9.48,1.86-1.87,2.79-1.44,7.78,1.86,9.47Z"/><path class="cls-16" d="M705.49,148.6c-6.92,3.52-9.49,4.42-12.43,8.23-2.56,3.31.08,9.3,4.45,9.17,5.09-.15,6.82-1.44,14.1-5.13a6.86,6.86,0,0,0-6.12-12.27Z"/><path class="cls-16" d="M727.32,180.8c-7.48,12.9-9.7,15.61-8.63,20.18.62,2.68,3.61,5.4,6.58,4.42,5.53-1.8,6.65-5.29,13.2-17.11,1.76-3.17,1.37-7.17-1.83-9.32-2.86-1.92-7.49-1.32-9.32,1.83Z"/><path class="cls-16" d="M774.27,223c3,4.33,10.84,1.47,10.87-3.64,0-4.9-1-6.67-8.18-29.53-1.11-3.53-4.12-6.17-8-5.4-3.33.65-6.52,4.49-5.41,8C770.93,216.22,771.22,218.65,774.27,223Z"/><path class="cls-16" d="M808,181.57C822,192.84,820,195,828.23,199.11c3.76,1.88,8.81-2.63,7.57-6.57-1.6-5-2.65-6.34-8.83-12.41-3.6-3.53-7.39-6.86-11.31-10-2.9-2.34-7.63-1-9.59,1.88-2.23,3.32-1,7.24,1.88,9.59Z"/><polygon class="cls-19" points="502.88 87.04 507.07 60.41 487.91 54.8 491.13 28.39 473.44 20.14 473.31 0 465.25 0.48 465.42 27.42 482.19 35.23 478.84 62.72 497.68 68.23 493.88 92.36 502.88 87.04"/><polygon class="cls-19" points="1116.79 314.06 1090.52 307.99 1083.58 326.7 1057.45 321.62 1047.98 338.68 1027.88 337.38 1027.79 345.45 1054.67 347.19 1063.65 331.02 1090.83 336.31 1097.66 317.91 1121.46 323.41 1116.79 314.06"/><polygon class="cls-20" points="128.49 412.25 168.46 424.12 172.95 466.35 161.9 467.53 158.19 432.67 116.89 420.4 119.59 372.27 91.13 367.51 93.88 356.69 131.25 362.95 128.49 412.25"/><path class="cls-16" d="M355.28,170c-11.87,20,2.84,46.3,23,53.49,22.27,7.95,48.34-1.81,60.75-21.7,13.43-21.52,7.6-45.94-13-56.92-20.11-10.7-41.49,2-43.61,23.36-1.52,15.28,8.55,25.6,16.32,24.59,6.06-.8,8.93-8.2,3.67-12a6.55,6.55,0,0,0-7.09,0c-4.22-4.24-5-15.62,2.61-24.2,9.77-11,26.25-4.66,33.7,5.67,9.48,13.15,4.38,30.37-6,41.36-10.87,11.53-29,16.47-44.07,11.14a33.41,33.41,0,0,1-20.28-42.14C362.63,168.57,357.41,166.41,355.28,170Z"/><path class="cls-16" d="M688.47,366.4c-2.25-23.12-29.7-35.64-50.19-29.5-22.65,6.78-37.88,30.07-36.11,53.44,1.91,25.3,21.06,41.53,44.21,38.16,22.54-3.28,32.23-26.21,21.32-44.64-7.82-13.22-22.05-15.58-27.71-10.16-4.41,4.23-2.35,11.89,4.15,11.85a6.56,6.56,0,0,0,5.73-4.18c5.9.92,13.29,9.61,12.22,21.05-1.38,14.61-18.4,19.3-30.52,15.38-15.42-5-21.5-21.89-19.67-36.87,1.94-15.73,13.62-30.43,28.92-35.07a33.41,33.41,0,0,1,41.29,22A3.26,3.26,0,0,0,688.47,366.4Z"/><polygon class="cls-18" points="213.66 174.2 165.09 200.76 227.02 241.71 213.66 174.2"/><path class="cls-21" d="M1124.88,596.39a52.42,52.42,0,1,0,30.45-67.61A52.41,52.41,0,0,0,1124.88,596.39Z"/><path class="cls-22" d="M1203.05,575.64a28,28,0,1,1-52.42,19.87Z"/><path class="cls-23" d="M1265,1687.64,1220.28,1710s-1.21-75.46,3.62-88c5.7-14.84,15.82-24.55,19.32-47.51h26.58L1265,1687.64"/><path class="cls-24" d="M1724.63,1758.06l-40.41-12L1732,1530c1.55-7,7.72-11.23,13.78-9.44l18.47,5.47c6.06,1.79,9.71,8.92,8.16,15.93Z"/><ellipse cx="1742.19" cy="1537.17" rx="4.83" ry="5.59"/><line class="cls-25" x1="1773.7" y1="1541.08" x2="1765.51" y2="1538.66"/><line class="cls-25" x1="1772.2" y1="1547.85" x2="1764.01" y2="1545.43"/><line class="cls-25" x1="1770.71" y1="1554.62" x2="1762.51" y2="1552.2"/><line class="cls-25" x1="1769.21" y1="1561.39" x2="1757.51" y2="1557.93"/><line class="cls-25" x1="1767.86" y1="1568.2" x2="1759.67" y2="1565.78"/><line class="cls-25" x1="1766.36" y1="1574.97" x2="1758.17" y2="1572.55"/><line class="cls-25" x1="1764.87" y1="1581.74" x2="1756.67" y2="1579.31"/><line class="cls-25" x1="1763.37" y1="1588.51" x2="1751.67" y2="1585.04"/><line class="cls-25" x1="1761.87" y1="1595.28" x2="1753.68" y2="1592.85"/><line class="cls-25" x1="1760.37" y1="1602.04" x2="1752.18" y2="1599.62"/><line class="cls-25" x1="1758.88" y1="1608.81" x2="1750.69" y2="1606.39"/><line class="cls-25" x1="1757.38" y1="1615.58" x2="1745.68" y2="1612.12"/><line class="cls-25" x1="1755.88" y1="1622.35" x2="1747.69" y2="1619.93"/><line class="cls-25" x1="1754.39" y1="1629.12" x2="1746.2" y2="1626.7"/><line class="cls-25" x1="1752.89" y1="1635.89" x2="1744.7" y2="1633.46"/><line class="cls-25" x1="1751.39" y1="1642.66" x2="1739.69" y2="1639.19"/><line class="cls-25" x1="1749.31" y1="1649.25" x2="1741.12" y2="1646.83"/><line class="cls-25" x1="1747.82" y1="1656.02" x2="1739.63" y2="1653.6"/><line class="cls-25" x1="1746.32" y1="1662.79" x2="1738.13" y2="1660.37"/><line class="cls-25" x1="1744.82" y1="1669.56" x2="1733.12" y2="1666.1"/><line class="cls-25" x1="1743.33" y1="1676.33" x2="1735.13" y2="1673.9"/><line class="cls-25" x1="1741.83" y1="1683.1" x2="1733.64" y2="1680.67"/><line class="cls-25" x1="1740.33" y1="1689.86" x2="1732.14" y2="1687.44"/><line class="cls-25" x1="1738.84" y1="1696.63" x2="1727.13" y2="1693.17"/><path d="M1766,1753.15l-19.41-.18c-.31,0-.56-.3-.57.74l1-140.32c0-3,.91-9.17,2.32-9.16h16.43c1.41,0,1.8,6.33,1.79,8l-1,140.32A.59.59,0,0,1,1766,1753.15Z"/><path class="cls-26" d="M1752.82,1611.4a4,4,0,0,1-3.77-5l5.17-18.16,1.31-4.59a2.41,2.41,0,0,1,.08-.25c2-5.56,1.89-5.56,3.78,0l.08.24,1.24,4.62,4.9,18.24a4,4,0,0,1-3.86,5Z"/><line class="cls-27" x1="1757.48" y1="1585.5" x2="1757.52" y2="1580.93"/><rect class="cls-28" x="1197.68" y="1711.84" width="591.99" height="160.52"/><path d="M1787.93,1713.58v157.05H1199.42V1713.58h588.51m3.47-3.48H1195.94v164H1791.4v-164Z"/><path class="cls-29" d="M1215,1683.9h556.82a17.93,17.93,0,0,1,17.93,17.93v23.82a0,0,0,0,1,0,0H1197.05a0,0,0,0,1,0,0v-23.82A17.93,17.93,0,0,1,1215,1683.9Z"/><path class="cls-30" d="M1246.26,1573.66l-5.45.66s-8.25-33,15.1-41.09c24.15-8.38,10.89,6,19.93,39.69Z"/><path class="cls-31" d="M1538.76,1286.56a50.12,50.12,0,0,0-50.13-50.12h0a50.12,50.12,0,0,0-50.12,50.12l12.08,8.46c0-22.35,15.7-44.09,38-44.09h0c22.35,0,38,21.74,38,44.09Z"/><path class="cls-6" d="M1305.82,1873.84c-29.45,0-47-26.41-47-70.64.06-1.2,5.63-127.23,4.56-149.74s-4.52-183-4.56-184.61c0-43.83,21.75-89.79,59.66-126.07,40.07-38.33,91.25-59.44,144.12-59.44h57c52.87,0,104,21.11,144.12,59.44,37.91,36.28,59.66,82.24,59.66,126.1-.07,1.38-6.7,145.69-5.64,188s5.59,145.39,5.64,146.43c0,44.16-17.59,70.57-47,70.57Z"/><path d="M1519.54,1285a198.8,198.8,0,0,1,78.68,16.35,215.82,215.82,0,0,1,64.33,42.65,206,206,0,0,1,43.33,59.18c10.34,21.65,15.82,44.36,15.83,65.68-.19,4-6.69,146.13-5.64,188.07,1,41.79,5.5,143.18,5.64,146.39,0,23.16-4.59,41-13.61,53a38.4,38.4,0,0,1-31.82,15.91H1305.82a38.4,38.4,0,0,1-31.82-15.91c-9-12-13.6-29.89-13.61-53,.27-6.15,5.62-127.39,4.56-149.88-1-22.29-4.49-181.39-4.56-184.54,0-21.33,5.48-44.06,15.83-65.72a206,206,0,0,1,43.33-59.18,215.82,215.82,0,0,1,64.33-42.65,198.8,198.8,0,0,1,78.68-16.35h57m0-3.22h-57c-113.43,0-205.39,97.32-205.39,187.15,0,0,3.49,162,4.56,184.66s-4.56,149.66-4.56,149.66c0,50.47,21.78,72.25,48.65,72.25h370.46c26.87,0,48.65-21.78,48.65-72.25,0,0-4.57-103.7-5.64-146.4s5.64-187.92,5.64-187.92c0-89.83-92-187.15-205.39-187.15Z"/><path class="cls-32" d="M1699.74,1497.37c0-107.54-87.17-194.72-194.71-194.72h-35c-107.54,0-194.72,87.18-194.72,194.72"/><path class="cls-33" d="M1666.48,1876H1310.16c-30.77,0-50.89-24.94-50.89-55.71l.81-45.13h461.18l.94,45.13A55.72,55.72,0,0,1,1666.48,1876Z"/><path class="cls-28" d="M1398.35,1831.86a19.35,19.35,0,0,1-19.32-19.32v-79h229.3v79a19.34,19.34,0,0,1-19.32,19.32Z"/><path d="M1606.58,1735.34v77.2A17.59,17.59,0,0,1,1589,1830.1H1398.35a17.58,17.58,0,0,1-17.56-17.56v-77.2h225.79m3.5-3.51h-232.8v80.71a21.08,21.08,0,0,0,21.07,21.07H1589a21.07,21.07,0,0,0,21.07-21.07v-80.71Z"/><rect class="cls-34" x="1561.27" y="1796.08" width="33.26" height="19.08" rx="3.5"/><path class="cls-35" d="M1534.05,1432l-23.82,23a21,21,0,0,1-29,0l-23.82-23a19.32,19.32,0,0,1,0-28l23.82-23a21,21,0,0,1,29,0l23.82,23A19.32,19.32,0,0,1,1534.05,1432Z"/><line class="cls-36" x1="1484.95" y1="1400.68" x2="1484.95" y2="1429.81"/><line class="cls-36" x1="1505.07" y1="1400.68" x2="1505.07" y2="1429.81"/><path class="cls-37" d="M1390.89,1755.29h0a3.58,3.58,0,0,1-3.55-3.61l1-16.24h4.84l1.3,16.24A3.58,3.58,0,0,1,1390.89,1755.29Z"/><path class="cls-38" d="M1276.16,1527.41h0a4.69,4.69,0,0,1-4.69-4.68l1.28-21.08h6.39l1.7,21.08A4.69,4.69,0,0,1,1276.16,1527.41Z"/><circle class="cls-39" cx="1276.16" cy="1495.99" r="7.2"/><path class="cls-28" d="M1379,1735.17v-21.34a22.26,22.26,0,0,1,22.23-22.23H1586.1a22.25,22.25,0,0,1,22.23,22.23v21.34Z"/><path d="M1586.1,1693.35a20.51,20.51,0,0,1,20.48,20.48v19.59H1380.79v-19.59a20.5,20.5,0,0,1,20.48-20.48H1586.1m0-3.5H1401.27a24,24,0,0,0-24,24v23.09h232.8v-23.09a24,24,0,0,0-24-24Z"/><rect class="cls-40" x="1396.12" y="1735.7" width="4.75" height="31.99" rx="2.25" transform="translate(310.89 -208.24) rotate(9.58)"/><rect class="cls-41" x="1825.9" y="1513.65" width="72.81" height="10.25" rx="3.29"/><polygon class="cls-6" points="1830.41 1655.01 1820.77 1525.48 1903.84 1525.48 1894.2 1655.01 1830.41 1655.01"/><path d="M1903.3,1526l-9.56,128.53h-62.87L1821.31,1526h82m1.07-1h-84.14l9.71,130.53h64.73l9.7-130.53Z"/><path class="cls-42" d="M1895.71,1615.05h-68.48a4.76,4.76,0,0,1-4.48-4.62l-4.53-53.42c-.25-3,1.83-5.6,4.49-5.6h78.44c2.69,0,4.78,2.66,4.47,5.7l-5.43,53.42A4.75,4.75,0,0,1,1895.71,1615.05Z"/><rect class="cls-43" x="1814.84" y="1520.67" width="94.93" height="11.87" rx="5.66"/><path class="cls-44" d="M1874.82,1581.78c2.34-4.9,2-11.42-1.4-13.27-7.64-4.12-7,12-13.06,19.16-1,1.17-7.73,7.5-7.73,7.5S1868.68,1594.6,1874.82,1581.78Z"/><path class="cls-44" d="M1847.11,1578.26c-2.26,4.94-1.82,11.46,1.63,13.25,7.71,4,6.79-12.08,12.73-19.39,1-1.19,7.59-7.64,7.59-7.64S1853,1565.33,1847.11,1578.26Z"/><path class="cls-45" d="M1880.32,1502.87s2.15-6.48-6.47-7.55c-6.85-.86-24.19,0-31.09.36a4.36,4.36,0,0,1-4.68-4.48c.11-1.77,1.4-3.59,5.56-4.51l31.22-1"/><path class="cls-45" d="M1875.41,1485.51c4.15-1,5.42-2.8,5.51-4.57a4.36,4.36,0,0,0-4.73-4.44l-23.38-.06"/><line class="cls-46" x1="1864.68" y1="1467.81" x2="1891.64" y2="1467.81"/><path class="cls-47" d="M1249.61,1761.25s-10-36.07-33.58-30.08C1216,1731.17,1222.1,1756.36,1249.61,1761.25Z"/><path class="cls-48" d="M1267.28,1732.09l-1.31-.59c-2.48-1.13-5.55.41-6.73,3.36l-17.6,44.31s9.89,7,5.81,2.63,15.13-37.91,20.23-41.73S1269.77,1733.22,1267.28,1732.09Z"/><path class="cls-49" d="M1302.62,1783.05a50.91,50.91,0,0,0-3.67-6.36c-15.65-23-31.81-20.12-43.3-12.73a15.43,15.43,0,0,1-16.19.32c-7.59-4.43-17-6.61-26.84-1a25.43,25.43,0,0,1,2.3,3.21c16,26.58-13.38,35.48-13.38,35.48.8,8.09-2.29,13-6,15.94a18,18,0,0,1-12.73,3.65c-1.67,14.49,0,30.69,9.94,44.69,2.09,2.93,2.24,6.5,12.44,12.88s22.47,9.27,38.15,4.08a15.55,15.55,0,0,1,9.86.06c15,5.08,32.42-1.45,38.72-5.41,3-1.92,9.94-10,12-12.89C1325.29,1834.94,1308.45,1794.89,1302.62,1783.05Z"/><path class="cls-6" d="M1184.14,1828.7c.36,0,.07,5.27.5,5.26,5.39-.16,18.91-8.79,22.43-11.68,3.93-3.24,7.17-8.63,6.33-17.49,0,0,.65-.2,1.71-.64.69-.29,1.55-.67,2.52-1.17,7.83-4,22.7-14.94,9.86-37.13l0,0a6.53,6.53,0,0,0-6.25-3.14l-6,.55c.83,1,.33,2,1,3.21,16,26.58-12.92,36.76-12.92,36.76.81,8.08-1.46,11.7-5.19,14.66s-9.46,5.32-14,4.93Z"/><path class="cls-50" d="M1297.93,1851.23c-1.93,2.73-8.35,10.21-11.18,12-5.87,3.7-22,9.77-36,5a14.52,14.52,0,0,0-9.19-.06c-14.59,4.84-26,2.14-35.51-3.79s-9.64-9.26-11.59-12a51.18,51.18,0,0,1-7.59-16,1.11,1.11,0,0,1-.11-.43,58.26,58.26,0,0,1-1.73-9.32c-1.22,13,.56,27.34,9.43,39.81,1.95,2.73,2.09,6,11.59,12s20.92,8.63,35.51,3.79a14.52,14.52,0,0,1,9.19.06c14,4.73,30.18-1.34,36-5,2.83-1.78,9.25-9.26,11.18-12,8.89-12.48,10.67-26.82,9.44-39.86A53.09,53.09,0,0,1,1297.93,1851.23Z"/><ellipse class="cls-50" cx="1286.02" cy="1791.99" rx="7.01" ry="23.73" transform="matrix(0.87, -0.5, 0.5, 0.87, -723.7, 883.09)"/><path class="cls-51" d="M1799.59,1816H1709.8a25,25,0,0,1-24.94-24.94h0a24.94,24.94,0,0,1,24.94-24.94h89.79Z"/><path class="cls-51" d="M1974.36,1774.4H1774.74v-8.28h199.62a4.14,4.14,0,0,1,4.14,4.14h0A4.15,4.15,0,0,1,1974.36,1774.4Z"/><path class="cls-51" d="M1974.36,1816H1774.74v-8.28h199.62a4.14,4.14,0,0,1,4.14,4.14h0A4.15,4.15,0,0,1,1974.36,1816Z"/><path class="cls-52" d="M1972.42,1807.72H1797.48a16.66,16.66,0,0,1-16.66-16.66h0a16.66,16.66,0,0,1,16.66-16.66h174.94A41.21,41.21,0,0,0,1972.42,1807.72Z"/><g class="cls-53"><path d="M1780.82,1816h-70.94a25,25,0,0,1-25-25h0a24.86,24.86,0,0,1,24.87-24.86h73C1764.66,1777.06,1766,1803.26,1780.82,1816Z"/></g><path class="cls-54" d="M1951.17,1792.6c0,.17-35.91.3-80.2.3s-80.2-.13-80.2-.3,35.9-.3,80.2-.3S1951.17,1792.44,1951.17,1792.6Z"/><path class="cls-54" d="M1967.67,1800c0,.16-35.91.3-80.19.3s-80.2-.14-80.2-.3,35.9-.3,80.2-.3S1967.67,1799.84,1967.67,1800Z"/><path class="cls-54" d="M1962.8,1782.1c0,.16-35.9.3-80.19.3s-80.2-.14-80.2-.3,35.9-.3,80.2-.3S1962.8,1781.94,1962.8,1782.1Z"/><path class="cls-54" d="M1772,1812.5c0,.17-16.81.3-37.54.3s-37.54-.13-37.54-.3,16.8-.3,37.54-.3S1772,1812.34,1772,1812.5Z"/><path class="cls-54" d="M1772,1770.26c0,.16-16.81.29-37.54.29s-37.54-.13-37.54-.29,16.8-.3,37.54-.3S1772,1770.09,1772,1770.26Z"/><path class="cls-2" d="M1794.21,1879.33H1682.85a32.12,32.12,0,0,1-32.12-32.12h0a32.12,32.12,0,0,1,32.12-32.12h111.36a4.28,4.28,0,0,1,4.28,4.27v55.69A4.28,4.28,0,0,1,1794.21,1879.33Z"/><path class="cls-2" d="M2023.56,1825.75H1766.48v-10.66h257.08a5.33,5.33,0,0,1,5.33,5.33h0A5.33,5.33,0,0,1,2023.56,1825.75Z"/><path class="cls-2" d="M2023.56,1879.33H1766.48v-10.67h257.08a5.33,5.33,0,0,1,5.33,5.33h0A5.34,5.34,0,0,1,2023.56,1879.33Z"/><path class="cls-52" d="M2021.06,1868.66H1795.77a21.45,21.45,0,0,1-21.46-21.45h0a21.46,21.46,0,0,1,21.46-21.46h225.29A53.07,53.07,0,0,0,2021.06,1868.66Z"/><g class="cls-55"><path d="M1774.31,1879.33h-91.8a31.78,31.78,0,0,1-31.78-31.78h0a32.46,32.46,0,0,1,32.47-32.46h93.56C1753.5,1829.18,1755.23,1862.92,1774.31,1879.33Z"/></g><path class="cls-54" d="M1993.69,1849.2c0,.16-46.24.3-103.27.3s-103.29-.14-103.29-.3,46.24-.3,103.29-.3S1993.69,1849,1993.69,1849.2Z"/><path class="cls-54" d="M2015,1858.74c0,.16-46.25.29-103.28.29s-103.28-.13-103.28-.29,46.23-.3,103.28-.3S2015,1858.57,2015,1858.74Z"/><path class="cls-54" d="M2008.68,1840.35c0,.16-46.25.3-103.28.3s-103.28-.14-103.28-.3,46.23-.3,103.28-.3S2008.68,1840.18,2008.68,1840.35Z"/><path class="cls-54" d="M1763,1874.82c0,.17-21.65.3-48.34.3s-48.35-.13-48.35-.3,21.64-.29,48.35-.29S1763,1874.66,1763,1874.82Z"/><path class="cls-54" d="M1763,1820.42c0,.16-21.65.3-48.34.3s-48.35-.14-48.35-.3,21.64-.3,48.35-.3S1763,1820.25,1763,1820.42Z"/><polygon class="cls-56" points="1854.98 1782.32 1854.98 1802.29 1861.9 1797.85 1869.63 1802.29 1869.63 1782.32 1854.98 1782.32"/><polygon class="cls-52" points="1711.28 1763.8 1710.74 1710.04 1736.95 1710.04 1737.86 1763.8 1711.28 1763.8"/><path class="cls-57" d="M1735.41,1719.61c0,.25-5.46.46-12.18.46s-12.19-.21-12.19-.46,5.46-.46,12.19-.46S1735.41,1719.35,1735.41,1719.61Z"/><path class="cls-57" d="M1735.41,1727.9c0,.26-5.46.46-12.18.46s-12.19-.2-12.19-.46,5.46-.46,12.19-.46S1735.41,1727.65,1735.41,1727.9Z"/><path class="cls-57" d="M1735.41,1736.2c0,.25-5.46.46-12.18.46s-12.19-.21-12.19-.46,5.46-.46,12.19-.46S1735.41,1736,1735.41,1736.2Z"/><path class="cls-57" d="M1735.41,1744.5c0,.25-5.46.46-12.18.46s-12.19-.21-12.19-.46,5.46-.46,12.19-.46S1735.41,1744.24,1735.41,1744.5Z"/><path class="cls-57" d="M1735.41,1752.79c0,.26-5.46.47-12.18.47s-12.19-.21-12.19-.47,5.46-.46,12.19-.46S1735.41,1752.54,1735.41,1752.79Z"/><path class="cls-21" d="M1708.47,1708.26H1999c3.58,17.8,3.08,37.39,0,58.11H1709.71v-3.95h17.68c4.61,0,8.34-4.18,8.34-9.32v-32.16c0-5.14-3.73-9.32-8.34-9.32h-18.92Z"/><path class="cls-54" d="M1989,1767.48c-.22,0-.41-13.35-.41-29.81s.19-29.81.41-29.81.42,13.35.42,29.81S1989.18,1767.48,1989,1767.48Z"/><path class="cls-54" d="M1751.22,1767.48c-.22,0-.41-13.35-.41-29.81s.19-29.81.41-29.81.42,13.35.42,29.81S1751.45,1767.48,1751.22,1767.48Z"/><path class="cls-54" d="M1994.05,1767.48c-.23,0-.41-13.35-.41-29.81s.18-29.81.41-29.81.41,13.35.41,29.81S1994.28,1767.48,1994.05,1767.48Z"/><path class="cls-54" d="M1746.46,1767.48c-.23,0-.41-13.35-.41-29.81s.18-29.81.41-29.81.41,13.35.41,29.81S1746.69,1767.48,1746.46,1767.48Z"/><rect class="cls-6" x="1794.62" y="1728.36" width="164.83" height="15.67" rx="3.95"/><path class="cls-58" d="M1966.74,1659.35v44.92h-77.85v-44.92Z"/><path class="cls-51" d="M1715.3,1682.23c0,.39,0,.79,0,1.19.63,13.59,11,24.1,23.16,24.1h231.86v-3.25h-55c-11.11,0-20.12-10-20.12-22.46h0c0-12.4,9-22.46,20.12-22.46h55v-4.77l-231.93.88C1725.35,1655.51,1714.82,1667.62,1715.3,1682.23Z"/><path class="cls-57" d="M1966.74,1682.41c0,.26-16,.46-35.75.46s-35.75-.2-35.75-.46,16-.46,35.75-.46S1966.74,1682.16,1966.74,1682.41Z"/><path class="cls-57" d="M1965.62,1692.53c0,.26-15.15.46-33.83.46s-33.83-.2-33.83-.46,15.14-.46,33.83-.46S1965.62,1692.28,1965.62,1692.53Z"/><path class="cls-57" d="M1966.74,1701.79c0,.25-13.62.46-30.41.46s-30.42-.21-30.42-.46,13.62-.46,30.42-.46S1966.74,1701.53,1966.74,1701.79Z"/><path class="cls-57" d="M1966.74,1673.32c0,.25-15.68.46-35,.46s-35-.21-35-.46,15.68-.46,35-.46S1966.74,1673.06,1966.74,1673.32Z"/><path class="cls-57" d="M1965.62,1664.22c0,.26-14,.46-31.17.46s-31.18-.2-31.18-.46,14-.46,31.18-.46S1965.62,1664,1965.62,1664.22Z"/><rect class="cls-6" x="1738.85" y="1677.87" width="131.97" height="8.16" rx="2.06"/><path class="cls-6" d="M1788.24,1708.26c1.09.51,147.57,17.52,147.57,17.52l29.19-18.26Z"/><path class="cls-54" d="M1788.24,1708.26l51.34-.41L1965,1707h1.87l-1.58,1-2.66,1.66-26.54,16.59-.15.1-.18,0-105.26-12.5-31-3.88-8.34-1.14a20.94,20.94,0,0,1-2.19-.38l-.69-.13,147.63,17-.34.08,26.53-16.61,2.66-1.66.28,1-124.8.2Z"/><polygon class="cls-6" points="1822.07 1815.09 1887.47 1848.9 1945.89 1814.06 1822.07 1815.09"/><path class="cls-54" d="M1822.07,1815.09l35.65-.5c22.25-.32,53.4-.78,88.16-1.06h1.94l-1.66,1-7.65,4.57-50.79,30.22-.23.14-.23-.12-47.35-24.84c-10.74-5.66-16.13-8.5-17.84-9.39l65.62,33.39h-.46l50.74-30.32,7.65-4.56.27,1c-34.46.29-65.22.35-87.57.4Z"/><polygon class="cls-59" points="556.78 964.18 264.82 964.18 274.38 816.13 544.04 816.13 556.78 964.18"/><path class="cls-59" d="M264.82,962.41l-8.69,341.92a54.67,54.67,0,0,0,54.64,56.5h0a54.68,54.68,0,0,0,54.37-49l34.37-340.14a67.55,67.55,0,0,0-67.18-74.6h0A67.56,67.56,0,0,0,264.82,962.41Z"/><polygon class="cls-6" points="256.28 1802.65 260.82 1643.09 324.14 1643.33 319.71 1802.69 256.28 1802.65"/><path class="cls-60" d="M331.56,1776.71l12,53.23H132v-1.55a31.79,31.79,0,0,1,18.12-28.7l98.17-39.17c3.54-1.69,8.07-1.61,10.76,1.23,12.69,13.39,26.62,35.2,65.35,11.53C327.25,1771.57,330.93,1773.47,331.56,1776.71Z"/><rect class="cls-6" x="132.04" y="1829.94" width="211.53" height="13.97" transform="translate(475.62 3673.85) rotate(180)"/><line class="cls-61" x1="259.09" y1="1836.66" x2="240.59" y2="1797.75"/><line class="cls-61" x1="231.01" y1="1835.73" x2="217.22" y2="1806.71"/><path class="cls-59" d="M365,1313.76l-25,414.55H238.33l18-422.23a54.56,54.56,0,0,1,57.16-52.92h0A54.54,54.54,0,0,1,365,1313.76Z"/><path class="cls-59" d="M556.29,962.41,565,1304.33a54.67,54.67,0,0,1-54.64,56.5h0a54.68,54.68,0,0,1-54.37-49L421.6,971.72a67.55,67.55,0,0,1,67.18-74.6h0A67.55,67.55,0,0,1,556.29,962.41Z"/><polygon class="cls-6" points="562.87 1802.65 558.33 1643.09 495.01 1643.33 499.44 1802.69 562.87 1802.65"/><path class="cls-60" d="M487.59,1776.71l-12,53.23H687.11v-1.55a31.8,31.8,0,0,0-18.13-28.7l-98.16-39.17c-3.54-1.69-8.07-1.61-10.76,1.23-12.69,13.39-26.62,35.2-65.35,11.53C491.9,1771.57,488.22,1773.47,487.59,1776.71Z"/><rect class="cls-6" x="475.58" y="1829.94" width="211.53" height="13.97"/><line class="cls-61" x1="560.06" y1="1836.66" x2="578.56" y2="1797.75"/><line class="cls-61" x1="588.14" y1="1835.73" x2="601.93" y2="1806.71"/><path class="cls-59" d="M456.08,1313.76l25,414.55h95.53L564.8,1306.08a54.56,54.56,0,0,0-57.16-52.92h0A54.54,54.54,0,0,0,456.08,1313.76Z"/><polygon class="cls-1" points="459.65 382.14 409.04 382.87 359.78 382.14 254.24 427.25 274.38 816.13 409.04 816.13 545.05 816.13 565.19 427.25 459.65 382.14"/><g class="cls-62"><line class="cls-63" x1="240.61" y1="775.33" x2="594.69" y2="775.33"/><line class="cls-63" x1="240.61" y1="724.17" x2="594.69" y2="724.17"/><line class="cls-63" x1="240.61" y1="673.01" x2="594.69" y2="673.01"/><line class="cls-63" x1="240.61" y1="621.85" x2="594.69" y2="621.85"/><line class="cls-63" x1="240.61" y1="570.7" x2="594.69" y2="570.7"/><line class="cls-63" x1="240.61" y1="519.54" x2="594.69" y2="519.54"/><line class="cls-63" x1="240.61" y1="468.38" x2="594.69" y2="468.38"/><line class="cls-63" x1="240.61" y1="417.22" x2="594.69" y2="417.22"/></g><path class="cls-3" d="M495.67,397.42l-35.75-15.28-50.88.73h0l-49.26-.73L324,397.42s2.86,44.22,85,44.64v0h1.33v0C492.45,441.64,495.67,397.42,495.67,397.42Z"/><path d="M495.61,289.26c-.81-1.45,1.12-4,2.83-8a32.56,32.56,0,0,0,2.77-15.71,44.32,44.32,0,0,0-.56-4.68c-.14-.76-.28-1.49-.45-2.26s-.37-1.61-.55-2.4c-.77-3.31-1.4-7.15-.61-10.6a10.37,10.37,0,0,1,4.31-6.71c1.73-1,3-.73,3.39-.08s.21,1.69.17,2.9a15.57,15.57,0,0,0,.37,4.43c.11.43.23.88.39,1.32s.35,1,.57,1.56c.44,1.1,1,2.37,1.66,3.9.32.76.66,1.59,1,2.5s.65,1.92.92,2.93a34,34,0,0,1,1.05,6.47,29.39,29.39,0,0,1-1.94,12.74,23.43,23.43,0,0,1-6,8.76,14.5,14.5,0,0,1-6.15,3.49C497.11,290.23,496,289.94,495.61,289.26Z"/><path d="M304.1,249.6c-2.37,11.71,2.86,24.19,11.73,32.2,2.78,2.51,6,4.81,7.44,8.28,1.71,4.21.28,9,1,13.53,1.61,10.24,12.92,15.28,20.73,22.1,5,4.38,8.83,10,13.72,14.45,9,8.31,21.21,12.53,33.39,14s24.5.37,36.72-.72c3.05-.28,6.22-.58,8.89-2.09s4.5-3.94,7.12-5.33c2.86-1.52,6.23-1.6,9.45-1.88,7.43-.63,15-2.64,20.75-7.41,7.42-6.16,11-16.19,18.72-21.91,3-2.2,6.7-3.9,8.21-7.29,3-6.65-4.61-13.32-5.32-20.58a21.78,21.78,0,0,1,1.22-8.05q3.34-11.62,7.47-23c2.51-6.95,5.27-13.95,5.74-21.33s-1.77-15.35-7.62-19.88c-4.44-3.44-10.27-4.43-15.85-5.16-14.3-1.88-28.78-2.84-43.16-1.77-10.44.79-20.77,2.64-31.08,4.49L343.6,224.74C327.28,227.67,308.09,229.83,304.1,249.6Z"/><path class="cls-3" d="M410.53,436.26h0A55.25,55.25,0,0,1,355.28,381V263.43H465.77V381A55.25,55.25,0,0,1,410.53,436.26Z"/><path class="cls-64" d="M355.28,332.65s30.4,56.5,65.14,53.73c53.7-4.27,44.8-70.83,44.8-70.83S444.39,360,411.45,360C374.7,360,355.28,332.65,355.28,332.65Z"/><path class="cls-60" d="M328.1,254.52l-5.51-55.87C315.5,162.92,343.37,144,367.74,144h84.41c25.85,0,56.65,18.75,43.54,59l-7.54,60.89Z"/><path class="cls-3" d="M471.61,285.17C488.34,297.52,517.28,241.34,501,228s-27.08,11.09-27.08,11.09l-.41,20.66-2.39,19.35-.92,6Z"/><g class="cls-65"><path class="cls-66" d="M496.46,245s-12.13-4.05-20.73,13.81"/><path class="cls-66" d="M481.62,250s13.19,7.06,4.47,17.67"/></g><path class="cls-3" d="M343.26,289.62c-16.73,12.35-45.68-43.83-29.37-57.14s26.54,11.34,26.54,11.34l.95,20.41,2.39,19.35.92,6Z"/><g class="cls-67"><path class="cls-66" d="M318.41,249.41s12.12-4,20.73,13.81"/><path class="cls-66" d="M333.25,254.48s-13.19,7.06-4.48,17.67"/></g><path class="cls-3" d="M487.93,212.65a411.37,411.37,0,0,1-9.24,86.14,81.48,81.48,0,0,1-35.23,50.83l-3.28,2.14a58.68,58.68,0,0,1-62.92.74h0a81.37,81.37,0,0,1-37.32-54c-7.64-40.72-8.47-85.83-8.47-85.83s-7.27-87.85,77.11-86.14S487.93,212.65,487.93,212.65Z"/><path class="cls-60" d="M392.8,221.58l.28-14.29-26.49.48a14.6,14.6,0,0,0-9.13,3.42l-10.55,12.14,17.55-2.62Z"/><path class="cls-60" d="M423.82,221.58l-.27-14.29,26.49.48a14.64,14.64,0,0,1,9.13,3.42l10.54,12.14-17.55-2.62Z"/><path class="cls-68" d="M479.81,246.57a31.7,31.7,0,1,1-31.7-31.7A31.71,31.71,0,0,1,479.81,246.57Z"/><path class="cls-68" d="M401.93,246.57a31.71,31.71,0,1,1-31.7-31.7A31.71,31.71,0,0,1,401.93,246.57Z"/><path class="cls-69" d="M401.93,246.57a31.71,31.71,0,1,1-31.7-31.7A31.71,31.71,0,0,1,401.93,246.57Z"/><path class="cls-69" d="M479.81,246.57a31.7,31.7,0,1,1-31.7-31.7A31.71,31.71,0,0,1,479.81,246.57Z"/><path class="cls-69" d="M401.93,246.57s7.51-7,14.48,0"/><line class="cls-70" x1="338.52" y1="246.57" x2="333.25" y2="246.57"/><line class="cls-70" x1="486.05" y1="246.57" x2="480.78" y2="246.57"/><path d="M421.12,304.05c.25.14-.22,1.43-1.89,2.65a14.74,14.74,0,0,1-7.3,2.44,17.38,17.38,0,0,1-7.56-.94c-1.85-.72-2.77-1.58-2.63-1.84s1.28,0,3.05.24a29.69,29.69,0,0,0,6.94.21,21.88,21.88,0,0,0,6.67-1.54C420,304.59,420.83,303.84,421.12,304.05Z"/><path d="M400.84,273.32a1.23,1.23,0,0,1-.42-.07,1.34,1.34,0,0,1-.85-1.69c.39-1.18,4-11.57,10.52-11.6h0c6.55,0,10.71,9.49,10.89,9.89a1.34,1.34,0,1,1-2.46,1.06c-1-2.3-4.45-8.27-8.43-8.27h0c-3.92,0-7.1,7.05-8,9.76A1.35,1.35,0,0,1,400.84,273.32Z"/><path class="cls-15" d="M458.46,247.74c-.78-5.78-4.58-14.9-12.92-14.72-8.79.2-10.2,9.29-10.38,16.72-.2,7.84,2.16,17.27,11.46,16.89C456.7,266.21,459.47,255.3,458.46,247.74Z"/><circle class="cls-6" cx="447.47" cy="243.12" r="3.45"/><circle class="cls-6" cx="453.13" cy="248.77" r="1.3"/><path class="cls-71" d="M458.44,250.86c0-.22-.09-.47-.13-.7-.18,7-3.43,14.91-12,15.27-7.3.3-10.3-5.46-11.16-11.74,0,7.66,2.47,16.43,11.44,16.06C456.69,269.33,459.46,258.42,458.44,250.86Z"/><path class="cls-71" d="M357.06,250.86c0-.22.09-.47.13-.7.18,7,3.44,14.91,12,15.27,7.3.3,10.29-5.46,11.16-11.74,0,7.66-2.48,16.43-11.45,16.06C358.81,269.33,356,258.42,357.06,250.86Z"/><path class="cls-15" d="M356.81,248.3c.31-5.8,3.38-15.09,11.71-15.31,8.79-.22,10.93,8.78,11.71,16.19.83,7.82-.77,17.34-10.08,17.41C360.05,266.65,356.41,255.9,356.81,248.3Z"/><circle class="cls-6" cx="368.2" cy="241.38" r="3.45"/><circle class="cls-6" cx="362.55" cy="247.02" r="1.3"/><path d="M295.49,224c-8.08-7.17-12.19-20.08-6.14-29,2.78-4.13,7.38-7,9.18-11.68,2.21-5.69-.47-12-2.39-17.75-2.68-8.13-3.88-17.07-1.27-25.21s9.69-15.23,18.22-15.95c2.87-.24,5.77.22,8.63-.08,15.57-1.6,21.94-23.1,37-27.23,5.94-1.61,12.24-.21,18.17,1.43,2.63.73,5.32,1.52,8,1.24s5.26-1.61,7.75-2.79a79.56,79.56,0,0,1,31.08-7.61c5.86-.22,11.86.24,17.28,2.47,7.71,3.17,13.86,9.72,21.93,11.79,5.5,1.41,11.3.56,17,.91s11.87,2.41,14.44,7.46c3.07,6-.13,14.12,3.67,19.72a18.14,18.14,0,0,0,5.44,4.66q9,5.83,18.33,11.32c3.77,2.24,7.92,4.87,8.93,9.14,1.88,7.9-8.13,14.12-8.43,22.23-.2,5.47,4,10.06,5.26,15.4,1.29,5.73-1.15,11.79-5,16.26s-8.88,7.66-13.83,10.83c-2,1.29-4.27,3-4.13,5.44a11.09,11.09,0,0,0,.81,2.71,9.13,9.13,0,0,1-14.82,9.65c-2.79-2.55-3.71-6.5-4.5-10.2l-7.49-35.28c-.76-3.58-1.56-7.24-3.54-10.32s-5.42-5.49-9.06-5.18a4,4,0,0,0-3,1.44c-1.76,2.46,1.39,5.68,1.1,8.69s-3.86,4.51-6.65,3.71-4.79-3.2-6.34-5.65c-4.46-7.06-7.4-16.21-15.18-19.25-4-1.57-8.49-1.09-12.77-.58-6.5.77-13.25,1.63-18.81,5.09-4.92,3.06-10.22,8.29-15.48,5.85-3.94-1.83-5.11-7.13-8.82-9.39-5.28-3.23-12,1.56-14.95,7s-4.17,12-8.73,16.22c-1.81,1.67-4.12,2.91-5.33,5.05-1.82,3.21-.64,7.38-2.1,10.76s-5.37,5.26-7.55,8.35c-5,7.11-.85,29.22-16.4,25.4-4.42-1.09-8.26-5.52-12.31-7.56C306.75,230.5,300.67,228.63,295.49,224Z"/><path d="M317.24,185.08c.72-.42,2.07.57,4.29,1.92a31,31,0,0,0,9.71,4,46.18,46.18,0,0,0,15.71.26,38.5,38.5,0,0,0,8.77-1.95,16.23,16.23,0,0,0,3.57-1.85,11,11,0,0,0,2.59-2.54,8.38,8.38,0,0,0,1.37-2.91,5.32,5.32,0,0,0-.07-2.68,17.67,17.67,0,0,0-1.56-3.72c-.73-1.41-1.63-3-2.46-4.75a20.67,20.67,0,0,1-1.9-6.21,14,14,0,0,1,.88-6.92,14.62,14.62,0,0,1,3.47-5.07,19.84,19.84,0,0,1,4-2.95,30.23,30.23,0,0,1,7-2.77c1-.28,2-.48,2.88-.64a22.51,22.51,0,0,1,2.55-.35,8.42,8.42,0,0,1,3.79.42c.85.35,1.22.81,1.18,1.2s-.46.75-1.09,1.15l-2.57,1.58-4.18,2.64a39.43,39.43,0,0,0-4.94,3.58c-1.54,1.38-2.77,3-3,4.38a4.48,4.48,0,0,0,.11,2.14,12.83,12.83,0,0,0,1.34,2.93c.68,1.18,1.59,2.53,2.58,4.14a27.05,27.05,0,0,1,2.83,6,13.61,13.61,0,0,1,.49,1.93,15.12,15.12,0,0,1,.28,2.08,16.6,16.6,0,0,1-.3,4.23,18.94,18.94,0,0,1-3.26,7.39,21.84,21.84,0,0,1-5.55,5.35,26.38,26.38,0,0,1-6.31,3A42,42,0,0,1,347.78,202c-7.13.31-14-.75-19.27-3.18a23,23,0,0,1-10.29-8.65C316.6,187.33,316.58,185.45,317.24,185.08Z"/><path d="M511.44,204.33c.29.28.21.88-.31,1.85a9.52,9.52,0,0,1-1.27,1.53,11.56,11.56,0,0,1-2.23,1.59,16.93,16.93,0,0,1-7.18,1.88,29.77,29.77,0,0,1-9.4-1.21,39.26,39.26,0,0,1-5.1-1.84,34,34,0,0,1-5.33-2.83,20.6,20.6,0,0,1-5.37-5,16.3,16.3,0,0,1-3.1-8.12,13.44,13.44,0,0,1,.49-5.06,16.08,16.08,0,0,1,2.08-4.36c.77-1.16,1.51-2.09,2.08-2.88a10.63,10.63,0,0,0,1.13-1.81,1.5,1.5,0,0,0,.15-.76,2.84,2.84,0,0,0-.29-1,4.57,4.57,0,0,0-.85-1.22,5.17,5.17,0,0,0-.6-.51,7,7,0,0,0-.81-.52,14.09,14.09,0,0,0-4.57-1.39,49,49,0,0,0-5.86-.43c-4.1-.07-8.44.13-12.87-.18a33.83,33.83,0,0,1-13-3.28,17,17,0,0,1-5.6-4.52,12.07,12.07,0,0,1-1.9-3.42,10.14,10.14,0,0,1-.57-4,10.28,10.28,0,0,1,1-3.74,12.49,12.49,0,0,1,1.73-2.63,19.66,19.66,0,0,1,3.6-3.26,24.87,24.87,0,0,1,6.38-3.44c3.74-1.32,6-1.1,6.25-.36s-1.39,2.08-3.93,4.36a40.94,40.94,0,0,0-4.22,4.33,16.73,16.73,0,0,0-1.95,2.77,3.05,3.05,0,0,0-.48,2.12,1.91,1.91,0,0,0,.31.6,4.81,4.81,0,0,0,.69.76,9.17,9.17,0,0,0,2.8,1.6,22.27,22.27,0,0,0,4.27,1,38.4,38.4,0,0,0,5.08.31c3.65,0,7.79-.39,12.47-.47a53,53,0,0,1,7.49.37,24.69,24.69,0,0,1,8.52,2.65,17.5,17.5,0,0,1,2.18,1.4,15.11,15.11,0,0,1,2,1.81,15.65,15.65,0,0,1,3,4.54,14,14,0,0,1,1.23,5.65,13,13,0,0,1-1.37,5.78,20.84,20.84,0,0,1-2.48,3.77c-.77.95-1.41,1.7-1.86,2.31a6.52,6.52,0,0,0-.81,1.31,2.67,2.67,0,0,0-.22,1.11,6.16,6.16,0,0,0,.88,3.06,11.47,11.47,0,0,0,2.59,3,30.28,30.28,0,0,0,3.72,2.62,42.44,42.44,0,0,0,3.83,2.11,31.24,31.24,0,0,0,6.93,2.43,18.15,18.15,0,0,0,5.32.34C509.09,204.75,510.82,203.7,511.44,204.33Z"/><path d="M525.86,226.62c.35.16.56.68.42,1.61a6.35,6.35,0,0,1-2.07,3.41,11,11,0,0,1-5.82,2.64,13.06,13.06,0,0,1-6.36-.57,14,14,0,0,1-2.27-1,19.38,19.38,0,0,1-7.12-7.28,28.32,28.32,0,0,1-2.22-4.84,33.76,33.76,0,0,1-1.44-5.36,20.45,20.45,0,0,1-.3-3.27,16.34,16.34,0,0,1,.08-1.82c.07-.61.19-1.22.3-1.84a19.55,19.55,0,0,1,2.85-6.6c2.53-3.79,5.49-6.35,7.75-8.81a22.12,22.12,0,0,0,3.18-4.06,6,6,0,0,0,.58-1.34l0-.19s0,0,0,0l0,0v-.05s0,0,0,0a.3.3,0,0,0-.06-.11,3.85,3.85,0,0,0-.66-.72,17.43,17.43,0,0,0-2.57-1.84c-2-1.2-4.35-2.32-6.73-3.71a24.64,24.64,0,0,1-6.54-5.34A14.27,14.27,0,0,1,493.6,168a10.11,10.11,0,0,1,1.56-6.7,8.21,8.21,0,0,1,3.72-3.22,4.51,4.51,0,0,1,3-.25c.67.25,1,.58,1,.92s-.22.68-.59,1a8,8,0,0,0-1.18,1.49,6.65,6.65,0,0,0-.82,2.38,4.73,4.73,0,0,0,.39,2.84,8.35,8.35,0,0,0,2.47,2.87A19.91,19.91,0,0,0,508,172c2,.84,4.48,1.65,7.32,3a26.32,26.32,0,0,1,4.44,2.65,15.09,15.09,0,0,1,2.42,2.26c.2.24.4.48.6.75s.4.59.59.9a10.85,10.85,0,0,1,.92,1.95,11.19,11.19,0,0,1,.63,3,13.7,13.7,0,0,1,0,1.57,12.46,12.46,0,0,1-.17,1.4,16.18,16.18,0,0,1-1.65,4.73,30.3,30.3,0,0,1-4.86,6.56c-2.82,3-5.38,5.24-6.83,7.28a9.65,9.65,0,0,0-1.45,2.74,5.87,5.87,0,0,0-.27,1.3,10.92,10.92,0,0,0,0,1.62,28.49,28.49,0,0,0,.61,3.83,23.13,23.13,0,0,0,1,3.43,12.92,12.92,0,0,0,3.08,4.79,7.26,7.26,0,0,0,.85.71,9.48,9.48,0,0,0,.93.55,8.85,8.85,0,0,0,2.06.67,9.09,9.09,0,0,0,3.65,0C523.9,227.35,525.09,226.27,525.86,226.62Z"/><path d="M490.53,130.05c.17.8-.91,1.76-2.57,3.16-.83.7-1.8,1.54-2.82,2.54a24.15,24.15,0,0,0-3,3.56c-.87,1.29-1.36,2.79-1.16,3.49a2.57,2.57,0,0,0,.51,1A8.44,8.44,0,0,0,483,145.3a21,21,0,0,0,2.64,1.8,33.25,33.25,0,0,0,10.45,4c4.94,1,10.78.54,16.78,1.12a34.56,34.56,0,0,1,8.69,1.91,21.24,21.24,0,0,1,7.15,4.29c3.88,3.67,5.06,8.06,4.84,10.91s-1.54,4.12-2.26,3.94-1.23-1.51-2.22-3.15a14.68,14.68,0,0,0-2-2.66,13.47,13.47,0,0,0-3.34-2.49c-2.65-1.38-6.5-2.09-11.37-2-2.43,0-5.17.21-8.25.29a47.44,47.44,0,0,1-10.22-.7A37.41,37.41,0,0,1,483.83,159a36.36,36.36,0,0,1-4.32-2.65,27.59,27.59,0,0,1-3.93-3.33,16.46,16.46,0,0,1-3.28-4.76,11.84,11.84,0,0,1-.94-6.27,12.32,12.32,0,0,1,1.92-5.08,16.3,16.3,0,0,1,2.81-3.23A19.23,19.23,0,0,1,486.28,129C488.9,128.72,490.37,129.28,490.53,130.05Z"/><path d="M529.52,128.81c.36.15.61.63.55,1.45a6.13,6.13,0,0,1-1.39,3.18,12.18,12.18,0,0,1-4.25,3.32,19,19,0,0,1-6.72,1.79A23.78,23.78,0,0,1,496.82,129a37.93,37.93,0,0,1-2.78-4.39,64.06,64.06,0,0,0-4.26-7.36,13.61,13.61,0,0,0-1-1.24,11.88,11.88,0,0,0-1.07-.93,11.4,11.4,0,0,0-2.57-1.41,13.24,13.24,0,0,0-5.93-.73,12.65,12.65,0,0,0-5.24,1.69,16,16,0,0,0-4,3.46,25.91,25.91,0,0,0-4.13,7.52c-.78,2.07-1.28,3.46-2.11,3.58s-1.83-1.1-2.43-3.79a18.66,18.66,0,0,1,1.59-11.55,21,21,0,0,1,5.16-6.9,20.8,20.8,0,0,1,9.24-4.61,22.58,22.58,0,0,1,11.46.49,21.32,21.32,0,0,1,5.7,2.82,20.83,20.83,0,0,1,2.57,2.14,24.73,24.73,0,0,1,2.1,2.42,53.74,53.74,0,0,1,5.06,9.08c.63,1.27,1.21,2.39,1.81,3.34a14.78,14.78,0,0,0,1.89,2.47,18.14,18.14,0,0,0,10,5.24,16.81,16.81,0,0,0,8-.4C527.65,129.34,528.75,128.48,529.52,128.81Z"/><path d="M421.7,93c.64.52.42,1.91,0,4a37.59,37.59,0,0,0-1,8.25,23.42,23.42,0,0,0,.65,5.26,17.6,17.6,0,0,0,.86,2.6,10.79,10.79,0,0,0,1.28,2.27,6.18,6.18,0,0,0,1.52,1.54,3.9,3.9,0,0,0,1.59.64,10.64,10.64,0,0,0,2.67.11c1.14-.07,2.47-.24,4-.43a69.54,69.54,0,0,1,9.48-.44q1.15,0,2.28.09c.75.05,1.49.09,2.32.18a19.2,19.2,0,0,1,5.49,1.29,12.79,12.79,0,0,1,2.89,1.7,11.44,11.44,0,0,1,2.28,2.41,15,15,0,0,1,2.18,4.72,33,33,0,0,1,.75,3.68c.16,1,.31,2,.46,3a36,36,0,0,0,1.94,8c.68,1.8,1.41,2.94,1,3.68-.2.36-.65.54-1.42.5a6.57,6.57,0,0,1-2.94-1.11,13.42,13.42,0,0,1-3.49-3.38,27.72,27.72,0,0,1-3-5.26c-.44-1-.85-2-1.26-3s-.78-2-1.18-2.8a5.3,5.3,0,0,0-1.15-1.67,2,2,0,0,0-.93-.37,12.79,12.79,0,0,0-2.4-.22h-1.84l-2,0c-2.65.08-5.37.27-8.17.6-1.44.16-3.08.37-4.89.43a20.09,20.09,0,0,1-6-.62,14.8,14.8,0,0,1-5.85-3.13,16.36,16.36,0,0,1-3.65-4.59,21.48,21.48,0,0,1-2.52-9.18,24.87,24.87,0,0,1,.78-7.69,20.1,20.1,0,0,1,5.23-9.38C419.64,92.94,421.1,92.5,421.7,93Z"/><path d="M388.07,137.67c-.61-.59-.14-2-.09-4.26a39.51,39.51,0,0,0-.13-4.26c-.06-.9-.14-1.86-.21-2.87s-.13-2.25-.11-3.6a29.52,29.52,0,0,1,1.52-8.76,23.23,23.23,0,0,1,2.31-4.86,18.54,18.54,0,0,1,4.17-4.63,10.63,10.63,0,0,1,1.38-1,11.08,11.08,0,0,1,1.51-.85,17,17,0,0,1,3.13-1.23,40.39,40.39,0,0,0,4.18-1.24,11.26,11.26,0,0,0,2.75-1.82c1-.87,2.15-2,3.44-3.28a42.49,42.49,0,0,1,4.48-4,25.38,25.38,0,0,1,5.81-3.28,25.67,25.67,0,0,1,12.09-1.6,24,24,0,0,1,10.38,3.56A24.5,24.5,0,0,1,451.33,96a31.21,31.21,0,0,1,3.42,6.12,31.86,31.86,0,0,1,1.61,4.82c.62,2.69.56,4.33-.15,4.69s-2.06-.61-3.87-2.57a103.19,103.19,0,0,0-7.19-7.59A19.91,19.91,0,0,0,440,98.16a16.47,16.47,0,0,0-6.43-1.3,16.69,16.69,0,0,0-7,1.44,15.08,15.08,0,0,0-3.08,1.89,40.27,40.27,0,0,0-3.35,3.12,55.84,55.84,0,0,1-4.3,4,21.35,21.35,0,0,1-6,3.52,37.69,37.69,0,0,1-5.42,1.34,7.85,7.85,0,0,0-1.4.4,4.23,4.23,0,0,0-.58.25,3.15,3.15,0,0,0-.57.31,9.15,9.15,0,0,0-2.13,1.86,16.26,16.26,0,0,0-1.76,2.65,28.2,28.2,0,0,0-2.26,6.08c-.51,2-.85,4.21-1.39,6.16a18.13,18.13,0,0,1-2.08,5.09,7.34,7.34,0,0,1-2.58,2.6C388.91,137.94,388.36,137.94,388.07,137.67Z"/><path d="M309.4,120.21c.28-.22.75-.21,1.39,0a21.57,21.57,0,0,1,2.41,1.14,60.8,60.8,0,0,0,8.09,3.87c.85.36,1.79.62,2.73,1s2,.57,3,.75a33.25,33.25,0,0,0,6.72.8,31,31,0,0,0,7.29-.72,10,10,0,0,0,3-1l.21-.13c.07,0,.15-.1.1-.07s0,0,0,0a.11.11,0,0,0,0-.06l0,0v0l0-.11-.06-.29c0-.23-.1-.46-.2-.78a42.18,42.18,0,0,0-1.47-4.12c-.68-1.72-1.44-3.56-2.12-5.61a25.19,25.19,0,0,1-1.38-7,16.28,16.28,0,0,1,1.65-7.9,15.43,15.43,0,0,1,5.12-5.81,19.26,19.26,0,0,1,6-2.72,22.44,22.44,0,0,1,5.73-.79,27.64,27.64,0,0,1,9.57,1.65A24.17,24.17,0,0,1,378,100c1.87,2.56,2.21,4.36,1.61,4.84s-2.16-.22-4.55-1.38A35,35,0,0,0,365,100.27a23.79,23.79,0,0,0-6.79,0,12.54,12.54,0,0,0-6,2.51,4.83,4.83,0,0,0-1.42,1.94,5.55,5.55,0,0,0-.3,2.5,16.18,16.18,0,0,0,1,3.84c.53,1.5,1.24,3.18,2,5a48.22,48.22,0,0,1,1.83,5.38c.13.46.26,1,.37,1.62.06.3.11.6.15.93l.05.5c0,.22,0,.42.05.62a11.35,11.35,0,0,1-.71,4.72,10.89,10.89,0,0,1-2.65,3.92,12.6,12.6,0,0,1-1.86,1.46,10.13,10.13,0,0,1-.93.53c-.29.16-.57.29-.84.42a20.41,20.41,0,0,1-5.94,1.56,35.69,35.69,0,0,1-10.07,0,34.53,34.53,0,0,1-8.54-2.33,36.94,36.94,0,0,1-3.57-1.68c-1.09-.65-2.13-1.23-3.05-1.91a25.3,25.3,0,0,1-7.37-7.6,8.71,8.71,0,0,1-1.13-2.66C309.05,120.89,309.12,120.44,309.4,120.21Z"/><path d="M276.24,164.71c.56-.57,2.09,0,4.53.93a77.94,77.94,0,0,0,10.52,3.11c2.29.52,4.87,1,7.71,1.61a36.62,36.62,0,0,0,8,1,9.7,9.7,0,0,0,3.18-.55,5.47,5.47,0,0,0,1.15-.62,5.24,5.24,0,0,0,1.07-.91,30,30,0,0,0,2.69-3.53c.23-.34.42-.63.57-.88s0-.07.05-.09h0l-.29-.26-.45-.4-1.18-1c-.84-.73-1.66-1.47-2.45-2.24a55.81,55.81,0,0,1-4.37-4.78c-.65-.81-1.33-1.7-2-2.64a30.22,30.22,0,0,1-1.77-3,19.42,19.42,0,0,1-2.16-7.17,13.43,13.43,0,0,1,1.82-8.06,13.73,13.73,0,0,1,5.48-5,15.19,15.19,0,0,1,6.17-1.65,17.68,17.68,0,0,1,5.34.53,23.62,23.62,0,0,1,7.64,3.53,15.14,15.14,0,0,1,4.41,4.7,7.73,7.73,0,0,1,1.13,4c-.05,1-.38,1.47-.76,1.55-.83.16-1.75-1.26-3.82-2.59a17.64,17.64,0,0,0-4.07-1.92,22.58,22.58,0,0,0-5.87-1.12,11,11,0,0,0-3,.26,7,7,0,0,0-1.27.44,6.55,6.55,0,0,0-1.11.67,4,4,0,0,0-1.36,1.67,3.43,3.43,0,0,0-.07,1.86,9.88,9.88,0,0,0,1.27,3c.35.58.75,1.16,1.19,1.75s.94,1.18,1.52,1.84a50.49,50.49,0,0,0,3.61,3.72c.64.6,1.3,1.18,2,1.76l1.14.94.7.59.37.34.46.43a13.38,13.38,0,0,1,2.36,3.07,10.38,10.38,0,0,1,1.19,3.57,10.57,10.57,0,0,1-.79,5.47c-.18.43-.39.85-.61,1.27s-.5.87-.66,1.12c-.35.54-.69,1-1,1.44a35.85,35.85,0,0,1-4.24,5,16.6,16.6,0,0,1-6.77,3.85,19.35,19.35,0,0,1-6.82.61,39.26,39.26,0,0,1-10.23-2.46c-2.77-1-5.39-2-7.77-3.13a32.22,32.22,0,0,1-10.41-7.09C276.23,166.92,275.71,165.23,276.24,164.71Z"/><path d="M290.16,240.78c-.33,0-.66-.17-1-.71a4.21,4.21,0,0,1-.32-2.58,8.36,8.36,0,0,1,1.72-3.73,14.43,14.43,0,0,1,3.9-3.41,29,29,0,0,1,5.38-2.4,52.74,52.74,0,0,1,6.19-1.64c2.16-.45,4.39-.84,6.59-1.26,1.11-.21,2.21-.43,3.29-.68l.4-.09c.12,0,.1,0,.11,0l.05-.05a.54.54,0,0,0,.05-.11.23.23,0,0,0,0-.17.11.11,0,0,0,0,0l0,0a1.18,1.18,0,0,1-.08-.23,7.62,7.62,0,0,0-2.74-3.05,12.44,12.44,0,0,0-2.63-1.44c-1.08-.44-2.29-.85-3.58-1.25a59.21,59.21,0,0,1-8.49-3.12c-.73-.37-1.47-.78-2.19-1.23-.36-.22-.71-.47-1.06-.72l-.52-.38-.56-.45a15.78,15.78,0,0,1-3.54-4.23,14.73,14.73,0,0,1-1.13-2.56,14.22,14.22,0,0,1-.4-1.49,12.59,12.59,0,0,1-.19-1.58,9.87,9.87,0,0,1,1.43-5.72,11,11,0,0,1,2.46-2.69,15.37,15.37,0,0,1,2.17-1.39,27.54,27.54,0,0,1,3.81-1.69,23.18,23.18,0,0,1,6.44-1.36c3.63-.2,5.6.63,5.68,1.51s-1.64,1.88-4.29,3.42a47.77,47.77,0,0,0-4.53,2.92c-.81.6-1.65,1.28-2.49,2a8.46,8.46,0,0,0-1,1,1.5,1.5,0,0,0-.17.52,1.12,1.12,0,0,0,.15.69.62.62,0,0,0,.09.12s.06.1.13.19a6.66,6.66,0,0,0,.46.65,6.3,6.3,0,0,0,1.45,1.26l.19.12.28.16c.19.1.38.21.59.31.4.2.84.39,1.31.57a67.93,67.93,0,0,0,7.15,2.08c1.43.39,3,.84,4.61,1.46a23.14,23.14,0,0,1,5.13,2.75,20.54,20.54,0,0,1,4,3.67,16,16,0,0,1,2.92,5.22c.16.52.28,1,.42,1.6s.17,1.24.22,1.85a16.1,16.1,0,0,1,0,1.84c-.06.61-.19,1.2-.29,1.79a9.47,9.47,0,0,1-6.76,7.41,13.3,13.3,0,0,1-1.74.41l-.8.13-.5.07c-1.33.17-2.6.29-3.82.37-2.45.17-4.67.24-6.71.32s-3.88.19-5.56.35a41.68,41.68,0,0,0-4.37.63,12.31,12.31,0,0,0-5,2.27C291.29,239.77,290.83,240.72,290.16,240.78Z"/><path d="M380,126c.8,0,1.5,1.31,2.08,3.57a34.49,34.49,0,0,1,.78,4.09c.12.79.22,1.64.32,2.55a28.46,28.46,0,0,1,.2,3.1,12.72,12.72,0,0,1-.76,4.39,10.72,10.72,0,0,1-3.44,4.66,13.71,13.71,0,0,1-5,2.46,16.19,16.19,0,0,1-2.69.48,24.34,24.34,0,0,1-2.53.09c-1.63,0-3.11-.19-4.43-.31s-2.46-.19-3.74-.22a48.2,48.2,0,0,0-7.71.44,14.08,14.08,0,0,0-5.67,1.72,5.49,5.49,0,0,0-1.49,1.45,12.46,12.46,0,0,0-1.35,2.46c-.42,1-.79,2.05-1.16,3.11s-.66,2.1-.93,3.12c-.55,2-1,4-1.29,5.81-1.29,7.25-1.29,12.24-2.93,12.62-.77.18-1.84-.85-2.89-3a29.33,29.33,0,0,1-2.43-9.87,41.94,41.94,0,0,1,0-7.1c.1-1.29.28-2.61.51-4a37.72,37.72,0,0,1,1-4.26,21.66,21.66,0,0,1,2.06-4.83,16.37,16.37,0,0,1,4.15-4.72,19.19,19.19,0,0,1,5.46-2.85,29.39,29.39,0,0,1,5.38-1.23A46.3,46.3,0,0,1,366,140c1.4.25,2.58.48,3.58.62.49.06.94.11,1.35.13a7.37,7.37,0,0,0,1.06,0,5.88,5.88,0,0,0,1.59-.32,2,2,0,0,0,.83-.47,4.59,4.59,0,0,0,.76-1.63c.21-.74.39-1.64.58-2.54s.39-1.72.58-2.5a39.47,39.47,0,0,1,1.21-4C378.35,127.1,379.18,125.91,380,126Z"/><path d="M392.26,192.41c.08-.82,2.13-1.31,5.59-1.92a55.92,55.92,0,0,0,13.51-3.71,26.19,26.19,0,0,0,7.26-4.92,19.07,19.07,0,0,0,2.89-3.57,15,15,0,0,0,1.08-2c.16-.34.28-.7.43-1.05s.22-.69.31-1a5,5,0,0,0,0-3.08,2.64,2.64,0,0,0-.6-.84,4.92,4.92,0,0,0-1.28-.92,10.38,10.38,0,0,0-4.31-1.06c-1.84-.13-4.07,0-6.65,0a67.73,67.73,0,0,1-7.83-.29,52.81,52.81,0,0,1-7.82-1.26,21.45,21.45,0,0,1-4.34-1.63,15.77,15.77,0,0,1-4.18-3.09,13.52,13.52,0,0,1-2.94-4.67,11.63,11.63,0,0,1-.55-5.9,12.21,12.21,0,0,1,2-4.94,16.92,16.92,0,0,1,2.91-3.24,28.33,28.33,0,0,1,5.84-3.78,50.3,50.3,0,0,1,10.62-4,48.25,48.25,0,0,1,4.82-1,40.7,40.7,0,0,1,4.43-.4,18.19,18.19,0,0,1,7.43,1.18,8.18,8.18,0,0,1,3.91,3,2.88,2.88,0,0,1,.48,1.24.72.72,0,0,1-.18.67c-.68.55-2.29-.57-5.25-.51a21.25,21.25,0,0,0-5.52.87c-1.06.3-2.29.71-3.56,1.15s-2.58,1-3.94,1.57a55.64,55.64,0,0,0-8.41,4.56,20.81,20.81,0,0,0-3.68,2.91c-.95,1-1.37,2-1.27,2.22a.86.86,0,0,0,.15.41,3.41,3.41,0,0,0,.65.78,5,5,0,0,0,1.26.78,11.25,11.25,0,0,0,2.07.66,49.34,49.34,0,0,0,6.06.79c2.16.17,4.35.23,6.59.19a73,73,0,0,1,7.8,0,21.15,21.15,0,0,1,9.08,2.71,16.1,16.1,0,0,1,4,3.32,13.58,13.58,0,0,1,2.76,4.91,14.44,14.44,0,0,1,.58,5.24,18.27,18.27,0,0,1-.91,4.45,25.82,25.82,0,0,1-8.71,11.87,30.91,30.91,0,0,1-10.82,5.35,36,36,0,0,1-16.32.46C394.07,194.23,392.19,193.19,392.26,192.41Z"/><path d="M320.35,278c-1.46.68-4.55-2.51-8.35-8.22-.95-1.42-1.95-3-3-4.73l-1.56-2.68c-.52-.93-1-1.84-1.63-3a22.9,22.9,0,0,1-2.67-8.59,13.66,13.66,0,0,1,1-6.21,12.87,12.87,0,0,1,4.19-5.34,17.18,17.18,0,0,1,5-2.53,39.24,39.24,0,0,1,4.11-1.06c1.21-.25,2.27-.47,3.16-.69a12.06,12.06,0,0,0,2.17-.7,13.86,13.86,0,0,0,6.07-5.7,23.09,23.09,0,0,0,2.36-6.21c.09-.41.19-.81.3-1.17s.18-.66.29-.94a1.79,1.79,0,0,1,.88-1.1,1.41,1.41,0,0,1,1.35.36,4.19,4.19,0,0,1,.84.81,10,10,0,0,1,.82,1.29,14.88,14.88,0,0,1,1,9.62,19.92,19.92,0,0,1-2.64,6.46,19.31,19.31,0,0,1-5.94,5.94,20.68,20.68,0,0,1-4.15,2c-1.34.47-2.61.83-3.77,1.15a16.29,16.29,0,0,0-4.83,1.81,1.6,1.6,0,0,0-.53.58,2.5,2.5,0,0,0-.22,1.06,15.58,15.58,0,0,0,1.11,4.87c.37,1,.73,2,1.09,3s.7,2,1,2.93c.65,1.89,1.21,3.68,1.68,5.32C321.38,272.87,321.81,277.28,320.35,278Z"/><path d="M327.71,336.1c.2-.8,1.1-1.32,2.06-2.07a6.54,6.54,0,0,0,2.41-2.95,4.47,4.47,0,0,0,.2-1.86,2.66,2.66,0,0,0-.21-.84,8,8,0,0,0-.44-.79,25.28,25.28,0,0,0-2.2-2.87c-1.13-1.34-2.33-2.83-3.49-4.34l-1.71-2.27c-.57-.78-1.05-1.43-1.69-2.36a15.75,15.75,0,0,1-1.9-3.6,11.67,11.67,0,0,1-.66-4.64,12.67,12.67,0,0,1,2.69-6.94,13.22,13.22,0,0,1,4.39-3.7,13.52,13.52,0,0,1,6.82-1.66c1.62.08,2.61.52,2.91,1.27s-.16,1.74-1.14,2.91-2.46,2.52-3.59,4a7.25,7.25,0,0,0-1.19,2.28,3.32,3.32,0,0,0-.13,2,.85.85,0,0,0,.25.35c.11.12.34.45.78,1l1.66,2c.58.74,1.16,1.48,1.76,2.23,1.18,1.54,2.26,3,3.34,4.54a22,22,0,0,1,3.17,6,13.15,13.15,0,0,1,.62,3.94,12.15,12.15,0,0,1-.62,3.7,11.42,11.42,0,0,1-3.63,5.31,9.71,9.71,0,0,1-4.63,2.07,7.67,7.67,0,0,1-3.56-.26C328.12,337.93,327.5,336.84,327.71,336.1Z"/><path d="M470.19,338.88c-.53-1.58,2.08-3.79,5-7.43a34.14,34.14,0,0,0,4.19-6.56,25,25,0,0,0,1.53-4,9.38,9.38,0,0,0,.4-3.44,6.26,6.26,0,0,0-.35-1.44c-.2-.61-.54-1.36-.91-2.2a26,26,0,0,1-2.24-6.59,11.93,11.93,0,0,1,.15-4.52,10,10,0,0,1,.73-2.14,11.4,11.4,0,0,1,1-1.74,14,14,0,0,1,2.18-2.34,21.25,21.25,0,0,1,2-1.51,15.33,15.33,0,0,1,6.93-2.61c1.78-.13,2.86.32,3.15,1.06.6,1.54-1.95,3.86-4.48,7.62a10.61,10.61,0,0,0-1.5,2.75.79.79,0,0,0,0,.65c.09.2.18.41.28.62.27.66.95,1.9,1.94,3.66a29,29,0,0,1,1.51,3.13,16.94,16.94,0,0,1,1.13,4.4,18.47,18.47,0,0,1-1.18,8.28,25.85,25.85,0,0,1-3.2,6,25.09,25.09,0,0,1-8.22,7.41,16.21,16.21,0,0,1-7,2.15C471.52,340.12,470.45,339.62,470.19,338.88Z"/><path class="cls-10" d="M327.25,391.37l32.12,263.12c14.46,118.43,42,441.4,28.77,560l-162.3-11c39-372.9,8.34-782.08,8.34-782.08Z"/><path class="cls-11" d="M327.25,391.37l-36,20.88c-16,9.26-19.18,26.28-7.28,38.47l51.91,53.19-24.11,22.84c-7.81,7.39-10.1,17.21-6.1,26.13l54.4,121.28S356.83,441.18,327.25,391.37Z"/><path class="cls-10" d="M492.71,395.46,460.59,658.59c-14.46,118.42-42,441.4-28.76,560l162.3-11c-39-372.9-8.34-782.07-8.34-782.07Z"/><path class="cls-11" d="M492.71,395.46l36,20.88c16,9.27,19.18,26.29,7.28,38.47L484,508l24.12,22.84c7.8,7.39,10.1,17.21,6.09,26.13l-54.4,121.28S463.14,445.27,492.71,395.46Z"/><path class="cls-10" d="M211,770.78h0a47.23,47.23,0,0,0,52.22-41.34c18.19-94.38,29.89-183.3,30.57-263a47.24,47.24,0,0,0-41.34-52.22h0c-60.47-2-80.13,201.85-82.79,304.31A47.23,47.23,0,0,0,211,770.78Z"/><path class="cls-10" d="M602.06,776.36h0a47.23,47.23,0,0,1-50.83-43c-15.07-94.92-23.83-184.18-21.88-263.83a47.23,47.23,0,0,1,43-50.83h0c60.5,0,73.42,204.38,72.71,306.88A47.23,47.23,0,0,1,602.06,776.36Z"/><path class="cls-3" d="M537,704.63s35-31.57,41.33-34,53.53-15.1,58.07-22.37-6.64-12.78-20.38-8.83-47.51,14.26-52.08,18-25.14,13.2-30,17.36S513.48,708.4,537,704.63Z"/><path class="cls-3" d="M533.17,678.32c10.43-.69,29.14-23.9,32-24.43s37.48-8.82,48.82-12.84,4.54-13-10.47-12S563.25,636.24,559,638s-37.88,16.53-45.5,21.71S518.16,679.31,533.17,678.32Z"/><path class="cls-3" d="M509.28,679.59c10.05-2.84,26.29-28.53,28.94-29.64s35.09-7.26,45.35-13.55,1.74-13.64-12.74-9.56S528,633.38,524.19,636s-26.89,25.67-33.28,32.32S494.79,683.67,509.28,679.59Z"/><path class="cls-3" d="M540.63,708.25c3.77-2.2,9.36-10.35,14.23-19.6-2.34-2.36-4.6-4.77-6.81-7.22-8.2-9.06-15.73-18.54-24.13-27.46-1.87-2-3.79-4-5.77-5.86-21.65,10-63.66,45.31-35.26,65.34C482.89,713.45,532.1,713.25,540.63,708.25Z"/><path class="cls-3" d="M482.28,713s27.06,8.84,37.09,11.18c7.19,1.68,30,3.25,32.4,3.94s25-22.88,27.37-27-2.9-9.63-14.71-8.32-22.23,14.31-22.23,14.31-28.73-15.6-42.44-14.64S482.28,713,482.28,713Z"/><path class="cls-10" d="M485.66,739.39l-7.86-41.83L200.88,682.89c-20.88-1.1-35.31,21.4-31,48.28h0c4.12,25.42,23.44,44.42,42.74,42Z"/><path class="cls-3" d="M277.13,706.73s-34.32-32.35-40.56-34.89-53.18-16.3-57.55-23.67,6.93-12.63,20.58-8.37,47.18,15.33,51.65,19.13,24.85,13.76,29.65,18S300.54,711,277.13,706.73Z"/><path class="cls-3" d="M281.53,680.51c-10.41-.92-28.59-24.54-31.4-25.14s-37.28-9.66-48.53-13.94-4.24-13.08,10.75-11.75,40.05,8.09,44.27,9.92,37.5,17.38,45,22.73S296.52,681.84,281.53,680.51Z"/><path class="cls-3" d="M305.39,682.31c-10-3.06-25.65-29.11-28.27-30.28s-34.92-8-45-14.56S230.65,623.8,245,628.2s42.69,7.5,46.43,10.18,26.31,26.26,32.54,33S319.78,686.72,305.39,682.31Z"/><path class="cls-3" d="M273.4,710.27c-3.72-2.29-9.12-10.56-13.78-19.92,2.39-2.3,4.7-4.66,7-7.06,8.39-8.87,16.14-18.18,24.73-26.92,1.92-1.94,3.88-3.85,5.9-5.72,21.43,10.49,62.63,46.73,33.79,66.11C331,716.76,281.82,715.45,273.4,710.27Z"/><path class="cls-3" d="M331.63,716.32s-27.25,8.23-37.33,10.34c-7.23,1.52-30.1,2.57-32.48,3.22s-24.5-23.44-26.76-27.6,3.12-9.57,14.89-8,21.9,14.81,21.9,14.81,29.09-15,42.76-13.69S331.63,716.32,331.63,716.32Z"/><path class="cls-10" d="M330.5,717.34l12.11-40.79,277,13.85c20.89,1.05,32.93,24.92,25.83,51.21h0c-6.7,24.86-27.88,41.78-46.83,37.42Z"/></g></g></svg>