<svg xmlns="http://www.w3.org/2000/svg" viewBox="0 0 316.45 457.5"><defs><style>.cls-1,.cls-4,.cls-6{fill:#c53945;}.cls-1,.cls-2,.cls-3,.cls-6,.cls-8{stroke:#000;stroke-miterlimit:10;}.cls-2{fill:#7fa7da;}.cls-3,.cls-8{fill:#ef8789;}.cls-3{stroke-width:4px;}.cls-5{fill:#5d80b7;}.cls-6{stroke-width:3px;}.cls-7{fill:#952833;}.cls-9{fill:#b7626b;}.cls-10{fill:#647db6;}.cls-11{fill:#fff;}.cls-12{fill-rule:evenodd;}</style></defs><g id="Layer_2" data-name="Layer 2"><g id="Layer_2-2" data-name="Layer 2"><path class="cls-1" d="M213.61,315.86l-48.69,132.7a12.52,12.52,0,0,1-10.74,8.16c-13.2,1-21.22-.07-34.7-17.69a10.48,10.48,0,0,1-1.43-10.26l49.28-123.2Z"/><path class="cls-2" d="M173.76,299.14q-24.36,66.36-48.7,132.7A12.49,12.49,0,0,1,114.32,440c-13.19,1.05-21.22-.06-34.7-17.68a10.52,10.52,0,0,1-1.43-10.27q24.65-61.59,49.28-123.19Z"/><path class="cls-3" d="M293.08,212.63c8.65,0,17.84,21.51,20.55,42.47,3.54,27.32-4.59,48.64-20.55,84.93C265,403.88,250.71,435.92,238.29,441.4c-34.53,15.23-76.47-12.91-116.44-39.73-5-3.38-58.15-39.9-83.56-100-13.19-31.2-7.4-41.52-4.11-45.21,5.4-6,12.77-4,21.92-8.21,21.15-9.81,12.47-43.92,27.39-49.32,5.39-2,9.3,1,17.81,4.11,26.15,9.4,36.52-1.83,74,0,22.7,1.11,41.28,2,60.27,13.7,16.86,10.37,23.62,22.81,34.25,20.55C283,234.47,284.4,212.67,293.08,212.63Z"/><path class="cls-4" d="M183.61,387c-.16.08-.55-.47-1.16-1.6-.3-.57-.66-1.27-1-2.13s-.65-1.91-1-3.08a40.27,40.27,0,0,1-1.41-8.8,60,60,0,0,1,.71-11.75,126.68,126.68,0,0,1,3-13.79c1.31-4.87,2.84-10,4.27-15.37a111,111,0,0,0,3.33-16.91,86.08,86.08,0,0,0-.13-18.35,91,91,0,0,0-1.55-9.2c-.73-3-1.49-5.91-2.48-8.71A87.61,87.61,0,0,0,179,261.66a156.19,156.19,0,0,1-7.57-14.3,50.08,50.08,0,0,1-3.81-13.91,48.41,48.41,0,0,1,1.78-20.51c1.53-4.63,3-6.89,3.31-6.76s-.48,2.66-1.37,7.25a54.82,54.82,0,0,0-.13,19.48,49.47,49.47,0,0,0,4.1,12.69c2.07,4.36,4.89,8.81,7.8,13.69a86.74,86.74,0,0,1,12.19,54.78,107.94,107.94,0,0,1-3.77,17.63c-1.59,5.46-3.28,10.54-4.74,15.29s-2.67,9.17-3.52,13.25a67.79,67.79,0,0,0-1.42,11.08,49.21,49.21,0,0,0,.49,8.4c.21,1.14.39,2.16.53,3.06s.42,1.6.56,2.21C183.7,386.21,183.77,386.89,183.61,387Z"/><path class="cls-4" d="M211.86,368.4c-.74.16-3.78-12.34-9-27.25s-10.61-26.6-9.94-26.94,7.1,11,12.36,26.09S212.52,368.29,211.86,368.4Z"/><path class="cls-4" d="M118.78,331.09c-.36.07-1-1.53-2-4.43s-2.52-7.07-4.46-12.21S108,303.15,105.84,296a79.48,79.48,0,0,1-3.69-24.11,54.25,54.25,0,0,1,.55-6.53,45.59,45.59,0,0,1,1.41-6.24,74.63,74.63,0,0,1,4.51-10.9,77.72,77.72,0,0,0,3.94-9.25,51.25,51.25,0,0,0,2-8.42,61,61,0,0,0,.57-12.69c-.16-3-.31-4.75,0-4.85s1.14,1.49,1.93,4.55A43,43,0,0,1,118.22,231a48.06,48.06,0,0,1-1.58,9.25,69.42,69.42,0,0,1-3.71,10,78.73,78.73,0,0,0-4,10.35,43.45,43.45,0,0,0-1.19,5.58,54,54,0,0,0-.47,5.9,84.44,84.44,0,0,0,3.12,22.72c1.81,7,3.84,13.2,5.32,18.55a105,105,0,0,1,3,12.85C119.13,329.27,119.11,331,118.78,331.09Z"/><path class="cls-4" d="M124.36,308.48c-.41-.08-.1-2.77-.27-7.05l-.08-1.68c0-.58-.13-1.19-.18-1.81-.1-1.25-.36-2.57-.58-4a55.34,55.34,0,0,0-2.5-8.79,56.18,56.18,0,0,0-4.08-8.18c-.77-1.18-1.47-2.33-2.25-3.32-.37-.5-.71-1-1.08-1.46l-1.07-1.29c-2.76-3.28-4.81-5.06-4.56-5.39s2.65,1.05,5.89,4.15l1.25,1.24c.42.44.82.94,1.25,1.43a40.13,40.13,0,0,1,2.56,3.35,46,46,0,0,1,4.48,8.54,45.46,45.46,0,0,1,2.45,9.33,40.45,40.45,0,0,1,.36,4.19c0,.66.06,1.3,0,1.91s0,1.19-.08,1.75C125.61,305.92,124.65,308.54,124.36,308.48Z"/><path class="cls-4" d="M145.41,402.48c-.38.11-1.33-2.35-3.25-6.63a99.42,99.42,0,0,0-9.85-17.07,86.08,86.08,0,0,0-20.6-20.23c-4.49-3.11-9.54-6-14.81-9.15-2.62-1.59-5.3-3.26-8-5.1-1.33-.92-2.64-1.89-4-2.9l-3.78-3.29a40.67,40.67,0,0,1-3.54-3.53L76,332.78c-.56-.61-1-1.28-1.54-1.92-1-1.29-2-2.53-3-3.86l-2.6-4a17.18,17.18,0,0,1-1.17-2c-.37-.69-.73-1.38-1.09-2.07s-.72-1.36-1.08-2-.61-1.4-.92-2.09l-1.75-4.14-1.37-4.16c-.21-.69-.46-1.37-.65-2s-.33-1.39-.49-2.07c-.32-1.37-.66-2.71-1-4s-.41-2.68-.61-4c-.1-.65-.2-1.3-.29-1.94s-.1-1.3-.15-1.94c-.09-1.27-.17-2.53-.25-3.76a14.05,14.05,0,0,1,0-1.83q0-.91,0-1.8l.07-3.49c.12-1.13.23-2.24.34-3.32s.21-2.13.36-3.15.4-2,.59-3,.38-1.89.56-2.79.51-1.74.75-2.56l.72-2.38.35-1.12c.12-.36.28-.7.42-1.05l1.56-3.69a20.79,20.79,0,0,1,1.47-2.85c.47-.8.88-1.47,1.22-2,.68-1.06,1.12-1.58,1.27-1.49s0,.76-.34,1.95c-.19.6-.44,1.32-.75,2.17a28,28,0,0,0-1,2.95L64.58,261c-.1.34-.22.68-.3,1l-.23,1.11-.5,2.33c-.17.81-.37,1.64-.53,2.5s-.23,1.77-.35,2.7-.24,1.87-.37,2.85-.11,2-.17,3S62,278.6,62,279.68s.07,2.19.1,3.31l0,1.71a14.48,14.48,0,0,0,.11,1.73c.12,1.16.25,2.35.38,3.55.07.6.11,1.21.2,1.82l.35,1.83c.22,1.23.45,2.48.69,3.74s.67,2.51,1,3.79l.51,1.93c.19.64.44,1.27.66,1.91l1.37,3.89,1.71,3.84c.3.65.55,1.32.89,1.94l1,1.9,1,1.91a16.34,16.34,0,0,0,1.12,1.88l2.45,3.71c.85,1.23,1.85,2.36,2.77,3.56.48.59.91,1.22,1.44,1.77l1.58,1.66a37.38,37.38,0,0,0,3.28,3.26l3.48,3c1.22.95,2.44,1.87,3.7,2.75,2.51,1.76,5.09,3.39,7.66,5,5.15,3.18,10.28,6.21,14.92,9.6a82.92,82.92,0,0,1,20.86,22A76,76,0,0,1,144,395.14C145.42,399.74,145.71,402.4,145.41,402.48Z"/><path class="cls-4" d="M141.21,359.82c-.41.16-1.32-2.62-4.49-5.7a23.5,23.5,0,0,0-6.34-4.32,28.62,28.62,0,0,0-9.06-2.5c-6.74-.65-13,.62-17.43,1.48s-7.3,1.46-7.4,1.1,2.53-1.48,7-2.86a59.62,59.62,0,0,1,8-1.89,39.65,39.65,0,0,1,10.16-.39,27.76,27.76,0,0,1,9.85,2.94,21.94,21.94,0,0,1,6.62,5.2,15,15,0,0,1,2.85,4.88C141.32,359,141.37,359.77,141.21,359.82Z"/><path class="cls-4" d="M222.34,355c-.31-.19.38-2,1.78-5.15s3.56-7.63,5.83-13.28a86.69,86.69,0,0,0,5.76-20.25,52.24,52.24,0,0,0,.35-12.17,52.85,52.85,0,0,0-3-12.73c-3-8.61-7.26-16.63-9.85-24.63a56.66,56.66,0,0,1-2.64-11.74,49.82,49.82,0,0,1,.07-10.47,70.4,70.4,0,0,1,3.22-14.5c1.11-3.31,1.95-5.05,2.29-5s.16,2-.35,5.43a124.34,124.34,0,0,0-1.53,14.3,52.5,52.5,0,0,0,.53,9.67,57.67,57.67,0,0,0,2.88,10.73c1.36,3.72,3.07,7.57,4.89,11.6s3.74,8.3,5.34,12.88a55.07,55.07,0,0,1,3.13,14,53.66,53.66,0,0,1-.69,13.35,77.84,77.84,0,0,1-7.12,21,107.25,107.25,0,0,1-7.4,12.77C223.91,353.7,222.64,355.17,222.34,355Z"/><path class="cls-4" d="M257.39,328.53c-.19-.06-.07-.9,0-2.37a20.3,20.3,0,0,0-.5-6.12,30.24,30.24,0,0,0-3.55-8.4,60.57,60.57,0,0,0-6.85-9.05c-2.76-3-5.46-5.94-7.72-8.79a41.74,41.74,0,0,1-5.23-8.17,21.7,21.7,0,0,1-1.92-6.29c-.18-1.55-.09-2.41.07-2.43.43-.06.83,3.31,3.47,7.88a49.18,49.18,0,0,0,5.44,7.51c2.29,2.68,5,5.49,7.79,8.57a52.51,52.51,0,0,1,7,9.59,27.66,27.66,0,0,1,3.29,9.25,16.32,16.32,0,0,1-.3,6.62C258,327.83,257.54,328.58,257.39,328.53Z"/><path class="cls-4" d="M275.67,305c-.61-.49,1.4-3.79,4-9.29l1-2.16c.35-.75.63-1.57,1-2.39.71-1.62,1.28-3.43,1.95-5.31a89.47,89.47,0,0,0,3-12.55,91.53,91.53,0,0,0,1-12.88c-.06-2-.05-3.88-.23-5.65-.07-.88-.09-1.75-.19-2.57s-.19-1.61-.28-2.36c-.76-6-1.66-9.79-.93-10.06.33-.13.95.67,1.8,2.26.22.4.44.84.68,1.33s.43,1.05.66,1.65a34.61,34.61,0,0,1,1.35,4.1c.21.78.42,1.6.64,2.45s.33,1.75.5,2.68a55.23,55.23,0,0,1,.73,6A62.24,62.24,0,0,1,288,287.45a56.29,56.29,0,0,1-2.53,5.49c-.46.83-.85,1.65-1.31,2.4l-1.36,2.13a34.92,34.92,0,0,1-2.55,3.49c-.4.49-.76,1-1.13,1.36s-.73.75-1.05,1.06C276.79,304.63,276,305.2,275.67,305Z"/><path class="cls-2" d="M99.93,20.48c-11-8.39-30.77-7.64-35.61,0-5.64,8.88,8.52,27.77,6.85,28.77S59,26.12,45.14,26C35,25.84,24,38.61,26,46.51c2.15,8.54,17.92,5.12,24.66,16.43C58,75.27,45.89,90.48,53.36,97.19c4.58,4.12,10.18-.67,17.81,2.74,14.32,6.41,11.8,31,16.43,31.51C96.55,132.38,129.49,43,99.93,20.48Z"/><path class="cls-5" d="M58.63,50.21c1.27-.75-6.56-11.79-8-21a14.8,14.8,0,0,0-7.46-2.33A14.63,14.63,0,0,0,37.68,28C49,32.78,57.09,51.12,58.63,50.21Z"/><path class="cls-5" d="M54.5,99.72a6.34,6.34,0,0,0,.78.14Z"/><path class="cls-5" d="M98,21.44c-6.78-5.18-16.92-6.87-24.83-5.61A31.23,31.23,0,0,1,87.4,21.44c23.89,18.22,6.95,80.08-5.15,102.64,1,4.65,1.71,8.14,3.43,8.32C94.62,133.34,127.56,44,98,21.44Z"/><path class="cls-6" d="M272.54,153.36c-21.23-17.73-55.07-18.7-76.72-2.74-21.5,15.85-30.94,48.38-21.91,57.53,3.58,3.63,7.67,1.14,19.17,2.74,17.33,2.4,23.37,10.17,43.84,20.55,23.31,11.82,35.42,18,43.84,13.7C298.26,236.26,304.39,180,272.54,153.36Z"/><path class="cls-7" d="M247.53,220.83c-20.47-10.38-26.51-18.14-43.84-20.55-11.51-1.59-15.59.89-19.18-2.74-8.15-8.26-1.24-35.59,16-52.48a52.44,52.44,0,0,0-5.67,3.63c-21.5,15.85-31,48.38-21.92,57.53,3.58,3.63,7.67,1.14,19.18,2.74,17.33,2.41,23.36,10.17,43.84,20.55,23.3,11.82,35.42,18,43.83,13.7a19.19,19.19,0,0,0,7.32-7.43C278.88,236.73,267.19,230.8,247.53,220.83Z"/><path class="cls-8" d="M245.14,51.51c1,11.87-26.68,17.68-26,30.13.59,11.32,23.77,13.11,24.66,24.66.82,10.64-17.85,22.29-34.25,24.66-1.85.27-24.46,3.27-31.5-8.22-5.79-9.45,4-20.41-1.37-26-5.66-5.89-25-2.71-31.51,8.22-7.95,13.26,9.44,26.93,2.74,47.95-3.57,11.19-13.41,22.69-21.92,21.91-13.41-1.22-19.85-32.56-23.29-49.31C99.49,110,91.47,70.92,109.52,57c4.86-3.75,8.89-3.58,11-8.22,5-11.17-13.55-22.88-9.59-35.62C113.4,5.09,124.16-1,132.81.82,143.35,3,148.49,20.33,147.88,32.33c-.48,9.52-4.58,14.41-1.37,19.18,3.07,4.56,11.5,7.05,16.44,4.11,11.86-7.07-4.23-40.8,8.22-49.32,6.28-4.3,19-1.56,23.28,5.48C204,27.35,169.13,58.05,178,70.68c3.6,5.13,12.74,4.9,19.17,4.11-.86-20.42,11.39-35.65,24.66-37C232.05,36.78,244.51,43.79,245.14,51.51Z"/><path class="cls-9" d="M131.53,154.87c-10.86-1-16.08-26.37-18.86-39.94-2.58-12.53-9.08-44.19,5.54-55.47,3.94-3,7.2-2.9,8.88-6.65,4-9-11-18.53-7.77-28.85,2-6.53,10.75-11.45,17.75-10,4.81,1,8.23,5.89,10.21,11.7-1.66-10.07-6.53-20.3-14.47-22C124.16,1.9,113.4,8,110.89,16c-4,12.74,14.57,24.46,9.59,35.62-2.07,4.64-6.1,4.47-11,8.22-18,13.93-10,53-6.85,68.49,3.44,16.75,9.88,48.1,23.29,49.32,8.51.77,18.35-10.72,21.92-21.92a33.69,33.69,0,0,0,.85-17.1C145.48,147.22,138,155.46,131.53,154.87Z"/><path class="cls-9" d="M219.48,82.52c-.59-12.46,24.55-18.27,23.66-30.14-.57-7.73-11.9-14.73-21.17-13.71a18.54,18.54,0,0,0-8.37,3.25c6.71.72,13.6,5.68,14,11.08.72,9.62-19.64,14.32-19.16,24.42.44,9.17,17.5,10.62,18.16,20,.6,8.62-13.14,18.06-25.22,20-1.19.19-14.13,2.08-20.79-3.72a15.81,15.81,0,0,0,1.54,10c6.4,11.5,27,8.49,28.64,8.22,14.9-2.37,31.87-14,31.13-24.66C241.09,95.64,220,93.84,219.48,82.52Z"/><path class="cls-9" d="M169.2,88c-4-5.23-19.86-4.32-26.08,3.92a12.7,12.7,0,0,0-2.44,8.68c6.89-8.31,21.89-10.15,29-6.41C170.35,91.88,170.55,89.78,169.2,88Z"/><path class="cls-2" d="M252,75.27c-8.8,2.09-4.13,12.29-12.33,24.66C229,116,207.13,129,194.45,123.22c-10.82-4.9-6.33-19.53-19.17-27.4-12.44-7.62-32.61-3.7-37,5.48-3.19,6.69,4.52,10.89,5.48,26,.17,2.69,1.19,23-11,32.87-8,6.58-15.23,3.18-20.55,9.59s2.76,14.44-1.37,24.66c-3.12,7.72-9.87,7.88-9.59,11,.78,8.33,49.11,22.06,72.61,1.37,13.82-12.17,5.92-24.69,20.54-38.36,9.9-9.25,27.29-11.77,61.65-16.43,30.84-4.19,39.86-3.08,45.2-11,7.65-11.27,2.11-32.54-8.22-37-8.64-3.73-15.7,6.46-24.65,2.74C255.66,101.47,276,69.59,252,75.27Z"/><path class="cls-10" d="M293.53,103.87c3.62,8.36,4.09,19.54-.76,26.69-5.35,7.89-14.36,6.77-45.21,11-34.36,4.67-51.74,7.19-61.64,16.44-14.63,13.67-6.73,26.18-20.55,38.36-17.21,15.14-47.71,11.84-63.13,5.72-1.12.78-1.86,1.5-1.76,2.55.78,8.33,49.1,22.06,72.6,1.37,13.83-12.17,5.93-24.69,20.55-38.36,9.9-9.25,27.28-11.77,61.65-16.44,30.84-4.18,39.85-3.07,45.2-10.95C307.81,129.41,303,109.44,293.53,103.87Z"/><path class="cls-6" d="M86.81,81.78c-30.67-6.69-61,31.82-72.57,53.45C-3.55,168.42-1,206.17,11.38,233.61c6.22,13.8,11.3,25.08,22.45,29.22,35.78-1,85.79-33.2,94.12-87.08C117.19,116.57,112,107.57,86.81,81.78Z"/><path class="cls-7" d="M86.31,83.73A31.94,31.94,0,0,0,78.08,83c21.81,23,26.78,33.46,36.72,89.09-7.69,50.63-52.28,81.76-86.33,85.1a22.66,22.66,0,0,0,6.79,4.06c34.48-1,82.67-32.56,90.69-85.38C115.58,117.84,110.62,109,86.31,83.73Z"/><ellipse cx="182.78" cy="13.62" rx="6.54" ry="10.8" transform="translate(96.81 175.49) rotate(-66.29)"/><ellipse cx="292.65" cy="122.41" rx="9.07" ry="14.98" transform="translate(-22.56 86.79) rotate(-16.25)"/><ellipse cx="230.21" cy="48.48" rx="6.54" ry="10.8" transform="matrix(0.5, -0.87, 0.87, 0.5, 73.12, 223.6)"/><ellipse cx="82.17" cy="25.55" rx="7.17" ry="14.74" transform="translate(52.35 106.26) rotate(-87)"/><ellipse cx="39.92" cy="37.93" rx="13.2" ry="6.42" transform="translate(-14.97 33.47) rotate(-38.89)"/><ellipse cx="126.21" cy="10.62" rx="10.8" ry="6.54" transform="matrix(0.96, -0.28, 0.28, 0.96, 2.09, 35.85)"/><ellipse cx="255.75" cy="79.63" rx="5.88" ry="2.71"/><path class="cls-7" d="M96.18,153c.13.09-.11.71-.86,1.61a10.29,10.29,0,0,1-4.06,2.86,15.65,15.65,0,0,1-7.32,1,18.71,18.71,0,0,1-8.55-3A25.42,25.42,0,0,1,69,149.24a36.69,36.69,0,0,1-3.59-6.18c-1.68-3.68-2.31-6.08-2-6.22s1.58,2,3.62,5.36a54,54,0,0,0,3.86,5.61,27.13,27.13,0,0,0,5.9,5.56,17.87,17.87,0,0,0,7.38,2.78,16,16,0,0,0,6.46-.38C94.27,154.74,95.85,152.7,96.18,153Z"/><path class="cls-7" d="M71.72,201.38c.08,0,.13.16.13.41a2,2,0,0,1,0,.46q-.07.25-.21.6a4.71,4.71,0,0,1-3.27,2.32,11.58,11.58,0,0,1-5.71-.24,15.25,15.25,0,0,1-1.57-.53c-.49-.21-1-.41-1.5-.65-1-.45-2-1-3.06-1.52a41.65,41.65,0,0,1-9.6-7.13c-2.16-2.17-3.18-3.79-2.93-4,.53-.51,5.87,4.64,13.76,8.9,1,.54,2,1,2.9,1.5.47.24,1,.45,1.41.67a12.87,12.87,0,0,0,6,1.24,4.33,4.33,0,0,0,2.75-1.1l.35-.36.24-.3C71.51,201.45,71.63,201.36,71.72,201.38Z"/><path class="cls-7" d="M43.78,214.13c.08,0,.16.33-.07.86a2.74,2.74,0,0,1-1.91,1.35,6.85,6.85,0,0,1-3.34-.13,14.37,14.37,0,0,1-1.79-.69c-.59-.27-1.18-.56-1.79-.89a24.17,24.17,0,0,1-5.6-4.17c-1.26-1.27-1.86-2.21-1.72-2.35.32-.3,3.43,2.71,8,5.2.58.31,1.14.6,1.7.87a13.67,13.67,0,0,0,1.57.7,6.83,6.83,0,0,0,2.75.42,2.54,2.54,0,0,0,1.61-.64C43.54,214.36,43.66,214.1,43.78,214.13Z"/><path class="cls-7" d="M46.3,176.05c-.1.15-.53,0-1.26-.38l-.59-.34c-.2-.14-.41-.32-.63-.5a9.71,9.71,0,0,1-1.43-1.39A14.9,14.9,0,0,1,39.72,169a22.9,22.9,0,0,1-1.42-6.1A37.51,37.51,0,0,1,39,151.82c.59-2.77,1.23-4.4,1.57-4.35s.36,1.81.24,4.57a75.86,75.86,0,0,0,.08,10.6A28.38,28.38,0,0,0,42,168.2a18.15,18.15,0,0,0,1.9,4.16C45.24,174.58,46.55,175.72,46.3,176.05Z"/><path class="cls-7" d="M100.79,180.67c.1.3-1.4,1.18-4.13,1.71a21.11,21.11,0,0,1-4.85.34,25.45,25.45,0,0,1-5.89-1,26,26,0,0,1-5.47-2.42,21.72,21.72,0,0,1-3.85-3c-2-2-2.74-3.51-2.49-3.71s1.53.85,3.65,2.31a31.43,31.43,0,0,0,8.9,4.33A35,35,0,0,0,92,180.36a33.16,33.16,0,0,0,4.48.21C99,180.53,100.68,180.3,100.79,180.67Z"/><path class="cls-7" d="M227.31,170.56c.32.06.55,1.09,0,2.69a5.9,5.9,0,0,1-1.66,2.57,4.94,4.94,0,0,1-3.89,1.24,6.38,6.38,0,0,1-3.49-1.68,8.45,8.45,0,0,1-1.72-2.35c-.68-1.44-.81-2.4-.52-2.58s1,.5,2,1.54a7.05,7.05,0,0,0,4,2.51,3,3,0,0,0,2.1-.52,6.16,6.16,0,0,0,1.52-1.54C226.52,171.35,227,170.49,227.31,170.56Z"/><path class="cls-7" d="M250.83,182.59c.31-.1,1,.63,1.61,2.32a5.19,5.19,0,0,1-.06,3.37,5.59,5.59,0,0,1-3,3,7.16,7.16,0,0,1-4,.53,9.62,9.62,0,0,1-2.9-.91c-1.51-.75-2.26-1.45-2.14-1.77s1.18-.22,2.7,0,3.51.58,5.26-.24a3.91,3.91,0,0,0,1.87-1.6,4.28,4.28,0,0,0,.43-2.12C250.6,183.77,250.47,182.7,250.83,182.59Z"/><path class="cls-7" d="M246.61,204.43c.2-.35,2.07.61,5.31.95a30.8,30.8,0,0,0,5.72,0,30.4,30.4,0,0,0,6.84-1.21,10.37,10.37,0,0,0,5.32-3.53,12.45,12.45,0,0,0,2.06-5c.33-1.59.49-2.95.66-3.88s.33-1.47.51-1.47.35.52.49,1.48a19.35,19.35,0,0,1,.14,4.12,12.61,12.61,0,0,1-1.91,6.12,10.71,10.71,0,0,1-2.77,2.81,14.29,14.29,0,0,1-3.7,1.81,27,27,0,0,1-7.53,1.13,23.42,23.42,0,0,1-6.16-.62,12.76,12.76,0,0,1-3.88-1.6C246.88,205,246.53,204.57,246.61,204.43Z"/><path class="cls-7" d="M248.28,168.71c.18-.71,2.28-.78,4.49-1.78s3.74-2.4,4.38-2.05c.29.18.27.89-.27,1.8a7,7,0,0,1-7.12,3.07C248.73,169.51,248.21,169,248.28,168.71Z"/><circle cx="128.46" cy="297.03" r="16.53"/><circle cx="239.28" cy="285.86" r="16.53"/><circle class="cls-11" cx="133.97" cy="292.65" r="4.81"/><circle class="cls-11" cx="137.41" cy="299.56" r="1.26"/><circle class="cls-11" cx="244.7" cy="280.95" r="4.81"/><circle class="cls-11" cx="248.15" cy="287.85" r="1.26"/><path class="cls-12" d="M192.61,303c.08,1.18-.8,2.29-2.18,3.22a18.32,18.32,0,0,1-11.24,2.53c-1.64-.24-2.91-.87-3.35-2s.09-2.45,1.4-3.72a13.66,13.66,0,0,1,12.52-2.82C191.48,300.77,192.54,301.78,192.61,303Z"/><path class="cls-12" d="M122.75,264.21c0,1.2-4.09,2.12-8.68,3.94s-8.27,3.8-9.08,2.91c-.38-.44.1-1.59,1.41-3A18.12,18.12,0,0,1,119.72,263C121.61,263.1,122.73,263.63,122.75,264.21Z"/><path class="cls-12" d="M254.61,261c-.45.4-1.39.1-2.6-.49s-2.72-1.48-4.4-2.43-3.23-1.76-4.37-2.48-1.88-1.37-1.78-2,1.06-1,2.6-.94a12.68,12.68,0,0,1,5.63,1.67,12.5,12.5,0,0,1,4.36,3.93C254.88,259.55,255,260.58,254.61,261Z"/></g></g></svg>