<svg xmlns="http://www.w3.org/2000/svg" viewBox="0 0 218.12 230.19"><defs><style>.cls-1{fill:#fae490;stroke:#c6a759;}.cls-1,.cls-3,.cls-4,.cls-5{stroke-miterlimit:10;}.cls-2,.cls-8{fill:#fff;}.cls-2{opacity:0.21;}.cls-3{fill:#7fa3e2;stroke:#2e588e;}.cls-4{fill:#f7afa9;stroke:#814955;}.cls-5{fill:#f5cdd5;stroke:#7e5e67;stroke-width:2px;}.cls-6{fill:#020202;opacity:0.09;}.cls-7{fill:#824640;}</style></defs><g id="Layer_2" data-name="Layer 2"><g id="Layer_1-2" data-name="Layer 1"><path class="cls-1" d="M63.74,229.62,50.9,228c.77-4.67.66-10.48,1.33-18.46.5-5.85.1-11.41,0-24.62-.21-28.31-.47-30.09,1.07-38.8,1.17-6.57,3.77-21.24,15.26-30.51,18-14.53,44.37-4.85,46.56-4q.39,6,.8,12c-1.94-1.63-8.48-6.72-17.66-6.42-8.5.27-14.24,5-16.86,7.22C70.86,133.4,68.14,147.1,66.15,163.8A409,409,0,0,0,63.74,229.62Z"/><path class="cls-2" d="M53.39,228l2.48.31c.42-4.2.45-9.28,1-15.83.49-5.85.1-11.41,0-24.62-.21-28.31-.47-30.09,1.07-38.8,1.17-6.56,3.77-21.24,15.25-30.5,15.69-12.66,37.71-7,44.57-4.71l-.15-2.25c-2.18-.84-28.54-10.52-46.56,4C59.57,124.9,57,139.57,55.8,146.14c-1.54,8.71-1.28,10.49-1.07,38.8.1,13.21.49,18.77,0,24.62C54.06,217.54,54.17,223.35,53.39,228Z"/><path class="cls-3" d="M1.93,87.54c-2.94-4.28-.8-8.3,1.6-11.24A132.41,132.41,0,0,1,23.6,78.71,138.67,138.67,0,0,1,54.91,89.14c11.6,5,29.85,9.55,58.6,6.43V106.8c-4.67.1-11.63.18-20.07,0-15.48-.32-23.39-.52-31.31-2.4-11.47-2.74-12.81-6-24.88-10.44A105.56,105.56,0,0,0,1.93,87.54Z"/><path class="cls-2" d="M112.44,101.19c0-3.75,1.61-.81,1.61-4.55-28.75,3.12-47-1.38-58.6-6.43A138.67,138.67,0,0,0,24.14,79.78,132.56,132.56,0,0,0,4.07,77.37a11.8,11.8,0,0,0-3,6.51,19.21,19.21,0,0,1,1.41-2,131.15,131.15,0,0,1,20.07,2.41A138.67,138.67,0,0,1,53.84,94.76c11.6,5,29.85,9.55,58.6,6.43"/><path class="cls-4" d="M102.27,81.12A73.77,73.77,0,0,1,80.6,71.48C70.77,65,66.82,58.86,62.13,54.63,54.63,47.84,40.87,42,13.39,46.3a3.11,3.11,0,0,0-1.72,5.46,8.41,8.41,0,0,0,6.39,2.6,55.59,55.59,0,0,1,16,1.87,59,59,0,0,1,22.48,12c4.93,4,6.49,6.49,9.63,9.64,5.68,5.7,15.25,12.43,32.11,16Z"/><path class="cls-2" d="M103.25,82.19a73.5,73.5,0,0,1-21.67-9.64C71.75,66.07,67.8,59.93,63.12,55.7c-7.51-6.79-21.27-12.62-48.75-8.33a3.26,3.26,0,0,0-2.79,2.81,2.67,2.67,0,0,0,.07,1A3.4,3.4,0,0,1,13,50.58c27.48-4.29,41.24,1.54,48.75,8.33,4.68,4.23,8.63,10.37,18.46,16.85a73.5,73.5,0,0,0,21.67,9.64"/><path class="cls-5" d="M103.34,77.37c-2.28-1.55-16.08-11.24-17.66-28.1C83.93,30.49,98.76,17.85,103.34,14,119.91-.16,140.08.88,143.48,1.11c40.92,2.78,63,52.37,65,57,14.51,33.77,10.85,75.66-12,106.77-21.3,28.94-51.15,37.53-60.21,40.14-11.32,3.25-25.51,7.13-41.74,1.6-4.84-1.65-20.21-6.88-28.09-22.47-11-21.67,2.45-43.76,3.21-45,8.46-13.44,22.46-19.31,28.09-21.67a66.6,66.6,0,0,1,9.64-3.21c-1.3-1.15-10.13-9.19-9.64-21.68A27.09,27.09,0,0,1,103.34,77.37Z"/><path class="cls-6" d="M207.7,58.91c-2-4.63-24.1-54.22-65-57-3.4-.23-23.57-1.27-40.14,12.85C98,18.65,83.12,31.29,84.88,50.08c1.43,15.35,13,24.76,16.79,27.48a32.76,32.76,0,0,1-9-19.14c-1.56-16.68,11.62-27.9,15.68-31.36C123.06,14.53,141,15.45,144,15.66c36.33,2.46,56,46.49,57.73,50.59,12.87,30,9.63,67.17-10.69,94.79-18.91,25.69-45.41,33.32-53.45,35.63-10.06,2.89-22.65,6.33-37.06,1.42-4.3-1.46-18-6.11-24.94-20-9.72-19.24,2.18-38.85,2.85-39.91,7.52-11.94,19.94-17.14,24.94-19.24a60.31,60.31,0,0,1,8.55-2.85c-1.15-1-9-8.16-8.55-19.24a24.05,24.05,0,0,1,5-13.54,40.28,40.28,0,0,1-5.94-5,27,27,0,0,0-5.49,15.09c-.49,12.48,8.34,20.53,9.63,21.67a68.22,68.22,0,0,0-9.63,3.21c-5.63,2.36-19.63,8.23-28.1,21.67-.75,1.2-14.16,23.29-3.21,45,7.88,15.59,23.25,20.82,28.1,22.47,16.23,5.53,30.41,1.66,41.74-1.6,9.06-2.61,38.91-11.19,60.21-40.14C218.55,134.57,222.2,92.67,207.7,58.91Z"/><circle class="cls-7" cx="134.38" cy="95.23" r="8.43"/><circle class="cls-8" cx="130.23" cy="92.6" r="1.81"/><circle class="cls-8" cx="131.13" cy="97.29" r="0.91"/><circle class="cls-7" cx="182.94" cy="95.23" r="8.43"/><circle class="cls-8" cx="185.89" cy="90.79" r="1.81"/><circle class="cls-8" cx="188.64" cy="94.86" r="0.91"/><path class="cls-7" d="M133.66,79.69c-.22.3-.86.19-1.73.12a8.62,8.62,0,0,0-3.11.25,8.41,8.41,0,0,0-2.75,1.49c-.69.52-1.16,1-1.5.83s-.44-.87.05-1.93a5.75,5.75,0,0,1,7.93-2.35C133.55,78.72,133.86,79.43,133.66,79.69Z"/><path class="cls-7" d="M183.88,79.69c-.2-.26.11-1,1.11-1.59a5.75,5.75,0,0,1,7.93,2.35c.49,1.06.37,1.82.05,1.93s-.81-.31-1.5-.83a8.41,8.41,0,0,0-2.75-1.49,8.62,8.62,0,0,0-3.11-.25C184.74,79.88,184.1,80,183.88,79.69Z"/><path class="cls-7" d="M165.6,109.63a2.26,2.26,0,0,1-.56,1.68,4.84,4.84,0,0,1-3.58,1.75,2.22,2.22,0,0,1-1.67-.59,1.68,1.68,0,0,1-.2-1.83,4.24,4.24,0,0,1,4.69-2.3A1.7,1.7,0,0,1,165.6,109.63Z"/></g></g></svg>