<svg xmlns="http://www.w3.org/2000/svg" xmlns:xlink="http://www.w3.org/1999/xlink" viewBox="0 0 691.12 457.1"><defs><style>.cls-1,.cls-23{fill:none;}.cls-2{fill:#a5be8b;}.cls-3{fill:#e0e0e0;}.cls-4{fill:#f5f5f5;}.cls-5{fill:#ebebeb;}.cls-6{fill:#fafafa;}.cls-7,.cls-8{fill:#fff;}.cls-8{stroke:#263238;}.cls-23,.cls-8{stroke-miterlimit:10;}.cls-9{fill:#455a64;}.cls-10{opacity:0.3;}.cls-11{fill:#263238;}.cls-12{opacity:0.4;}.cls-13{fill:#ff725e;}.cls-14{fill:#af9875;}.cls-15{fill:#47523e;}.cls-16{fill:#739768;}.cls-17{opacity:0.2;}.cls-18{fill:#6f4439;}.cls-19{fill:#45323a;}.cls-20{opacity:0.38;}.cls-21{fill:#cebca5;}.cls-22{clip-path:url(#clip-path);}.cls-23{stroke:#edf0d5;stroke-width:2px;}.cls-24{fill:#e7d0bc;}.cls-25{fill:#ff9a6c;}.cls-26{fill:#cd8ba8;opacity:0.35;}.cls-27{fill-rule:evenodd;}.cls-28{clip-path:url(#clip-path-2);}.cls-29{clip-path:url(#clip-path-3);}.cls-30{opacity:0.13;}</style><clipPath id="clip-path"><path class="cls-1" d="M436.44,334.67l27.18,26.46,38.23-21.7-38.65-66s-43.83-28-42.76-24.12c10.7,38.87,1.46,80.58,1.46,80.58Z"/></clipPath><clipPath id="clip-path-2"><path class="cls-1" d="M282.76,213.89c-1.31-1.13-9.25.05,1.81-2s49.33-2.44,49.33-2.44.89,53.42,33.37,57.26c12.08,1.43,24.78-34.26,24.78-34.26S416.39,245,422.94,250.1c0,0,1.35,63,0,75.57s-7.68,38.42-7.68,38.42h-156l-1.7-41.64S318.4,244.72,282.76,213.89Z"/></clipPath><clipPath id="clip-path-3"><path class="cls-1" d="M280.42,214.76c-10-2.76-24.65,2.76-38.22,13.11s-48.67,69.22-48.67,70.6l60.75,28.92a328.62,328.62,0,0,0,25.26-39.6c6.37-11.79,11.79-27.11,14.49-45.31.92-6.24-1.89-16.19-5.61-21.27C287.41,219.83,281.83,213.8,280.42,214.76Z"/></clipPath></defs><g id="Layer_2" data-name="Layer 2"><g id="Background_Complete" data-name="Background Complete"><path class="cls-2" d="M605.28,344.1c16.86-8.4,31.11-23.42,35.5-41.85,3.61-15.18.43-31.27,3.25-46.61,2.87-15.61,11.8-29.7,13.65-45.46,3.26-27.79-18.19-54.88-44.93-62.47-11.38-3.23-23.44-3.51-34.73-7s-22.44-11.55-24.55-23.26c-2.57-14.26,8.94-29,4.22-42.66-2-5.85-6.73-10.35-11.72-14-20.52-14.82-46.78-18-71.36-23.76C414.18,22.83,354.31-10,293.62,3c-16.18,3.46-31.52,10.09-47.54,14.19-23.73,6.08-49.8,7-69.77,21.26A62.77,62.77,0,0,0,150.57,88a62.92,62.92,0,0,0,24.67,50.16c2.9,2.17,6.29,4.55,6.72,8.17s-2.33,6.78-5,9.27c-21.5,20.15-50.37,35.19-60.56,62.94-9.29,25.31,2.19,56.63,25.59,69.8-13,19.41-39.79,48.12-46.44,70.59-3.42,11.55,388.29,3.66,414.8,4.79C540.76,365,577.45,358,605.28,344.1Z"/><polygon class="cls-3" points="326.74 71.29 324.07 46.18 311.26 49.07 300.22 29.57 307.1 55.94 320.09 52.96 326.74 71.29"/><polygon class="cls-3" points="309.69 78.49 297.79 66.24 292.18 73.12 278.17 67.35 292.83 78.51 298.5 71.5 309.69 78.49"/><polygon class="cls-4" points="354.13 58.83 360.69 43.06 352.15 40.62 351.93 25.47 347.46 43.35 356.13 45.79 354.13 58.83"/><polygon class="cls-3" points="455.04 91.17 465.85 71.48 475.37 78.26 491.12 66.05 476.42 85.32 466.79 78.41 455.04 91.17"/><polygon class="cls-3" points="474.89 102.39 486.07 97.62 487.86 103.69 498.65 103.75 485.95 107.05 484.15 100.88 474.89 102.39"/><polygon class="cls-5" points="272.85 441.87 292.71 412.32 383.12 412.02 406.62 441.87 272.85 441.87"/><polygon class="cls-6" points="237.71 432.75 257.57 403.2 361.66 402.86 371.48 432.75 237.71 432.75"/><polygon class="cls-3" points="237.71 432.75 237.71 436.34 371.48 435.85 371.48 432.75 237.71 432.75"/><path class="cls-3" d="M357.19,422.8c0,.14-22.62.26-50.51.26s-50.52-.12-50.52-.26,22.61-.26,50.52-.26S357.19,422.66,357.19,422.8Z"/><polygon class="cls-3" points="395.02 414.83 422.84 456.37 527.29 457.1 526.91 452.94 492.55 412.63 430.84 403.92 395.02 414.83"/><polygon class="cls-6" points="395.21 410.58 424.82 452.94 526.91 452.94 490.06 409.19 428.36 400.49 395.21 410.58"/><path class="cls-3" d="M510.36,444c0,.14-18.5.26-41.33.26s-41.33-.12-41.33-.26,18.5-.26,41.33-.26S510.36,443.85,510.36,444Z"/><path class="cls-3" d="M507,439.66c0,.14-18.5.26-41.33.26s-41.33-.12-41.33-.26,18.5-.26,41.33-.26S507,439.51,507,439.66Z"/><path class="cls-3" d="M503.67,435.32c0,.15-18.51.26-41.33.26s-41.33-.11-41.33-.26,18.5-.26,41.33-.26S503.67,435.18,503.67,435.32Z"/><path class="cls-3" d="M500.23,431c0,.14-18.5.26-41.33.26s-41.33-.12-41.33-.26,18.5-.26,41.33-.26S500.23,430.85,500.23,431Z"/><path class="cls-3" d="M495.73,426.66c0,.14-18.5.26-41.33.26s-41.33-.12-41.33-.26,18.5-.26,41.33-.26S495.73,426.51,495.73,426.66Z"/><path class="cls-3" d="M491.23,422.32c0,.15-18.5.26-41.33.26s-41.33-.11-41.33-.26,18.5-.26,41.33-.26S491.23,422.18,491.23,422.32Z"/><polygon class="cls-4" points="529.53 252.62 529.3 235.61 540.33 235.61 540.71 252.62 529.53 252.62"/><path class="cls-3" d="M539.68,238.64a93.88,93.88,0,0,1-10.25,0,87.63,87.63,0,0,1,10.25,0Z"/><path class="cls-3" d="M539.68,241.26a87.63,87.63,0,0,1-10.25,0,93.88,93.88,0,0,1,10.25,0Z"/><path class="cls-3" d="M539.68,243.89a93.88,93.88,0,0,1-10.25,0,87.63,87.63,0,0,1,10.25,0Z"/><path class="cls-3" d="M539.68,246.51a87.63,87.63,0,0,1-10.25,0,93.88,93.88,0,0,1,10.25,0Z"/><path class="cls-3" d="M539.68,249.14a93.88,93.88,0,0,1-10.25,0,87.63,87.63,0,0,1,10.25,0Z"/><path class="cls-5" d="M528.35,235.05H650.56c1.51,5.63,1.3,11.83,0,18.38H528.87v-1.25h7.44a3.27,3.27,0,0,0,3.51-3V239.06a3.27,3.27,0,0,0-3.51-2.95h-8Z"/><rect class="cls-7" x="553.44" y="241.41" width="91.74" height="4.96" rx="1.95"/><path class="cls-4" d="M639.2,211.45v22.16H608.76V211.45Z"/><path class="cls-3" d="M540.89,222.73c0,.2,0,.39,0,.59.25,6.7,4.29,11.89,9.05,11.89h90.66v-1.6H619.1c-4.35,0-7.87-5-7.87-11.08h0c0-6.12,3.52-11.08,7.87-11.08h21.52v-2.36l-90.68.43C544.82,209.55,540.7,215.53,540.89,222.73Z"/><path class="cls-3" d="M639.2,222.82c0,.13-6.26.23-14,.23s-14-.1-14-.23,6.26-.22,14-.22S639.2,222.7,639.2,222.82Z"/><path class="cls-3" d="M638.76,227.82c0,.12-5.92.22-13.23.22s-13.22-.1-13.22-.22,5.92-.23,13.22-.23S638.76,227.69,638.76,227.82Z"/><path class="cls-3" d="M639.2,232.38c0,.13-5.33.23-11.89.23s-11.89-.1-11.89-.23,5.32-.22,11.89-.22S639.2,232.26,639.2,232.38Z"/><path class="cls-3" d="M639.2,218.34c0,.12-6.13.22-13.69.22s-13.69-.1-13.69-.22,6.12-.23,13.69-.23S639.2,218.21,639.2,218.34Z"/><path class="cls-3" d="M638.76,213.85c0,.13-5.46.23-12.19.23s-12.19-.1-12.19-.23,5.46-.23,12.19-.23S638.76,213.72,638.76,213.85Z"/><rect class="cls-7" x="550.1" y="220.58" width="51.6" height="4.03" rx="1.01"/></g><g id="Table"><path class="cls-8" d="M690.62,363.94c0,.14-151.65.26-338.67.26s-338.7-.12-338.7-.26,151.61-.26,338.7-.26S690.62,363.79,690.62,363.94Z"/></g><g id="Books_2" data-name="Books 2"><path class="cls-9" d="M559,332.69h-44.3a12.3,12.3,0,0,1-12.3-12.3h0a12.31,12.31,0,0,1,12.3-12.31H559Z"/><path class="cls-9" d="M645.27,312.17H546.78v-4.09h98.49a2.05,2.05,0,0,1,2,2.05h0A2,2,0,0,1,645.27,312.17Z"/><path class="cls-9" d="M645.27,332.69H546.78v-4.08h98.49a2,2,0,0,1,2,2h0A2,2,0,0,1,645.27,332.69Z"/><path class="cls-4" d="M644.31,328.61H558a8.22,8.22,0,0,1-8.22-8.22h0a8.22,8.22,0,0,1,8.22-8.22h86.31A20.37,20.37,0,0,0,644.31,328.61Z"/><g class="cls-10"><path d="M549.78,332.69h-35a12.34,12.34,0,0,1-12.34-12.34h0a12.27,12.27,0,0,1,12.27-12.27h36C541.81,313.48,542.47,326.41,549.78,332.69Z"/></g><path class="cls-11" d="M633.82,321.15c0,.08-17.71.15-39.56.15s-39.57-.07-39.57-.15,17.72-.15,39.57-.15S633.82,321.07,633.82,321.15Z"/><path class="cls-11" d="M642,324.8c0,.09-17.72.15-39.57.15s-39.56-.06-39.56-.15,17.71-.14,39.56-.14S642,324.72,642,324.8Z"/><path class="cls-11" d="M639.57,316c0,.08-17.72.15-39.57.15s-39.56-.07-39.56-.15,17.71-.15,39.56-.15S639.57,315.89,639.57,316Z"/><path class="cls-11" d="M545.45,331c0,.08-8.29.15-18.52.15s-18.52-.07-18.52-.15,8.29-.15,18.52-.15S545.45,330.89,545.45,331Z"/><path class="cls-11" d="M545.45,310.13c0,.08-8.29.14-18.52.14s-18.52-.06-18.52-.14,8.29-.15,18.52-.15S545.45,310,545.45,310.13Z"/><path class="cls-2" d="M556.39,363.94H501.45a15.85,15.85,0,0,1-15.85-15.85h0a15.85,15.85,0,0,1,15.85-15.85h54.94a2.12,2.12,0,0,1,2.11,2.11v27.48A2.12,2.12,0,0,1,556.39,363.94Z"/><path class="cls-2" d="M669.54,337.5H542.71v-5.26H669.54a2.63,2.63,0,0,1,2.63,2.63h0A2.63,2.63,0,0,1,669.54,337.5Z"/><path class="cls-2" d="M669.54,363.94H542.71v-5.26H669.54a2.63,2.63,0,0,1,2.63,2.63h0A2.63,2.63,0,0,1,669.54,363.94Z"/><path class="cls-4" d="M668.31,358.68H557.16a10.59,10.59,0,0,1-10.59-10.59h0a10.59,10.59,0,0,1,10.59-10.59H668.31A26.21,26.21,0,0,0,668.31,358.68Z"/><g class="cls-12"><path d="M546.57,363.94H501.28a15.68,15.68,0,0,1-15.68-15.68h0a16,16,0,0,1,16-16h46.16C536.3,339.2,537.16,355.84,546.57,363.94Z"/></g><path class="cls-11" d="M654.8,349.07c0,.08-22.81.15-50.95.15s-51-.07-51-.15,22.81-.14,51-.14S654.8,349,654.8,349.07Z"/><path class="cls-11" d="M665.29,353.78c0,.08-22.81.15-50.95.15s-51-.07-51-.15,22.81-.15,51-.15S665.29,353.7,665.29,353.78Z"/><path class="cls-11" d="M662.2,344.71c0,.08-22.82.14-51,.14s-51-.06-51-.14,22.81-.15,51-.15S662.2,344.63,662.2,344.71Z"/><path class="cls-11" d="M541,361.72c0,.08-10.68.14-23.85.14s-23.85-.06-23.85-.14,10.67-.15,23.85-.15S541,361.63,541,361.72Z"/><path class="cls-11" d="M541,334.87c0,.09-10.68.15-23.85.15s-23.85-.06-23.85-.15,10.67-.14,23.85-.14S541,334.79,541,334.87Z"/><polygon class="cls-13" points="586.37 316.08 586.37 325.93 589.79 323.74 593.6 325.93 593.6 316.08 586.37 316.08"/><polygon class="cls-4" points="515.48 306.94 515.21 280.42 528.14 280.42 528.59 306.94 515.48 306.94"/><path class="cls-3" d="M527.38,285.14a82.2,82.2,0,0,1-12,0,78.64,78.64,0,0,1,12,0Z"/><path class="cls-3" d="M527.38,289.23a78.64,78.64,0,0,1-12,0,78.64,78.64,0,0,1,12,0Z"/><path class="cls-3" d="M527.38,293.32a78.64,78.64,0,0,1-12,0,82.2,82.2,0,0,1,12,0Z"/><path class="cls-3" d="M527.38,297.42a82.2,82.2,0,0,1-12,0,78.64,78.64,0,0,1,12,0Z"/><path class="cls-3" d="M527.38,301.51a78.64,78.64,0,0,1-12,0,78.64,78.64,0,0,1,12,0Z"/><path class="cls-14" d="M514.09,279.54H657.42c1.77,8.78,1.52,18.45,0,28.67H514.7v-1.95h8.72a4.38,4.38,0,0,0,4.12-4.6V285.8a4.38,4.38,0,0,0-4.12-4.6h-9.33Z"/><path class="cls-11" d="M652.47,308.76c-.11,0-.21-6.59-.21-14.71s.1-14.71.21-14.71.2,6.59.2,14.71S652.58,308.76,652.47,308.76Z"/><path class="cls-11" d="M535.18,308.76c-.11,0-.2-6.59-.2-14.71s.09-14.71.2-14.71.2,6.59.2,14.71S535.29,308.76,535.18,308.76Z"/><path class="cls-11" d="M655,308.76c-.11,0-.2-6.59-.2-14.71s.09-14.71.2-14.71.21,6.59.21,14.71S655.1,308.76,655,308.76Z"/><path class="cls-11" d="M532.83,308.76c-.11,0-.2-6.59-.2-14.71s.09-14.71.2-14.71.2,6.59.2,14.71S532.94,308.76,532.83,308.76Z"/><rect class="cls-7" x="556.59" y="289.46" width="81.32" height="7.73" rx="1.95"/><path class="cls-5" d="M641.51,255.41v22.16H603.1V255.41Z"/><path class="cls-9" d="M517.46,266.7c0,.19,0,.39,0,.58.31,6.71,5.41,11.89,11.43,11.89H643.3v-1.6H616.14c-5.48,0-9.92-5-9.92-11.08h0c0-6.12,4.44-11.08,9.92-11.08H643.3v-2.35l-114.43.43C522.41,253.51,517.22,259.49,517.46,266.7Z"/><path class="cls-3" d="M641.51,266.79c0,.12-7.9.22-17.64.22s-17.64-.1-17.64-.22,7.9-.23,17.64-.23S641.51,266.66,641.51,266.79Z"/><path class="cls-3" d="M641,271.78c0,.13-7.47.23-16.69.23s-16.69-.1-16.69-.23,7.48-.23,16.69-.23S641,271.65,641,271.78Z"/><path class="cls-3" d="M641.51,276.35c0,.12-6.72.22-15,.22s-15-.1-15-.22,6.72-.23,15-.23S641.51,276.22,641.51,276.35Z"/><path class="cls-3" d="M641.51,262.3c0,.13-7.74.23-17.28.23s-17.27-.1-17.27-.23,7.73-.23,17.27-.23S641.51,262.17,641.51,262.3Z"/><path class="cls-3" d="M641,257.81c0,.13-6.88.23-15.37.23s-15.38-.1-15.38-.23,6.88-.22,15.38-.22S641,257.69,641,257.81Z"/><rect class="cls-7" x="529.08" y="264.55" width="65.11" height="4.03" rx="1.01"/><path class="cls-7" d="M553.44,279.54c.54.25,72.81,8.64,72.81,8.64l14.4-9Z"/><path class="cls-11" d="M553.44,279.54l25.33-.21,61.88-.42h.92l-.78.48-1.31.82-13.1,8.19-.07.05h-.09l-51.93-6.17L559,280.35l-4.12-.56a10.29,10.29,0,0,1-1.08-.19l-.34-.06,72.84,8.39-.17,0,13.09-8.19,1.31-.82.14.48-61.57.1Z"/><polygon class="cls-7" points="570.13 332.24 602.4 348.93 631.22 331.74 570.13 332.24"/><path class="cls-11" d="M570.13,332.24l17.59-.24c11-.16,26.35-.38,43.5-.52h1l-.83.49-3.77,2.25-25.06,14.92-.11.06-.12-.06-23.35-12.25-8.81-4.64,32.38,16.48h-.23l25-15,3.78-2.25.13.49c-17,.14-32.18.17-43.2.19Z"/><path class="cls-9" d="M73.44,326.72H29.14a12.31,12.31,0,0,1-12.3-12.31h0a12.3,12.3,0,0,1,12.3-12.3h44.3Z"/><path class="cls-9" d="M159.66,306.19H61.18v-4.08h98.48a2,2,0,0,1,2.05,2h0A2,2,0,0,1,159.66,306.19Z"/><path class="cls-9" d="M159.66,326.72H61.18v-4.09h98.48a2.05,2.05,0,0,1,2.05,2h0A2.05,2.05,0,0,1,159.66,326.72Z"/><path class="cls-4" d="M158.71,322.63H72.4a8.22,8.22,0,0,1-8.22-8.22h0a8.22,8.22,0,0,1,8.22-8.22h86.31A20.29,20.29,0,0,0,158.71,322.63Z"/><g class="cls-10"><path d="M64.18,326.72h-35a12.34,12.34,0,0,1-12.34-12.35h0a12.26,12.26,0,0,1,12.27-12.26h36C56.21,307.5,56.87,320.43,64.18,326.72Z"/></g><path class="cls-11" d="M148.22,315.17c0,.09-17.71.15-39.56.15s-39.57-.06-39.57-.15S86.8,315,108.66,315,148.22,315.09,148.22,315.17Z"/><path class="cls-11" d="M156.37,318.83c0,.08-17.72.14-39.57.14s-39.57-.06-39.57-.14,17.72-.15,39.57-.15S156.37,318.75,156.37,318.83Z"/><path class="cls-11" d="M154,310c0,.08-17.71.15-39.56.15s-39.57-.07-39.57-.15,17.72-.14,39.57-.14S154,309.91,154,310Z"/><path class="cls-11" d="M59.85,325c0,.08-8.3.15-18.52.15s-18.52-.07-18.52-.15,8.29-.15,18.52-.15S59.85,324.91,59.85,325Z"/><path class="cls-11" d="M59.85,304.15c0,.08-8.3.15-18.52.15s-18.52-.07-18.52-.15S31.1,304,41.33,304,59.85,304.07,59.85,304.15Z"/><path class="cls-15" d="M70.79,358H15.85A15.85,15.85,0,0,1,0,342.11H0a15.85,15.85,0,0,1,15.85-15.84H70.79a2.11,2.11,0,0,1,2.11,2.11v27.47A2.11,2.11,0,0,1,70.79,358Z"/><path class="cls-15" d="M183.94,331.53H57.11v-5.26H183.94a2.63,2.63,0,0,1,2.63,2.63h0A2.63,2.63,0,0,1,183.94,331.53Z"/><path class="cls-15" d="M183.94,358H57.11V352.7H183.94a2.63,2.63,0,0,1,2.63,2.63h0A2.63,2.63,0,0,1,183.94,358Z"/><path class="cls-4" d="M182.71,352.7H71.55A10.59,10.59,0,0,1,61,342.11h0a10.58,10.58,0,0,1,10.58-10.58H182.71A26.18,26.18,0,0,0,182.71,352.7Z"/><g class="cls-12"><path d="M61,358H15.68A15.68,15.68,0,0,1,0,342.28H0a16,16,0,0,1,16-16H62.18C50.7,333.22,51.56,349.87,61,358Z"/></g><path class="cls-11" d="M169.2,343.1c0,.08-22.81.14-50.95.14s-51-.06-51-.14,22.81-.15,51-.15S169.2,343,169.2,343.1Z"/><path class="cls-11" d="M179.69,347.8c0,.08-22.82.15-50.95.15s-51-.07-51-.15,22.81-.15,51-.15S179.69,347.72,179.69,347.8Z"/><path class="cls-11" d="M176.6,338.73c0,.08-22.82.15-50.95.15s-51-.07-51-.15,22.81-.15,51-.15S176.6,338.65,176.6,338.73Z"/><path class="cls-11" d="M55.39,355.74c0,.08-10.68.15-23.85.15s-23.85-.07-23.85-.15,10.67-.15,23.85-.15S55.39,355.66,55.39,355.74Z"/><path class="cls-11" d="M55.39,328.9c0,.08-10.68.14-23.85.14S7.69,329,7.69,328.9s10.67-.15,23.85-.15S55.39,328.82,55.39,328.9Z"/><polygon class="cls-13" points="100.77 310.1 100.77 319.95 104.19 317.76 108 319.95 108 310.1 100.77 310.1"/><path class="cls-16" d="M72.91,305.07H23.16c-7.93,0-14.35-6.7-14.35-15h0c0-8.27,6.42-15,14.35-15H72.91a2,2,0,0,1,1.91,2v25.95A2,2,0,0,1,72.91,305.07Z"/><path class="cls-16" d="M175.38,280.11H60.52v-5H175.38a2.43,2.43,0,0,1,2.38,2.48h0A2.44,2.44,0,0,1,175.38,280.11Z"/><path class="cls-16" d="M175.38,305.07H60.52v-5H175.38a2.44,2.44,0,0,1,2.38,2.49h0A2.43,2.43,0,0,1,175.38,305.07Z"/><path class="cls-4" d="M174.26,300.1H73.61a9.79,9.79,0,0,1-9.59-10h0a9.8,9.8,0,0,1,9.59-10H174.26A25.68,25.68,0,0,0,174.26,300.1Z"/><g class="cls-12"><path d="M64,305.07H23c-7.84,0-14.2-6.63-14.2-14.8h0c0-8.36,6.49-15.13,14.5-15.13h41.8C54.72,281.71,55.5,297.43,64,305.07Z"/></g><path class="cls-11" d="M162,291c0,.07-20.66.13-46.14.13s-46.14-.06-46.14-.13,20.65-.14,46.14-.14S162,291,162,291Z"/><path class="cls-11" d="M171.53,295.48c0,.08-20.66.14-46.14.14s-46.14-.06-46.14-.14,20.65-.14,46.14-.14S171.53,295.4,171.53,295.48Z"/><path class="cls-11" d="M168.73,286.91c0,.08-20.66.14-46.14.14s-46.14-.06-46.14-.14,20.65-.14,46.14-.14S168.73,286.83,168.73,286.91Z"/><path class="cls-11" d="M59,303c0,.07-9.67.14-21.6.14s-21.6-.07-21.6-.14,9.67-.14,21.6-.14S59,302.9,59,303Z"/><path class="cls-11" d="M59,277.62c0,.08-9.67.14-21.6.14s-21.6-.06-21.6-.14,9.67-.13,21.6-.13S59,277.55,59,277.62Z"/><rect class="cls-7" x="8.81" y="268.13" width="177.76" height="7.01"/><path class="cls-11" d="M186.59,275.17H8.78v-7.06H186.59ZM8.83,275.12H186.54v-7H8.83Z"/><path class="cls-3" d="M86.91,268.15c1.17.7,40.61,19.39,40.61,19.39l39.34-20.11Z"/><path class="cls-11" d="M86.91,268.15l23.1-.31,56.85-.67H168l-1,.51-4.11,2.09-35.24,18-.11.05-.1,0L98,273.68l-8.24-4-2.16-1.09-.56-.31-.17-.1,40.71,19.18h-.2l35.22-18,4.1-2.1.12.49-56.55.35Z"/><rect class="cls-3" x="8.81" y="268.13" width="55.21" height="7.01"/><path class="cls-11" d="M64.05,275.17H8.78v-7.06H64.05Zm-55.22-.05H64v-7H8.83Z"/></g><g id="Book_1" data-name="Book 1"><path class="cls-9" d="M501.07,418.26l-118.31-.55s.79,2.13-4.12,2.13l-39.11-.25s-2.89.25-2.94-1.88c0,0-91.72,1.44-114.37,2-1.7.05-4.7-.91-3.28-2.93l7.9-8.85L357.7,396.07l92.82,9.12,31.84-10.75h1.05a2.78,2.78,0,0,1,2.2,1.05L502,416.75A1,1,0,0,1,501.07,418.26Z"/><g class="cls-17"><polygon points="451.05 415.74 240.29 417.26 289.86 402.91 351.65 404.53 413.47 402.23 451.05 415.74"/></g><path class="cls-6" d="M358.87,411.85,357.7,387.6s-.24-13.34,16.94-17.79,38.6,1.22,58.6,2.23,19.77-.41,19.77-.41l16.23,23.44-63.77,8.69s-37,2-37.65,2.23S358.87,411.85,358.87,411.85Z"/><path class="cls-6" d="M359.08,412.71l-1.38-22.79s.23-13.34-16.95-17.78-38.59,1.21-58.59,2.22c-14,.71-18.34.59-19.68.45a1.08,1.08,0,0,0-1,.42L246.15,397.4l63.78,8.69s36.94,2,37.65,2.22S359.08,412.71,359.08,412.71Z"/><path class="cls-3" d="M497,416.49l-27.77-21.42s-57.51-9.09-77-5.86-30.64,9.5-33.33,22.84l18.74,4.44a61.31,61.31,0,0,1,24.94-5.86c14.12-.2,49.42,5.86,49.42,5.86Z"/><path class="cls-3" d="M339,416.49l19.77-4.64s-1.41-21.2-33.53-24.73c0,0-9.07-2.76-41.31,2.9s-35.53,5.46-35.53,5.46l-26.83,22.23s16,1.21,29.18-1.22,36.24-10.71,61.19-8.28S339,416.49,339,416.49Z"/><polygon class="cls-3" points="469.25 395.07 453.53 372.39 481.41 393.19 499.02 416.49 497.01 416.49 469.25 395.07"/><path class="cls-3" d="M248.5,395.48l12.81-20.13s-25.51,20.75-25.74,21.33-13.89,21-13.89,21Z"/><polyline class="cls-11" points="378.64 416.49 339.11 416.49 358.88 411.85 359.91 412.05"/><path class="cls-11" d="M358.87,411.85c.14,0,0-5.3-.29-11.82s-.65-11.81-.78-11.8,0,5.29.3,11.82S358.74,411.85,358.87,411.85Z"/><path class="cls-11" d="M441.54,391.33a3,3,0,0,0,.54.11l1.57.25,5.83.86,19.73,2.74-.11,0,3.79,2.73,18.42,13.16,5.61,3.95,1.54,1.06a2.67,2.67,0,0,0,.56.34,4.77,4.77,0,0,0-.5-.41L497,415l-5.52-4.06-18.33-13.27-3.79-2.73-.05,0h-.06l-19.75-2.6-5.86-.72-1.58-.18A2.53,2.53,0,0,0,441.54,391.33Z"/><path class="cls-11" d="M361.47,399.12s.07-.05.18-.17l.48-.54c.42-.47,1.05-1.16,1.93-2a34.48,34.48,0,0,1,8.52-5.78,51.51,51.51,0,0,1,14.86-4.45A130.64,130.64,0,0,1,406.6,385a235.64,235.64,0,0,1,34.82,2.47c4.42.64,8,1.29,10.44,1.74l2.82.54.74.13a.79.79,0,0,0,.25,0,1,1,0,0,0-.24-.07l-.73-.18c-.64-.14-1.58-.36-2.81-.62-2.44-.51-6-1.19-10.41-1.88a223.76,223.76,0,0,0-34.88-2.6,127.66,127.66,0,0,0-19.24,1.23,50.64,50.64,0,0,0-14.94,4.58,33.26,33.26,0,0,0-8.49,5.93,26.32,26.32,0,0,0-1.88,2.05l-.44.57A.94.94,0,0,0,361.47,399.12Z"/><path class="cls-11" d="M361.47,396.16s.06-.05.17-.16l.44-.5c.19-.22.44-.49.74-.79s.64-.67,1.05-1.06a34,34,0,0,1,7.78-5.49,48.4,48.4,0,0,1,13.62-4.55A106.68,106.68,0,0,1,403,382.09a236.15,236.15,0,0,1,32.33,1.59c4.11.48,7.43,1,9.72,1.33l2.63.41.69.1.24,0a.79.79,0,0,0-.23-.06l-.68-.15c-.6-.11-1.48-.29-2.62-.49-2.28-.41-5.59-.95-9.71-1.47A221.8,221.8,0,0,0,403,381.64a104.51,104.51,0,0,0-17.8,1.57,47.86,47.86,0,0,0-13.69,4.67,32.94,32.94,0,0,0-7.76,5.65c-.4.4-.74.76-1,1.09a9.7,9.7,0,0,0-.7.83l-.41.52A.89.89,0,0,0,361.47,396.16Z"/><path class="cls-11" d="M361.47,393.2s.06-.05.16-.16l.45-.49c.18-.22.43-.49.73-.79s.63-.66,1-1a34.08,34.08,0,0,1,7.71-5.47A48.13,48.13,0,0,1,385,380.7a104.25,104.25,0,0,1,17.54-1.57,236.82,236.82,0,0,1,32,1.5c4.08.47,7.37.94,9.64,1.29l2.61.39.68.1.24,0-.23-.06-.67-.14c-.6-.12-1.47-.29-2.6-.48-2.26-.4-5.55-.92-9.63-1.43a222.47,222.47,0,0,0-32.08-1.63,102.2,102.2,0,0,0-17.62,1.61A47.55,47.55,0,0,0,371.38,385a32.55,32.55,0,0,0-7.67,5.62c-.4.39-.73.75-1,1.07s-.52.59-.7.82l-.4.53A1.1,1.1,0,0,0,361.47,393.2Z"/><path class="cls-11" d="M361.47,390.24s.06,0,.16-.15l.43-.49c.37-.43.95-1,1.72-1.8a39,39,0,0,1,7.35-5.59,40.3,40.3,0,0,1,12.95-5c5.18-1.08,11.05-1.13,17.18-1.06,12.28.07,23.39.56,31.39,1.35,4,.38,7.22.78,9.45,1.09l2.56.36.67.08.23,0-.22-.06-.66-.13c-.59-.1-1.44-.27-2.55-.44-2.22-.37-5.45-.81-9.45-1.23-8-.87-19.13-1.41-31.42-1.49-6.13-.07-12,0-17.28,1.11a40.19,40.19,0,0,0-13,5.09,37.12,37.12,0,0,0-7.3,5.74,23.25,23.25,0,0,0-1.66,1.87l-.4.51A1.37,1.37,0,0,0,361.47,390.24Z"/><path class="cls-11" d="M361.47,387.28s.06,0,.16-.15l.42-.49c.37-.43.92-1.05,1.66-1.83a37.18,37.18,0,0,1,7-5.85,30.12,30.12,0,0,1,5.71-2.87,39.26,39.26,0,0,1,7.17-1.89,89.38,89.38,0,0,1,17.07-1c12.18.34,23.17,1.44,31.14,2,4,.3,7.21.52,9.44.64l2.57.12.67,0h.23l-.23,0-.66-.06-2.57-.21-9.42-.78c-8-.65-18.94-1.8-31.15-2.14a87.19,87.19,0,0,0-17.17,1,38.63,38.63,0,0,0-7.24,1.95,30.29,30.29,0,0,0-5.75,2.95,35.14,35.14,0,0,0-7,6c-.72.8-1.25,1.44-1.59,1.89l-.39.51Q361.46,387.28,361.47,387.28Z"/><path class="cls-11" d="M355.76,398.31a.94.94,0,0,0-.14-.2l-.46-.56a23.56,23.56,0,0,0-1.92-2,33.63,33.63,0,0,0-8.6-5.79,51.14,51.14,0,0,0-15-4.31,125.92,125.92,0,0,0-19.25-.9,221.9,221.9,0,0,0-34.83,3.2c-4.4.76-7.94,1.51-10.38,2.06-1.21.27-2.15.51-2.79.66l-.73.19a.75.75,0,0,0-.24.08l.26,0,.73-.14,2.81-.59c2.45-.49,6-1.2,10.4-1.92A235.34,235.34,0,0,1,310.36,385a130.3,130.3,0,0,1,19.18.86A51.5,51.5,0,0,1,344.49,390a34.62,34.62,0,0,1,8.62,5.63c.9.82,1.55,1.49,2,2l.49.53C355.69,398.26,355.75,398.32,355.76,398.31Z"/><path class="cls-11" d="M355.7,395.35a.75.75,0,0,0-.13-.18l-.42-.52a10.53,10.53,0,0,0-.72-.82c-.29-.32-.63-.68-1-1.07a32.57,32.57,0,0,0-7.87-5.51,48,48,0,0,0-13.78-4.44,104.17,104.17,0,0,0-17.82-1.26,220.94,220.94,0,0,0-32.35,2.28c-4.1.6-7.41,1.19-9.68,1.64-1.13.21-2,.41-2.61.54l-.67.15-.23.07.24,0,.68-.11,2.63-.45c2.28-.4,5.59-.95,9.69-1.5a236.49,236.49,0,0,1,32.3-2.15,106.34,106.34,0,0,1,17.74,1.22,48.69,48.69,0,0,1,13.7,4.31,34,34,0,0,1,7.89,5.36c.42.38.78.73,1.08,1s.55.56.75.78l.45.49C355.64,395.3,355.69,395.36,355.7,395.35Z"/><path class="cls-11" d="M355.64,392.39s0-.06-.13-.18l-.41-.52a10.62,10.62,0,0,0-.72-.81c-.28-.31-.62-.67-1-1.05a32.44,32.44,0,0,0-7.78-5.49,47.93,47.93,0,0,0-13.63-4.45,102.07,102.07,0,0,0-17.65-1.3,220.16,220.16,0,0,0-32.05,2.18c-4.07.58-7.34,1.15-9.6,1.59-1.12.21-2,.4-2.58.53l-.67.15a.67.67,0,0,0-.23.06l.24,0,.67-.11,2.61-.44c2.26-.39,5.54-.91,9.61-1.45a237.44,237.44,0,0,1,32-2.05,105.14,105.14,0,0,1,17.57,1.26,48.31,48.31,0,0,1,13.55,4.33,33.57,33.57,0,0,1,7.81,5.33c.41.37.76.71,1.06,1s.55.56.74.78l.46.49Z"/><path class="cls-11" d="M355.58,387.28a14.87,14.87,0,0,0-2.27-2.42,27.57,27.57,0,0,0-7.95-4.69c-1.83-.75-3.88-1.44-6.11-2.1a57.06,57.06,0,0,0-7.23-1.78c-5.2-.91-11-.83-17.07-.66-12.13.36-23,1.76-30.9,2.63l-9.34,1.05-2.54.28-.65.09a.89.89,0,0,0-.23,0h.23l.66,0,2.55-.2c2.21-.19,5.41-.5,9.35-.91,7.89-.79,18.78-2.13,30.88-2.49,6.05-.18,11.84-.27,17,.61a57.67,57.67,0,0,1,7.18,1.73c2.23.64,4.27,1.32,6.09,2a28.32,28.32,0,0,1,8,4.53,13.64,13.64,0,0,1,1.06.94,10.24,10.24,0,0,1,.74.74l.44.46C355.52,387.24,355.58,387.29,355.58,387.28Z"/><path class="cls-13" d="M316.07,395v14.39l-5.1-4.31-5,4.08-.29-14S313.89,394.74,316.07,395Z"/><path class="cls-11" d="M258.38,403.35a.74.74,0,0,0,.26,0l.75-.16,2.89-.65c2.5-.56,6.14-1.33,10.66-2.16s9.93-1.72,15.95-2.64l9.44-1.45a78.68,78.68,0,0,1,10.17-1,99.12,99.12,0,0,1,10.24.14,58.47,58.47,0,0,1,9.41,1.31,40.33,40.33,0,0,1,14.42,6.49,48.11,48.11,0,0,1,4.66,3.82c1.3,1.2,2.37,2.29,3.23,3.18l2,2.09.51.54c.12.12.18.18.19.17l-.15-.2-.48-.57c-.41-.5-1.05-1.22-1.89-2.14s-1.89-2-3.18-3.24a46.4,46.4,0,0,0-4.64-3.9,40.18,40.18,0,0,0-14.52-6.63,58.62,58.62,0,0,0-9.49-1.35,97.33,97.33,0,0,0-10.29-.15,79.42,79.42,0,0,0-10.23,1l-9.43,1.48c-6,.94-11.42,1.85-15.94,2.73s-8.15,1.69-10.65,2.3c-1.25.3-2.21.56-2.86.73l-.74.21Z"/><path class="cls-11" d="M365.62,413.19s.09-.06.23-.21l.63-.64c.28-.28.61-.65,1-1l1.47-1.36a46.11,46.11,0,0,1,10.8-7,63.48,63.48,0,0,1,18.63-5.29,99.37,99.37,0,0,1,23.91.16c8.45,1,16.4,2.55,23.64,4s13.77,2.61,19.3,3.35a128.57,128.57,0,0,0,13.18,1.16c1.57,0,2.78.06,3.6,0l.94,0a1.14,1.14,0,0,0,.32,0,1.14,1.14,0,0,0-.32,0l-.93,0c-.83,0-2-.05-3.6-.12-3.12-.14-7.62-.52-13.14-1.3s-12-2-19.26-3.44-15.19-3-23.67-4a98.73,98.73,0,0,0-24-.12,62.73,62.73,0,0,0-18.72,5.41,44.66,44.66,0,0,0-10.77,7.17c-.55.52-1,1-1.45,1.4s-.73.79-1,1.08l-.59.67Z"/><path class="cls-11" d="M365.62,416.18a1.63,1.63,0,0,0,.23-.21l.63-.65c.28-.28.61-.64,1-1l1.47-1.37a46.13,46.13,0,0,1,10.8-7,63.18,63.18,0,0,1,18.63-5.29,99.37,99.37,0,0,1,23.91.16c8.45,1,16.4,2.55,23.64,4s13.77,2.61,19.3,3.35a131.51,131.51,0,0,0,13.18,1.16c1.57,0,2.78.06,3.6,0l.94,0,.32,0-.32,0-.93,0c-.83,0-2-.06-3.6-.12-3.12-.14-7.62-.52-13.14-1.3s-12-2-19.26-3.44-15.19-3-23.67-4a98.76,98.76,0,0,0-24-.13,62.72,62.72,0,0,0-18.72,5.42,44.66,44.66,0,0,0-10.77,7.17c-.55.52-1,1-1.45,1.4s-.73.78-1,1.08l-.59.67A2.14,2.14,0,0,0,365.62,416.18Z"/><path class="cls-11" d="M375,413.65a3.51,3.51,0,0,0,.5-.35c.33-.23.78-.61,1.41-1a40,40,0,0,1,5.54-3.29,47.49,47.49,0,0,1,9-3.35,62.81,62.81,0,0,1,11.74-1.88,116.4,116.4,0,0,1,21.67,1l6.53.86,1.77.23.63.05a2.48,2.48,0,0,0-.61-.14l-1.76-.31c-1.54-.26-3.76-.62-6.52-1a108.33,108.33,0,0,0-21.74-1.14,61.16,61.16,0,0,0-11.83,1.93,46.09,46.09,0,0,0-9.08,3.46,35.18,35.18,0,0,0-5.5,3.44c-.61.44-1,.85-1.35,1.1A2.83,2.83,0,0,0,375,413.65Z"/><path class="cls-11" d="M357.75,388.75l-.11-.24-.3-.72L356.25,385a17.15,17.15,0,0,0-6.79-8.4c-3.86-2.6-9.29-4.26-15.39-5a102.16,102.16,0,0,0-20-.22c-3.56.27-7,.65-10.36,1.07s-6.55.89-9.64,1.12c-6.18.51-11.75.75-16.42.94s-8.46.28-11.08.33l-3,0h-.78a.8.8,0,0,1-.27,0l.27,0,.78,0,3-.14,11.06-.5c4.67-.24,10.24-.51,16.39-1,3.08-.25,6.29-.73,9.63-1.16s6.81-.8,10.38-1.07a99.3,99.3,0,0,1,20.13.26c6.14.79,11.63,2.51,15.53,5.2a17,17,0,0,1,6.78,8.63l1,2.84c.1.3.18.55.25.74A.88.88,0,0,1,357.75,388.75Z"/><path class="cls-11" d="M357.87,388.52a1,1,0,0,1,0-.28l0-.8a18,18,0,0,1,.48-3.06,21,21,0,0,1,1.68-4.61,14,14,0,0,1,4.12-5c3.77-3.05,9.21-5.37,15.49-6.47a79.06,79.06,0,0,1,20.63-.65c3.66.3,7.22.77,10.63,1.32s6.68,1.22,9.81,1.69a130.2,130.2,0,0,0,16.75,1.44c4.79.1,8.67,0,11.35-.19l3.08-.2.8-.06H453a1,1,0,0,1-.27.06l-.8.11c-.7.09-1.74.19-3.08.3-2.67.22-6.56.41-11.36.36a124.2,124.2,0,0,1-16.82-1.33c-3.15-.47-6.41-1.14-9.82-1.67s-6.95-1-10.59-1.3a80,80,0,0,0-20.51.6,34.29,34.29,0,0,0-15.34,6.29,13.58,13.58,0,0,0-4.09,4.85,22.12,22.12,0,0,0-1.75,4.53,22.6,22.6,0,0,0-.57,3c0,.33-.07.59-.09.8A1.45,1.45,0,0,1,357.87,388.52Z"/></g><g id="Cups"><path class="cls-3" d="M646.67,414.42c0,6.82-13.22,12.34-29.53,12.34s-29.53-5.52-29.53-12.34,13.22-11.88,29.53-11.88S646.67,407.61,646.67,414.42Z"/><path class="cls-3" d="M617.14,448.28h0a29.53,29.53,0,0,1-29.53-29.53v-5.66l59.06.6v5.06A29.53,29.53,0,0,1,617.14,448.28Z"/><g class="cls-10"><ellipse cx="617.14" cy="415.06" rx="27.95" ry="10.42"/></g><path class="cls-18" d="M593,420.28c4.84,3.11,13.85,5.2,24.18,5.2s19.35-2.09,24.18-5.2c-4.83-3.11-13.85-5.2-24.18-5.2S597.8,417.17,593,420.28Z"/><path class="cls-3" d="M646.17,424.36a3.18,3.18,0,0,1,2.51-.3c.29.11.32.11.1,0a4,4,0,0,1,.41.21l.39.25c-.2-.15-.18-.14,0,0l.33.33c.17.2.2.23.1.1s-.07-.09.08.12a3.26,3.26,0,0,1,.24.4c.13.26.14.27,0,0a3.81,3.81,0,0,1,.15.44,4.05,4.05,0,0,1,.12.47c0-.25,0-.23,0,.07s0,.49,0,.74,0,.33,0,.07c0,.17-.07.33-.11.49a7.13,7.13,0,0,1-1.45,2.61,9.94,9.94,0,0,1-1.21,1.13c.38-.3-.36.24-.43.29-.26.17-.53.33-.8.48s-.55.29-.83.42c.39-.18-.16.06-.27.1a13.58,13.58,0,0,1-1.79.51l-.69.12c.54-.08-.4,0-.5,0a14.44,14.44,0,0,1-1.86,0c-.74-.05.47.1-.26,0l-.91-.19c-.3-.08-.6-.17-.89-.27l-.44-.16c.23.11.22.1-.05,0a2.57,2.57,0,0,0-3.42.9,2.52,2.52,0,0,0,.9,3.42,15,15,0,0,0,14.72-1.22,12.38,12.38,0,0,0,5-6.76,8.21,8.21,0,0,0-2.14-8.05,8.09,8.09,0,0,0-9.59-1.09,2.5,2.5,0,0,0,2.52,4.32Z"/><path class="cls-3" d="M646.11,398.78c0,6.82-13.22,12.35-29.52,12.35s-29.53-5.53-29.53-12.35,13.22-11.87,29.53-11.87S646.11,392,646.11,398.78Z"/><path class="cls-3" d="M616.59,432.64h0a29.53,29.53,0,0,1-29.53-29.53V398l59.05.08v5.05A29.53,29.53,0,0,1,616.59,432.64Z"/><g class="cls-10"><ellipse cx="616.59" cy="399.42" rx="27.95" ry="10.42"/></g><path class="cls-18" d="M592.41,404.64c4.83,3.11,13.85,5.2,24.18,5.2s19.34-2.09,24.18-5.2c-4.84-3.11-13.85-5.2-24.18-5.2S597.24,401.53,592.41,404.64Z"/><path class="cls-3" d="M645.61,408.72a3.18,3.18,0,0,1,2.51-.3c.29.11.33.11.1,0,.14.06.28.14.41.21l.39.25c-.19-.15-.18-.14,0,.05a2.57,2.57,0,0,1,.33.33c.17.2.2.23.1.1s-.07-.09.08.12a3.26,3.26,0,0,1,.24.4c.13.26.15.27.05,0l.15.44c0,.16.08.31.11.47,0-.25,0-.23,0,.08s0,.49,0,.73,0,.33,0,.08a4.15,4.15,0,0,1-.11.48,6.91,6.91,0,0,1-1.45,2.61,9.85,9.85,0,0,1-1.2,1.13c.37-.3-.36.25-.44.29-.26.17-.52.33-.8.48s-.55.29-.83.42c.39-.18-.16.06-.27.1a13.58,13.58,0,0,1-1.79.51l-.69.12c.55-.08-.4,0-.5,0a14.44,14.44,0,0,1-1.86,0c-.74-.05.47.1-.26,0-.3-.06-.61-.11-.91-.19s-.6-.16-.89-.26l-.44-.16c.24.1.22.09,0,0a2.57,2.57,0,0,0-3.42.9,2.54,2.54,0,0,0,.9,3.42,15,15,0,0,0,14.72-1.22,12.41,12.41,0,0,0,5-6.76,8.24,8.24,0,0,0-2.15-8.05,8.09,8.09,0,0,0-9.59-1.09,2.5,2.5,0,0,0,2.52,4.32Z"/><path class="cls-3" d="M642.65,371.32c2.21,6.45-8.49,16-23.91,21.28S589,397,586.8,390.54s8.64-15.53,24.06-20.84S640.43,364.88,642.65,371.32Z"/><path class="cls-3" d="M625.74,413h0a29.54,29.54,0,0,1-37.53-18.32l-1.84-5.35,56-18.64,1.64,4.78A29.53,29.53,0,0,1,625.74,413Z"/><g class="cls-10"><path d="M641.36,372.44c1.87,5.44-8.44,13.93-23,18.95s-27.94,4.68-29.81-.76,8.44-13.93,23-18.95S639.48,367,641.36,372.44Z"/></g><path class="cls-3" d="M645.41,380.88a3.17,3.17,0,0,1,2.27-1.09c.31,0,.34,0,.1,0l.46.07.45.11c-.24-.09-.22-.08,0,0l.42.2c.22.14.27.16.13.07l.11.08.36.3c.21.21.22.22,0,0,.1.12.2.24.29.37s.18.26.26.4c-.11-.23-.1-.21,0,.07s.17.46.24.7.08.32,0,.07c0,.17,0,.33.05.5a7,7,0,0,1-.52,2.94,12,12,0,0,1-.77,1.46c.25-.41-.26.35-.32.42-.19.24-.39.48-.6.71s-.43.45-.65.66c.31-.3-.13.11-.22.18a12.35,12.35,0,0,1-1.53,1.07l-.61.34c.49-.25-.37.15-.46.19a14.08,14.08,0,0,1-1.77.58c-.72.19.47-.06-.26.05-.31.05-.61.09-.92.12s-.62,0-.93,0h-.47c.26,0,.24,0,0,0a2.56,2.56,0,0,0-2.94,2,2.53,2.53,0,0,0,2,2.94,15,15,0,0,0,13.52-6,12.33,12.33,0,0,0,2.53-8,8.22,8.22,0,0,0-4.64-6.91,8.1,8.1,0,0,0-9.43,2.09,2.5,2.5,0,0,0,3.8,3.26Z"/><path class="cls-11" d="M638.73,422.64s-.15.11-.47.27-.78.39-1.4.67a54.93,54.93,0,0,1-5.27,2.15,37.82,37.82,0,0,1-8.25,1.9,45.63,45.63,0,0,1-10.37-.06c-7.32-.9-13.74-3.1-17.88-5.61a16.79,16.79,0,0,1-4.42-3.62,7,7,0,0,1-.9-1.26,1.86,1.86,0,0,1-.26-.47,2.3,2.3,0,0,1,.34.41,10.43,10.43,0,0,0,1,1.19,17.86,17.86,0,0,0,4.46,3.43c4.12,2.4,10.51,4.53,17.75,5.41a47.11,47.11,0,0,0,10.25.11,39.13,39.13,0,0,0,8.19-1.78c2.27-.73,4.07-1.48,5.31-2l1.44-.58A2.94,2.94,0,0,1,638.73,422.64Z"/><path class="cls-11" d="M638.73,424.14a2.15,2.15,0,0,1-.47.27c-.32.15-.78.39-1.4.67-1.22.56-3,1.36-5.27,2.15a37.82,37.82,0,0,1-8.25,1.9,46.21,46.21,0,0,1-10.37-.06c-7.32-.9-13.74-3.11-17.88-5.62a16.79,16.79,0,0,1-4.42-3.61,6.67,6.67,0,0,1-.9-1.27c-.19-.3-.28-.46-.26-.47a2.75,2.75,0,0,1,.34.42,10.5,10.5,0,0,0,1,1.18,17.63,17.63,0,0,0,4.46,3.43c4.12,2.4,10.51,4.53,17.75,5.42a47.08,47.08,0,0,0,10.25.1,39.17,39.17,0,0,0,8.19-1.77c2.27-.74,4.07-1.48,5.31-2l1.44-.58A1.79,1.79,0,0,1,638.73,424.14Z"/><path class="cls-11" d="M629.62,410.41a1.71,1.71,0,0,1-.48.15c-.32.09-.79.2-1.4.33a50.9,50.9,0,0,1-5.24.8,64.57,64.57,0,0,1-17.44-.72,40.33,40.33,0,0,1-9.24-2.74,19.38,19.38,0,0,1-6.59-4.31,7.67,7.67,0,0,1-2.08-4.85,4.85,4.85,0,0,1,.15-1.44,1.46,1.46,0,0,1,.18-.48,8.41,8.41,0,0,0-.13,1.91,7.69,7.69,0,0,0,2.15,4.61,19.75,19.75,0,0,0,6.51,4.12,41.68,41.68,0,0,0,9.14,2.67,69.31,69.31,0,0,0,17.31.86c2.22-.17,4-.44,5.24-.63A18.77,18.77,0,0,1,629.62,410.41Z"/><path class="cls-11" d="M630.35,409s-.14.07-.42.14-.7.19-1.24.3c-1.08.24-2.66.53-4.62.76a63.53,63.53,0,0,1-15.45-.19,51.43,51.43,0,0,1-8.35-1.73,32.93,32.93,0,0,1-6.43-2.69,17.41,17.41,0,0,1-3.79-2.78,8.41,8.41,0,0,1-.83-1,1.36,1.36,0,0,1-.24-.38s.4.46,1.21,1.2a19.51,19.51,0,0,0,3.83,2.61,35.07,35.07,0,0,0,6.39,2.55,54.07,54.07,0,0,0,8.28,1.67,69.29,69.29,0,0,0,15.34.34c2-.18,3.54-.42,4.62-.59A13.55,13.55,0,0,1,630.35,409Z"/><g class="cls-10"><path d="M631.83,408.09a9.57,9.57,0,0,1,.55,4.91,7.53,7.53,0,0,1-.72,3.33,2.59,2.59,0,0,1-2.87,1.37,2.51,2.51,0,0,1-1.43-1.41,7.47,7.47,0,0,1-.51-2c-.7.81-1.62,1.71-2.68,1.53a2.29,2.29,0,0,1-1.62-1.56,13.66,13.66,0,0,1-.44-2.31,4,4,0,0,0-1.07-2.25s4.08-.29,6.18-.65C629.17,408.73,631.83,408.09,631.83,408.09Z"/></g><path class="cls-15" d="M571.72,389c0,7.15-13.22,12.95-29.53,12.95s-29.53-5.8-29.53-12.95,13.22-12.46,29.53-12.46S571.72,381.8,571.72,389Z"/><path class="cls-15" d="M542.19,424.48h0c-16.31,0-29.53-13.88-29.53-31v-5.93l59.06.63v5.3C571.72,410.6,558.5,424.48,542.19,424.48Z"/><g class="cls-10"><ellipse cx="542.19" cy="389.62" rx="27.95" ry="10.94"/></g><ellipse class="cls-18" cx="542.19" cy="395.1" rx="24.18" ry="5.46"/><path class="cls-15" d="M571.22,399.27a3.25,3.25,0,0,1,.45-.25c-.21.07-.17.05.11,0,.11,0,1-.2.59-.16.1,0,1,0,.61,0a4.25,4.25,0,0,1,1,.26c-.38-.15.2.13.27.17a4.56,4.56,0,0,1,.39.27q-.3-.23,0,.06c.07.08.63.76.39.4a5.79,5.79,0,0,1,.47.84c-.18-.41.09.33.12.43s.06.24.08.36q0-.37,0,.09a8.36,8.36,0,0,1,0,1c0-.46-.11.47-.14.57a8.31,8.31,0,0,1-.32,1c.16-.37-.19.33-.19.33a9.61,9.61,0,0,1-.53.87c-.09.14-.19.28-.29.41.12-.17.1-.14-.09.09a16.83,16.83,0,0,1-1.36,1.31c.32-.27-.16.11-.24.17-.26.17-.52.34-.79.49s-.54.3-.81.44l-.42.19c.24-.1.22-.1,0,0-.52.16-1,.34-1.55.46l-.9.17c.56-.09-.38,0-.48,0a12.36,12.36,0,0,1-1.61,0l-.45-.05c.28,0,.28,0,0,0s-.6-.12-.9-.2a8.81,8.81,0,0,1-.87-.28l-.44-.16c.25.1.23.09,0,0a2.55,2.55,0,0,0-3.42.89,2.53,2.53,0,0,0,.89,3.42,14.52,14.52,0,0,0,14.75-1.3,12.83,12.83,0,0,0,4.94-6.85,8.74,8.74,0,0,0-2-8.39,7.9,7.9,0,0,0-9.68-1.21,2.5,2.5,0,0,0,2.53,4.32Z"/></g><g id="Device"><path class="cls-3" d="M75.51,405l87.43,50.39,23.67.16,31.67-42.4c2.21-2.95.7-8.15-2.36-8.15Z"/><path class="cls-3" d="M14.06,336.55H153.4c5.12,0,9.49,3.07,10.35,7.27l22.89,111.73H34.85c-5.11,0-9.49-3.07-10.35-7.27L3.71,346.76C2.62,341.42,7.56,336.55,14.06,336.55Z"/><path class="cls-7" d="M83.71,400.3A9.19,9.19,0,0,0,94.46,407a8.38,8.38,0,0,0,6.12-10.53,9.2,9.2,0,0,0-10.76-6.67A8.37,8.37,0,0,0,83.71,400.3Z"/><path class="cls-11" d="M216.77,407.56s0,.08-.13.22l-.43.62c-.4.56-1,1.35-1.69,2.37l-6.42,8.86c-5.54,7.57-13.33,18.22-22.41,30.65l-.33.44-.11-.54L180.08,425c-4.31-21.25-8.22-40.49-11.05-54.44-1.39-6.95-2.51-12.59-3.29-16.51-.38-1.93-.67-3.44-.87-4.5-.09-.49-.16-.88-.22-1.17a2.37,2.37,0,0,1-.05-.4,3.23,3.23,0,0,1,.11.39c.06.29.15.67.26,1.16.23,1.05.55,2.55,1,4.48.83,3.91,2,9.54,3.46,16.47l11.2,54.42,5.14,25.21-.44-.09,22.56-30.54,6.53-8.77,1.76-2.33.46-.59Z"/><path class="cls-11" d="M183.33,455.53c-.14,0-5.48-25.18-11.93-56.29s-11.57-56.37-11.43-56.4,5.48,25.17,11.94,56.29S183.47,455.5,183.33,455.53Z"/><g class="cls-17"><polygon points="184.16 443.44 209.69 409.98 177.3 409.98 184.16 443.44"/></g></g><g id="Character"><path d="M331.39,186.23a40.88,40.88,0,0,1,.68,13.64c-.41,3.49-1.08,7.59,1.45,10,2.72,2.61,7.59,1.21,9.82-1.83s2.56-7,2.77-10.79c.12-2.34.23-4.69.19-7a53.63,53.63,0,0,0-9.38-29.19c-4.16-6-8.79-.62-9.56,4.13C326.29,171.86,330,179.86,331.39,186.23Z"/><path d="M275.62,94.45a26.09,26.09,0,0,0-2.56,15.74,27.49,27.49,0,0,1,2.23-26.44c-13.24,12.92-16.87,34.66-8.53,51.18,6.33,12.55,16.06,24.72,30.85,20.35a50.16,50.16,0,0,1,17.29-1.79c6.26.38,12.11-1.19,15.76-6.4,9.22-13.11,20.08-36.5,6.93-45.66-17.21-12-21.47-26.13-37.42-24.52C289.7,78,280.2,85.15,275.62,94.45Z"/><path d="M259.81,109.68a1.37,1.37,0,0,1,.28,0,1.24,1.24,0,0,1,.84,1.53,33.22,33.22,0,0,0,17.92,39.53,21.88,21.88,0,0,0,11.37,2.28,1.23,1.23,0,0,1,.24,2.45A24.32,24.32,0,0,1,277.81,153a35.72,35.72,0,0,1-19.25-42.47A1.23,1.23,0,0,1,259.81,109.68Z"/><path d="M300,74.18a36.81,36.81,0,0,1,21.37,8.4c10.45,8.7,16.77,23.48,16.9,39.54a1.23,1.23,0,1,1-2.46,0c-.12-15.34-6.11-29.42-16-37.66a34.62,34.62,0,0,0-19.17-7.75,28.41,28.41,0,0,0-19.38,5.15,1.23,1.23,0,1,1-1.47-2A30.79,30.79,0,0,1,300,74.18Z"/><path d="M283.7,160.15c.06-.11.83.23,2.17.89a38,38,0,0,0,5.75,2.42,15.5,15.5,0,0,0,4.13.7,10.6,10.6,0,0,0,4.58-.82,10.19,10.19,0,0,0,3.93-3.23,34.52,34.52,0,0,0,3-5,33.68,33.68,0,0,1,3.2-5.21,13.18,13.18,0,0,1,4.54-3.69,17.71,17.71,0,0,1,5-1.52,35.19,35.19,0,0,1,4.44-.38c2.7-.07,4.86,0,6.35,0s2.33,0,2.34.14a5.83,5.83,0,0,1-2.29.52c-1.5.21-3.68.33-6.33.56a23.62,23.62,0,0,0-8.8,2.09,11.87,11.87,0,0,0-3.95,3.33,34.45,34.45,0,0,0-3,5,34.48,34.48,0,0,1-3.17,5.21,10.9,10.9,0,0,1-9.89,4.43,15.76,15.76,0,0,1-4.44-1,28,28,0,0,1-5.7-3C284.29,160.77,283.64,160.24,283.7,160.15Z"/><path d="M323.36,81.22c0-.09.52-.26,1.43,0a5.66,5.66,0,0,1,3,2.52,17.48,17.48,0,0,1,1.72,5.33,20.19,20.19,0,0,0,4.17,8.63c.67.82,1.43,1.58,2.11,2.39a11.24,11.24,0,0,1,1.68,2.59,9.83,9.83,0,0,1,.76,2.58,8.73,8.73,0,0,1-.26,3.81c-.27.86-.57,1.28-.67,1.24-.27-.07.43-2-.25-4.82a9.49,9.49,0,0,0-2.44-4.37c-.66-.73-1.44-1.47-2.2-2.35A19.7,19.7,0,0,1,328,89.4a19.86,19.86,0,0,0-1.24-5.07,5.85,5.85,0,0,0-2.18-2.49C323.84,81.43,323.35,81.35,323.36,81.22Z"/><path class="cls-19" d="M332.81,95.62c-15.63,31.68-4.25,60.61-12.78,58.22-2-.57-5,.36-5.53-.55,11.87-22.73-3.21-55.35,15.51-60.36C331.13,92.28,331.28,96.1,332.81,95.62Z"/><g class="cls-20"><path d="M353.56,71.06s.22-.3.64-.84,1-1.31,1.84-2.24a78.48,78.48,0,0,1,6.67-6.84,32.7,32.7,0,0,1,4.08-3.32,8.39,8.39,0,0,1,2.09-1,8.15,8.15,0,0,1,2-.32,8.48,8.48,0,0,0,2.83-.43,3.78,3.78,0,0,0,.89-.57l-.2.19a2.6,2.6,0,0,1-.67.42,8.14,8.14,0,0,1-2.85.49,7.69,7.69,0,0,0-4,1.3,34.29,34.29,0,0,0-4.06,3.32,84.1,84.1,0,0,0-6.69,6.81c-.8.91-1.43,1.68-1.87,2.2Z"/></g><g class="cls-20"><path d="M342.7,85s-.16.24-.47.65c-.43.59-.87,1.17-1.31,1.76L339,90a26.9,26.9,0,0,1-2.53,3.09,6.5,6.5,0,0,1-3.57,1.71,12.87,12.87,0,0,1-3.25.07,23.35,23.35,0,0,1-3-.47l.8.11c.51.08,1.25.19,2.17.26a13.27,13.27,0,0,0,3.23-.09,6.48,6.48,0,0,0,3.5-1.69,28.07,28.07,0,0,0,2.52-3.06l2-2.58,1.35-1.74C342.51,85.18,342.7,85,342.7,85Z"/></g><polygon class="cls-21" points="437.3 335.31 464.48 361.77 502.7 340.06 464.06 274.07 421.29 249.95 417.82 328.9 437.3 335.31"/><g class="cls-22"><path class="cls-23" d="M527.34,242.61q-91.67,76.33-177.91,158.91"/><path class="cls-23" d="M516.83,231.38q-91.68,76.33-177.91,158.91"/><path class="cls-23" d="M506.32,220.15q-91.68,76.34-177.91,158.91"/><path class="cls-23" d="M495.81,208.92Q404.13,285.26,317.9,367.83"/><path class="cls-23" d="M564.13,283q-91.68,76.33-177.91,158.91"/><path class="cls-23" d="M553.61,276.72Q461.95,353.06,375.7,435.63"/><path class="cls-23" d="M543.1,265.49Q451.42,341.83,365.19,424.4"/><path class="cls-23" d="M532.59,254.26Q440.91,330.6,354.68,413.17"/></g><path d="M339.77,88.42C357.58,75.12,378.3,70.08,400,75.08c12.21,2.83,16.62,6.61,24.79,11.15s14.91,11.2,18.29,19.92c4,10.35,6.77,21.52,5.28,32.52-1.53,11.3-3,22.7-6.65,33.51-3.7,11-15.48,34.42-23.69,41.19l-23.68-14.75c-15.64-3.33-31.49-6.73-45.73-14s-26.89-19.08-31.69-34.33C310.21,129.06,322,101.71,339.77,88.42Z"/><path class="cls-24" d="M385.69,262.06l5.94-37.49s25.84,2.24,37.78-26.3c5.94-14.19,11.09-38.59,14.66-58.68,3.22-18.08-7.59-45.54-29.87-49.76l-9.69-3-40.74,8a10.75,10.75,0,0,0-11.92,8.32L332.69,211.68c-.16,6.38,2.56,48.38,8.48,54.17l16.53,5c15.22,16.68,25.11-19.27,32.19-35.25Z"/><path class="cls-24" d="M347.62,154.54c.53-2.22-.75-8-2.85-8.92-5.61-2.33-16.24-4.42-19.94,10.36-5.06,20.21,16.27,21.13,16.45,20.56S345.78,162.18,347.62,154.54Z"/><path class="cls-25" d="M337.56,167.76c-.08-.09-.42.16-1.08.28a3.64,3.64,0,0,1-2.65-.61c-1.93-1.31-2.88-5.15-2.07-8.82a11.93,11.93,0,0,1,2.25-4.8,4.23,4.23,0,0,1,3.32-2,1.85,1.85,0,0,1,1.84,1.49c.13.63-.1,1,0,1.06s.52-.22.56-1.1a2.35,2.35,0,0,0-.47-1.47,2.79,2.79,0,0,0-1.82-1c-1.59-.28-3.35.8-4.47,2.21a12.37,12.37,0,0,0-2.63,5.33c-.89,4.11.24,8.44,3,10a3.94,3.94,0,0,0,3.36.27C337.4,168.24,337.62,167.81,337.56,167.76Z"/><path class="cls-25" d="M408.09,124.67a3,3,0,0,1,1,1.46,5.66,5.66,0,0,1-2.89,7.44,3.08,3.08,0,0,1-1.75.38c0-.09.66-.19,1.58-.71a5.72,5.72,0,0,0,2.72-7C408.44,125.26,408,124.72,408.09,124.67Z"/><path class="cls-25" d="M419.58,134.52a3.54,3.54,0,0,1-1.89-.27,6.72,6.72,0,0,1-4.49-7.41,3.4,3.4,0,0,1,.64-1.8c.08,0-.2.71-.28,1.84a7,7,0,0,0,4.26,7C418.86,134.36,419.59,134.43,419.58,134.52Z"/><path class="cls-25" d="M378.14,160.59a7.49,7.49,0,0,1-5.5-5.4,25.91,25.91,0,0,0,2.37,3.09A27.18,27.18,0,0,0,378.14,160.59Z"/><path class="cls-25" d="M427.77,166.65c0,.13-.7.47-1.65.74s-1.75.38-1.79.24.69-.47,1.64-.74S427.73,166.51,427.77,166.65Z"/><path class="cls-25" d="M427.11,168.61c0,.14-.44.4-1.07.58s-1.18.22-1.22.08.44-.4,1.07-.58S427.07,168.47,427.11,168.61Z"/><path class="cls-11" d="M455.11,128a5.28,5.28,0,0,1,0-.84c.05-.54.15-1.34.32-2.36.33-2,1-5,1.9-8.56s1.74-8,.95-12.78a15.41,15.41,0,0,0-2.79-6.93,11.8,11.8,0,0,0-2.86-2.73A16.31,16.31,0,0,0,449,92a73.22,73.22,0,0,0-7.95-2l-7.48-1.69-12.67-2.9-8.52-2-2.32-.57a4.76,4.76,0,0,1-.8-.24,6.78,6.78,0,0,1,.83.13l2.33.48L421,85l12.69,2.79,7.49,1.66a70.86,70.86,0,0,1,8,2.06,17,17,0,0,1,3.8,1.88,12.78,12.78,0,0,1,3,2.85,15.92,15.92,0,0,1,2.86,7.16c.77,4.93-.23,9.37-1.08,13s-1.66,6.48-2.05,8.51c-.2,1-.33,1.8-.41,2.34A4.92,4.92,0,0,1,455.11,128Z"/><path class="cls-9" d="M355.5,106.06c.05.08-1.13.82-2.8,2.33a35.85,35.85,0,0,0-5.64,6.66,85.57,85.57,0,0,0-4.39,7.61,26.3,26.3,0,0,1-1.77,3.2,3.62,3.62,0,0,1,.34-.93c.25-.58.62-1.41,1.1-2.43a61.76,61.76,0,0,1,4.29-7.74,31.57,31.57,0,0,1,5.83-6.65,22.43,22.43,0,0,1,2.17-1.59A4,4,0,0,1,355.5,106.06Z"/><circle class="cls-26" cx="429.15" cy="183.4" r="9.98"/><circle class="cls-26" cx="382.46" cy="188.32" r="9.98"/><path d="M354,170.64c-.28,0,.28-2.4-.48-6.07a36.12,36.12,0,0,0-2-6.28c-.92-2.32-2.12-4.85-3.12-7.65a24.23,24.23,0,0,1-1.66-8.3,23.16,23.16,0,0,1,1.2-6.8c.57-1.85,1.1-3.3,1.46-4.3s.59-1.56.71-1.54.1.63-.07,1.7-.53,2.59-.94,4.45a26,26,0,0,0-.8,6.47,25.1,25.1,0,0,0,1.69,7.75c1,2.71,2.12,5.24,3,7.66a30.41,30.41,0,0,1,1.7,6.65,14.79,14.79,0,0,1-.11,4.65C354.35,170.11,354.07,170.66,354,170.64Z"/><path d="M422,125.33c-1.39,2.89,3.44,21.8.28,22.29-20,3.09-47.95,9.54-53.47,8.31-5.28-1.19.7-22.71-11.68-30.95-7.48,42.41-15.34,37.06-22.5,48.31.43-6.68-21.12,15-19.12-42.48.52-14.91,9.86-29,21.11-38.83,10.31-9,26-18.83,39.66-18.58s23.66,2.69,36.87,6.24c4.64,1.25,11.33,10.08,15.42,12.62,4.77,2.95,8.4,7.45,11.43,12.18,6.13,9.57,13.25,56.17-3,63.11C432.8,160.17,425,119.17,422,125.33Z"/><path class="cls-24" d="M449.61,229.17s50.46,83.05,55.1,97.28-1.29,47.49-19.61,46.81c-25.39-.94-31.46-11.81-38.11-29.52s-22.07-100.51-22.07-100.51Z"/><path class="cls-24" d="M425.72,246.79c-1.54-7.53-10.94-20.1-6.66-29.09,3.5-7.36,11-16.95,13.51-21.91S437,175.44,437,175.44l1.75-18.63s-4.08-12.88-.91-17.14c1.59-2.13,3.26-2.08,4.55-1.49a4.5,4.5,0,0,1,2.44,3.39l.58,3.56s2.11-2.62,5.36.52,5.7,23.35,6.83,30.57c1.27,8.11.66,12.76-.82,17.43-2.5,7.88-7.75,23.87-8.22,27.88s4,12.42,4,12.42"/><path class="cls-25" d="M452.5,234s-.09-.14-.24-.43-.38-.71-.66-1.28a46.91,46.91,0,0,1-2.17-5.12,19.81,19.81,0,0,1-1-3.92,12.86,12.86,0,0,1,.59-4.78c.84-3.36,2-7.14,3.26-11.32s2.76-8.75,4.31-13.69a29.8,29.8,0,0,0,1.39-7.83,45.47,45.47,0,0,0-.53-8.48c-.89-5.79-1.69-11.92-2.87-18.24a76.46,76.46,0,0,0-2.28-9.52c-.55-1.54-1.08-3.2-2.47-4.11a3.89,3.89,0,0,0-2.19-.86,2.82,2.82,0,0,0-2.08.92l-.34.39-.11-.51c-.51-2.22-.26-5-2.26-6.39a3.12,3.12,0,0,0-3.22-.4A4.79,4.79,0,0,0,437.4,141a11.09,11.09,0,0,0-.54,4,27.05,27.05,0,0,0,.34,4,54.4,54.4,0,0,0,1.74,7.71l0,.05v.05c-.65,6.77-1.22,13.33-1.89,19.65-.42,3.14-.9,6.21-1.47,9.2a59.79,59.79,0,0,1-2.17,8.65,20.94,20.94,0,0,1-1.94,3.84c-.74,1.2-1.5,2.36-2.25,3.49l-4.39,6.58c-1.39,2.13-2.7,4.2-3.87,6.24a19.36,19.36,0,0,0-2.62,6.12,16.4,16.4,0,0,0,.16,6,35.86,35.86,0,0,0,1.49,5.2c1.16,3.18,2.39,5.83,3.32,8a50.63,50.63,0,0,1,1.95,5.1,15.87,15.87,0,0,1,.45,1.84,4.22,4.22,0,0,1-.14-.46c-.1-.3-.19-.77-.4-1.35a53.6,53.6,0,0,0-2-5.06c-.95-2.17-2.2-4.81-3.39-8a34.3,34.3,0,0,1-1.54-5.23,16.79,16.79,0,0,1-.19-6.15c2.35-8.47,10-16.12,15-26.37a61.14,61.14,0,0,0,2.13-8.58c.55-3,1-6,1.45-9.18.65-6.29,1.21-12.87,1.86-19.63v.1a55.41,55.41,0,0,1-1.77-7.78,28,28,0,0,1-.34-4.1,11.69,11.69,0,0,1,.57-4.17,5.3,5.3,0,0,1,2.49-2.92,3.32,3.32,0,0,1,2-.3,4.31,4.31,0,0,1,1.79.75,4.87,4.87,0,0,1,1.89,3.22c.2,1.19.39,2.36.58,3.51l-.46-.12a3.35,3.35,0,0,1,2.48-1.12,4.38,4.38,0,0,1,2.49,1,5.85,5.85,0,0,1,1,.89,5.7,5.7,0,0,1,.72,1.11,17.63,17.63,0,0,1,.95,2.36,77.47,77.47,0,0,1,2.29,9.59c1.17,6.34,1.95,12.47,2.83,18.26a46.3,46.3,0,0,1,.52,8.57,30.43,30.43,0,0,1-1.44,7.93c-1.58,4.93-3,9.51-4.37,13.67s-2.46,7.94-3.33,11.28a12.61,12.61,0,0,0-.62,4.69,20,20,0,0,0,.95,3.89,52.11,52.11,0,0,0,2.08,5.14l.61,1.3C452.44,233.79,452.5,234,452.5,234Z"/><path class="cls-25" d="M438.27,202.51c0,.07-1.16.69-3,1.77a29.79,29.79,0,0,0-6.7,5,15.56,15.56,0,0,0-4,7.2,22.21,22.21,0,0,0-.34,3.46A2.86,2.86,0,0,1,424,219a9.86,9.86,0,0,1,.14-2.59,14.9,14.9,0,0,1,4-7.49,26.88,26.88,0,0,1,6.9-5c1-.51,1.77-.88,2.32-1.12A3.24,3.24,0,0,1,438.27,202.51Z"/><path class="cls-25" d="M446.51,180a9.2,9.2,0,0,1,0-1.47c0-.95.07-2.32.07-4a70.77,70.77,0,0,0-1.13-13.13c-.87-5.06-2.56-9.59-2-13.11a5.56,5.56,0,0,1,2.06-3.46,3.44,3.44,0,0,1,1-.51c.24-.07.37-.09.37-.07a6.78,6.78,0,0,0-1.24.74,5.57,5.57,0,0,0-1.82,3.37,17.12,17.12,0,0,0,.56,5.81c.49,2.18,1.13,4.57,1.58,7.13a62.13,62.13,0,0,1,1,13.24c0,1.7-.15,3.07-.24,4A6.86,6.86,0,0,1,446.51,180Z"/><path class="cls-25" d="M437.84,162.5a11.86,11.86,0,0,1,.59,2.49,44.55,44.55,0,0,1,.72,6.11,43.08,43.08,0,0,1-.3,6.16,11.77,11.77,0,0,1-.41,2.51,12.54,12.54,0,0,1,0-2.54c.08-1.57.22-3.73.15-6.11s-.38-4.52-.57-6.08A13.61,13.61,0,0,1,437.84,162.5Z"/><path class="cls-25" d="M440.62,179.92a4.39,4.39,0,0,1-.08-1.1c0-.82,0-1.81-.07-3-.07-2.52-.25-6-.66-9.81s-1-7.25-1.4-9.73l-.54-2.94a4.35,4.35,0,0,1-.14-1.09,5.2,5.2,0,0,1,.34,1c.19.68.43,1.67.7,2.91a95.84,95.84,0,0,1,1.56,9.74,86.69,86.69,0,0,1,.51,9.86c0,1.27,0,2.29-.09,3A5,5,0,0,1,440.62,179.92Z"/><path class="cls-25" d="M442.59,179.71c0,.17-1.11.32-2.44.18a9.94,9.94,0,0,1-2.4-.34c0-.17,1.11-.33,2.44-.18A9.94,9.94,0,0,1,442.59,179.71Z"/><path class="cls-25" d="M446.51,180c0,.06-.2,0-.43-.07s-.54-.29-.77-.25c-.75.13-1.43-.07-1.4-.21s.6-.17,1.36-.31a1,1,0,0,1,.65.18,1.88,1.88,0,0,1,.36.28C446.47,179.84,446.55,180,446.51,180Z"/><path class="cls-27" d="M371,141.49a32.17,32.17,0,0,0,13.09-3.3,21.17,21.17,0,0,0,8.08-8s1.52,6.31-6.29,10.91C376.17,146.78,369.73,140.42,371,141.49Z"/><path class="cls-27" d="M436.48,141.67a32.35,32.35,0,0,1-12.7-4.58,21.24,21.24,0,0,1-7.25-8.77s-2.13,6.12,5.18,11.47C430.76,146.41,437.8,140.72,436.48,141.67Z"/><circle cx="425.29" cy="160.9" r="6.6"/><circle class="cls-7" cx="429.15" cy="161.25" r="1.41"/><circle class="cls-7" cx="428.33" cy="165.21" r="0.73"/><circle cx="382.78" cy="165.94" r="6.6"/><circle class="cls-7" cx="386.63" cy="166.28" r="1.41"/><circle class="cls-7" cx="385.82" cy="170.25" r="0.73"/><path class="cls-27" d="M414.35,178.27c-.07,0-.39-.45-1.05-1.07a4.66,4.66,0,0,0-3.07-1.43,3.13,3.13,0,0,0-2.72,1.73,3.84,3.84,0,0,0-.25,1.42,1.65,1.65,0,0,1-.06-1.54,3.31,3.31,0,0,1,3-2.08,4.64,4.64,0,0,1,3.31,1.66A3,3,0,0,1,414.35,178.27Z"/><path d="M403.72,198.33c-.42-.47-.27-1.38.4-2.52a9.08,9.08,0,0,1,4-3.46,7.11,7.11,0,0,1,5.79-.16c1.45.7,1.86,1.75,1.53,2.25s-1.18.67-2.1.94a21.26,21.26,0,0,0-3.35,1.15c-1.3.58-2.62,1.31-3.76,1.74S404.15,198.81,403.72,198.33Z"/><path class="cls-21" d="M265,216.21a129.29,129.29,0,0,1,17.89-4.47c11.06-2.05,49.33-2.44,49.33-2.44s.89,53.42,33.36,57.26C377.7,268,390.4,232.3,390.4,232.3s24.35,12.52,30.89,17.65c0,0,1.36,63,0,75.57s-7.67,38.42-7.67,38.42h-156V301.69Z"/><path class="cls-21" d="M279,289.32c-10.32,18.11-24.71,38.07-24.71,38.07l-60.75-28.92c0-1.38,35.09-60.24,48.67-70.6s28.22-15.87,38.22-13.11"/><path class="cls-25" d="M196.28,344.81a13.05,13.05,0,0,1,1.31-1.18,19.15,19.15,0,0,1,1.61-1.29c.65-.48,1.37-1,2.23-1.59s1.78-1.17,2.83-1.74,2.18-1.17,3.38-1.77a54.93,54.93,0,0,1,8.19-3,53.7,53.7,0,0,1,8.59-1.6c1.34-.11,2.61-.23,3.8-.22s2.31,0,3.32,0,1.93.13,2.74.21a19.71,19.71,0,0,1,2,.27,10.35,10.35,0,0,1,1.73.35,12.3,12.3,0,0,1-1.75-.15c-.56-.07-1.25-.15-2.05-.18s-1.71-.14-2.72-.14-2.11,0-3.29,0-2.45.15-3.77.26a53.54,53.54,0,0,0-16.63,4.61c-1.19.58-2.34,1.11-3.37,1.71s-2,1.13-2.84,1.67-1.59,1.06-2.26,1.51-1.21.87-1.66,1.22A10.15,10.15,0,0,1,196.28,344.81Z"/><path d="M333.64,181.12c0-.36,1.19-.59,2.92-1.68a28.31,28.31,0,0,0,6.3-6.26,80.22,80.22,0,0,0,7.73-11,41.79,41.79,0,0,0,5.32-15,28.45,28.45,0,0,0-.13-8.1,62.91,62.91,0,0,0-1.85-7.69c-.71-2.49-1.4-4.94-1.87-7.31a28.72,28.72,0,0,1-.58-6.81,17,17,0,0,1,2.9-9.47c1.45-1.91,2.68-2.48,2.86-2.27s-.51,1.24-1.31,3.15a19,19,0,0,0-1.22,8.55,30.48,30.48,0,0,0,1.05,6c.58,2.15,1.37,4.44,2.21,6.93a61.34,61.34,0,0,1,2.24,8.17,31.49,31.49,0,0,1,.25,9.42,41.68,41.68,0,0,1-6.25,16.65,62.14,62.14,0,0,1-9,11.06,35,35,0,0,1-4.14,3.65,14.28,14.28,0,0,1-3.8,2C335,181.8,333.63,181.38,333.64,181.12Z"/><path class="cls-9" d="M445.51,78.83c-11.95-2.68-25.92,1.41-33.06,9.69l.09.1-7.41,1.22c-9.5-3.59-26.4-3.14-35.69,3.16L340,114.43l-.7,4.53,31.51-22.8.22.27c1.68,3.33,8.27,13.61,9.91,15.25,2.32,2.31,18.23,0,21.55-3.06S405,94,405.41,91.28L413,90c1.42,3,6.2,13.08,8.08,14.21s10.27-1.17,11.24-1.42c.8-.22,1.9-.52,3.11-.9,3.15-1,7-2.43,7.94-3.9,1.39-2.19,1.81-9.46,2-16.28l0-1.1c0-.27,0-.45,0-.53h0Zm-44,28.7c-3.29,3.08-18.25,4.57-19.7,3.12A98.45,98.45,0,0,1,372,95.92c8.14-6.21,22.72-6.86,32-3.5C403.67,97.2,403.82,105.4,401.54,107.53Zm42.51-25.94c-.12,3.66-.44,13.39-1.81,15.55-1.62,2.55-18.66,6.76-20.51,5.8-1.08-.65-4.57-7.35-7.07-12.62,6.25-7.06,18.84-10.73,29.4-8.88A.81.81,0,0,1,444.05,81.59Z"/><g class="cls-10"><path class="cls-7" d="M402.63,93.65s.6,11.42-2.5,12.55S390,91.26,390,91.26,400.08,91.31,402.63,93.65Z"/></g><g class="cls-10"><path class="cls-7" d="M442.89,82.18s.89,12.92-2.21,14-12.5-13-12.5-13S440.33,79.84,442.89,82.18Z"/></g><g class="cls-28"><path class="cls-23" d="M446.59,378.18q-116.13-27.3-234-46.49"/><path class="cls-23" d="M424,387.34Q307.86,360,190,340.84"/><path class="cls-23" d="M449.24,363q-116.14-27.3-234-46.49"/><path class="cls-23" d="M451.88,347.87q-116.13-27.28-234-46.49"/><path class="cls-23" d="M454.53,332.72q-116.14-27.3-234-46.49"/><path class="cls-23" d="M457.17,317.57q-116.13-27.3-234-46.49"/><path class="cls-23" d="M459.81,302.41q-116.13-27.29-234-46.49"/><path class="cls-23" d="M462.46,287.26q-116.13-27.3-234-46.49"/><path class="cls-23" d="M465.1,272.11q-116.13-27.3-234-46.49"/><path class="cls-23" d="M467.75,257q-116.13-27.28-234-46.49"/></g><path d="M369.07,276.84c0,.27-5-.31-11.23-.77s-11.21-.64-11.21-.92,5.06-.51,11.29,0S369.11,276.59,369.07,276.84Z"/><path d="M368.71,280.29c0,.27-5-.31-11.22-.77s-11.22-.64-11.22-.92,5.06-.52,11.29,0S368.76,280,368.71,280.29Z"/><path d="M368.36,283.73c-.05.28-5.05-.31-11.23-.77s-11.21-.64-11.21-.92,5.06-.51,11.28,0S368.4,283.48,368.36,283.73Z"/><path d="M368,287.18c0,.27-5-.31-11.23-.77s-11.21-.64-11.21-.92,5.06-.52,11.29,0S368,286.92,368,287.18Z"/><path class="cls-24" d="M182.59,324.85S169.13,342.21,172,360.08c2.16,13.66,8.21,20.07,33.57,19.94,20.4-.11,105.34-27.43,105.34-27.43L318,318.84c1,1-80,14.35-80,14.35l7.36-9.69-47.85-23.15Z"/><path class="cls-9" d="M363.32,292.58c1.27-.54,40.6-23.81,40.6-23.81l9.22-.64-5.34,8.22-47.45,27.83Z"/><path class="cls-24" d="M293.31,327s10.26-2.54,11-3.55,16.14-29.26,17.65-30.52,25-14.63,30.53-14.89,26.2,7.3,27.21,8.56,2.5,7.59-5,7.34c-4.1-.15-4.34-.33-4.34-.33l1.76,10a2.55,2.55,0,0,1-2.27,3c-1.51.14-3.08.16-3.08-.36s.05,3.94.08,7.41a3.5,3.5,0,0,1-4.28,3.45c-2.4-.57-5-2-5.59-5.62L352.62,317l3.06,7.3-.76,9.68s-6,.11-7.43-4.56c-1.78-5.81-1.33-6.76-1.33-6.76s-3.69,9.54-8.79,15.13c-8.26,9.06-31.68,16.59-31.68,16.59Z"/><path class="cls-25" d="M337,303.86l.18-.1.57-.23,2.2-.86,8.26-3.15.08,0,.07.05,8.39,5.41.12.08,0,.15a13.47,13.47,0,0,0,.44,6.68A7.54,7.54,0,0,0,359,315a7.13,7.13,0,0,0,3.27,1.7,11.14,11.14,0,0,0,1.92.31,1.91,1.91,0,0,0,2.29-2.13c0-.69,0-1.38,0-2.08q0-4.18,0-8.57c0-.92,0-1.83,0-2.74A4.61,4.61,0,0,0,366,299a19.31,19.31,0,0,0-3.18-4.11,64.7,64.7,0,0,0-7.52-6.49c-1.28-.95-2.54-1.84-3.8-2.66-.62-.41-1.25-.82-1.88-1.16a3.9,3.9,0,0,0-2-.25,27.34,27.34,0,0,0-7.42,2.32c-4.4,1.93-7.81,3.82-10.18,5.09l-2.72,1.48-.72.36a.84.84,0,0,1-.26.1s1.27-.77,3.6-2.12,5.73-3.27,10.13-5.25a27.36,27.36,0,0,1,7.54-2.41,4.16,4.16,0,0,1,2.23.29c.66.35,1.29.75,1.92,1.16q1.91,1.25,3.83,2.67a64.51,64.51,0,0,1,7.61,6.51,19.64,19.64,0,0,1,3.27,4.23,5.16,5.16,0,0,1,.68,2.69c0,.91,0,1.82,0,2.74q0,4.4,0,8.6c0,.69,0,1.39,0,2.08a2.8,2.8,0,0,1-.14,1.09,2.44,2.44,0,0,1-.63.95,2.5,2.5,0,0,1-2.07.58,12.1,12.1,0,0,1-2-.33,7.66,7.66,0,0,1-3.49-1.84,7.93,7.93,0,0,1-1.84-3.3,13.74,13.74,0,0,1-.41-6.93l.09.23-8.34-5.5.15,0-8.32,3-2.23.78-.58.2Z"/><path class="cls-25" d="M366.53,306.22s.55.16,1.57.25a4.74,4.74,0,0,0,1.81-.09,3,3,0,0,0,1.75-1.49,2.86,2.86,0,0,0,.29-1.31c0-.45-.15-1-.23-1.52-.2-1.07-.4-2.21-.61-3.41-.45-2.39-1-5-1.63-7.74a9.08,9.08,0,0,0-1.55-3.66,14.64,14.64,0,0,0-2.7-2.59,40.39,40.39,0,0,0-5.5-3.36c-1.63-.86-3-1.51-3.88-2a5.42,5.42,0,0,1-1.34-.89s.5.28,1.43.71,2.3,1,4,1.86a37.47,37.47,0,0,1,5.61,3.3,14.42,14.42,0,0,1,2.82,2.67,6.47,6.47,0,0,1,.58.86,4.63,4.63,0,0,1,.46.95,14.77,14.77,0,0,1,.61,2c.68,2.74,1.17,5.38,1.6,7.79.2,1.2.38,2.34.56,3.42a13.82,13.82,0,0,1,.21,1.59,3.22,3.22,0,0,1-2.35,3.08,4.78,4.78,0,0,1-1.92,0,6.55,6.55,0,0,1-1.17-.29C366.65,306.3,366.52,306.24,366.53,306.22Z"/><path class="cls-25" d="M318.4,348.59a18.56,18.56,0,0,0,3.83-5.55c1.84-3.9,3.23-10.12,3.08-17.63v-.09l.05-.07,4.92-5.6.07-.08h.11l10.77,0h.07l.06,0,4.93,2.84.16.1,0,.2a8,8,0,0,0,.21,3.62,15,15,0,0,0,1.51,3.54A8.65,8.65,0,0,0,351,333a5.15,5.15,0,0,0,3.89.7l-.17.23c.32-3.55.63-7,.92-10.23l0,.12c-2.19-5-4.74-9.5-7.84-12.79a12.61,12.61,0,0,0-5.38-3.19,39.22,39.22,0,0,0-5.3-1.34c-3.27-.58-5.9-.83-7.7-1a15.71,15.71,0,0,1-2.77-.38s1,.1,2.78.22,4.45.34,7.75.89a37.74,37.74,0,0,1,5.36,1.28,13.12,13.12,0,0,1,5.56,3.25c3.19,3.34,5.76,7.85,8,12.89l0,0v.07c-.29,3.25-.59,6.67-.9,10.22l0,.18-.16,0a5.62,5.62,0,0,1-4.32-.75,9.12,9.12,0,0,1-3-3.32c-1.31-2.31-2.27-4.95-1.77-7.57l.12.3L341.1,320l.13,0-10.77,0,.17-.08-4.94,5.58.05-.15c.11,7.59-1.36,13.83-3.29,17.75a22,22,0,0,1-1.43,2.54c-.52.66-.93,1.26-1.33,1.68l-.95.93A3,3,0,0,1,318.4,348.59Z"/><path class="cls-25" d="M350.68,301.24c.09.17-2.24,1.15-4.74,2.89-1.24.89-2.33,1.77-3.16,2.36s-1.35.92-1.4.86.41-.49,1.18-1.15,1.81-1.58,3.08-2.49a19.08,19.08,0,0,1,3.48-1.94A5.13,5.13,0,0,1,350.68,301.24Z"/><g class="cls-29"><path class="cls-23" d="M358.79,347.66q-107.67-51.35-218.74-95.15"/><path class="cls-23" d="M334.77,351.81Q227.09,300.45,116,256.65"/><path class="cls-23" d="M364.6,333.42q-107.69-51.36-218.75-95.16"/><path class="cls-23" d="M370.4,319.17Q262.73,267.83,151.66,224"/><path class="cls-23" d="M376.21,304.93q-107.68-51.36-218.75-95.16"/><path class="cls-23" d="M382,290.69q-107.67-51.36-218.74-95.16"/><path class="cls-23" d="M387.82,276.44q-107.68-51.36-218.75-95.16"/><path class="cls-23" d="M393.62,262.2Q285.95,210.84,174.88,167"/><path class="cls-23" d="M399.43,248q-107.68-51.36-218.75-95.16"/><path class="cls-23" d="M405.23,233.71q-107.67-51.36-218.74-95.16"/></g><path d="M280.3,214.66l-.61-.11c-.41-.06-1-.24-1.79-.31a25.9,25.9,0,0,0-7,.09,45.28,45.28,0,0,0-10.61,3,76.11,76.11,0,0,0-12.89,6.9c-1.11.78-2.28,1.54-3.41,2.39l-1.73,1.28c-.56.46-1.13.91-1.67,1.41a69.53,69.53,0,0,0-6.23,6.79c-4,4.95-8,10.48-12.12,16.39-8.14,11.85-16.64,25.18-25.05,39.47l-1.88,3.27-.91,1.64-.43.81c-.13.27-.27.59-.34.73l-.15-.23,60.73,29-.25.07c8.08-11.31,14.29-20.82,18.48-27.48,2.09-3.33,3.68-6,4.74-7.74l1.22-2c.28-.46.43-.69.43-.69s-.12.25-.38.72L277.33,292c-1,1.8-2.6,4.45-4.66,7.8-4.13,6.7-10.29,16.25-18.34,27.6l-.1.13-.15-.07L193.3,298.61l-.18-.09,0-.15a5,5,0,0,1,.4-1l.44-.83.9-1.64,1.89-3.28c8.42-14.31,16.94-27.63,25.1-39.48,4.1-5.91,8.13-11.44,12.19-16.39a70.18,70.18,0,0,1,6.29-6.82c.54-.5,1.13-1,1.7-1.42s1.16-.86,1.74-1.28c1.14-.86,2.32-1.61,3.44-2.38a75,75,0,0,1,13-6.87,45,45,0,0,1,10.7-2.89,25.44,25.44,0,0,1,7,0,18,18,0,0,1,1.78.37Z"/><path d="M283.2,215.46a3.14,3.14,0,0,1,.59.4,18.06,18.06,0,0,1,1.58,1.3,24.71,24.71,0,0,1,4.62,5.93,31.57,31.57,0,0,1,3.6,10.54,48.65,48.65,0,0,1,0,13.65,97.53,97.53,0,0,1-6.4,23.9c-1.2,2.94-2.32,5.25-3.13,6.83-.4.79-.73,1.39-1,1.8a3.37,3.37,0,0,1-.37.61,3.37,3.37,0,0,1,.28-.66l.87-1.84c.75-1.6,1.82-3.93,3-6.87a102.58,102.58,0,0,0,6.22-23.84,48.79,48.79,0,0,0,0-13.5,31.7,31.7,0,0,0-3.44-10.44,26,26,0,0,0-4.44-6C284,216.08,283.17,215.5,283.2,215.46Z"/><g class="cls-30"><path d="M391.59,224.82a77.77,77.77,0,0,1-37.18-20.29s5.58,23.16,36,27.61Z"/></g></g></g></svg>