<svg id="Layer_1" data-name="Layer 1" xmlns="http://www.w3.org/2000/svg" viewBox="0 0 1929.43 37.27"><defs><style>.cls-1{fill:#edf1d6;}.cls-2{fill:#74a679;}</style></defs><rect class="cls-1" x="3.41" width="1926" height="35.49"/><path class="cls-2" d="M1621.36,35.11a7.92,7.92,0,0,1-1.12,0h-2.07Z" transform="translate(3.41 -0.51)"/><path class="cls-2" d="M1814.6,33.68h.34c-.37,0-.82,0-.92-.06C1813.67,33.66,1813.67,33.66,1814.6,33.68Z" transform="translate(3.41 -0.51)"/><path class="cls-2" d="M1765.94,34l-2.45-.06.72,0Z" transform="translate(3.41 -0.51)"/><path class="cls-2" d="M1647.94,35.23l-6.61-.08C1642,35.2,1644.55,35.25,1647.94,35.23Z" transform="translate(3.41 -0.51)"/><path class="cls-2" d="M1772.49,34.1l-6.55-.07C1767.93,34.07,1770.14,34.09,1772.49,34.1Z" transform="translate(3.41 -0.51)"/><path class="cls-2" d="M1906.33,33.75l-4.35-.06c-.1,0-.36,0-.33,0Z" transform="translate(3.41 -0.51)"/><path class="cls-2" d="M11.29,36.5c4.33,0,5.05,0,4.42-.1S13.65,36.46,11.29,36.5Z" transform="translate(3.41 -0.51)"/><path class="cls-2" d="M117.48,36.63l-2.27,0C116.84,36.65,118,36.64,117.48,36.63Z" transform="translate(3.41 -0.51)"/><path class="cls-2" d="M56.44,35.75c-.12,0-.4,0-.8-.06S55.42,35.73,56.44,35.75Z" transform="translate(3.41 -0.51)"/><path class="cls-2" d="M800,33.68l-2.57-.06C797.87,33.65,798.82,33.67,800,33.68Z" transform="translate(3.41 -0.51)"/><path class="cls-2" d="M939.88,33.5h0Z" transform="translate(3.41 -0.51)"/><path class="cls-2" d="M944,33.51h0Z" transform="translate(3.41 -0.51)"/><path class="cls-2" d="M1910.81,34.06c1.7,0,4.65-.07,7.21-.1s4.71-.06,4.8-.12l-16.49-.09C1912.19,33.85,1915.18,34,1910.81,34.06Z" transform="translate(3.41 -0.51)"/><path class="cls-2" d="M489.57,37.62c5.35,0,8,0,9.38,0l-9.65,0Z" transform="translate(3.41 -0.51)"/><path class="cls-2" d="M612.12,36.62h0Z" transform="translate(3.41 -0.51)"/><path class="cls-2" d="M480,37.73c-.62,0-1.31,0-1.67.06C480.36,37.78,480.47,37.76,480,37.73Z" transform="translate(3.41 -0.51)"/><path class="cls-2" d="M1593.92,35.56l-2.35,0Z" transform="translate(3.41 -0.51)"/><path class="cls-2" d="M604,36.44l8.14.18,3.67-.09C617.29,36.4,607.91,36.4,604,36.44Z" transform="translate(3.41 -0.51)"/><path class="cls-2" d="M480,37.73c2.13-.06,5.4-.1,9.3-.12l-4.43-.09C474.05,37.52,478.91,37.65,480,37.73Z" transform="translate(3.41 -0.51)"/><path class="cls-2" d="M2,36c2.52.05-.61.12-3,.16s-4.21.08,1,.13l10.37-.2c-1.72.1,4.18.23,5.35.33,4.16-.2-13.3-.36-1.08-.61,2.84-.12,12.12-.07,16.81,0-10.47,0,.27-.18,4.47-.25,6.44.09,16.75.06,19.73.19,1,0,6-.07,9.4,0l.33.07c7.7,0-2.61-.07-.64-.14,5.56,0,14.28.14,23.36.14-9.08,0-16.64.08-23.13.15,16.56.14-2.92.34-6.61.51,13.3-.07,18.39-.19,29.26-.29,13.22.15-1,.5-4.37.51,12.09-.08,24.74-.29,31.22-.36-9,.26-7.44.34-15.55.55,9.7.16,11.67,0,16.3-.12-2.7,0-6.88,0-7.86,0,11.52,0,9.55-.38,15.55-.55,8.51.12,24.74.18,23.65.42l-.11-.25c10-.06,5.18.13,6.73.22,3.72-.17-.92-.43,15.9-.48-2.59.41,15,0,14.53.42,7.85,0,11.43-.23,19.61-.18,9,.22-12.38.5-17.26.43-11.36,0,1.49-.17-3.06-.17L172,36.62c6.06.08,17.93.18,16.48.35,11-.07-8.9-.18,3.22-.27l7.3.1c12.09-.09-2.54-.29,13.23-.33-10.55.17,17.1,0,16.15.28.63-.34,28.26,0,31.54-.3l-8.35-.08,1.86.15c-9.09,0-16.64.09-26,0,7.38-.12-2.52-.29,6.06-.39,16.12-.2,4.3.18,6.57.18l12.83-.17L244.18,36c10-.06,23.62-.06,37.41,0,20.38.21-2.49.19,12.1.38,6.52-.07,4.93-.15,14.19-.12-5-.1-8.91,0-12.39,0-4.48-.22,16.6-.09,15.66-.29,3.8.08,3.07.17.07.25,15.59-.07,30.59,0,36.44.24l6.73-.25c26.68.1-18.25.22,4.2.4,9.26,0,18.37,0,22.42-.08h-8c6.13-.14,5.67-.24,15.48-.33,7,0,3.23.2,11.65.07,21.27.16,6.53.4,3.13.64,15.51.15-7.84.49,2.64.39l-2.83-.06,16.08-.34c-15.09-.3-6,.27-11.95,0l-9,0c2.82-.15,23.59,0,25.47-.2a7,7,0,0,1-2.13.18c-1.71.06-4.6.11-9.28.11l5.6.33c5.41,0,9-.18,12,0,8.07.21-11.79.32,8,.42,21.2.08,19.9-.32,34.3-.25-1.48-.08-5.06-.07-9.55-.08,4.68-.11-3.55-.21,4.33-.28,4.47.22,19.65.21,31.24.21-3,.12,4.41.24.78.31,5.87,0,11.3-.06,13.81-.16-23.59-.17,22.84-.17,4.51-.4,18.38,0,21.92.23,33.32.35-.75.07-21.16.12-4.86.23,18.73-.22-3.35-.32,11.22-.59l-11.78-.09c-1.48-.28,20.4,0,23.43-.11,7.27.07-10.13.07-3,.26,10.85.07,16.31-.1,23.24,0-6.75.18-2.45.11-10.13.27,25.46,0-1.3.22,18.14.35,6.18,0,2.25-.2,12.2-.15-5.81-.2-5.07-.27-21.16-.29,5.62-.29,21.16.09,32.4-.09-9,0-2.82-.06-12.56,0-1.32-.24-4.93-.29,3.95-.51-10.46.06-15,.32-30,.24-4.12-.25,18.36-.18,18.54-.51,7.45-.16,25.57,0,33.83.12,14.53-.2,32.36-.19,43.49-.48,10.5.1,36.72-.16,56.54-.06,3,.14,24.34.11,12.16.26,1.72-.05,18.17-.07,13.87-.2-1.69,0-3.55,0-7.1,0l3.16-.18c9.56.08,20.25-.14,29.42,0,3,.15-17.22.09-11.05.26,8.81-.26,44.74-.36,56.17-.24,7.68,0,8.59.27,11.79.3h12.9c1.51.07,1.71.16,4.11.25,6.36.06,10.68,0,14.62-.06,16.83.16,7.84.34-.79.48l-9.5-.08c-6.94.1-16.88,0-11.05.26,4.82,0,4.66-.11,6.36-.15l5.59.12c5.62-.09,21.17-.13,19.5-.29,11.4.13,24.5,0,34.61.13-6.94-.11,1.87-.17-.18-.29l-12.16-.06c9.73,0,23.78-.15,33,0-1.13.09-1.5.13,3.16.23-6.54-.14,17-.17,2.83-.35-5.24,0-10.12.07-16.88,0-4.44-.22,6.22-.24,12.19-.36L973,35.78c6.37.06,8.23.3,19.11.17-13.85-.22,13.09-.34,16.68-.55,10.48.1,17-.17,25.44,0-4.3.07-20.42.05-24.52.21-.59.16,3.55.41-12.37.48,19.13.09,11.24-.12,20-.18l-6.55,0c3-.06-2.65-.18,3.17-.18,22.45.07,26.39.23,41.56.44-3.38-.12,3.54-.22,7.12-.22,14.59.14-.19.32,8.76.56,5.08-.14,15-.09,11.65-.21,5.78,0,2.78.06,6.91.11,3.73-.13,8.06-.2,16.08-.19-.72.07-1.85.16-9.53.12,8.62.07,11.77.3,8,.42l-14-.09c-6.38.15,13.09.07,12.55.23-6.19,0-10.86-.07-14.8,0,3.94.17,16.08,0,23.2,0,11.24,0,7.12.2,7.29.28,19.11-.25-22.07-.31-4.28-.54,6.74-.19,23.77-.15,35.75-.18-10.29-.23,1.15-.31,13.5-.38-16.1,0-4.12-.25-23-.12l-.37-.17,25.64.09c-1.67,0,.19.09-2.45.12l24-.07-2.44.12c14.78,0,33,.17,41.76.11-7.12,0-13.29-.16-5.82-.21,4.32-.07,12.18-.15,18.91-.13,3.56.2,29,.21,12.92.4,20.77-.09,13.1-.13,33-.24l-13.3.05c-1.67-.16,9.38-.42-3.36-.53,15-.09,5.42-.38,25.47-.4,8.14.1-2.43.32-13.68.35,5.67,0,10.82.11,16.68,0,4.29.13-10.68.23-10.11.28,10.31,0-.2-.09,9.53-.13,17-.17,10.86.28,27.15.18-3.56,0-9.9-.05-5.62-.13,21.91,0,12.19-.15,28.09-.22,9,.24,5,.48,19.44.55h-8c5.61.12,12,.17,17.78.17,29.94-.18,54.67-.51,85.55-.67l-11,.05c-3.74-.08,9.21-.1,9-.18l6.91.11c1.88-.17-15.53-.17-11.41-.33.94,0,3.19,0,4.5,0l-6.38-.05c14.43.06,25.85-.23,36.71,0-28.1,0-4.31.49-31.83.56,14.58-.06,2.59.18,4.09.25,7.68,0,3.77-.12,12.39-.06-.2.12-18.75.21-10.51.31.94-.19,8.61-.15,12.34-.27,6.37.05-.16.12,2.64.18,3.55,0,5.63-.09,8.8-.06l-2.42.11c17.76.18,5.41-.17,25.62-.11.57-.15-5.62-.12-14-.09-4.28-.34,26-.35,24.36-.72,19.1,0-5.06.14,11.22.25,9,.23-12,.23-16.12.39l16.88.16c-5.64.29-16.12.19-19.12.45,12.55,0,11,0,23.79-.14-20.6-.24,9-.18-2.8-.48,9.53.08,6.54.14,20.39.15-8.79.06-.36.24-12,.24,18.72,0,13.66-.08,32.37-.09,5.83-.2-18.9-.28,3.6-.41,4.86,0,3.91.07,1.06.07,16.07.09-3.3-.26,6.8-.36,7,0,9.55.06,6.65.11,10.53-.11,4.7-.25,11.71-.29l-3.19,0c3-.06-5.22-.36,9.94-.36,11.06,0,7.59.12,7.86.19,8.59-.07,15.2,0,21.09.08-.6,0,.06-.09,2.67-.09,14.61-.05,8.4.19,13.84.22,20.81.12-2.6-.39,20.61-.38l-27-.09c1.13-.1,1.71-.25-4.11-.25-.54.15-10.11.28-19.11.25-2.6-.18,24.17-.18,9-.39,5.43,0,13,0,19.66,0-6.74.19,21.54.06,9.91.26,29.41,0,33.71.11,60.67,0-2.43.11-19.65.4-33.7.3l-1.14-.1c-17.59.11,13.69.13,10.5.31,21.71-.28,48.09.17,74.67.09-4.67-.11.59-.16,1.72-.26-10.68,0-8.81.06-16.66-.07,1.49-.13,7.87-.08,11.23-.17,2.8-.14-8,0-11.81-.09,10.14-.07,9.18-.09,15.19-.21,5.61.12,4.85.19,9.17.33,25.08,0,22.27-.22,42.49-.15-11.22,0,5.26.15-6.93.09l6.75,0c-17.42.21-47.37.17-44.39.53,14.23,0,24.55-.21,41.93-.21l-.73.07c12.56,0-.19-.09,2.79-.15,14.05-.1,18.17.36,27.89.12l-14.39-.07c10.86-.13-3.18,0-.57-.26,9.64-.08,22.8-.08,37-.08h21.68c7.28,0,14.49,0,21.32,0-7.86-.14-10.1-.15-20.41-.18,4.67-.3,8.81-.25,3.77-.53l-12.55,0-.19-.29c3.43,0,6.83,0,9.88,0,1.72-.18,19,.1,19.89-.08H1911.2c-5.25-.16,7.32-.12,14.81-.16-3.55-.1-9.36-.11-16.18-.1s-14.63.06-22.21.06c1.1.1-14,.31.74.34-.09.06-2.34.11-5.3.14s-6.61,0-9.51,0c3,0-11.41-.33,2.27-.4-13.11.13-5.81,0-20.41,0,2-.08-25.47,0-23.78-.28-4.64.11.24.38-16.69.38,4.11.18,23,.22,10.33.39l8.23-.11c11.79.1-3.22.18,12.17.27-4.52,0-13.69.07-15.73,0,3.94.37-22.84.16-23.59.43-3.39-.11-7.87-.13-16.33-.1,1.15-.1-3.52-.2,3-.27,5.42,0,9.35,0,15.35.09-3.33-.37-21.88-.14-35.92-.23,2,0,2.53.07-1.36.12-8.57-.06-27.5-.14-22.07-.31h-43.24c-.2-.09,6.17,0,8.81-.06l-24.15,0c-5.63-.12,8.22-.11,10.65-.23h-17.41l2.43-.11c-4.28.07-24.33.09-29.19-.1-19.09,0-18.74.42-44.57.24.95-.19,14.61-.06,20.6-.18-5-.07-20.41.06-23-.12-18.53.09-16.49.43-25.47.6-15.16,0-1.68-.16-2.28-.21-4.47,0-11.78.33-15.87.07-7.31.13-11.44.29-.58.36-8.06,0-19.48.08-21.52.16,6.52-.28-9.19-.12-10.1-.35-12.2,0-39.15-.14-50.57.15l3.39-.29-14.24,0c-10.65-.19,12.54-.19,19.66-.2-19.29,0-32.21,0-49.61,0a31.56,31.56,0,0,1,4.47.22c-6,.12-14.21,0-20.4,0-1.51-.07-.74-.14,4.11-.15l-12,0c1-.19-4.88-.19,6.94-.31l-11,0c-12.18,0,.55-.15,3.55-.21l-19.28,0c-6.91.1,3.93.16-9.36.21-17.77-.18-40.45-.13-60.66-.19l14.23.18a118.32,118.32,0,0,0-13.49.37c-11.24,0-26.4,0-35.93-.11,10.85-.14,6.37-.36-3.74-.49-22.83,0-17.23.29-30,.38,9.91-.36-15.92-.13-13.68-.33-29,0-58.21.11-88.19.09.59.05,9.19.11,3.93.16-11,0-16.27-.1-17.77-.17-14.24,0-22.45.13-27.15.24,6.19,0,6.75,0,5.6.12-14.22,0-10.28-.22-23.77-.06-3.55-.2,15-.09,13.69-.28-12.56,0-20.43.06-29.6.15-2.07-.13,8.42,0,1.49-.13l-57.47.25-3.93-.17c-9.35,0-15.54,0-19.84.11-5.06-.07-1.11-.11,3.75-.13-12.54,0-27.9.11-35,.12,1.13-.1,7.12,0,9.19-.09-15.72-.05-35.57.27-45.88,0,1.34,0,2.87,0,4.28,0-23.29,0-43.58.09-68.88.09-23.19-.21-7.48.25-30.31.22a34.5,34.5,0,0,0-5.07-.2c-3.07,0-7.25,0-11.73,0-8.95,0-19.08.11-23.89.07l3.06.06c-11.25.17-26.78,0-34.65-.12-17,0-42.5,0-59.52.12l3.38-.09c-14.06.11-22.83,0-36.91.07.38,0,5.64-.08.19-.12-67.77-.17-136.87.07-204.43,0-129.37-.18-290.47-.35-417.79-.13l-9.3.3c-5.52.17-12.78.43-19.77.69C10.3,35-2.53,35.6,2,36Z" transform="translate(3.41 -0.51)"/><path class="cls-2" d="M1580.47,35.81h0Z" transform="translate(3.41 -0.51)"/><path class="cls-2" d="M1276.67,35.45h0Z" transform="translate(3.41 -0.51)"/><path class="cls-2" d="M1017.38,35.92l5.42,0Z" transform="translate(3.41 -0.51)"/><path class="cls-2" d="M623.82,36.54c2.06.13-8.63.35.55.47,32.18,0,13.69-.49,46.82-.44l-16.83-.16c.9.23-10.89.35-23.8.36l-3.94-.17c2.21-.05,4.57-.09,7-.12C628.78,36.46,629.7,36.59,623.82,36.54Z" transform="translate(3.41 -0.51)"/><path class="cls-2" d="M634.86,36.49h0Z" transform="translate(3.41 -0.51)"/></svg>